<?xml version="1.0" encoding="utf-8" standalone="no"?>
<!DOCTYPE svg PUBLIC "-//W3C//DTD SVG 1.1//EN"
  "http://www.w3.org/Graphics/SVG/1.1/DTD/svg11.dtd">
<svg xmlns:xlink="http://www.w3.org/1999/xlink" width="352.8pt" height="252pt" viewBox="0 0 352.8 252" xmlns="http://www.w3.org/2000/svg" version="1.1">
 <metadata>
  <rdf:RDF xmlns:dc="http://purl.org/dc/elements/1.1/" xmlns:cc="http://creativecommons.org/ns#" xmlns:rdf="http://www.w3.org/1999/02/22-rdf-syntax-ns#">
   <cc:Work>
    <dc:type rdf:resource="http://purl.org/dc/dcmitype/StillImage"/>
    <dc:date>2022-11-02T17:44:48.279845</dc:date>
    <dc:format>image/svg+xml</dc:format>
    <dc:creator>
     <cc:Agent>
      <dc:title>Matplotlib v3.5.2, https://matplotlib.org/</dc:title>
     </cc:Agent>
    </dc:creator>
   </cc:Work>
  </rdf:RDF>
 </metadata>
 <defs>
  <style type="text/css">*{stroke-linejoin: round; stroke-linecap: butt}</style>
 </defs>
 <g id="figure_1">
  <g id="patch_1">
   <path d="M 0 252 
L 352.8 252 
L 352.8 0 
L 0 0 
z
" style="fill: #ffffff"/>
  </g>
  <g id="axes_1">
   <g id="patch_2">
    <path d="M 48.792183 222.188611 
L 337.873426 222.188611 
L 337.873426 11.88 
L 48.792183 11.88 
z
" style="fill: #ffffff"/>
   </g>
   <g id="matplotlib.axis_1">
    <g id="xtick_1">
     <g id="line2d_1">
      <path d="M 48.792183 222.188611 
L 48.792183 11.88 
" clip-path="url(#pbbb48bfd19)" style="fill: none; stroke: #b0b0b0; stroke-opacity: 0.3; stroke-width: 0.8; stroke-linecap: square"/>
     </g>
     <g id="line2d_2">
      <defs>
       <path id="mfdc7c65f41" d="M 0 0 
L 0 3.5 
" style="stroke: #000000; stroke-width: 0.8"/>
      </defs>
      <g>
       <use xlink:href="#mfdc7c65f41" x="48.792183" y="222.188611" style="stroke: #000000; stroke-width: 0.8"/>
      </g>
     </g>
     <g id="text_1">
      <!-- $\mathbf{\Gamma}$ -->
      <g transform="translate(45.745609 237.02966)scale(0.11 -0.11)">
       <defs>
        <path id="PazoMath-Bold-47" d="M 1626 3962 
C 1978 3981 2131 3981 2368 3981 
C 2803 3981 3072 3936 3078 3860 
L 3130 3383 
L 3360 3383 
L 3450 4287 
L 3411 4332 
C 3174 4345 3046 4352 2803 4352 
L 2477 4352 
C 1498 4352 1498 4332 1325 4332 
C 1088 4332 813 4339 179 4352 
L 179 4115 
L 416 4095 
C 704 4070 723 4032 723 3472 
L 723 879 
C 723 313 717 300 416 275 
L 179 256 
L 179 0 
C 717 -7 947 0 1171 0 
C 1389 19 1632 12 2234 0 
L 2234 256 
L 1933 275 
C 1638 294 1626 319 1626 879 
L 1626 3962 
z
" transform="scale(0.015625)"/>
       </defs>
       <use xlink:href="#PazoMath-Bold-47" transform="scale(0.996264)"/>
      </g>
     </g>
    </g>
    <g id="xtick_2">
     <g id="line2d_3">
      <path d="M 155.05237 222.188611 
L 155.05237 11.88 
" clip-path="url(#pbbb48bfd19)" style="fill: none; stroke: #b0b0b0; stroke-opacity: 0.3; stroke-width: 0.8; stroke-linecap: square"/>
     </g>
     <g id="line2d_4">
      <g>
       <use xlink:href="#mfdc7c65f41" x="155.05237" y="222.188611" style="stroke: #000000; stroke-width: 0.8"/>
      </g>
     </g>
     <g id="text_2">
      <!-- $\mathbf{M}$ -->
      <g transform="translate(149.572918 237.02966)scale(0.11 -0.11)">
       <defs>
        <path id="URWPalladioL-Bold-4d" d="M 4749 3545 
L 4749 883 
C 4749 313 4742 300 4442 275 
L 4205 256 
L 4205 0 
C 4979 0 4979 0 5197 0 
C 5414 19 5421 19 6195 0 
L 6195 256 
L 5958 275 
C 5658 300 5651 313 5651 879 
L 5651 3472 
C 5651 4032 5670 4070 5958 4095 
L 6195 4115 
L 6195 4352 
C 5523 4332 5523 4332 5453 4332 
C 5382 4332 5382 4332 4717 4352 
C 4531 3911 4474 3778 4403 3631 
L 3232 1228 
L 2221 3326 
C 2144 3485 2016 3752 1741 4352 
L 973 4332 
C 870 4332 723 4339 531 4345 
C 435 4345 429 4345 205 4352 
L 205 4115 
L 442 4095 
C 730 4070 749 4032 749 3472 
L 749 879 
C 749 319 730 281 442 256 
L 205 236 
L 205 0 
C 819 0 819 0 941 0 
C 1069 19 1363 12 1670 0 
L 1670 236 
L 1434 256 
C 1146 281 1126 313 1126 883 
L 1126 3552 
L 2598 486 
C 2643 371 2714 217 2829 -64 
L 3046 -64 
C 3168 230 3194 294 3430 780 
L 4749 3545 
z
" transform="scale(0.015625)"/>
       </defs>
       <use xlink:href="#URWPalladioL-Bold-4d" transform="scale(0.996264)"/>
      </g>
     </g>
    </g>
    <g id="xtick_3">
     <g id="line2d_5">
      <path d="M 216.401718 222.188611 
L 216.401718 11.88 
" clip-path="url(#pbbb48bfd19)" style="fill: none; stroke: #b0b0b0; stroke-opacity: 0.3; stroke-width: 0.8; stroke-linecap: square"/>
     </g>
     <g id="line2d_6">
      <g>
       <use xlink:href="#mfdc7c65f41" x="216.401718" y="222.188611" style="stroke: #000000; stroke-width: 0.8"/>
      </g>
     </g>
     <g id="text_3">
      <!-- $\mathbf{K}$ -->
      <g transform="translate(212.138758 237.02966)scale(0.11 -0.11)">
       <defs>
        <path id="URWPalladioL-Bold-4b" d="M 1696 2201 
L 1696 3472 
C 1696 4038 1702 4051 2003 4076 
L 2240 4095 
L 2240 4352 
C 1459 4332 1459 4332 1242 4332 
C 1024 4332 1018 4332 250 4352 
L 250 4095 
L 486 4076 
C 787 4051 794 4038 794 3472 
L 794 879 
C 794 313 787 300 486 275 
L 250 256 
L 250 0 
C 1024 0 1024 0 1242 0 
C 1459 19 1466 19 2240 0 
L 2240 256 
L 2003 275 
C 1702 300 1696 313 1696 883 
L 1696 2144 
C 1862 2048 1888 2022 2253 1593 
L 3584 0 
L 4237 0 
C 4282 0 4339 0 4666 -13 
C 4698 6 4774 6 4883 0 
L 4883 262 
C 4646 268 4499 351 4301 580 
L 2598 2570 
L 4019 3886 
C 4173 4025 4320 4070 4723 4102 
L 4723 4352 
C 4352 4339 4237 4332 4141 4332 
C 4045 4332 3930 4339 3558 4352 
L 3558 4191 
C 3558 4095 3526 4038 3392 3898 
C 3386 3886 3360 3854 3328 3822 
C 3168 3644 3014 3485 2957 3428 
L 1696 2201 
z
" transform="scale(0.015625)"/>
       </defs>
       <use xlink:href="#URWPalladioL-Bold-4b" transform="scale(0.996264)"/>
      </g>
     </g>
    </g>
    <g id="xtick_4">
     <g id="line2d_7">
      <path d="M 337.873426 222.188611 
L 337.873426 11.88 
" clip-path="url(#pbbb48bfd19)" style="fill: none; stroke: #b0b0b0; stroke-opacity: 0.3; stroke-width: 0.8; stroke-linecap: square"/>
     </g>
     <g id="line2d_8">
      <g>
       <use xlink:href="#mfdc7c65f41" x="337.873426" y="222.188611" style="stroke: #000000; stroke-width: 0.8"/>
      </g>
     </g>
     <g id="text_4">
      <!-- $\mathbf{\Gamma}$ -->
      <g transform="translate(334.826852 237.02966)scale(0.11 -0.11)">
       <use xlink:href="#PazoMath-Bold-47" transform="scale(0.996264)"/>
      </g>
     </g>
    </g>
   </g>
   <g id="matplotlib.axis_2">
    <g id="ytick_1">
     <g id="line2d_9">
      <path d="M 48.792183 212.629129 
L 337.873426 212.629129 
" clip-path="url(#pbbb48bfd19)" style="fill: none; stroke: #b0b0b0; stroke-opacity: 0.3; stroke-width: 0.8; stroke-linecap: square"/>
     </g>
     <g id="line2d_10">
      <defs>
       <path id="md6052deb0c" d="M 0 0 
L -3.5 0 
" style="stroke: #000000; stroke-width: 0.8"/>
      </defs>
      <g>
       <use xlink:href="#md6052deb0c" x="48.792183" y="212.629129" style="stroke: #000000; stroke-width: 0.8"/>
      </g>
     </g>
     <g id="text_5">
      <!-- $\mathdefault{−3}$ -->
      <g transform="translate(27.299153 216.549653)scale(0.11 -0.11)">
       <defs>
        <path id="CMSY10-0" d="M 4218 1472 
C 4326 1472 4442 1472 4442 1600 
C 4442 1728 4326 1728 4218 1728 
L 755 1728 
C 646 1728 531 1728 531 1600 
C 531 1472 646 1472 755 1472 
L 4218 1472 
z
" transform="scale(0.015625)"/>
        <path id="URWPalladioL-Roma-33" d="M 275 3196 
L 474 3196 
L 589 3553 
C 659 3770 1062 3987 1395 3987 
C 1811 3987 2150 3649 2150 3247 
C 2150 2769 1773 2368 1318 2368 
C 1267 2368 1197 2374 1114 2380 
L 1018 2387 
L 941 2047 
L 986 2008 
C 1229 2118 1350 2150 1523 2150 
C 2054 2150 2362 1808 2362 1222 
C 2362 565 1971 134 1376 134 
C 1082 134 819 231 627 411 
C 474 553 390 701 269 1048 
L 96 984 
C 230 591 282 359 320 38 
C 659 -77 941 -128 1178 -128 
C 1690 -128 2278 160 2630 591 
C 2848 855 2957 1139 2957 1441 
C 2957 1750 2829 2021 2598 2182 
C 2438 2297 2291 2348 1971 2406 
C 2483 2801 2675 3094 2675 3470 
C 2675 4038 2202 4416 1491 4416 
C 1056 4416 768 4294 461 3987 
L 275 3196 
z
" transform="scale(0.015625)"/>
       </defs>
       <use xlink:href="#CMSY10-0" transform="scale(1.038107)"/>
       <use xlink:href="#URWPalladioL-Roma-33" transform="translate(81.941696 0)scale(0.996264)"/>
      </g>
     </g>
    </g>
    <g id="ytick_2">
     <g id="line2d_11">
      <path d="M 48.792183 180.764188 
L 337.873426 180.764188 
" clip-path="url(#pbbb48bfd19)" style="fill: none; stroke: #b0b0b0; stroke-opacity: 0.3; stroke-width: 0.8; stroke-linecap: square"/>
     </g>
     <g id="line2d_12">
      <g>
       <use xlink:href="#md6052deb0c" x="48.792183" y="180.764188" style="stroke: #000000; stroke-width: 0.8"/>
      </g>
     </g>
     <g id="text_6">
      <!-- $\mathdefault{−2}$ -->
      <g transform="translate(27.299153 184.684712)scale(0.11 -0.11)">
       <defs>
        <path id="URWPalladioL-Roma-32" d="M 102 166 
L 102 0 
C 1299 0 1299 0 1530 0 
C 1760 19 1760 19 2995 0 
C 2982 134 2982 198 2982 287 
C 2982 370 2982 434 2995 574 
C 2259 542 1965 536 781 510 
L 1946 1741 
C 2566 2398 2758 2749 2758 3228 
C 2758 3961 2259 4416 1446 4416 
C 986 4416 672 4287 358 3967 
L 250 3100 
L 435 3100 
L 518 3394 
C 621 3763 851 3923 1280 3923 
C 1830 3923 2182 3578 2182 3036 
C 2182 2558 1914 2086 1190 1320 
L 102 166 
z
" transform="scale(0.015625)"/>
       </defs>
       <use xlink:href="#CMSY10-0" transform="scale(1.038107)"/>
       <use xlink:href="#URWPalladioL-Roma-32" transform="translate(81.941696 0)scale(0.996264)"/>
      </g>
     </g>
    </g>
    <g id="ytick_3">
     <g id="line2d_13">
      <path d="M 48.792183 148.899247 
L 337.873426 148.899247 
" clip-path="url(#pbbb48bfd19)" style="fill: none; stroke: #b0b0b0; stroke-opacity: 0.3; stroke-width: 0.8; stroke-linecap: square"/>
     </g>
     <g id="line2d_14">
      <g>
       <use xlink:href="#md6052deb0c" x="48.792183" y="148.899247" style="stroke: #000000; stroke-width: 0.8"/>
      </g>
     </g>
     <g id="text_7">
      <!-- $\mathdefault{−1}$ -->
      <g transform="translate(27.299153 152.819771)scale(0.11 -0.11)">
       <defs>
        <path id="URWPalladioL-Roma-31" d="M 429 3571 
L 493 3571 
L 1318 3942 
C 1325 3949 1331 3949 1338 3949 
C 1376 3949 1389 3891 1389 3737 
L 1389 633 
C 1389 300 1318 230 973 211 
L 614 192 
L 614 0 
C 1600 0 1600 0 1670 0 
C 1754 0 1894 0 2112 -7 
C 2189 6 2413 6 2675 0 
L 2675 192 
L 2342 211 
C 1990 229 1926 299 1926 628 
L 1926 4383 
L 1837 4416 
C 1421 4199 966 4009 384 3807 
L 429 3571 
z
" transform="scale(0.015625)"/>
       </defs>
       <use xlink:href="#CMSY10-0" transform="scale(1.038107)"/>
       <use xlink:href="#URWPalladioL-Roma-31" transform="translate(81.941696 0)scale(0.996264)"/>
      </g>
     </g>
    </g>
    <g id="ytick_4">
     <g id="line2d_15">
      <path d="M 48.792183 117.034306 
L 337.873426 117.034306 
" clip-path="url(#pbbb48bfd19)" style="fill: none; stroke: #b0b0b0; stroke-opacity: 0.3; stroke-width: 0.8; stroke-linecap: square"/>
     </g>
     <g id="line2d_16">
      <g>
       <use xlink:href="#md6052deb0c" x="48.792183" y="117.034306" style="stroke: #000000; stroke-width: 0.8"/>
      </g>
     </g>
     <g id="text_8">
      <!-- $\mathdefault{0}$ -->
      <g transform="translate(36.312731 120.95483)scale(0.11 -0.11)">
       <defs>
        <path id="URWPalladioL-Roma-30" d="M 1683 4416 
C 691 4416 186 3628 186 2076 
C 186 1326 320 679 544 365 
C 768 51 1126 -128 1523 -128 
C 2490 -128 2976 704 2976 2345 
C 2976 3749 2560 4416 1683 4416 
z
M 1568 4191 
C 2189 4191 2438 3563 2438 2025 
C 2438 660 2195 96 1606 96 
C 986 96 723 743 723 2307 
C 723 3660 960 4191 1568 4191 
z
" transform="scale(0.015625)"/>
       </defs>
       <use xlink:href="#URWPalladioL-Roma-30" transform="scale(0.996264)"/>
      </g>
     </g>
    </g>
    <g id="ytick_5">
     <g id="line2d_17">
      <path d="M 48.792183 85.169364 
L 337.873426 85.169364 
" clip-path="url(#pbbb48bfd19)" style="fill: none; stroke: #b0b0b0; stroke-opacity: 0.3; stroke-width: 0.8; stroke-linecap: square"/>
     </g>
     <g id="line2d_18">
      <g>
       <use xlink:href="#md6052deb0c" x="48.792183" y="85.169364" style="stroke: #000000; stroke-width: 0.8"/>
      </g>
     </g>
     <g id="text_9">
      <!-- $\mathdefault{1}$ -->
      <g transform="translate(36.312731 89.089889)scale(0.11 -0.11)">
       <use xlink:href="#URWPalladioL-Roma-31" transform="scale(0.996264)"/>
      </g>
     </g>
    </g>
    <g id="ytick_6">
     <g id="line2d_19">
      <path d="M 48.792183 53.304423 
L 337.873426 53.304423 
" clip-path="url(#pbbb48bfd19)" style="fill: none; stroke: #b0b0b0; stroke-opacity: 0.3; stroke-width: 0.8; stroke-linecap: square"/>
     </g>
     <g id="line2d_20">
      <g>
       <use xlink:href="#md6052deb0c" x="48.792183" y="53.304423" style="stroke: #000000; stroke-width: 0.8"/>
      </g>
     </g>
     <g id="text_10">
      <!-- $\mathdefault{2}$ -->
      <g transform="translate(36.312731 57.224948)scale(0.11 -0.11)">
       <use xlink:href="#URWPalladioL-Roma-32" transform="scale(0.996264)"/>
      </g>
     </g>
    </g>
    <g id="ytick_7">
     <g id="line2d_21">
      <path d="M 48.792183 21.439482 
L 337.873426 21.439482 
" clip-path="url(#pbbb48bfd19)" style="fill: none; stroke: #b0b0b0; stroke-opacity: 0.3; stroke-width: 0.8; stroke-linecap: square"/>
     </g>
     <g id="line2d_22">
      <g>
       <use xlink:href="#md6052deb0c" x="48.792183" y="21.439482" style="stroke: #000000; stroke-width: 0.8"/>
      </g>
     </g>
     <g id="text_11">
      <!-- $\mathdefault{3}$ -->
      <g transform="translate(36.312731 25.360007)scale(0.11 -0.11)">
       <use xlink:href="#URWPalladioL-Roma-33" transform="scale(0.996264)"/>
      </g>
     </g>
    </g>
    <g id="text_12">
     <!-- $\varepsilon(\mathbf{k})/t_1$ -->
     <g transform="translate(20.208813 134.850589)rotate(-90)scale(0.11 -0.11)">
      <defs>
       <path id="PazoMath-Italic-23" d="M 1971 2663 
L 1952 2243 
L 2131 2243 
C 2163 2529 2221 2695 2304 2924 
C 2093 3040 1779 3104 1562 3104 
C 1274 3104 1037 2988 774 2803 
C 582 2669 326 2389 326 2154 
C 326 1893 531 1721 890 1651 
C 742 1606 576 1497 365 1323 
C 154 1156 96 905 96 725 
C 96 500 173 371 262 256 
C 454 12 800 -64 1146 -64 
C 1466 -64 1824 102 2330 500 
L 2253 609 
C 1914 365 1606 256 1376 256 
C 1062 256 627 397 627 809 
C 627 1207 768 1535 1389 1535 
C 1549 1535 1683 1523 1792 1490 
C 1792 1529 1824 1683 1843 1728 
L 1830 1791 
C 1696 1747 1568 1728 1440 1728 
C 1050 1728 787 1899 787 2237 
C 787 2593 1146 2880 1510 2880 
C 1645 2880 1741 2854 1843 2809 
C 1939 2771 1965 2676 1971 2663 
z
" transform="scale(0.015625)"/>
       <path id="CMR10-28" d="M 2118 -1536 
C 2118 -1517 2118 -1504 2010 -1396 
C 1210 -589 1005 620 1005 1600 
C 1005 2713 1248 3827 2035 4627 
C 2118 4704 2118 4716 2118 4736 
C 2118 4780 2093 4800 2054 4800 
C 1990 4800 1414 4365 1037 3552 
C 710 2848 634 2137 634 1600 
C 634 1100 704 326 1056 -397 
C 1440 -1184 1990 -1600 2054 -1600 
C 2093 -1600 2118 -1581 2118 -1536 
z
" transform="scale(0.015625)"/>
       <path id="URWPalladioL-Bold-6b" d="M 1370 4627 
L 909 4486 
C 723 4428 506 4390 134 4352 
L 134 4121 
L 474 4102 
C 614 4095 640 4031 640 3649 
L 640 657 
C 640 313 608 262 410 249 
L 186 236 
L 186 0 
L 1011 19 
C 1139 19 1446 12 1875 0 
L 1875 236 
L 1651 249 
C 1453 262 1421 313 1421 657 
L 1421 1459 
L 1485 1459 
L 2163 695 
C 2259 587 2624 140 2720 19 
L 3821 19 
L 3821 236 
C 3686 249 3584 313 3469 440 
L 2214 1841 
L 2266 1892 
C 2458 2083 2643 2255 2714 2299 
L 3110 2586 
C 3213 2662 3322 2700 3418 2700 
L 3616 2700 
L 3616 2944 
L 2784 2944 
L 2099 2223 
C 1952 2070 1779 1911 1421 1605 
L 1421 4588 
L 1370 4627 
z
" transform="scale(0.015625)"/>
       <path id="CMR10-29" d="M 1850 1600 
C 1850 2099 1779 2873 1427 3597 
C 1043 4384 493 4800 429 4800 
C 390 4800 365 4774 365 4736 
C 365 4716 365 4704 486 4589 
C 1114 3955 1478 2937 1478 1600 
C 1478 505 1242 -621 448 -1428 
C 365 -1504 365 -1517 365 -1536 
C 365 -1575 390 -1600 429 -1600 
C 493 -1600 1069 -1165 1446 -352 
C 1773 352 1850 1062 1850 1600 
z
" transform="scale(0.015625)"/>
       <path id="URWPalladioL-Roma-2f" d="M 3322 4646 
L 2938 4646 
L 557 -762 
L 941 -762 
L 3322 4646 
z
" transform="scale(0.015625)"/>
       <path id="URWPalladioL-Ital-74" d="M 800 2489 
L 442 678 
C 435 633 429 620 410 544 
C 371 364 358 268 358 192 
C 358 32 429 -64 550 -64 
C 774 -64 998 64 1498 467 
L 1594 544 
L 1696 627 
L 1632 742 
L 1344 544 
C 1158 416 1030 352 960 352 
C 902 352 870 403 870 480 
C 870 646 960 1164 1146 2092 
L 1229 2489 
L 1914 2489 
L 1984 2809 
C 1741 2784 1523 2771 1280 2771 
C 1382 3373 1453 3686 1568 4032 
L 1498 4128 
C 1370 4051 1197 3974 998 3897 
L 838 2809 
C 557 2675 390 2604 275 2572 
L 262 2489 
L 800 2489 
z
" transform="scale(0.015625)"/>
      </defs>
      <use xlink:href="#PazoMath-Italic-23" transform="scale(0.996264)"/>
      <use xlink:href="#CMR10-28" transform="translate(39.950178 0)scale(1.038107)"/>
      <use xlink:href="#URWPalladioL-Bold-6b" transform="translate(82.689882 0)scale(0.996264)"/>
      <use xlink:href="#CMR10-29" transform="translate(146.051291 0)scale(1.038107)"/>
      <use xlink:href="#URWPalladioL-Roma-2f" transform="translate(188.790996 0)scale(0.996264)"/>
      <use xlink:href="#URWPalladioL-Ital-74" transform="translate(251.6552 0)scale(0.996264)"/>
      <use xlink:href="#URWPalladioL-Roma-31" transform="translate(286.075183 -18.577338)scale(0.757155)"/>
     </g>
    </g>
   </g>
   <g id="line2d_23">
    <path d="M 48.792183 212.629129 
L 51.979989 212.534804 
L 55.167794 212.252108 
L 58.3556 211.781881 
L 61.543405 211.125525 
L 64.731211 210.285008 
L 67.919017 209.262872 
L 72.169424 207.622993 
L 76.419832 205.674922 
L 80.670239 203.429681 
L 84.920647 200.900353 
L 89.171054 198.102237 
L 93.421462 195.053058 
L 98.734471 190.919981 
L 104.04748 186.473839 
L 110.423091 180.805921 
L 118.923906 172.893332 
L 128.487323 163.991304 
L 133.800333 159.355122 
L 138.05074 155.992676 
L 141.238546 153.768675 
L 144.426351 151.87908 
L 146.551555 150.842202 
L 148.676759 150.008762 
L 150.801963 149.397874 
L 152.927166 149.024756 
L 155.05237 148.899247 
L 158.733331 148.77349 
L 162.414292 148.396717 
L 166.095253 147.770415 
L 169.776213 146.897055 
L 173.457174 145.780084 
L 177.138135 144.42391 
L 180.819096 142.833886 
L 184.500057 141.016286 
L 188.181018 138.978284 
L 192.475472 136.332828 
L 196.769926 133.41257 
L 201.064381 130.233196 
L 205.972329 126.304307 
L 210.880276 122.086885 
L 216.401718 117.034306 
L 222.536652 122.977968 
L 229.898574 130.479284 
L 238.487483 139.589392 
L 266.708183 169.857879 
L 274.070104 177.235794 
L 280.205039 183.047425 
L 285.112987 187.430277 
L 290.020935 191.542861 
L 294.928883 195.356331 
L 299.83683 198.843938 
L 303.517791 201.230989 
L 307.198752 203.41151 
L 310.879713 205.376896 
L 314.560674 207.119391 
L 318.241635 208.632117 
L 321.922596 209.909105 
L 325.603556 210.945315 
L 329.284517 211.736658 
L 332.965478 212.28001 
L 336.646439 212.573227 
L 337.873426 212.615152 
L 337.873426 212.615152 
" clip-path="url(#pbbb48bfd19)" style="fill: none; stroke: #1f77b4; stroke-width: 1.5; stroke-linecap: square"/>
   </g>
   <g id="line2d_24">
    <path d="M 48.792183 212.629129 
L 51.979989 212.534804 
L 55.167794 212.252108 
L 58.3556 211.781881 
L 61.543405 211.125525 
L 64.731211 210.285008 
L 67.919017 209.262872 
L 72.169424 207.622993 
L 76.419832 205.674922 
L 80.670239 203.429681 
L 84.920647 200.900353 
L 89.171054 198.102237 
L 93.421462 195.053058 
L 98.734471 190.919981 
L 104.04748 186.473839 
L 110.423091 180.805921 
L 118.923906 172.893332 
L 128.487323 163.991304 
L 133.800333 159.355122 
L 138.05074 155.992676 
L 141.238546 153.768675 
L 144.426351 151.87908 
L 146.551555 150.842202 
L 148.676759 150.008762 
L 150.801963 149.397874 
L 152.927166 149.024756 
L 155.05237 148.899247 
L 158.733331 148.77349 
L 162.414292 148.396717 
L 166.095253 147.770415 
L 169.776213 146.897055 
L 173.457174 145.780084 
L 177.138135 144.42391 
L 180.819096 142.833886 
L 184.500057 141.016286 
L 188.181018 138.978284 
L 192.475472 136.332828 
L 196.769926 133.41257 
L 201.064381 130.233196 
L 205.972329 126.304307 
L 210.880276 122.086885 
L 216.401718 117.034306 
L 222.536652 122.977968 
L 229.898574 130.479284 
L 238.487483 139.589392 
L 266.708183 169.857879 
L 274.070104 177.235794 
L 280.205039 183.047425 
L 285.112987 187.430277 
L 290.020935 191.542861 
L 294.928883 195.356331 
L 299.83683 198.843938 
L 303.517791 201.230989 
L 307.198752 203.41151 
L 310.879713 205.376896 
L 314.560674 207.119391 
L 318.241635 208.632117 
L 321.922596 209.909105 
L 325.603556 210.945315 
L 329.284517 211.736658 
L 332.965478 212.28001 
L 336.646439 212.573227 
L 337.873426 212.615152 
L 337.873426 212.615152 
" clip-path="url(#pbbb48bfd19)" style="fill: none; stroke: #1f77b4; stroke-width: 1.5; stroke-linecap: square"/>
   </g>
   <g id="line2d_25">
    <path d="M 48.792183 21.439482 
L 51.979989 21.533807 
L 55.167794 21.816503 
L 58.3556 22.28673 
L 61.543405 22.943086 
L 64.731211 23.783603 
L 67.919017 24.805739 
L 72.169424 26.445618 
L 76.419832 28.393689 
L 80.670239 30.63893 
L 84.920647 33.168258 
L 89.171054 35.966375 
L 93.421462 39.015553 
L 98.734471 43.14863 
L 104.04748 47.594772 
L 110.423091 53.26269 
L 118.923906 61.175279 
L 128.487323 70.077308 
L 133.800333 74.713489 
L 138.05074 78.075935 
L 141.238546 80.299936 
L 144.426351 82.189531 
L 146.551555 83.226409 
L 148.676759 84.059849 
L 150.801963 84.670737 
L 152.927166 85.043855 
L 155.05237 85.169364 
L 158.733331 85.295121 
L 162.414292 85.671894 
L 166.095253 86.298196 
L 169.776213 87.171556 
L 173.457174 88.288527 
L 177.138135 89.644701 
L 180.819096 91.234725 
L 184.500057 93.052325 
L 188.181018 95.090327 
L 192.475472 97.735784 
L 196.769926 100.656041 
L 201.064381 103.835415 
L 205.972329 107.764304 
L 210.880276 111.981726 
L 216.401718 117.034306 
L 222.536652 111.090643 
L 229.898574 103.589327 
L 238.487483 94.479219 
L 266.708183 64.210732 
L 274.070104 56.832817 
L 280.205039 51.021186 
L 285.112987 46.638334 
L 290.020935 42.52575 
L 294.928883 38.71228 
L 299.83683 35.224673 
L 303.517791 32.837622 
L 307.198752 30.657101 
L 310.879713 28.691715 
L 314.560674 26.94922 
L 318.241635 25.436494 
L 321.922596 24.159506 
L 325.603556 23.123296 
L 329.284517 22.331953 
L 332.965478 21.788601 
L 336.646439 21.495384 
L 337.873426 21.453459 
L 337.873426 21.453459 
" clip-path="url(#pbbb48bfd19)" style="fill: none; stroke: #1f77b4; stroke-width: 1.5; stroke-linecap: square"/>
   </g>
   <g id="line2d_26">
    <path d="M 48.792183 21.439482 
L 51.979989 21.533807 
L 55.167794 21.816503 
L 58.3556 22.28673 
L 61.543405 22.943086 
L 64.731211 23.783603 
L 67.919017 24.805739 
L 72.169424 26.445618 
L 76.419832 28.393689 
L 80.670239 30.63893 
L 84.920647 33.168258 
L 89.171054 35.966375 
L 93.421462 39.015553 
L 98.734471 43.14863 
L 104.04748 47.594772 
L 110.423091 53.26269 
L 118.923906 61.175279 
L 128.487323 70.077308 
L 133.800333 74.713489 
L 138.05074 78.075935 
L 141.238546 80.299936 
L 144.426351 82.189531 
L 146.551555 83.226409 
L 148.676759 84.059849 
L 150.801963 84.670737 
L 152.927166 85.043855 
L 155.05237 85.169364 
L 158.733331 85.295121 
L 162.414292 85.671894 
L 166.095253 86.298196 
L 169.776213 87.171556 
L 173.457174 88.288527 
L 177.138135 89.644701 
L 180.819096 91.234725 
L 184.500057 93.052325 
L 188.181018 95.090327 
L 192.475472 97.735784 
L 196.769926 100.656041 
L 201.064381 103.835415 
L 205.972329 107.764304 
L 210.880276 111.981726 
L 216.401718 117.034306 
L 222.536652 111.090643 
L 229.898574 103.589327 
L 238.487483 94.479219 
L 266.708183 64.210732 
L 274.070104 56.832817 
L 280.205039 51.021186 
L 285.112987 46.638334 
L 290.020935 42.52575 
L 294.928883 38.71228 
L 299.83683 35.224673 
L 303.517791 32.837622 
L 307.198752 30.657101 
L 310.879713 28.691715 
L 314.560674 26.94922 
L 318.241635 25.436494 
L 321.922596 24.159506 
L 325.603556 23.123296 
L 329.284517 22.331953 
L 332.965478 21.788601 
L 336.646439 21.495384 
L 337.873426 21.453459 
L 337.873426 21.453459 
" clip-path="url(#pbbb48bfd19)" style="fill: none; stroke: #1f77b4; stroke-width: 1.5; stroke-linecap: square"/>
   </g>
   <g id="patch_3">
    <path d="M 48.792183 222.188611 
L 48.792183 11.88 
" style="fill: none; stroke: #000000; stroke-width: 0.8; stroke-linejoin: miter; stroke-linecap: square"/>
   </g>
   <g id="patch_4">
    <path d="M 337.873426 222.188611 
L 337.873426 11.88 
" style="fill: none; stroke: #000000; stroke-width: 0.8; stroke-linejoin: miter; stroke-linecap: square"/>
   </g>
   <g id="patch_5">
    <path d="M 48.792183 222.188611 
L 337.873426 222.188611 
" style="fill: none; stroke: #000000; stroke-width: 0.8; stroke-linejoin: miter; stroke-linecap: square"/>
   </g>
   <g id="patch_6">
    <path d="M 48.792183 11.88 
L 337.873426 11.88 
" style="fill: none; stroke: #000000; stroke-width: 0.8; stroke-linejoin: miter; stroke-linecap: square"/>
   </g>
  </g>
 </g>
 <defs>
  <clipPath id="pbbb48bfd19">
   <rect x="48.792183" y="11.88" width="289.081243" height="210.308611"/>
  </clipPath>
 </defs>
</svg>
