<?xml version="1.0" encoding="utf-8" standalone="no"?>
<!DOCTYPE svg PUBLIC "-//W3C//DTD SVG 1.1//EN"
  "http://www.w3.org/Graphics/SVG/1.1/DTD/svg11.dtd">
<svg xmlns:xlink="http://www.w3.org/1999/xlink" width="252pt" height="252pt" viewBox="0 0 252 252" xmlns="http://www.w3.org/2000/svg" version="1.1">
 <metadata>
  <rdf:RDF xmlns:dc="http://purl.org/dc/elements/1.1/" xmlns:cc="http://creativecommons.org/ns#" xmlns:rdf="http://www.w3.org/1999/02/22-rdf-syntax-ns#">
   <cc:Work>
    <dc:type rdf:resource="http://purl.org/dc/dcmitype/StillImage"/>
    <dc:date>2022-11-02T16:30:04.514913</dc:date>
    <dc:format>image/svg+xml</dc:format>
    <dc:creator>
     <cc:Agent>
      <dc:title>Matplotlib v3.5.2, https://matplotlib.org/</dc:title>
     </cc:Agent>
    </dc:creator>
   </cc:Work>
  </rdf:RDF>
 </metadata>
 <defs>
  <style type="text/css">*{stroke-linejoin: round; stroke-linecap: butt}</style>
 </defs>
 <g id="figure_1">
  <g id="patch_1">
   <path d="M 0 252 
L 252 252 
L 252 0 
L 0 0 
z
" style="fill: #ffffff"/>
  </g>
  <g id="axes_1">
   <g id="patch_2">
    <path d="M 49.10835 207.257222 
L 240.12 207.257222 
L 240.12 11.88 
L 49.10835 11.88 
z
" style="fill: #ffffff"/>
   </g>
   <g id="Quiver_1">
    <path d="M 144.853404 108.893447 
L 188.27076 124.277405 
L 188.074054 122.687848 
L 194.108005 127.10563 
L 186.63868 126.738831 
L 187.792302 125.627732 
L 144.374946 110.243775 
L 144.853404 108.893447 
" clip-path="url(#paccf595f31)"/>
    <path d="M 143.910233 109.701058 
L 135.203487 63.425482 
L 133.928049 64.394317 
L 134.715409 56.957556 
L 138.151702 63.599637 
L 136.611371 63.160588 
L 145.318117 109.436164 
L 143.910233 109.701058 
" clip-path="url(#paccf595f31)"/>
   </g>
   <g id="matplotlib.axis_1">
    <g id="xtick_1">
     <g id="line2d_1">
      <path d="M 68.209515 207.257222 
L 68.209515 11.88 
" clip-path="url(#paccf595f31)" style="fill: none; stroke: #b0b0b0; stroke-opacity: 0.2; stroke-width: 0.8; stroke-linecap: square"/>
     </g>
     <g id="line2d_2">
      <defs>
       <path id="m59ac7b9cf9" d="M 0 0 
L 0 3.5 
" style="stroke: #000000; stroke-width: 0.8"/>
      </defs>
      <g>
       <use xlink:href="#m59ac7b9cf9" x="68.209515" y="207.257222" style="stroke: #000000; stroke-width: 0.8"/>
      </g>
     </g>
     <g id="text_1">
      <!-- $\mathdefault{−4}$ -->
      <g transform="translate(60.963 222.098271)scale(0.11 -0.11)">
       <defs>
        <path id="CMSY10-0" d="M 4218 1472 
C 4326 1472 4442 1472 4442 1600 
C 4442 1728 4326 1728 4218 1728 
L 755 1728 
C 646 1728 531 1728 531 1600 
C 531 1472 646 1472 755 1472 
L 4218 1472 
z
" transform="scale(0.015625)"/>
        <path id="URWPalladioL-Roma-34" d="M 1792 1152 
L 1792 684 
C 1792 310 1722 223 1408 210 
L 1011 192 
L 1011 0 
C 1862 0 1862 0 2016 0 
C 2170 19 2170 19 3021 0 
L 3021 192 
L 2714 210 
C 2400 229 2330 310 2330 684 
L 2330 1152 
C 2707 1152 2842 1145 3021 1127 
L 3021 1580 
C 2720 1555 2598 1555 2502 1561 
L 2483 1561 
L 2330 1561 
L 2330 2445 
C 2330 3576 2342 4122 2374 4383 
L 2298 4416 
L 1824 4243 
L 13 1299 
L 83 1152 
L 1792 1152 
z
M 1792 1561 
L 416 1561 
L 1792 3798 
L 1792 1561 
z
" transform="scale(0.015625)"/>
       </defs>
       <use xlink:href="#CMSY10-0" transform="scale(1.038107)"/>
       <use xlink:href="#URWPalladioL-Roma-34" transform="translate(81.941696 0)scale(0.996264)"/>
      </g>
     </g>
    </g>
    <g id="xtick_2">
     <g id="line2d_3">
      <path d="M 106.411845 207.257222 
L 106.411845 11.88 
" clip-path="url(#paccf595f31)" style="fill: none; stroke: #b0b0b0; stroke-opacity: 0.2; stroke-width: 0.8; stroke-linecap: square"/>
     </g>
     <g id="line2d_4">
      <g>
       <use xlink:href="#m59ac7b9cf9" x="106.411845" y="207.257222" style="stroke: #000000; stroke-width: 0.8"/>
      </g>
     </g>
     <g id="text_2">
      <!-- $\mathdefault{−2}$ -->
      <g transform="translate(99.16533 222.098271)scale(0.11 -0.11)">
       <defs>
        <path id="URWPalladioL-Roma-32" d="M 102 166 
L 102 0 
C 1299 0 1299 0 1530 0 
C 1760 19 1760 19 2995 0 
C 2982 134 2982 198 2982 287 
C 2982 370 2982 434 2995 574 
C 2259 542 1965 536 781 510 
L 1946 1741 
C 2566 2398 2758 2749 2758 3228 
C 2758 3961 2259 4416 1446 4416 
C 986 4416 672 4287 358 3967 
L 250 3100 
L 435 3100 
L 518 3394 
C 621 3763 851 3923 1280 3923 
C 1830 3923 2182 3578 2182 3036 
C 2182 2558 1914 2086 1190 1320 
L 102 166 
z
" transform="scale(0.015625)"/>
       </defs>
       <use xlink:href="#CMSY10-0" transform="scale(1.038107)"/>
       <use xlink:href="#URWPalladioL-Roma-32" transform="translate(81.941696 0)scale(0.996264)"/>
      </g>
     </g>
    </g>
    <g id="xtick_3">
     <g id="line2d_5">
      <path d="M 144.614175 207.257222 
L 144.614175 11.88 
" clip-path="url(#paccf595f31)" style="fill: none; stroke: #b0b0b0; stroke-opacity: 0.2; stroke-width: 0.8; stroke-linecap: square"/>
     </g>
     <g id="line2d_6">
      <g>
       <use xlink:href="#m59ac7b9cf9" x="144.614175" y="207.257222" style="stroke: #000000; stroke-width: 0.8"/>
      </g>
     </g>
     <g id="text_3">
      <!-- $\mathdefault{0}$ -->
      <g transform="translate(141.874449 222.098271)scale(0.11 -0.11)">
       <defs>
        <path id="URWPalladioL-Roma-30" d="M 1683 4416 
C 691 4416 186 3628 186 2076 
C 186 1326 320 679 544 365 
C 768 51 1126 -128 1523 -128 
C 2490 -128 2976 704 2976 2345 
C 2976 3749 2560 4416 1683 4416 
z
M 1568 4191 
C 2189 4191 2438 3563 2438 2025 
C 2438 660 2195 96 1606 96 
C 986 96 723 743 723 2307 
C 723 3660 960 4191 1568 4191 
z
" transform="scale(0.015625)"/>
       </defs>
       <use xlink:href="#URWPalladioL-Roma-30" transform="scale(0.996264)"/>
      </g>
     </g>
    </g>
    <g id="xtick_4">
     <g id="line2d_7">
      <path d="M 182.816505 207.257222 
L 182.816505 11.88 
" clip-path="url(#paccf595f31)" style="fill: none; stroke: #b0b0b0; stroke-opacity: 0.2; stroke-width: 0.8; stroke-linecap: square"/>
     </g>
     <g id="line2d_8">
      <g>
       <use xlink:href="#m59ac7b9cf9" x="182.816505" y="207.257222" style="stroke: #000000; stroke-width: 0.8"/>
      </g>
     </g>
     <g id="text_4">
      <!-- $\mathdefault{2}$ -->
      <g transform="translate(180.076779 222.098271)scale(0.11 -0.11)">
       <use xlink:href="#URWPalladioL-Roma-32" transform="scale(0.996264)"/>
      </g>
     </g>
    </g>
    <g id="xtick_5">
     <g id="line2d_9">
      <path d="M 221.018835 207.257222 
L 221.018835 11.88 
" clip-path="url(#paccf595f31)" style="fill: none; stroke: #b0b0b0; stroke-opacity: 0.2; stroke-width: 0.8; stroke-linecap: square"/>
     </g>
     <g id="line2d_10">
      <g>
       <use xlink:href="#m59ac7b9cf9" x="221.018835" y="207.257222" style="stroke: #000000; stroke-width: 0.8"/>
      </g>
     </g>
     <g id="text_5">
      <!-- $\mathdefault{4}$ -->
      <g transform="translate(218.279109 222.098271)scale(0.11 -0.11)">
       <use xlink:href="#URWPalladioL-Roma-34" transform="scale(0.996264)"/>
      </g>
     </g>
    </g>
    <g id="text_6">
     <!-- $k_x a$ -->
     <g transform="translate(136.899354 237.02966)scale(0.11 -0.11)">
      <defs>
       <path id="URWPalladioL-Ital-6b" d="M 1498 4608 
L 1421 4678 
C 1088 4512 858 4454 397 4409 
L 371 4275 
L 678 4275 
C 832 4275 896 4230 896 4121 
C 896 4070 890 4012 883 3968 
L 576 2253 
C 486 1774 384 1334 51 0 
L 109 -64 
L 538 44 
L 685 836 
C 742 1142 896 1430 1114 1647 
C 1555 370 1760 -64 1920 -64 
C 2003 -64 2157 19 2438 217 
L 2733 421 
L 2682 542 
L 2406 389 
C 2317 338 2272 325 2221 325 
C 2157 325 2112 364 2054 472 
C 1830 881 1690 1225 1440 2011 
L 1530 2100 
C 1920 2489 2214 2649 2534 2649 
C 2586 2649 2656 2636 2765 2611 
L 2874 3014 
C 2758 3052 2643 3072 2566 3072 
C 2144 3072 1613 2579 813 1462 
L 1498 4608 
z
" transform="scale(0.015625)"/>
       <path id="URWPalladioL-Ital-78" d="M 134 567 
C 134 440 122 358 83 153 
C 70 76 64 57 58 12 
C 154 -39 256 -64 333 -64 
C 544 -64 794 121 992 421 
L 1478 1164 
L 1549 726 
C 1632 185 1779 -64 2010 -64 
C 2150 -64 2355 44 2560 230 
L 2874 510 
L 2816 631 
C 2586 440 2426 345 2323 345 
C 2227 345 2144 409 2080 536 
C 2022 656 1952 891 1920 1075 
L 1805 1716 
L 2029 2027 
C 2330 2439 2502 2585 2701 2585 
C 2803 2585 2880 2534 2912 2439 
L 3002 2465 
L 3098 3007 
C 3021 3052 2963 3072 2906 3072 
C 2650 3072 2394 2841 1997 2255 
L 1760 1906 
L 1722 2211 
C 1645 2841 1472 3072 1094 3072 
C 928 3072 787 3020 730 2937 
L 358 2408 
L 467 2344 
C 659 2560 787 2649 909 2649 
C 1120 2649 1261 2389 1370 1767 
L 1440 1373 
L 1184 980 
C 909 555 691 352 512 352 
C 416 352 346 377 333 409 
L 262 586 
L 134 567 
z
" transform="scale(0.015625)"/>
       <path id="URWPalladioL-Ital-61" d="M 2573 3014 
L 2509 3072 
L 2298 2956 
C 2035 3046 1926 3072 1754 3072 
C 1574 3072 1446 3039 1274 2956 
C 877 2758 666 2567 506 2256 
C 224 1690 26 928 26 432 
C 26 152 122 -64 243 -64 
C 384 -64 627 76 870 292 
C 1139 534 1389 820 1734 1303 
L 1549 496 
C 1523 388 1510 273 1510 172 
C 1510 19 1568 -64 1664 -64 
C 1811 -64 2074 102 2598 536 
L 2554 670 
C 2515 638 2496 625 2470 600 
C 2266 427 2170 370 2074 370 
C 2016 370 1978 427 1978 517 
C 1978 549 1978 568 1984 587 
L 2573 3014 
z
M 2042 2637 
C 1901 1941 1779 1609 1562 1277 
C 1197 740 806 370 602 370 
C 525 370 486 453 486 625 
C 486 1034 666 1781 890 2292 
C 1043 2643 1190 2758 1498 2758 
C 1645 2758 1760 2732 2042 2637 
z
" transform="scale(0.015625)"/>
      </defs>
      <use xlink:href="#URWPalladioL-Ital-6b" transform="scale(0.996264)"/>
      <use xlink:href="#URWPalladioL-Ital-78" transform="translate(49.207485 -14.943915)scale(0.757155)"/>
      <use xlink:href="#URWPalladioL-Ital-61" transform="translate(92.005991 0)scale(0.996264)"/>
     </g>
    </g>
   </g>
   <g id="matplotlib.axis_2">
    <g id="ytick_1">
     <g id="line2d_11">
      <path d="M 49.10835 187.7195 
L 240.12 187.7195 
" clip-path="url(#paccf595f31)" style="fill: none; stroke: #b0b0b0; stroke-opacity: 0.2; stroke-width: 0.8; stroke-linecap: square"/>
     </g>
     <g id="line2d_12">
      <defs>
       <path id="mc408c04e83" d="M 0 0 
L -3.5 0 
" style="stroke: #000000; stroke-width: 0.8"/>
      </defs>
      <g>
       <use xlink:href="#mc408c04e83" x="49.10835" y="187.7195" style="stroke: #000000; stroke-width: 0.8"/>
      </g>
     </g>
     <g id="text_7">
      <!-- $\mathdefault{−4}$ -->
      <g transform="translate(27.61532 191.640024)scale(0.11 -0.11)">
       <use xlink:href="#CMSY10-0" transform="scale(1.038107)"/>
       <use xlink:href="#URWPalladioL-Roma-34" transform="translate(81.941696 0)scale(0.996264)"/>
      </g>
     </g>
    </g>
    <g id="ytick_2">
     <g id="line2d_13">
      <path d="M 49.10835 148.644056 
L 240.12 148.644056 
" clip-path="url(#paccf595f31)" style="fill: none; stroke: #b0b0b0; stroke-opacity: 0.2; stroke-width: 0.8; stroke-linecap: square"/>
     </g>
     <g id="line2d_14">
      <g>
       <use xlink:href="#mc408c04e83" x="49.10835" y="148.644056" style="stroke: #000000; stroke-width: 0.8"/>
      </g>
     </g>
     <g id="text_8">
      <!-- $\mathdefault{−2}$ -->
      <g transform="translate(27.61532 152.56458)scale(0.11 -0.11)">
       <use xlink:href="#CMSY10-0" transform="scale(1.038107)"/>
       <use xlink:href="#URWPalladioL-Roma-32" transform="translate(81.941696 0)scale(0.996264)"/>
      </g>
     </g>
    </g>
    <g id="ytick_3">
     <g id="line2d_15">
      <path d="M 49.10835 109.568611 
L 240.12 109.568611 
" clip-path="url(#paccf595f31)" style="fill: none; stroke: #b0b0b0; stroke-opacity: 0.2; stroke-width: 0.8; stroke-linecap: square"/>
     </g>
     <g id="line2d_16">
      <g>
       <use xlink:href="#mc408c04e83" x="49.10835" y="109.568611" style="stroke: #000000; stroke-width: 0.8"/>
      </g>
     </g>
     <g id="text_9">
      <!-- $\mathdefault{0}$ -->
      <g transform="translate(36.628898 113.489136)scale(0.11 -0.11)">
       <use xlink:href="#URWPalladioL-Roma-30" transform="scale(0.996264)"/>
      </g>
     </g>
    </g>
    <g id="ytick_4">
     <g id="line2d_17">
      <path d="M 49.10835 70.493167 
L 240.12 70.493167 
" clip-path="url(#paccf595f31)" style="fill: none; stroke: #b0b0b0; stroke-opacity: 0.2; stroke-width: 0.8; stroke-linecap: square"/>
     </g>
     <g id="line2d_18">
      <g>
       <use xlink:href="#mc408c04e83" x="49.10835" y="70.493167" style="stroke: #000000; stroke-width: 0.8"/>
      </g>
     </g>
     <g id="text_10">
      <!-- $\mathdefault{2}$ -->
      <g transform="translate(36.628898 74.413691)scale(0.11 -0.11)">
       <use xlink:href="#URWPalladioL-Roma-32" transform="scale(0.996264)"/>
      </g>
     </g>
    </g>
    <g id="ytick_5">
     <g id="line2d_19">
      <path d="M 49.10835 31.417722 
L 240.12 31.417722 
" clip-path="url(#paccf595f31)" style="fill: none; stroke: #b0b0b0; stroke-opacity: 0.2; stroke-width: 0.8; stroke-linecap: square"/>
     </g>
     <g id="line2d_20">
      <g>
       <use xlink:href="#mc408c04e83" x="49.10835" y="31.417722" style="stroke: #000000; stroke-width: 0.8"/>
      </g>
     </g>
     <g id="text_11">
      <!-- $\mathdefault{4}$ -->
      <g transform="translate(36.628898 35.338247)scale(0.11 -0.11)">
       <use xlink:href="#URWPalladioL-Roma-34" transform="scale(0.996264)"/>
      </g>
     </g>
    </g>
    <g id="text_12">
     <!-- $k_y a$ -->
     <g transform="translate(19.797772 117.171038)rotate(-90)scale(0.11 -0.11)">
      <defs>
       <path id="URWPalladioL-Ital-79" d="M -45 -1132 
C -51 -1176 -51 -1214 -51 -1245 
C -51 -1517 186 -1741 474 -1741 
C 1152 -1741 1856 -955 2234 216 
L 3136 3014 
L 3066 3072 
C 2880 3001 2733 2963 2592 2950 
L 2368 2111 
C 2291 1812 2067 1348 1856 1036 
C 1632 712 1318 432 1178 432 
C 1101 432 1043 578 1050 737 
L 1056 820 
L 1152 2053 
C 1165 2250 1178 2492 1178 2670 
C 1178 2956 1133 3072 1024 3072 
C 941 3072 851 3027 544 2816 
L 19 2460 
L 90 2346 
L 410 2537 
L 435 2556 
C 499 2594 544 2613 570 2613 
C 659 2613 710 2492 710 2282 
C 710 2276 710 2238 704 2187 
L 595 642 
L 589 388 
C 589 121 704 -64 864 -64 
C 1101 -64 1638 477 2118 1195 
L 1805 108 
C 1478 -1012 1158 -1472 710 -1472 
C 486 -1472 314 -1302 314 -1081 
C 314 -1049 320 -999 326 -942 
L 262 -917 
L -45 -1132 
z
" transform="scale(0.015625)"/>
      </defs>
      <use xlink:href="#URWPalladioL-Ital-6b" transform="scale(0.996264)"/>
      <use xlink:href="#URWPalladioL-Ital-79" transform="translate(47.920305 -14.943915)scale(0.757155)"/>
      <use xlink:href="#URWPalladioL-Ital-61" transform="translate(89.96237 0)scale(0.996264)"/>
     </g>
    </g>
   </g>
   <g id="line2d_21">
    <path d="M 144.614175 191.408031 
L 213.905537 150.488321 
L 213.905537 68.648901 
L 144.614175 27.729192 
L 75.322813 68.648901 
L 75.322813 150.488321 
L 144.614175 191.408031 
" clip-path="url(#paccf595f31)" style="fill: none; stroke: #1f77b4; stroke-width: 1.5; stroke-linecap: square"/>
   </g>
   <g id="line2d_22">
    <path d="M 174.310473 185.562358 
L 223.804303 121.259957 
L 194.108005 45.26621 
L 114.917877 33.574864 
L 65.424047 97.877265 
L 95.120345 173.871012 
L 174.310473 185.562358 
" clip-path="url(#paccf595f31)" style="fill: none; stroke: #ff7f0e; stroke-width: 1.5; stroke-linecap: square"/>
   </g>
   <g id="line2d_23">
    <path d="M 12.888652 253 
L 15.930217 244.019086 
L -1 224.022955 
" clip-path="url(#paccf595f31)" style="fill: none; stroke: #808080; stroke-linecap: square"/>
   </g>
   <g id="line2d_24">
    <path d="M -1 212.169993 
L 6.031451 191.408031 
L -1 183.103246 
" clip-path="url(#paccf595f31)" style="fill: none; stroke: #808080; stroke-linecap: square"/>
   </g>
   <g id="line2d_25">
    <path clip-path="url(#paccf595f31)" style="fill: none; stroke: #808080; stroke-linecap: square"/>
   </g>
   <g id="line2d_26">
    <path clip-path="url(#paccf595f31)" style="fill: none; stroke: #808080; stroke-linecap: square"/>
   </g>
   <g id="line2d_27">
    <path clip-path="url(#paccf595f31)" style="fill: none; stroke: #808080; stroke-linecap: square"/>
   </g>
   <g id="line2d_28">
    <path clip-path="url(#paccf595f31)" style="fill: none; stroke: #808080; stroke-linecap: square"/>
   </g>
   <g id="line2d_29">
    <path clip-path="url(#paccf595f31)" style="fill: none; stroke: #808080; stroke-linecap: square"/>
   </g>
   <g id="line2d_30">
    <path clip-path="url(#paccf595f31)" style="fill: none; stroke: #808080; stroke-linecap: square"/>
   </g>
   <g id="line2d_31">
    <path clip-path="url(#paccf595f31)" style="fill: none; stroke: #808080; stroke-linecap: square"/>
   </g>
   <g id="line2d_32">
    <path d="M 58.17981 253 
L 45.626515 238.173413 
L 15.930217 244.019086 
L 12.888652 253 
" clip-path="url(#paccf595f31)" style="fill: none; stroke: #808080; stroke-linecap: square"/>
   </g>
   <g id="line2d_33">
    <path d="M 45.626515 238.173413 
L 55.525281 208.945049 
L 35.727749 185.562358 
L 6.031451 191.408031 
L -1 212.169993 
M -1 224.022955 
L 15.930217 244.019086 
L 45.626515 238.173413 
" clip-path="url(#paccf595f31)" style="fill: none; stroke: #808080; stroke-linecap: square"/>
   </g>
   <g id="line2d_34">
    <path d="M 35.727749 185.562358 
L 45.626515 156.333994 
L 25.828983 132.951302 
L -1 138.232548 
M -1 183.103246 
L 6.031451 191.408031 
L 35.727749 185.562358 
" clip-path="url(#paccf595f31)" style="fill: none; stroke: #808080; stroke-linecap: square"/>
   </g>
   <g id="line2d_35">
    <path d="M 25.828983 132.951302 
L 35.727749 103.722938 
L 15.930217 80.340247 
L -1 83.672935 
M -1 138.232548 
L 25.828983 132.951302 
" clip-path="url(#paccf595f31)" style="fill: none; stroke: #808080; stroke-linecap: square"/>
   </g>
   <g id="line2d_36">
    <path d="M 15.930217 80.340247 
L 25.828983 51.111883 
L 6.031451 27.729192 
L -1 29.113322 
M -1 83.672935 
L 15.930217 80.340247 
" clip-path="url(#paccf595f31)" style="fill: none; stroke: #808080; stroke-linecap: square"/>
   </g>
   <g id="line2d_37">
    <path d="M 6.031451 27.729192 
L 15.761162 -1 
M -1 29.113322 
L 6.031451 27.729192 
" clip-path="url(#paccf595f31)" style="fill: none; stroke: #808080; stroke-linecap: square"/>
   </g>
   <g id="line2d_38">
    <path clip-path="url(#paccf595f31)" style="fill: none; stroke: #808080; stroke-linecap: square"/>
   </g>
   <g id="line2d_39">
    <path clip-path="url(#paccf595f31)" style="fill: none; stroke: #808080; stroke-linecap: square"/>
   </g>
   <g id="line2d_40">
    <path clip-path="url(#paccf595f31)" style="fill: none; stroke: #808080; stroke-linecap: square"/>
   </g>
   <g id="line2d_41">
    <path clip-path="url(#paccf595f31)" style="fill: none; stroke: #808080; stroke-linecap: square"/>
   </g>
   <g id="line2d_42">
    <path d="M 96.038286 253 
L 105.019111 226.482068 
L 85.221579 203.099376 
L 55.525281 208.945049 
L 45.626515 238.173413 
L 58.17981 253 
" clip-path="url(#paccf595f31)" style="fill: none; stroke: #808080; stroke-linecap: square"/>
   </g>
   <g id="line2d_43">
    <path d="M 85.221579 203.099376 
L 95.120345 173.871012 
L 75.322813 150.488321 
L 45.626515 156.333994 
L 35.727749 185.562358 
L 55.525281 208.945049 
L 85.221579 203.099376 
" clip-path="url(#paccf595f31)" style="fill: none; stroke: #808080; stroke-linecap: square"/>
   </g>
   <g id="line2d_44">
    <path d="M 75.322813 150.488321 
L 85.221579 121.259957 
L 65.424047 97.877265 
L 35.727749 103.722938 
L 25.828983 132.951302 
L 45.626515 156.333994 
L 75.322813 150.488321 
" clip-path="url(#paccf595f31)" style="fill: none; stroke: #808080; stroke-linecap: square"/>
   </g>
   <g id="line2d_45">
    <path d="M 65.424047 97.877265 
L 75.322813 68.648901 
L 55.525281 45.26621 
L 25.828983 51.111883 
L 15.930217 80.340247 
L 35.727749 103.722938 
L 65.424047 97.877265 
" clip-path="url(#paccf595f31)" style="fill: none; stroke: #808080; stroke-linecap: square"/>
   </g>
   <g id="line2d_46">
    <path d="M 55.525281 45.26621 
L 65.424047 16.037846 
L 50.998534 -1 
M 15.761162 -1 
L 6.031451 27.729192 
L 25.828983 51.111883 
L 55.525281 45.26621 
" clip-path="url(#paccf595f31)" style="fill: none; stroke: #808080; stroke-linecap: square"/>
   </g>
   <g id="line2d_47">
    <path clip-path="url(#paccf595f31)" style="fill: none; stroke: #808080; stroke-linecap: square"/>
   </g>
   <g id="line2d_48">
    <path clip-path="url(#paccf595f31)" style="fill: none; stroke: #808080; stroke-linecap: square"/>
   </g>
   <g id="line2d_49">
    <path clip-path="url(#paccf595f31)" style="fill: none; stroke: #808080; stroke-linecap: square"/>
   </g>
   <g id="line2d_50">
    <path clip-path="url(#paccf595f31)" style="fill: none; stroke: #808080; stroke-linecap: square"/>
   </g>
   <g id="line2d_51">
    <path d="M 151.471376 253 
L 154.512941 244.019086 
L 134.715409 220.636395 
L 105.019111 226.482068 
L 96.038286 253 
" clip-path="url(#paccf595f31)" style="fill: none; stroke: #808080; stroke-linecap: square"/>
   </g>
   <g id="line2d_52">
    <path d="M 134.715409 220.636395 
L 144.614175 191.408031 
L 124.816643 168.025339 
L 95.120345 173.871012 
L 85.221579 203.099376 
L 105.019111 226.482068 
L 134.715409 220.636395 
" clip-path="url(#paccf595f31)" style="fill: none; stroke: #808080; stroke-linecap: square"/>
   </g>
   <g id="line2d_53">
    <path d="M 124.816643 168.025339 
L 134.715409 138.796975 
L 114.917877 115.414284 
L 85.221579 121.259957 
L 75.322813 150.488321 
L 95.120345 173.871012 
L 124.816643 168.025339 
" clip-path="url(#paccf595f31)" style="fill: none; stroke: #808080; stroke-linecap: square"/>
   </g>
   <g id="line2d_54">
    <path d="M 114.917877 115.414284 
L 124.816643 86.18592 
L 105.019111 62.803229 
L 75.322813 68.648901 
L 65.424047 97.877265 
L 85.221579 121.259957 
L 114.917877 115.414284 
" clip-path="url(#paccf595f31)" style="fill: none; stroke: #808080; stroke-linecap: square"/>
   </g>
   <g id="line2d_55">
    <path d="M 105.019111 62.803229 
L 114.917877 33.574864 
L 95.120345 10.192173 
L 65.424047 16.037846 
L 55.525281 45.26621 
L 75.322813 68.648901 
L 105.019111 62.803229 
" clip-path="url(#paccf595f31)" style="fill: none; stroke: #808080; stroke-linecap: square"/>
   </g>
   <g id="line2d_56">
    <path d="M 95.120345 10.192173 
L 98.910797 -1 
M 50.998534 -1 
L 65.424047 16.037846 
L 95.120345 10.192173 
" clip-path="url(#paccf595f31)" style="fill: none; stroke: #808080; stroke-linecap: square"/>
   </g>
   <g id="line2d_57">
    <path clip-path="url(#paccf595f31)" style="fill: none; stroke: #808080; stroke-linecap: square"/>
   </g>
   <g id="line2d_58">
    <path clip-path="url(#paccf595f31)" style="fill: none; stroke: #808080; stroke-linecap: square"/>
   </g>
   <g id="line2d_59">
    <path clip-path="url(#paccf595f31)" style="fill: none; stroke: #808080; stroke-linecap: square"/>
   </g>
   <g id="line2d_60">
    <path d="M 196.762534 253 
L 184.209239 238.173413 
L 154.512941 244.019086 
L 151.471376 253 
" clip-path="url(#paccf595f31)" style="fill: none; stroke: #808080; stroke-linecap: square"/>
   </g>
   <g id="line2d_61">
    <path d="M 184.209239 238.173413 
L 194.108005 208.945049 
L 174.310473 185.562358 
L 144.614175 191.408031 
L 134.715409 220.636395 
L 154.512941 244.019086 
L 184.209239 238.173413 
" clip-path="url(#paccf595f31)" style="fill: none; stroke: #808080; stroke-linecap: square"/>
   </g>
   <g id="line2d_62">
    <path d="M 174.310473 185.562358 
L 184.209239 156.333994 
L 164.411707 132.951302 
L 134.715409 138.796975 
L 124.816643 168.025339 
L 144.614175 191.408031 
L 174.310473 185.562358 
" clip-path="url(#paccf595f31)" style="fill: none; stroke: #808080; stroke-linecap: square"/>
   </g>
   <g id="line2d_63">
    <path d="M 164.411707 132.951302 
L 174.310473 103.722938 
L 154.512941 80.340247 
L 124.816643 86.18592 
L 114.917877 115.414284 
L 134.715409 138.796975 
L 164.411707 132.951302 
" clip-path="url(#paccf595f31)" style="fill: none; stroke: #808080; stroke-width: 2; stroke-linecap: square"/>
   </g>
   <g id="line2d_64">
    <path d="M 154.512941 80.340247 
L 164.411707 51.111883 
L 144.614175 27.729192 
L 114.917877 33.574864 
L 105.019111 62.803229 
L 124.816643 86.18592 
L 154.512941 80.340247 
" clip-path="url(#paccf595f31)" style="fill: none; stroke: #808080; stroke-linecap: square"/>
   </g>
   <g id="line2d_65">
    <path d="M 144.614175 27.729192 
L 154.343886 -1 
M 98.910797 -1 
L 95.120345 10.192173 
L 114.917877 33.574864 
L 144.614175 27.729192 
" clip-path="url(#paccf595f31)" style="fill: none; stroke: #808080; stroke-linecap: square"/>
   </g>
   <g id="line2d_66">
    <path clip-path="url(#paccf595f31)" style="fill: none; stroke: #808080; stroke-linecap: square"/>
   </g>
   <g id="line2d_67">
    <path clip-path="url(#paccf595f31)" style="fill: none; stroke: #808080; stroke-linecap: square"/>
   </g>
   <g id="line2d_68">
    <path clip-path="url(#paccf595f31)" style="fill: none; stroke: #808080; stroke-linecap: square"/>
   </g>
   <g id="line2d_69">
    <path clip-path="url(#paccf595f31)" style="fill: none; stroke: #808080; stroke-linecap: square"/>
   </g>
   <g id="line2d_70">
    <path d="M 234.62101 253 
L 243.601835 226.482068 
L 223.804303 203.099376 
L 194.108005 208.945049 
L 184.209239 238.173413 
L 196.762534 253 
" clip-path="url(#paccf595f31)" style="fill: none; stroke: #808080; stroke-linecap: square"/>
   </g>
   <g id="line2d_71">
    <path d="M 223.804303 203.099376 
L 233.703069 173.871012 
L 213.905537 150.488321 
L 184.209239 156.333994 
L 174.310473 185.562358 
L 194.108005 208.945049 
L 223.804303 203.099376 
" clip-path="url(#paccf595f31)" style="fill: none; stroke: #808080; stroke-linecap: square"/>
   </g>
   <g id="line2d_72">
    <path d="M 213.905537 150.488321 
L 223.804303 121.259957 
L 204.006771 97.877265 
L 174.310473 103.722938 
L 164.411707 132.951302 
L 184.209239 156.333994 
L 213.905537 150.488321 
" clip-path="url(#paccf595f31)" style="fill: none; stroke: #808080; stroke-linecap: square"/>
   </g>
   <g id="line2d_73">
    <path d="M 204.006771 97.877265 
L 213.905537 68.648901 
L 194.108005 45.26621 
L 164.411707 51.111883 
L 154.512941 80.340247 
L 174.310473 103.722938 
L 204.006771 97.877265 
" clip-path="url(#paccf595f31)" style="fill: none; stroke: #808080; stroke-linecap: square"/>
   </g>
   <g id="line2d_74">
    <path d="M 194.108005 45.26621 
L 204.006771 16.037846 
L 189.581258 -1 
M 154.343886 -1 
L 144.614175 27.729192 
L 164.411707 51.111883 
L 194.108005 45.26621 
" clip-path="url(#paccf595f31)" style="fill: none; stroke: #808080; stroke-linecap: square"/>
   </g>
   <g id="line2d_75">
    <path clip-path="url(#paccf595f31)" style="fill: none; stroke: #808080; stroke-linecap: square"/>
   </g>
   <g id="line2d_76">
    <path clip-path="url(#paccf595f31)" style="fill: none; stroke: #808080; stroke-linecap: square"/>
   </g>
   <g id="line2d_77">
    <path clip-path="url(#paccf595f31)" style="fill: none; stroke: #808080; stroke-linecap: square"/>
   </g>
   <g id="line2d_78">
    <path clip-path="url(#paccf595f31)" style="fill: none; stroke: #808080; stroke-linecap: square"/>
   </g>
   <g id="line2d_79">
    <path d="M 253 224.632052 
L 243.601835 226.482068 
L 234.62101 253 
" clip-path="url(#paccf595f31)" style="fill: none; stroke: #808080; stroke-linecap: square"/>
   </g>
   <g id="line2d_80">
    <path d="M 253 170.072439 
L 233.703069 173.871012 
L 223.804303 203.099376 
L 243.601835 226.482068 
L 253 224.632052 
" clip-path="url(#paccf595f31)" style="fill: none; stroke: #808080; stroke-linecap: square"/>
   </g>
   <g id="line2d_81">
    <path d="M 253 115.512826 
L 223.804303 121.259957 
L 213.905537 150.488321 
L 233.703069 173.871012 
L 253 170.072439 
" clip-path="url(#paccf595f31)" style="fill: none; stroke: #808080; stroke-linecap: square"/>
   </g>
   <g id="line2d_82">
    <path d="M 253 73.903319 
L 243.601835 62.803229 
L 213.905537 68.648901 
L 204.006771 97.877265 
L 223.804303 121.259957 
L 253 115.512826 
" clip-path="url(#paccf595f31)" style="fill: none; stroke: #808080; stroke-linecap: square"/>
   </g>
   <g id="line2d_83">
    <path d="M 243.601835 62.803229 
L 253 35.053003 
M 253 32.983609 
L 233.703069 10.192173 
L 204.006771 16.037846 
L 194.108005 45.26621 
L 213.905537 68.648901 
L 243.601835 62.803229 
" clip-path="url(#paccf595f31)" style="fill: none; stroke: #808080; stroke-linecap: square"/>
   </g>
   <g id="line2d_84">
    <path d="M 233.703069 10.192173 
L 237.493521 -1 
M 189.581258 -1 
L 204.006771 16.037846 
L 233.703069 10.192173 
" clip-path="url(#paccf595f31)" style="fill: none; stroke: #808080; stroke-linecap: square"/>
   </g>
   <g id="line2d_85">
    <path clip-path="url(#paccf595f31)" style="fill: none; stroke: #808080; stroke-linecap: square"/>
   </g>
   <g id="line2d_86">
    <path clip-path="url(#paccf595f31)" style="fill: none; stroke: #808080; stroke-linecap: square"/>
   </g>
   <g id="line2d_87">
    <path clip-path="url(#paccf595f31)" style="fill: none; stroke: #808080; stroke-linecap: square"/>
   </g>
   <g id="line2d_88">
    <path clip-path="url(#paccf595f31)" style="fill: none; stroke: #808080; stroke-linecap: square"/>
   </g>
   <g id="line2d_89">
    <path clip-path="url(#paccf595f31)" style="fill: none; stroke: #808080; stroke-linecap: square"/>
   </g>
   <g id="line2d_90">
    <path clip-path="url(#paccf595f31)" style="fill: none; stroke: #808080; stroke-linecap: square"/>
   </g>
   <g id="line2d_91">
    <path clip-path="url(#paccf595f31)" style="fill: none; stroke: #808080; stroke-linecap: square"/>
   </g>
   <g id="line2d_92">
    <path d="M 253 35.053003 
L 243.601835 62.803229 
L 253 73.903319 
" clip-path="url(#paccf595f31)" style="fill: none; stroke: #808080; stroke-linecap: square"/>
   </g>
   <g id="line2d_93">
    <path d="M 237.493521 -1 
L 233.703069 10.192173 
L 253 32.983609 
" clip-path="url(#paccf595f31)" style="fill: none; stroke: #808080; stroke-linecap: square"/>
   </g>
   <g id="line2d_94">
    <path clip-path="url(#paccf595f31)" style="fill: none; stroke: #808080; stroke-linecap: square"/>
   </g>
   <g id="line2d_95">
    <path clip-path="url(#paccf595f31)" style="fill: none; stroke: #808080; stroke-linecap: square"/>
   </g>
   <g id="line2d_96">
    <path clip-path="url(#paccf595f31)" style="fill: none; stroke: #808080; stroke-linecap: square"/>
   </g>
   <g id="line2d_97">
    <path clip-path="url(#paccf595f31)" style="fill: none; stroke: #808080; stroke-linecap: square"/>
   </g>
   <g id="line2d_98">
    <path clip-path="url(#paccf595f31)" style="fill: none; stroke: #808080; stroke-linecap: square"/>
   </g>
   <g id="line2d_99">
    <path clip-path="url(#paccf595f31)" style="fill: none; stroke: #808080; stroke-linecap: square"/>
   </g>
   <g id="line2d_100">
    <path clip-path="url(#paccf595f31)" style="fill: none; stroke: #808080; stroke-linecap: square"/>
   </g>
   <g id="line2d_101">
    <path clip-path="url(#paccf595f31)" style="fill: none; stroke: #808080; stroke-linecap: square"/>
   </g>
   <g id="line2d_102">
    <path clip-path="url(#paccf595f31)" style="fill: none; stroke: #808080; stroke-linecap: square"/>
   </g>
   <g id="line2d_103">
    <path clip-path="url(#paccf595f31)" style="fill: none; stroke: #808080; stroke-linecap: square"/>
   </g>
   <g id="line2d_104">
    <path d="M 144.614175 109.568611 
L 213.905537 68.648901 
" clip-path="url(#paccf595f31)" style="fill: none; stroke-dasharray: 3.7,1.6; stroke-dashoffset: 0; stroke: #000000"/>
   </g>
   <g id="line2d_105">
    <path d="M 144.614175 109.568611 
L 194.108005 45.26621 
" clip-path="url(#paccf595f31)" style="fill: none; stroke-dasharray: 3.7,1.6; stroke-dashoffset: 0; stroke: #000000"/>
   </g>
   <g id="line2d_106">
    <defs>
     <path id="mdb858e87a9" d="M 0 -3 
L -3 3 
L 3 3 
z
" style="stroke: #d62728; stroke-linejoin: miter"/>
    </defs>
    <g clip-path="url(#paccf595f31)">
     <use xlink:href="#mdb858e87a9" x="144.614175" y="109.568611" style="fill: #d62728; stroke: #d62728; stroke-linejoin: miter"/>
     <use xlink:href="#mdb858e87a9" x="149.563558" y="111.322313" style="fill: #d62728; stroke: #d62728; stroke-linejoin: miter"/>
     <use xlink:href="#mdb858e87a9" x="154.512941" y="113.076015" style="fill: #d62728; stroke: #d62728; stroke-linejoin: miter"/>
     <use xlink:href="#mdb858e87a9" x="159.462324" y="114.829717" style="fill: #d62728; stroke: #d62728; stroke-linejoin: miter"/>
     <use xlink:href="#mdb858e87a9" x="164.411707" y="116.583418" style="fill: #d62728; stroke: #d62728; stroke-linejoin: miter"/>
     <use xlink:href="#mdb858e87a9" x="169.36109" y="118.33712" style="fill: #d62728; stroke: #d62728; stroke-linejoin: miter"/>
     <use xlink:href="#mdb858e87a9" x="167.711295" y="123.208514" style="fill: #d62728; stroke: #d62728; stroke-linejoin: miter"/>
     <use xlink:href="#mdb858e87a9" x="166.061501" y="128.079908" style="fill: #d62728; stroke: #d62728; stroke-linejoin: miter"/>
     <use xlink:href="#mdb858e87a9" x="164.411707" y="132.951302" style="fill: #d62728; stroke: #d62728; stroke-linejoin: miter"/>
     <use xlink:href="#mdb858e87a9" x="160.4522" y="128.274764" style="fill: #d62728; stroke: #d62728; stroke-linejoin: miter"/>
     <use xlink:href="#mdb858e87a9" x="156.492694" y="123.598226" style="fill: #d62728; stroke: #d62728; stroke-linejoin: miter"/>
     <use xlink:href="#mdb858e87a9" x="152.533188" y="118.921688" style="fill: #d62728; stroke: #d62728; stroke-linejoin: miter"/>
     <use xlink:href="#mdb858e87a9" x="148.573681" y="114.245149" style="fill: #d62728; stroke: #d62728; stroke-linejoin: miter"/>
    </g>
   </g>
   <g id="line2d_107">
    <defs>
     <path id="m7ba40ab0f2" d="M 0 1.5 
C 0.397805 1.5 0.77937 1.341951 1.06066 1.06066 
C 1.341951 0.77937 1.5 0.397805 1.5 0 
C 1.5 -0.397805 1.341951 -0.77937 1.06066 -1.06066 
C 0.77937 -1.341951 0.397805 -1.5 0 -1.5 
C -0.397805 -1.5 -0.77937 -1.341951 -1.06066 -1.06066 
C -1.341951 -0.77937 -1.5 -0.397805 -1.5 0 
C -1.5 0.397805 -1.341951 0.77937 -1.06066 1.06066 
C -0.77937 1.341951 -0.397805 1.5 0 1.5 
z
" style="stroke: #2ca02c"/>
    </defs>
    <g clip-path="url(#paccf595f31)">
     <use xlink:href="#m7ba40ab0f2" x="164.411707" y="132.951302" style="fill: #2ca02c; stroke: #2ca02c"/>
     <use xlink:href="#m7ba40ab0f2" x="160.4522" y="128.274764" style="fill: #2ca02c; stroke: #2ca02c"/>
     <use xlink:href="#m7ba40ab0f2" x="156.492694" y="123.598226" style="fill: #2ca02c; stroke: #2ca02c"/>
     <use xlink:href="#m7ba40ab0f2" x="152.533188" y="118.921688" style="fill: #2ca02c; stroke: #2ca02c"/>
     <use xlink:href="#m7ba40ab0f2" x="148.573681" y="114.245149" style="fill: #2ca02c; stroke: #2ca02c"/>
     <use xlink:href="#m7ba40ab0f2" x="144.614175" y="109.568611" style="fill: #2ca02c; stroke: #2ca02c"/>
     <use xlink:href="#m7ba40ab0f2" x="143.624298" y="104.307506" style="fill: #2ca02c; stroke: #2ca02c"/>
     <use xlink:href="#m7ba40ab0f2" x="142.634422" y="99.0464" style="fill: #2ca02c; stroke: #2ca02c"/>
     <use xlink:href="#m7ba40ab0f2" x="141.644545" y="93.785295" style="fill: #2ca02c; stroke: #2ca02c"/>
     <use xlink:href="#m7ba40ab0f2" x="140.654668" y="88.524189" style="fill: #2ca02c; stroke: #2ca02c"/>
     <use xlink:href="#m7ba40ab0f2" x="139.664792" y="83.263083" style="fill: #2ca02c; stroke: #2ca02c"/>
     <use xlink:href="#m7ba40ab0f2" x="134.715409" y="84.237362" style="fill: #2ca02c; stroke: #2ca02c"/>
     <use xlink:href="#m7ba40ab0f2" x="129.766026" y="85.211641" style="fill: #2ca02c; stroke: #2ca02c"/>
     <use xlink:href="#m7ba40ab0f2" x="124.816643" y="86.18592" style="fill: #2ca02c; stroke: #2ca02c"/>
    </g>
   </g>
   <g id="patch_3">
    <path d="M 49.10835 207.257222 
L 49.10835 11.88 
" style="fill: none; stroke: #000000; stroke-width: 0.8; stroke-linejoin: miter; stroke-linecap: square"/>
   </g>
   <g id="patch_4">
    <path d="M 240.12 207.257222 
L 240.12 11.88 
" style="fill: none; stroke: #000000; stroke-width: 0.8; stroke-linejoin: miter; stroke-linecap: square"/>
   </g>
   <g id="patch_5">
    <path d="M 49.10835 207.257222 
L 240.12 207.257222 
" style="fill: none; stroke: #000000; stroke-width: 0.8; stroke-linejoin: miter; stroke-linecap: square"/>
   </g>
   <g id="patch_6">
    <path d="M 49.10835 11.88 
L 240.12 11.88 
" style="fill: none; stroke: #000000; stroke-width: 0.8; stroke-linejoin: miter; stroke-linecap: square"/>
   </g>
   <g id="text_13">
    <!-- $\mathbf{G}_1$ -->
    <g transform="translate(194.108005 127.10563)scale(0.11 -0.11)">
     <defs>
      <path id="URWPalladioL-Bold-47" d="M 4966 1767 
C 4173 1747 4173 1747 4006 1747 
C 3859 1747 3610 1754 3091 1767 
L 3091 1501 
L 3430 1488 
C 3699 1475 3795 1417 3795 1248 
L 3795 392 
C 3469 269 3258 230 2982 230 
C 1952 230 1261 1067 1261 2299 
C 1261 3440 1875 4121 2918 4121 
C 3245 4121 3584 4056 3859 3933 
C 4019 3868 4077 3823 4230 3674 
L 4262 3116 
L 4512 3116 
C 4582 3738 4602 3862 4659 4108 
L 4621 4179 
C 4038 4396 3578 4480 2950 4480 
C 1312 4480 301 3622 301 2221 
C 301 794 1286 -128 2803 -128 
C 3450 -128 3936 -32 4704 256 
L 4704 1313 
C 4704 1469 4730 1495 4966 1546 
L 4966 1767 
z
" transform="scale(0.015625)"/>
      <path id="URWPalladioL-Roma-31" d="M 429 3571 
L 493 3571 
L 1318 3942 
C 1325 3949 1331 3949 1338 3949 
C 1376 3949 1389 3891 1389 3737 
L 1389 633 
C 1389 300 1318 230 973 211 
L 614 192 
L 614 0 
C 1600 0 1600 0 1670 0 
C 1754 0 1894 0 2112 -7 
C 2189 6 2413 6 2675 0 
L 2675 192 
L 2342 211 
C 1990 229 1926 299 1926 628 
L 1926 4383 
L 1837 4416 
C 1421 4199 966 4009 384 3807 
L 429 3571 
z
" transform="scale(0.015625)"/>
     </defs>
     <use xlink:href="#URWPalladioL-Bold-47" transform="scale(0.996264)"/>
     <use xlink:href="#URWPalladioL-Roma-31" transform="translate(84.233183 -18.577338)scale(0.757155)"/>
    </g>
   </g>
   <g id="text_14">
    <!-- $\mathbf{G}_2$ -->
    <g transform="translate(134.715409 56.957556)scale(0.11 -0.11)">
     <use xlink:href="#URWPalladioL-Bold-47" transform="scale(0.996264)"/>
     <use xlink:href="#URWPalladioL-Roma-32" transform="translate(84.233183 -17.441431)scale(0.757155)"/>
    </g>
   </g>
   <g id="text_15">
    <!-- $\theta$ -->
    <g transform="translate(167.535573 90.030889)scale(0.11 -0.11)">
     <defs>
      <path id="PazoMath-Italic-71" d="M 2029 4544 
C 1754 4544 1472 4409 1178 4122 
C 608 3580 186 2616 186 1442 
C 186 427 390 -64 928 -64 
C 1267 -64 1664 172 1965 555 
C 2400 1110 2797 2163 2797 3127 
C 2797 4013 2554 4544 2029 4544 
z
M 1478 2112 
C 1914 2112 2093 2092 2202 2041 
C 2061 1397 1824 823 1619 491 
C 1491 294 1318 179 1126 179 
C 742 179 672 670 672 1429 
C 672 1627 685 1831 717 2035 
C 851 2092 1024 2112 1478 2112 
z
M 1869 4300 
C 2272 4300 2310 3777 2310 2986 
C 2310 2808 2298 2623 2272 2444 
C 2144 2399 1946 2380 1523 2380 
C 1088 2380 902 2399 787 2444 
C 954 3197 1248 3886 1478 4154 
C 1568 4249 1715 4300 1869 4300 
z
" transform="scale(0.015625)"/>
     </defs>
     <use xlink:href="#PazoMath-Italic-71" transform="scale(0.996264)"/>
    </g>
   </g>
  </g>
 </g>
 <defs>
  <clipPath id="paccf595f31">
   <rect x="49.10835" y="11.88" width="191.01165" height="195.377222"/>
  </clipPath>
 </defs>
</svg>
