<?xml version="1.0" encoding="utf-8" standalone="no"?>
<!DOCTYPE svg PUBLIC "-//W3C//DTD SVG 1.1//EN"
  "http://www.w3.org/Graphics/SVG/1.1/DTD/svg11.dtd">
<svg xmlns:xlink="http://www.w3.org/1999/xlink" width="352.8pt" height="252pt" viewBox="0 0 352.8 252" xmlns="http://www.w3.org/2000/svg" version="1.1">
 <metadata>
  <rdf:RDF xmlns:dc="http://purl.org/dc/elements/1.1/" xmlns:cc="http://creativecommons.org/ns#" xmlns:rdf="http://www.w3.org/1999/02/22-rdf-syntax-ns#">
   <cc:Work>
    <dc:type rdf:resource="http://purl.org/dc/dcmitype/StillImage"/>
    <dc:date>2022-11-03T04:32:14.987802</dc:date>
    <dc:format>image/svg+xml</dc:format>
    <dc:creator>
     <cc:Agent>
      <dc:title>Matplotlib v3.5.2, https://matplotlib.org/</dc:title>
     </cc:Agent>
    </dc:creator>
   </cc:Work>
  </rdf:RDF>
 </metadata>
 <defs>
  <style type="text/css">*{stroke-linejoin: round; stroke-linecap: butt}</style>
 </defs>
 <g id="figure_1">
  <g id="patch_1">
   <path d="M 0 252 
L 352.8 252 
L 352.8 0 
L 0 0 
z
" style="fill: #ffffff"/>
  </g>
  <g id="axes_1">
   <g id="patch_2">
    <path d="M 33.37303 222.188611 
L 337.873426 222.188611 
L 337.873426 11.88 
L 33.37303 11.88 
z
" style="fill: #ffffff"/>
   </g>
   <g id="matplotlib.axis_1">
    <g id="xtick_1">
     <g id="line2d_1">
      <path d="M 33.37303 222.188611 
L 33.37303 11.88 
" clip-path="url(#p8a06ff4c78)" style="fill: none; stroke: #b0b0b0; stroke-opacity: 0.4; stroke-width: 0.8; stroke-linecap: square"/>
     </g>
     <g id="line2d_2">
      <defs>
       <path id="m78b5efa0f0" d="M 0 0 
L 0 3.5 
" style="stroke: #000000; stroke-width: 0.8"/>
      </defs>
      <g>
       <use xlink:href="#m78b5efa0f0" x="33.37303" y="222.188611" style="stroke: #000000; stroke-width: 0.8"/>
      </g>
     </g>
     <g id="text_1">
      <!-- $\mathbf{\Gamma}$ -->
      <g transform="translate(30.326456 237.02966)scale(0.11 -0.11)">
       <defs>
        <path id="PazoMath-Bold-47" d="M 1626 3962 
C 1978 3981 2131 3981 2368 3981 
C 2803 3981 3072 3936 3078 3860 
L 3130 3383 
L 3360 3383 
L 3450 4287 
L 3411 4332 
C 3174 4345 3046 4352 2803 4352 
L 2477 4352 
C 1498 4352 1498 4332 1325 4332 
C 1088 4332 813 4339 179 4352 
L 179 4115 
L 416 4095 
C 704 4070 723 4032 723 3472 
L 723 879 
C 723 313 717 300 416 275 
L 179 256 
L 179 0 
C 717 -7 947 0 1171 0 
C 1389 19 1632 12 2234 0 
L 2234 256 
L 1933 275 
C 1638 294 1626 319 1626 879 
L 1626 3962 
z
" transform="scale(0.015625)"/>
       </defs>
       <use xlink:href="#PazoMath-Bold-47" transform="scale(0.996264)"/>
      </g>
     </g>
    </g>
    <g id="xtick_2">
     <g id="line2d_3">
      <path d="M 145.300973 222.188611 
L 145.300973 11.88 
" clip-path="url(#p8a06ff4c78)" style="fill: none; stroke: #b0b0b0; stroke-opacity: 0.4; stroke-width: 0.8; stroke-linecap: square"/>
     </g>
     <g id="line2d_4">
      <g>
       <use xlink:href="#m78b5efa0f0" x="145.300973" y="222.188611" style="stroke: #000000; stroke-width: 0.8"/>
      </g>
     </g>
     <g id="text_2">
      <!-- $\mathbf{M}$ -->
      <g transform="translate(139.821521 237.02966)scale(0.11 -0.11)">
       <defs>
        <path id="URWPalladioL-Bold-4d" d="M 4749 3545 
L 4749 883 
C 4749 313 4742 300 4442 275 
L 4205 256 
L 4205 0 
C 4979 0 4979 0 5197 0 
C 5414 19 5421 19 6195 0 
L 6195 256 
L 5958 275 
C 5658 300 5651 313 5651 879 
L 5651 3472 
C 5651 4032 5670 4070 5958 4095 
L 6195 4115 
L 6195 4352 
C 5523 4332 5523 4332 5453 4332 
C 5382 4332 5382 4332 4717 4352 
C 4531 3911 4474 3778 4403 3631 
L 3232 1228 
L 2221 3326 
C 2144 3485 2016 3752 1741 4352 
L 973 4332 
C 870 4332 723 4339 531 4345 
C 435 4345 429 4345 205 4352 
L 205 4115 
L 442 4095 
C 730 4070 749 4032 749 3472 
L 749 879 
C 749 319 730 281 442 256 
L 205 236 
L 205 0 
C 819 0 819 0 941 0 
C 1069 19 1363 12 1670 0 
L 1670 236 
L 1434 256 
C 1146 281 1126 313 1126 883 
L 1126 3552 
L 2598 486 
C 2643 371 2714 217 2829 -64 
L 3046 -64 
C 3168 230 3194 294 3430 780 
L 4749 3545 
z
" transform="scale(0.015625)"/>
       </defs>
       <use xlink:href="#URWPalladioL-Bold-4d" transform="scale(0.996264)"/>
      </g>
     </g>
    </g>
    <g id="xtick_3">
     <g id="line2d_5">
      <path d="M 209.922602 222.188611 
L 209.922602 11.88 
" clip-path="url(#p8a06ff4c78)" style="fill: none; stroke: #b0b0b0; stroke-opacity: 0.4; stroke-width: 0.8; stroke-linecap: square"/>
     </g>
     <g id="line2d_6">
      <g>
       <use xlink:href="#m78b5efa0f0" x="209.922602" y="222.188611" style="stroke: #000000; stroke-width: 0.8"/>
      </g>
     </g>
     <g id="text_3">
      <!-- $\mathbf{K}$ -->
      <g transform="translate(205.659642 237.02966)scale(0.11 -0.11)">
       <defs>
        <path id="URWPalladioL-Bold-4b" d="M 1696 2201 
L 1696 3472 
C 1696 4038 1702 4051 2003 4076 
L 2240 4095 
L 2240 4352 
C 1459 4332 1459 4332 1242 4332 
C 1024 4332 1018 4332 250 4352 
L 250 4095 
L 486 4076 
C 787 4051 794 4038 794 3472 
L 794 879 
C 794 313 787 300 486 275 
L 250 256 
L 250 0 
C 1024 0 1024 0 1242 0 
C 1459 19 1466 19 2240 0 
L 2240 256 
L 2003 275 
C 1702 300 1696 313 1696 883 
L 1696 2144 
C 1862 2048 1888 2022 2253 1593 
L 3584 0 
L 4237 0 
C 4282 0 4339 0 4666 -13 
C 4698 6 4774 6 4883 0 
L 4883 262 
C 4646 268 4499 351 4301 580 
L 2598 2570 
L 4019 3886 
C 4173 4025 4320 4070 4723 4102 
L 4723 4352 
C 4352 4339 4237 4332 4141 4332 
C 4045 4332 3930 4339 3558 4352 
L 3558 4191 
C 3558 4095 3526 4038 3392 3898 
C 3386 3886 3360 3854 3328 3822 
C 3168 3644 3014 3485 2957 3428 
L 1696 2201 
z
" transform="scale(0.015625)"/>
       </defs>
       <use xlink:href="#URWPalladioL-Bold-4b" transform="scale(0.996264)"/>
      </g>
     </g>
    </g>
    <g id="xtick_4">
     <g id="line2d_7">
      <path d="M 337.873426 222.188611 
L 337.873426 11.88 
" clip-path="url(#p8a06ff4c78)" style="fill: none; stroke: #b0b0b0; stroke-opacity: 0.4; stroke-width: 0.8; stroke-linecap: square"/>
     </g>
     <g id="line2d_8">
      <g>
       <use xlink:href="#m78b5efa0f0" x="337.873426" y="222.188611" style="stroke: #000000; stroke-width: 0.8"/>
      </g>
     </g>
     <g id="text_4">
      <!-- $\mathbf{\Gamma}$ -->
      <g transform="translate(334.826852 237.02966)scale(0.11 -0.11)">
       <use xlink:href="#PazoMath-Bold-47" transform="scale(0.996264)"/>
      </g>
     </g>
    </g>
   </g>
   <g id="matplotlib.axis_2">
    <g id="ytick_1">
     <g id="line2d_9">
      <path d="M 33.37303 204.433193 
L 337.873426 204.433193 
" clip-path="url(#p8a06ff4c78)" style="fill: none; stroke: #b0b0b0; stroke-opacity: 0.4; stroke-width: 0.8; stroke-linecap: square"/>
     </g>
     <g id="line2d_10">
      <defs>
       <path id="m8427e54198" d="M 0 0 
L -3.5 0 
" style="stroke: #000000; stroke-width: 0.8"/>
      </defs>
      <g>
       <use xlink:href="#m8427e54198" x="33.37303" y="204.433193" style="stroke: #000000; stroke-width: 0.8"/>
      </g>
     </g>
     <g id="text_5">
      <!-- $\mathdefault{−3}$ -->
      <g transform="translate(11.88 208.353718)scale(0.11 -0.11)">
       <defs>
        <path id="CMSY10-0" d="M 4218 1472 
C 4326 1472 4442 1472 4442 1600 
C 4442 1728 4326 1728 4218 1728 
L 755 1728 
C 646 1728 531 1728 531 1600 
C 531 1472 646 1472 755 1472 
L 4218 1472 
z
" transform="scale(0.015625)"/>
        <path id="URWPalladioL-Roma-33" d="M 275 3196 
L 474 3196 
L 589 3553 
C 659 3770 1062 3987 1395 3987 
C 1811 3987 2150 3649 2150 3247 
C 2150 2769 1773 2368 1318 2368 
C 1267 2368 1197 2374 1114 2380 
L 1018 2387 
L 941 2047 
L 986 2008 
C 1229 2118 1350 2150 1523 2150 
C 2054 2150 2362 1808 2362 1222 
C 2362 565 1971 134 1376 134 
C 1082 134 819 231 627 411 
C 474 553 390 701 269 1048 
L 96 984 
C 230 591 282 359 320 38 
C 659 -77 941 -128 1178 -128 
C 1690 -128 2278 160 2630 591 
C 2848 855 2957 1139 2957 1441 
C 2957 1750 2829 2021 2598 2182 
C 2438 2297 2291 2348 1971 2406 
C 2483 2801 2675 3094 2675 3470 
C 2675 4038 2202 4416 1491 4416 
C 1056 4416 768 4294 461 3987 
L 275 3196 
z
" transform="scale(0.015625)"/>
       </defs>
       <use xlink:href="#CMSY10-0" transform="scale(1.038107)"/>
       <use xlink:href="#URWPalladioL-Roma-33" transform="translate(81.941696 0)scale(0.996264)"/>
      </g>
     </g>
    </g>
    <g id="ytick_2">
     <g id="line2d_11">
      <path d="M 33.37303 175.300231 
L 337.873426 175.300231 
" clip-path="url(#p8a06ff4c78)" style="fill: none; stroke: #b0b0b0; stroke-opacity: 0.4; stroke-width: 0.8; stroke-linecap: square"/>
     </g>
     <g id="line2d_12">
      <g>
       <use xlink:href="#m8427e54198" x="33.37303" y="175.300231" style="stroke: #000000; stroke-width: 0.8"/>
      </g>
     </g>
     <g id="text_6">
      <!-- $\mathdefault{−2}$ -->
      <g transform="translate(11.88 179.220755)scale(0.11 -0.11)">
       <defs>
        <path id="URWPalladioL-Roma-32" d="M 102 166 
L 102 0 
C 1299 0 1299 0 1530 0 
C 1760 19 1760 19 2995 0 
C 2982 134 2982 198 2982 287 
C 2982 370 2982 434 2995 574 
C 2259 542 1965 536 781 510 
L 1946 1741 
C 2566 2398 2758 2749 2758 3228 
C 2758 3961 2259 4416 1446 4416 
C 986 4416 672 4287 358 3967 
L 250 3100 
L 435 3100 
L 518 3394 
C 621 3763 851 3923 1280 3923 
C 1830 3923 2182 3578 2182 3036 
C 2182 2558 1914 2086 1190 1320 
L 102 166 
z
" transform="scale(0.015625)"/>
       </defs>
       <use xlink:href="#CMSY10-0" transform="scale(1.038107)"/>
       <use xlink:href="#URWPalladioL-Roma-32" transform="translate(81.941696 0)scale(0.996264)"/>
      </g>
     </g>
    </g>
    <g id="ytick_3">
     <g id="line2d_13">
      <path d="M 33.37303 146.167268 
L 337.873426 146.167268 
" clip-path="url(#p8a06ff4c78)" style="fill: none; stroke: #b0b0b0; stroke-opacity: 0.4; stroke-width: 0.8; stroke-linecap: square"/>
     </g>
     <g id="line2d_14">
      <g>
       <use xlink:href="#m8427e54198" x="33.37303" y="146.167268" style="stroke: #000000; stroke-width: 0.8"/>
      </g>
     </g>
     <g id="text_7">
      <!-- $\mathdefault{−1}$ -->
      <g transform="translate(11.88 150.087793)scale(0.11 -0.11)">
       <defs>
        <path id="URWPalladioL-Roma-31" d="M 429 3571 
L 493 3571 
L 1318 3942 
C 1325 3949 1331 3949 1338 3949 
C 1376 3949 1389 3891 1389 3737 
L 1389 633 
C 1389 300 1318 230 973 211 
L 614 192 
L 614 0 
C 1600 0 1600 0 1670 0 
C 1754 0 1894 0 2112 -7 
C 2189 6 2413 6 2675 0 
L 2675 192 
L 2342 211 
C 1990 229 1926 299 1926 628 
L 1926 4383 
L 1837 4416 
C 1421 4199 966 4009 384 3807 
L 429 3571 
z
" transform="scale(0.015625)"/>
       </defs>
       <use xlink:href="#CMSY10-0" transform="scale(1.038107)"/>
       <use xlink:href="#URWPalladioL-Roma-31" transform="translate(81.941696 0)scale(0.996264)"/>
      </g>
     </g>
    </g>
    <g id="ytick_4">
     <g id="line2d_15">
      <path d="M 33.37303 117.034306 
L 337.873426 117.034306 
" clip-path="url(#p8a06ff4c78)" style="fill: none; stroke: #b0b0b0; stroke-opacity: 0.4; stroke-width: 0.8; stroke-linecap: square"/>
     </g>
     <g id="line2d_16">
      <g>
       <use xlink:href="#m8427e54198" x="33.37303" y="117.034306" style="stroke: #000000; stroke-width: 0.8"/>
      </g>
     </g>
     <g id="text_8">
      <!-- $\mathdefault{0}$ -->
      <g transform="translate(20.893578 120.95483)scale(0.11 -0.11)">
       <defs>
        <path id="URWPalladioL-Roma-30" d="M 1683 4416 
C 691 4416 186 3628 186 2076 
C 186 1326 320 679 544 365 
C 768 51 1126 -128 1523 -128 
C 2490 -128 2976 704 2976 2345 
C 2976 3749 2560 4416 1683 4416 
z
M 1568 4191 
C 2189 4191 2438 3563 2438 2025 
C 2438 660 2195 96 1606 96 
C 986 96 723 743 723 2307 
C 723 3660 960 4191 1568 4191 
z
" transform="scale(0.015625)"/>
       </defs>
       <use xlink:href="#URWPalladioL-Roma-30" transform="scale(0.996264)"/>
      </g>
     </g>
    </g>
    <g id="ytick_5">
     <g id="line2d_17">
      <path d="M 33.37303 87.901343 
L 337.873426 87.901343 
" clip-path="url(#p8a06ff4c78)" style="fill: none; stroke: #b0b0b0; stroke-opacity: 0.4; stroke-width: 0.8; stroke-linecap: square"/>
     </g>
     <g id="line2d_18">
      <g>
       <use xlink:href="#m8427e54198" x="33.37303" y="87.901343" style="stroke: #000000; stroke-width: 0.8"/>
      </g>
     </g>
     <g id="text_9">
      <!-- $\mathdefault{1}$ -->
      <g transform="translate(20.893578 91.821867)scale(0.11 -0.11)">
       <use xlink:href="#URWPalladioL-Roma-31" transform="scale(0.996264)"/>
      </g>
     </g>
    </g>
    <g id="ytick_6">
     <g id="line2d_19">
      <path d="M 33.37303 58.76838 
L 337.873426 58.76838 
" clip-path="url(#p8a06ff4c78)" style="fill: none; stroke: #b0b0b0; stroke-opacity: 0.4; stroke-width: 0.8; stroke-linecap: square"/>
     </g>
     <g id="line2d_20">
      <g>
       <use xlink:href="#m8427e54198" x="33.37303" y="58.76838" style="stroke: #000000; stroke-width: 0.8"/>
      </g>
     </g>
     <g id="text_10">
      <!-- $\mathdefault{2}$ -->
      <g transform="translate(20.893578 62.688905)scale(0.11 -0.11)">
       <use xlink:href="#URWPalladioL-Roma-32" transform="scale(0.996264)"/>
      </g>
     </g>
    </g>
    <g id="ytick_7">
     <g id="line2d_21">
      <path d="M 33.37303 29.635418 
L 337.873426 29.635418 
" clip-path="url(#p8a06ff4c78)" style="fill: none; stroke: #b0b0b0; stroke-opacity: 0.4; stroke-width: 0.8; stroke-linecap: square"/>
     </g>
     <g id="line2d_22">
      <g>
       <use xlink:href="#m8427e54198" x="33.37303" y="29.635418" style="stroke: #000000; stroke-width: 0.8"/>
      </g>
     </g>
     <g id="text_11">
      <!-- $\mathdefault{3}$ -->
      <g transform="translate(20.893578 33.555942)scale(0.11 -0.11)">
       <use xlink:href="#URWPalladioL-Roma-33" transform="scale(0.996264)"/>
      </g>
     </g>
    </g>
   </g>
   <g id="line2d_23">
    <path d="M 33.37303 207.611207 
L 36.730868 207.524969 
L 40.088706 207.26651 
L 43.446545 206.836599 
L 46.804383 206.236516 
L 51.281501 205.174881 
L 55.758618 203.819698 
L 60.235736 202.178387 
L 64.712854 200.260115 
L 69.189972 198.075889 
L 73.667089 195.638663 
L 78.144207 192.963504 
L 82.621325 190.067825 
L 88.217722 186.169005 
L 93.814119 182.003511 
L 100.529796 176.732759 
L 121.796105 159.723533 
L 126.273223 156.564745 
L 129.631061 154.444378 
L 132.9889 152.607294 
L 135.227458 151.573588 
L 137.466017 150.716255 
L 139.704576 150.054011 
L 141.943135 149.60273 
L 144.181694 149.374018 
L 151.11692 149.086695 
L 154.994218 148.627931 
L 158.871515 147.942049 
L 162.748813 147.031756 
L 166.626111 145.900645 
L 170.503408 144.553179 
L 174.380706 142.994676 
L 178.90422 140.917946 
L 183.427734 138.573531 
L 187.951248 135.974023 
L 192.474762 133.133384 
L 197.644492 129.611304 
L 202.814223 125.81895 
L 208.630169 121.262679 
L 209.922602 120.212319 
L 216.384765 125.646395 
L 224.13936 132.504576 
L 233.186388 140.833619 
L 262.912337 168.507001 
L 270.666932 175.252361 
L 277.129095 180.565725 
L 282.298826 184.572808 
L 287.468556 188.332795 
L 292.638286 191.819313 
L 297.808016 195.007906 
L 302.977747 197.876208 
L 306.855044 199.805053 
L 310.732342 201.534756 
L 314.60964 203.058491 
L 318.486937 204.370244 
L 322.364235 205.464839 
L 326.241533 206.337956 
L 330.118831 206.986149 
L 333.996128 207.40686 
L 337.873426 207.598428 
L 337.873426 207.598428 
" clip-path="url(#p8a06ff4c78)" style="fill: none; stroke: #1f77b4; stroke-width: 1.5; stroke-linecap: square"/>
   </g>
   <g id="line2d_24">
    <path d="M 33.37303 201.25518 
L 36.730868 201.168942 
L 40.088706 200.910484 
L 43.446545 200.480573 
L 46.804383 199.88049 
L 51.281501 198.818854 
L 55.758618 197.463672 
L 60.235736 195.82236 
L 64.712854 193.904089 
L 69.189972 191.719863 
L 73.667089 189.282636 
L 78.144207 186.607477 
L 82.621325 183.711799 
L 88.217722 179.812979 
L 93.814119 175.647485 
L 100.529796 170.376733 
L 121.796105 153.367507 
L 126.273223 150.208719 
L 129.631061 148.088351 
L 132.9889 146.251268 
L 135.227458 145.217561 
L 137.466017 144.360229 
L 139.704576 143.697984 
L 141.943135 143.246704 
L 144.181694 143.017992 
L 151.11692 142.730669 
L 154.994218 142.271905 
L 158.871515 141.586023 
L 162.748813 140.67573 
L 166.626111 139.544618 
L 170.503408 138.197152 
L 174.380706 136.638649 
L 178.90422 134.56192 
L 183.427734 132.217505 
L 187.951248 129.617997 
L 192.474762 126.777357 
L 197.644492 123.255277 
L 202.814223 119.462924 
L 206.045304 117.101411 
L 209.922602 120.212319 
L 213.799899 117.082175 
L 220.262062 122.679382 
L 228.016658 129.68418 
L 239.648551 140.549331 
L 257.742607 157.479401 
L 265.497202 164.438373 
L 271.959365 169.983627 
L 278.421528 175.233126 
L 283.591258 179.181005 
L 288.760988 182.875025 
L 293.930719 186.289276 
L 299.100449 189.399808 
L 304.270179 192.184803 
L 308.147477 194.048074 
L 312.024775 195.70984 
L 315.902072 197.163542 
L 319.77937 198.403443 
L 323.656668 199.424649 
L 327.533965 200.22313 
L 331.411263 200.795736 
L 335.288561 201.140206 
L 337.873426 201.242402 
L 337.873426 201.242402 
" clip-path="url(#p8a06ff4c78)" style="fill: none; stroke: #1f77b4; stroke-width: 1.5; stroke-linecap: square"/>
   </g>
   <g id="line2d_25">
    <path d="M 33.37303 32.813431 
L 36.730868 32.899669 
L 40.088706 33.158127 
L 43.446545 33.588039 
L 46.804383 34.188121 
L 51.281501 35.249757 
L 55.758618 36.604939 
L 60.235736 38.246251 
L 64.712854 40.164522 
L 69.189972 42.348748 
L 73.667089 44.785975 
L 78.144207 47.461134 
L 82.621325 50.356812 
L 88.217722 54.255632 
L 93.814119 58.421126 
L 100.529796 63.691878 
L 121.796105 80.701105 
L 126.273223 83.859892 
L 129.631061 85.98026 
L 132.9889 87.817343 
L 135.227458 88.85105 
L 137.466017 89.708382 
L 139.704576 90.370627 
L 141.943135 90.821907 
L 144.181694 91.05062 
L 151.11692 91.337942 
L 154.994218 91.796706 
L 158.871515 92.482588 
L 162.748813 93.392881 
L 166.626111 94.523993 
L 170.503408 95.871459 
L 174.380706 97.429962 
L 178.90422 99.506691 
L 183.427734 101.851106 
L 187.951248 104.450614 
L 192.474762 107.291254 
L 197.644492 110.813334 
L 202.814223 114.605687 
L 206.045304 116.9672 
L 209.922602 113.856292 
L 213.799899 116.986436 
L 220.262062 111.389229 
L 228.016658 104.384431 
L 239.648551 93.51928 
L 257.742607 76.58921 
L 265.497202 69.630238 
L 271.959365 64.084984 
L 278.421528 58.835485 
L 283.591258 54.887606 
L 288.760988 51.193586 
L 293.930719 47.779335 
L 299.100449 44.668803 
L 304.270179 41.883808 
L 308.147477 40.020537 
L 312.024775 38.358771 
L 315.902072 36.905069 
L 319.77937 35.665168 
L 323.656668 34.643962 
L 327.533965 33.845481 
L 331.411263 33.272875 
L 335.288561 32.928405 
L 337.873426 32.82621 
L 337.873426 32.82621 
" clip-path="url(#p8a06ff4c78)" style="fill: none; stroke: #1f77b4; stroke-width: 1.5; stroke-linecap: square"/>
   </g>
   <g id="line2d_26">
    <path d="M 33.37303 26.457405 
L 36.730868 26.543643 
L 40.088706 26.802101 
L 43.446545 27.232012 
L 46.804383 27.832095 
L 51.281501 28.893731 
L 55.758618 30.248913 
L 60.235736 31.890224 
L 64.712854 33.808496 
L 69.189972 35.992722 
L 73.667089 38.429949 
L 78.144207 41.105107 
L 82.621325 44.000786 
L 88.217722 47.899606 
L 93.814119 52.0651 
L 100.529796 57.335852 
L 121.796105 74.345078 
L 126.273223 77.503866 
L 129.631061 79.624233 
L 132.9889 81.461317 
L 135.227458 82.495023 
L 137.466017 83.352356 
L 139.704576 84.0146 
L 141.943135 84.465881 
L 144.181694 84.694593 
L 151.11692 84.981916 
L 154.994218 85.44068 
L 158.871515 86.126562 
L 162.748813 87.036855 
L 166.626111 88.167966 
L 170.503408 89.515433 
L 174.380706 91.073935 
L 178.90422 93.150665 
L 183.427734 95.49508 
L 187.951248 98.094588 
L 192.474762 100.935228 
L 197.644492 104.457307 
L 202.814223 108.249661 
L 208.630169 112.805932 
L 209.922602 113.856292 
L 216.384765 108.422217 
L 224.13936 101.564035 
L 233.186388 93.234993 
L 262.912337 65.56161 
L 270.666932 58.81625 
L 277.129095 53.502886 
L 282.298826 49.495803 
L 287.468556 45.735816 
L 292.638286 42.249298 
L 297.808016 39.060705 
L 302.977747 36.192403 
L 306.855044 34.263558 
L 310.732342 32.533855 
L 314.60964 31.01012 
L 318.486937 29.698367 
L 322.364235 28.603772 
L 326.241533 27.730655 
L 330.118831 27.082462 
L 333.996128 26.661751 
L 337.873426 26.470183 
L 337.873426 26.470183 
" clip-path="url(#p8a06ff4c78)" style="fill: none; stroke: #1f77b4; stroke-width: 1.5; stroke-linecap: square"/>
   </g>
   <g id="line2d_27">
    <path d="M 33.37303 212.629129 
L 36.730868 212.542891 
L 40.088706 212.284432 
L 43.446545 211.854521 
L 46.804383 211.254438 
L 51.281501 210.192803 
L 55.758618 208.837621 
L 60.235736 207.196309 
L 64.712854 205.278038 
L 69.189972 203.093811 
L 73.667089 200.656585 
L 78.144207 197.981426 
L 82.621325 195.085747 
L 88.217722 191.186928 
L 93.814119 187.021434 
L 100.529796 181.750681 
L 121.796105 164.741455 
L 126.273223 161.582668 
L 129.631061 159.4623 
L 132.9889 157.625217 
L 135.227458 156.59151 
L 137.466017 155.734177 
L 139.704576 155.071933 
L 141.943135 154.620652 
L 144.181694 154.39194 
L 151.11692 154.104617 
L 154.994218 153.645853 
L 158.871515 152.959971 
L 162.748813 152.049678 
L 166.626111 150.918567 
L 170.503408 149.571101 
L 174.380706 148.012598 
L 178.90422 145.935868 
L 183.427734 143.591454 
L 187.951248 140.991945 
L 192.474762 138.151306 
L 197.644492 134.629226 
L 202.814223 130.836872 
L 208.630169 126.280601 
L 209.922602 125.230241 
L 216.384765 130.664317 
L 224.13936 137.522499 
L 233.186388 145.851541 
L 262.912337 173.524923 
L 270.666932 180.270284 
L 277.129095 185.583648 
L 282.298826 189.59073 
L 287.468556 193.350717 
L 292.638286 196.837235 
L 297.808016 200.025828 
L 302.977747 202.89413 
L 306.855044 204.822975 
L 310.732342 206.552678 
L 314.60964 208.076413 
L 318.486937 209.388167 
L 322.364235 210.482762 
L 326.241533 211.355879 
L 330.118831 212.004071 
L 333.996128 212.424782 
L 337.873426 212.61635 
L 337.873426 212.61635 
" clip-path="url(#p8a06ff4c78)" style="fill: none; stroke: #ff7f0e; stroke-width: 1.5; stroke-linecap: square"/>
   </g>
   <g id="line2d_28">
    <path d="M 33.37303 196.237258 
L 36.730868 196.15102 
L 40.088706 195.892562 
L 43.446545 195.46265 
L 46.804383 194.862567 
L 51.281501 193.800932 
L 55.758618 192.44575 
L 60.235736 190.804438 
L 64.712854 188.886167 
L 69.189972 186.701941 
L 73.667089 184.264714 
L 78.144207 181.589555 
L 82.621325 178.693876 
L 88.217722 174.795057 
L 93.814119 170.629563 
L 100.529796 165.358811 
L 121.796105 148.349584 
L 126.273223 145.190797 
L 129.631061 143.070429 
L 132.9889 141.233346 
L 135.227458 140.199639 
L 137.466017 139.342306 
L 139.704576 138.680062 
L 141.943135 138.228781 
L 144.181694 138.000069 
L 151.11692 137.712747 
L 154.994218 137.253983 
L 158.871515 136.568101 
L 162.748813 135.657808 
L 166.626111 134.526696 
L 170.503408 133.17923 
L 174.380706 131.620727 
L 178.90422 129.543998 
L 183.427734 127.199583 
L 187.951248 124.600075 
L 192.474762 121.759435 
L 197.644492 118.237355 
L 198.936925 117.313597 
L 199.583141 117.223105 
L 204.752871 121.11005 
L 209.922602 125.230241 
L 216.384765 119.796165 
L 218.96963 117.546396 
L 220.262062 117.66146 
L 228.016658 124.666258 
L 239.648551 135.531409 
L 257.742607 152.461479 
L 265.497202 159.42045 
L 271.959365 164.965705 
L 278.421528 170.215203 
L 283.591258 174.163083 
L 288.760988 177.857103 
L 293.930719 181.271354 
L 299.100449 184.381885 
L 304.270179 187.166881 
L 308.147477 189.030152 
L 312.024775 190.691918 
L 315.902072 192.14562 
L 319.77937 193.385521 
L 323.656668 194.406727 
L 327.533965 195.205208 
L 331.411263 195.777814 
L 335.288561 196.122283 
L 337.873426 196.224479 
L 337.873426 196.224479 
" clip-path="url(#p8a06ff4c78)" style="fill: none; stroke: #ff7f0e; stroke-width: 1.5; stroke-linecap: square"/>
   </g>
   <g id="line2d_29">
    <path d="M 33.37303 37.831353 
L 36.730868 37.917591 
L 40.088706 38.176049 
L 43.446545 38.605961 
L 46.804383 39.206044 
L 51.281501 40.267679 
L 55.758618 41.622861 
L 60.235736 43.264173 
L 64.712854 45.182444 
L 69.189972 47.36667 
L 73.667089 49.803897 
L 78.144207 52.479056 
L 82.621325 55.374735 
L 88.217722 59.273554 
L 93.814119 63.439048 
L 100.529796 68.709801 
L 121.796105 85.719027 
L 126.273223 88.877814 
L 129.631061 90.998182 
L 132.9889 92.835265 
L 135.227458 93.868972 
L 137.466017 94.726305 
L 139.704576 95.388549 
L 141.943135 95.83983 
L 144.181694 96.068542 
L 151.11692 96.355865 
L 154.994218 96.814629 
L 158.871515 97.50051 
L 162.748813 98.410803 
L 166.626111 99.541915 
L 170.503408 100.889381 
L 174.380706 102.447884 
L 178.90422 104.524614 
L 183.427734 106.869028 
L 187.951248 109.468537 
L 192.474762 112.309176 
L 197.644492 115.831256 
L 198.936925 116.755014 
L 199.583141 116.845506 
L 204.752871 112.958562 
L 209.922602 108.83837 
L 216.384765 114.272446 
L 218.96963 116.522215 
L 220.262062 116.407151 
L 228.016658 109.402353 
L 239.648551 98.537202 
L 257.742607 81.607132 
L 265.497202 74.648161 
L 271.959365 69.102906 
L 278.421528 63.853408 
L 283.591258 59.905528 
L 288.760988 56.211508 
L 293.930719 52.797258 
L 299.100449 49.686726 
L 304.270179 46.901731 
L 308.147477 45.038459 
L 312.024775 43.376693 
L 315.902072 41.922991 
L 319.77937 40.68309 
L 323.656668 39.661884 
L 327.533965 38.863403 
L 331.411263 38.290797 
L 335.288561 37.946328 
L 337.873426 37.844132 
L 337.873426 37.844132 
" clip-path="url(#p8a06ff4c78)" style="fill: none; stroke: #ff7f0e; stroke-width: 1.5; stroke-linecap: square"/>
   </g>
   <g id="line2d_30">
    <path d="M 33.37303 21.439482 
L 36.730868 21.52572 
L 40.088706 21.784179 
L 43.446545 22.21409 
L 46.804383 22.814173 
L 51.281501 23.875808 
L 55.758618 25.23099 
L 60.235736 26.872302 
L 64.712854 28.790573 
L 69.189972 30.9748 
L 73.667089 33.412026 
L 78.144207 36.087185 
L 82.621325 38.982864 
L 88.217722 42.881684 
L 93.814119 47.047177 
L 100.529796 52.31793 
L 121.796105 69.327156 
L 126.273223 72.485944 
L 129.631061 74.606311 
L 132.9889 76.443394 
L 135.227458 77.477101 
L 137.466017 78.334434 
L 139.704576 78.996678 
L 141.943135 79.447959 
L 144.181694 79.676671 
L 151.11692 79.963994 
L 154.994218 80.422758 
L 158.871515 81.10864 
L 162.748813 82.018933 
L 166.626111 83.150044 
L 170.503408 84.49751 
L 174.380706 86.056013 
L 178.90422 88.132743 
L 183.427734 90.477158 
L 187.951248 93.076666 
L 192.474762 95.917305 
L 197.644492 99.439385 
L 202.814223 103.231739 
L 208.630169 107.78801 
L 209.922602 108.83837 
L 216.384765 103.404294 
L 224.13936 96.546113 
L 233.186388 88.21707 
L 262.912337 60.543688 
L 270.666932 53.798327 
L 277.129095 48.484964 
L 282.298826 44.477881 
L 287.468556 40.717894 
L 292.638286 37.231376 
L 297.808016 34.042783 
L 302.977747 31.174481 
L 306.855044 29.245636 
L 310.732342 27.515933 
L 314.60964 25.992198 
L 318.486937 24.680445 
L 322.364235 23.585849 
L 326.241533 22.712733 
L 330.118831 22.06454 
L 333.996128 21.643829 
L 337.873426 21.452261 
L 337.873426 21.452261 
" clip-path="url(#p8a06ff4c78)" style="fill: none; stroke: #ff7f0e; stroke-width: 1.5; stroke-linecap: square"/>
   </g>
   <g id="patch_3">
    <path d="M 33.37303 222.188611 
L 33.37303 11.88 
" style="fill: none; stroke: #000000; stroke-width: 0.8; stroke-linejoin: miter; stroke-linecap: square"/>
   </g>
   <g id="patch_4">
    <path d="M 337.873426 222.188611 
L 337.873426 11.88 
" style="fill: none; stroke: #000000; stroke-width: 0.8; stroke-linejoin: miter; stroke-linecap: square"/>
   </g>
   <g id="patch_5">
    <path d="M 33.37303 222.188611 
L 337.873426 222.188611 
" style="fill: none; stroke: #000000; stroke-width: 0.8; stroke-linejoin: miter; stroke-linecap: square"/>
   </g>
   <g id="patch_6">
    <path d="M 33.37303 11.88 
L 337.873426 11.88 
" style="fill: none; stroke: #000000; stroke-width: 0.8; stroke-linejoin: miter; stroke-linecap: square"/>
   </g>
  </g>
 </g>
 <defs>
  <clipPath id="p8a06ff4c78">
   <rect x="33.37303" y="11.88" width="304.500396" height="210.308611"/>
  </clipPath>
 </defs>
</svg>
