<?xml version="1.0" encoding="utf-8" standalone="no"?>
<!DOCTYPE svg PUBLIC "-//W3C//DTD SVG 1.1//EN"
  "http://www.w3.org/Graphics/SVG/1.1/DTD/svg11.dtd">
<svg xmlns:xlink="http://www.w3.org/1999/xlink" width="352.8pt" height="252pt" viewBox="0 0 352.8 252" xmlns="http://www.w3.org/2000/svg" version="1.1">
 <metadata>
  <rdf:RDF xmlns:dc="http://purl.org/dc/elements/1.1/" xmlns:cc="http://creativecommons.org/ns#" xmlns:rdf="http://www.w3.org/1999/02/22-rdf-syntax-ns#">
   <cc:Work>
    <dc:type rdf:resource="http://purl.org/dc/dcmitype/StillImage"/>
    <dc:date>2022-11-02T19:05:03.732299</dc:date>
    <dc:format>image/svg+xml</dc:format>
    <dc:creator>
     <cc:Agent>
      <dc:title>Matplotlib v3.5.2, https://matplotlib.org/</dc:title>
     </cc:Agent>
    </dc:creator>
   </cc:Work>
  </rdf:RDF>
 </metadata>
 <defs>
  <style type="text/css">*{stroke-linejoin: round; stroke-linecap: butt}</style>
 </defs>
 <g id="figure_1">
  <g id="patch_1">
   <path d="M 0 252 
L 352.8 252 
L 352.8 0 
L 0 0 
z
" style="fill: #ffffff"/>
  </g>
  <g id="axes_1">
   <g id="patch_2">
    <path d="M 62.490813 222.188611 
L 325.851507 222.188611 
L 325.851507 11.88 
L 62.490813 11.88 
z
" style="fill: #ffffff"/>
   </g>
   <g id="matplotlib.axis_1">
    <g id="xtick_1">
     <g id="line2d_1">
      <path d="M 62.490813 222.188611 
L 62.490813 11.88 
" clip-path="url(#p2f63de424a)" style="fill: none; stroke: #b0b0b0; stroke-opacity: 0.3; stroke-width: 0.8; stroke-linecap: square"/>
     </g>
     <g id="line2d_2">
      <defs>
       <path id="mccf64ecd0a" d="M 0 0 
L 0 3.5 
" style="stroke: #000000; stroke-width: 0.8"/>
      </defs>
      <g>
       <use xlink:href="#mccf64ecd0a" x="62.490813" y="222.188611" style="stroke: #000000; stroke-width: 0.8"/>
      </g>
     </g>
     <g id="text_1">
      <!-- $\mathdefault{0.0000}$ -->
      <g transform="translate(47.42232 237.02966)scale(0.11 -0.11)">
       <defs>
        <path id="URWPalladioL-Roma-30" d="M 1683 4416 
C 691 4416 186 3628 186 2076 
C 186 1326 320 679 544 365 
C 768 51 1126 -128 1523 -128 
C 2490 -128 2976 704 2976 2345 
C 2976 3749 2560 4416 1683 4416 
z
M 1568 4191 
C 2189 4191 2438 3563 2438 2025 
C 2438 660 2195 96 1606 96 
C 986 96 723 743 723 2307 
C 723 3660 960 4191 1568 4191 
z
" transform="scale(0.015625)"/>
        <path id="URWPalladioL-Roma-2e" d="M 794 678 
C 602 678 429 499 429 307 
C 429 115 602 -64 787 -64 
C 992 -64 1171 108 1171 307 
C 1171 499 992 678 794 678 
z
" transform="scale(0.015625)"/>
       </defs>
       <use xlink:href="#URWPalladioL-Roma-30" transform="scale(0.996264)"/>
       <use xlink:href="#URWPalladioL-Roma-2e" transform="translate(49.8132 0)scale(0.996264)"/>
       <use xlink:href="#URWPalladioL-Roma-30" transform="translate(74.719801 0)scale(0.996264)"/>
       <use xlink:href="#URWPalladioL-Roma-30" transform="translate(124.533001 0)scale(0.996264)"/>
       <use xlink:href="#URWPalladioL-Roma-30" transform="translate(174.346202 0)scale(0.996264)"/>
       <use xlink:href="#URWPalladioL-Roma-30" transform="translate(224.159402 0)scale(0.996264)"/>
      </g>
     </g>
    </g>
    <g id="xtick_2">
     <g id="line2d_3">
      <path d="M 194.83287 222.188611 
L 194.83287 11.88 
" clip-path="url(#p2f63de424a)" style="fill: none; stroke: #b0b0b0; stroke-opacity: 0.3; stroke-width: 0.8; stroke-linecap: square"/>
     </g>
     <g id="line2d_4">
      <g>
       <use xlink:href="#mccf64ecd0a" x="194.83287" y="222.188611" style="stroke: #000000; stroke-width: 0.8"/>
      </g>
     </g>
     <g id="text_2">
      <!-- $\mathdefault{0.0100}$ -->
      <g transform="translate(179.764377 237.02966)scale(0.11 -0.11)">
       <defs>
        <path id="URWPalladioL-Roma-31" d="M 429 3571 
L 493 3571 
L 1318 3942 
C 1325 3949 1331 3949 1338 3949 
C 1376 3949 1389 3891 1389 3737 
L 1389 633 
C 1389 300 1318 230 973 211 
L 614 192 
L 614 0 
C 1600 0 1600 0 1670 0 
C 1754 0 1894 0 2112 -7 
C 2189 6 2413 6 2675 0 
L 2675 192 
L 2342 211 
C 1990 229 1926 299 1926 628 
L 1926 4383 
L 1837 4416 
C 1421 4199 966 4009 384 3807 
L 429 3571 
z
" transform="scale(0.015625)"/>
       </defs>
       <use xlink:href="#URWPalladioL-Roma-30" transform="scale(0.996264)"/>
       <use xlink:href="#URWPalladioL-Roma-2e" transform="translate(49.8132 0)scale(0.996264)"/>
       <use xlink:href="#URWPalladioL-Roma-30" transform="translate(74.719801 0)scale(0.996264)"/>
       <use xlink:href="#URWPalladioL-Roma-31" transform="translate(124.533001 0)scale(0.996264)"/>
       <use xlink:href="#URWPalladioL-Roma-30" transform="translate(174.346202 0)scale(0.996264)"/>
       <use xlink:href="#URWPalladioL-Roma-30" transform="translate(224.159402 0)scale(0.996264)"/>
      </g>
     </g>
    </g>
    <g id="xtick_3">
     <g id="line2d_5">
      <path d="M 325.851507 222.188611 
L 325.851507 11.88 
" clip-path="url(#p2f63de424a)" style="fill: none; stroke: #b0b0b0; stroke-opacity: 0.3; stroke-width: 0.8; stroke-linecap: square"/>
     </g>
     <g id="line2d_6">
      <g>
       <use xlink:href="#mccf64ecd0a" x="325.851507" y="222.188611" style="stroke: #000000; stroke-width: 0.8"/>
      </g>
     </g>
     <g id="text_3">
      <!-- $\mathdefault{0.0199}$ -->
      <g transform="translate(310.783014 237.02966)scale(0.11 -0.11)">
       <defs>
        <path id="URWPalladioL-Roma-39" d="M 614 -128 
C 1325 103 1632 252 1978 550 
C 2598 1087 2925 1830 2925 2684 
C 2925 3759 2406 4416 1562 4416 
C 742 4416 128 3778 128 2925 
C 128 2194 608 1657 1274 1657 
C 1491 1657 1741 1727 1856 1823 
L 2304 2194 
C 2253 1113 1555 317 397 32 
L 397 -20 
L 614 -128 
z
M 1536 4204 
C 1824 4204 2035 4083 2176 3829 
C 2291 3625 2368 3314 2368 3027 
C 2368 2442 2029 2048 1536 2048 
C 1024 2048 678 2499 678 3161 
C 678 3803 1011 4204 1536 4204 
z
" transform="scale(0.015625)"/>
       </defs>
       <use xlink:href="#URWPalladioL-Roma-30" transform="scale(0.996264)"/>
       <use xlink:href="#URWPalladioL-Roma-2e" transform="translate(49.8132 0)scale(0.996264)"/>
       <use xlink:href="#URWPalladioL-Roma-30" transform="translate(74.719801 0)scale(0.996264)"/>
       <use xlink:href="#URWPalladioL-Roma-31" transform="translate(124.533001 0)scale(0.996264)"/>
       <use xlink:href="#URWPalladioL-Roma-39" transform="translate(174.346202 0)scale(0.996264)"/>
       <use xlink:href="#URWPalladioL-Roma-39" transform="translate(224.159402 0)scale(0.996264)"/>
      </g>
     </g>
    </g>
   </g>
   <g id="matplotlib.axis_2">
    <g id="ytick_1">
     <g id="line2d_7">
      <path d="M 62.490813 206.887793 
L 325.851507 206.887793 
" clip-path="url(#p2f63de424a)" style="fill: none; stroke: #b0b0b0; stroke-opacity: 0.3; stroke-width: 0.8; stroke-linecap: square"/>
     </g>
     <g id="line2d_8">
      <defs>
       <path id="m568c28552a" d="M 0 0 
L -3.5 0 
" style="stroke: #000000; stroke-width: 0.8"/>
      </defs>
      <g>
       <use xlink:href="#m568c28552a" x="62.490813" y="206.887793" style="stroke: #000000; stroke-width: 0.8"/>
      </g>
     </g>
     <g id="text_4">
      <!-- $\mathdefault{−0.02}$ -->
      <g transform="translate(27.299153 210.808317)scale(0.11 -0.11)">
       <defs>
        <path id="CMSY10-0" d="M 4218 1472 
C 4326 1472 4442 1472 4442 1600 
C 4442 1728 4326 1728 4218 1728 
L 755 1728 
C 646 1728 531 1728 531 1600 
C 531 1472 646 1472 755 1472 
L 4218 1472 
z
" transform="scale(0.015625)"/>
        <path id="URWPalladioL-Roma-32" d="M 102 166 
L 102 0 
C 1299 0 1299 0 1530 0 
C 1760 19 1760 19 2995 0 
C 2982 134 2982 198 2982 287 
C 2982 370 2982 434 2995 574 
C 2259 542 1965 536 781 510 
L 1946 1741 
C 2566 2398 2758 2749 2758 3228 
C 2758 3961 2259 4416 1446 4416 
C 986 4416 672 4287 358 3967 
L 250 3100 
L 435 3100 
L 518 3394 
C 621 3763 851 3923 1280 3923 
C 1830 3923 2182 3578 2182 3036 
C 2182 2558 1914 2086 1190 1320 
L 102 166 
z
" transform="scale(0.015625)"/>
       </defs>
       <use xlink:href="#CMSY10-0" transform="scale(1.038107)"/>
       <use xlink:href="#URWPalladioL-Roma-30" transform="translate(81.941696 0)scale(0.996264)"/>
       <use xlink:href="#URWPalladioL-Roma-2e" transform="translate(131.754897 0)scale(0.996264)"/>
       <use xlink:href="#URWPalladioL-Roma-30" transform="translate(156.661497 0)scale(0.996264)"/>
       <use xlink:href="#URWPalladioL-Roma-32" transform="translate(206.474698 0)scale(0.996264)"/>
      </g>
     </g>
    </g>
    <g id="ytick_2">
     <g id="line2d_9">
      <path d="M 62.490813 161.961049 
L 325.851507 161.961049 
" clip-path="url(#p2f63de424a)" style="fill: none; stroke: #b0b0b0; stroke-opacity: 0.3; stroke-width: 0.8; stroke-linecap: square"/>
     </g>
     <g id="line2d_10">
      <g>
       <use xlink:href="#m568c28552a" x="62.490813" y="161.961049" style="stroke: #000000; stroke-width: 0.8"/>
      </g>
     </g>
     <g id="text_5">
      <!-- $\mathdefault{−0.01}$ -->
      <g transform="translate(27.299153 165.881574)scale(0.11 -0.11)">
       <use xlink:href="#CMSY10-0" transform="scale(1.038107)"/>
       <use xlink:href="#URWPalladioL-Roma-30" transform="translate(81.941696 0)scale(0.996264)"/>
       <use xlink:href="#URWPalladioL-Roma-2e" transform="translate(131.754897 0)scale(0.996264)"/>
       <use xlink:href="#URWPalladioL-Roma-30" transform="translate(156.661497 0)scale(0.996264)"/>
       <use xlink:href="#URWPalladioL-Roma-31" transform="translate(206.474698 0)scale(0.996264)"/>
      </g>
     </g>
    </g>
    <g id="ytick_3">
     <g id="line2d_11">
      <path d="M 62.490813 117.034306 
L 325.851507 117.034306 
" clip-path="url(#p2f63de424a)" style="fill: none; stroke: #b0b0b0; stroke-opacity: 0.3; stroke-width: 0.8; stroke-linecap: square"/>
     </g>
     <g id="line2d_12">
      <g>
       <use xlink:href="#m568c28552a" x="62.490813" y="117.034306" style="stroke: #000000; stroke-width: 0.8"/>
      </g>
     </g>
     <g id="text_6">
      <!-- $\mathdefault{0.00}$ -->
      <g transform="translate(36.312731 120.95483)scale(0.11 -0.11)">
       <use xlink:href="#URWPalladioL-Roma-30" transform="scale(0.996264)"/>
       <use xlink:href="#URWPalladioL-Roma-2e" transform="translate(49.8132 0)scale(0.996264)"/>
       <use xlink:href="#URWPalladioL-Roma-30" transform="translate(74.719801 0)scale(0.996264)"/>
       <use xlink:href="#URWPalladioL-Roma-30" transform="translate(124.533001 0)scale(0.996264)"/>
      </g>
     </g>
    </g>
    <g id="ytick_4">
     <g id="line2d_13">
      <path d="M 62.490813 72.107562 
L 325.851507 72.107562 
" clip-path="url(#p2f63de424a)" style="fill: none; stroke: #b0b0b0; stroke-opacity: 0.3; stroke-width: 0.8; stroke-linecap: square"/>
     </g>
     <g id="line2d_14">
      <g>
       <use xlink:href="#m568c28552a" x="62.490813" y="72.107562" style="stroke: #000000; stroke-width: 0.8"/>
      </g>
     </g>
     <g id="text_7">
      <!-- $\mathdefault{0.01}$ -->
      <g transform="translate(36.312731 76.028086)scale(0.11 -0.11)">
       <use xlink:href="#URWPalladioL-Roma-30" transform="scale(0.996264)"/>
       <use xlink:href="#URWPalladioL-Roma-2e" transform="translate(49.8132 0)scale(0.996264)"/>
       <use xlink:href="#URWPalladioL-Roma-30" transform="translate(74.719801 0)scale(0.996264)"/>
       <use xlink:href="#URWPalladioL-Roma-31" transform="translate(124.533001 0)scale(0.996264)"/>
      </g>
     </g>
    </g>
    <g id="ytick_5">
     <g id="line2d_15">
      <path d="M 62.490813 27.180818 
L 325.851507 27.180818 
" clip-path="url(#p2f63de424a)" style="fill: none; stroke: #b0b0b0; stroke-opacity: 0.3; stroke-width: 0.8; stroke-linecap: square"/>
     </g>
     <g id="line2d_16">
      <g>
       <use xlink:href="#m568c28552a" x="62.490813" y="27.180818" style="stroke: #000000; stroke-width: 0.8"/>
      </g>
     </g>
     <g id="text_8">
      <!-- $\mathdefault{0.02}$ -->
      <g transform="translate(36.312731 31.101343)scale(0.11 -0.11)">
       <use xlink:href="#URWPalladioL-Roma-30" transform="scale(0.996264)"/>
       <use xlink:href="#URWPalladioL-Roma-2e" transform="translate(49.8132 0)scale(0.996264)"/>
       <use xlink:href="#URWPalladioL-Roma-30" transform="translate(74.719801 0)scale(0.996264)"/>
       <use xlink:href="#URWPalladioL-Roma-32" transform="translate(124.533001 0)scale(0.996264)"/>
      </g>
     </g>
    </g>
    <g id="text_9">
     <!-- $\varepsilon(\mathbf{k})/t_1$ -->
     <g transform="translate(20.208813 134.850589)rotate(-90)scale(0.11 -0.11)">
      <defs>
       <path id="PazoMath-Italic-23" d="M 1971 2663 
L 1952 2243 
L 2131 2243 
C 2163 2529 2221 2695 2304 2924 
C 2093 3040 1779 3104 1562 3104 
C 1274 3104 1037 2988 774 2803 
C 582 2669 326 2389 326 2154 
C 326 1893 531 1721 890 1651 
C 742 1606 576 1497 365 1323 
C 154 1156 96 905 96 725 
C 96 500 173 371 262 256 
C 454 12 800 -64 1146 -64 
C 1466 -64 1824 102 2330 500 
L 2253 609 
C 1914 365 1606 256 1376 256 
C 1062 256 627 397 627 809 
C 627 1207 768 1535 1389 1535 
C 1549 1535 1683 1523 1792 1490 
C 1792 1529 1824 1683 1843 1728 
L 1830 1791 
C 1696 1747 1568 1728 1440 1728 
C 1050 1728 787 1899 787 2237 
C 787 2593 1146 2880 1510 2880 
C 1645 2880 1741 2854 1843 2809 
C 1939 2771 1965 2676 1971 2663 
z
" transform="scale(0.015625)"/>
       <path id="CMR10-28" d="M 2118 -1536 
C 2118 -1517 2118 -1504 2010 -1396 
C 1210 -589 1005 620 1005 1600 
C 1005 2713 1248 3827 2035 4627 
C 2118 4704 2118 4716 2118 4736 
C 2118 4780 2093 4800 2054 4800 
C 1990 4800 1414 4365 1037 3552 
C 710 2848 634 2137 634 1600 
C 634 1100 704 326 1056 -397 
C 1440 -1184 1990 -1600 2054 -1600 
C 2093 -1600 2118 -1581 2118 -1536 
z
" transform="scale(0.015625)"/>
       <path id="URWPalladioL-Bold-6b" d="M 1370 4627 
L 909 4486 
C 723 4428 506 4390 134 4352 
L 134 4121 
L 474 4102 
C 614 4095 640 4031 640 3649 
L 640 657 
C 640 313 608 262 410 249 
L 186 236 
L 186 0 
L 1011 19 
C 1139 19 1446 12 1875 0 
L 1875 236 
L 1651 249 
C 1453 262 1421 313 1421 657 
L 1421 1459 
L 1485 1459 
L 2163 695 
C 2259 587 2624 140 2720 19 
L 3821 19 
L 3821 236 
C 3686 249 3584 313 3469 440 
L 2214 1841 
L 2266 1892 
C 2458 2083 2643 2255 2714 2299 
L 3110 2586 
C 3213 2662 3322 2700 3418 2700 
L 3616 2700 
L 3616 2944 
L 2784 2944 
L 2099 2223 
C 1952 2070 1779 1911 1421 1605 
L 1421 4588 
L 1370 4627 
z
" transform="scale(0.015625)"/>
       <path id="CMR10-29" d="M 1850 1600 
C 1850 2099 1779 2873 1427 3597 
C 1043 4384 493 4800 429 4800 
C 390 4800 365 4774 365 4736 
C 365 4716 365 4704 486 4589 
C 1114 3955 1478 2937 1478 1600 
C 1478 505 1242 -621 448 -1428 
C 365 -1504 365 -1517 365 -1536 
C 365 -1575 390 -1600 429 -1600 
C 493 -1600 1069 -1165 1446 -352 
C 1773 352 1850 1062 1850 1600 
z
" transform="scale(0.015625)"/>
       <path id="URWPalladioL-Roma-2f" d="M 3322 4646 
L 2938 4646 
L 557 -762 
L 941 -762 
L 3322 4646 
z
" transform="scale(0.015625)"/>
       <path id="URWPalladioL-Ital-74" d="M 800 2489 
L 442 678 
C 435 633 429 620 410 544 
C 371 364 358 268 358 192 
C 358 32 429 -64 550 -64 
C 774 -64 998 64 1498 467 
L 1594 544 
L 1696 627 
L 1632 742 
L 1344 544 
C 1158 416 1030 352 960 352 
C 902 352 870 403 870 480 
C 870 646 960 1164 1146 2092 
L 1229 2489 
L 1914 2489 
L 1984 2809 
C 1741 2784 1523 2771 1280 2771 
C 1382 3373 1453 3686 1568 4032 
L 1498 4128 
C 1370 4051 1197 3974 998 3897 
L 838 2809 
C 557 2675 390 2604 275 2572 
L 262 2489 
L 800 2489 
z
" transform="scale(0.015625)"/>
      </defs>
      <use xlink:href="#PazoMath-Italic-23" transform="scale(0.996264)"/>
      <use xlink:href="#CMR10-28" transform="translate(39.950178 0)scale(1.038107)"/>
      <use xlink:href="#URWPalladioL-Bold-6b" transform="translate(82.689882 0)scale(0.996264)"/>
      <use xlink:href="#CMR10-29" transform="translate(146.051291 0)scale(1.038107)"/>
      <use xlink:href="#URWPalladioL-Roma-2f" transform="translate(188.790996 0)scale(0.996264)"/>
      <use xlink:href="#URWPalladioL-Ital-74" transform="translate(251.6552 0)scale(0.996264)"/>
      <use xlink:href="#URWPalladioL-Roma-31" transform="translate(286.075183 -18.577338)scale(0.757155)"/>
     </g>
    </g>
   </g>
   <g id="line2d_17">
    <path d="M 62.490813 212.629129 
L 325.851507 22.170012 
L 325.851507 22.170012 
" clip-path="url(#p2f63de424a)" style="fill: none; stroke: #1f77b4; stroke-width: 1.5; stroke-linecap: square"/>
   </g>
   <g id="line2d_18">
    <path d="M 62.490813 21.439482 
L 325.851507 211.898599 
L 325.851507 211.898599 
" clip-path="url(#p2f63de424a)" style="fill: none; stroke: #ff7f0e; stroke-width: 1.5; stroke-linecap: square"/>
   </g>
   <g id="line2d_19">
    <defs>
     <path id="m66563c7b91" d="M 0 1.5 
C 0.397805 1.5 0.77937 1.341951 1.06066 1.06066 
C 1.341951 0.77937 1.5 0.397805 1.5 0 
C 1.5 -0.397805 1.341951 -0.77937 1.06066 -1.06066 
C 0.77937 -1.341951 0.397805 -1.5 0 -1.5 
C -0.397805 -1.5 -0.77937 -1.341951 -1.06066 -1.06066 
C -1.341951 -0.77937 -1.5 -0.397805 -1.5 0 
C -1.5 0.397805 -1.341951 0.77937 -1.06066 1.06066 
C -0.77937 1.341951 -0.397805 1.5 0 1.5 
z
" style="stroke: #2ca02c"/>
    </defs>
    <g clip-path="url(#p2f63de424a)">
     <use xlink:href="#m66563c7b91" x="62.490813" y="212.404993" style="fill: #2ca02c; stroke: #2ca02c"/>
     <use xlink:href="#m66563c7b91" x="69.107916" y="207.652825" style="fill: #2ca02c; stroke: #2ca02c"/>
     <use xlink:href="#m66563c7b91" x="75.725019" y="202.898923" style="fill: #2ca02c; stroke: #2ca02c"/>
     <use xlink:href="#m66563c7b91" x="82.342122" y="198.143289" style="fill: #2ca02c; stroke: #2ca02c"/>
     <use xlink:href="#m66563c7b91" x="88.959225" y="193.385925" style="fill: #2ca02c; stroke: #2ca02c"/>
     <use xlink:href="#m66563c7b91" x="95.576327" y="188.626833" style="fill: #2ca02c; stroke: #2ca02c"/>
     <use xlink:href="#m66563c7b91" x="102.19343" y="183.866015" style="fill: #2ca02c; stroke: #2ca02c"/>
     <use xlink:href="#m66563c7b91" x="108.810533" y="179.103472" style="fill: #2ca02c; stroke: #2ca02c"/>
     <use xlink:href="#m66563c7b91" x="115.427636" y="174.339207" style="fill: #2ca02c; stroke: #2ca02c"/>
     <use xlink:href="#m66563c7b91" x="122.044739" y="169.57322" style="fill: #2ca02c; stroke: #2ca02c"/>
     <use xlink:href="#m66563c7b91" x="128.661842" y="164.805515" style="fill: #2ca02c; stroke: #2ca02c"/>
     <use xlink:href="#m66563c7b91" x="135.278945" y="160.036092" style="fill: #2ca02c; stroke: #2ca02c"/>
     <use xlink:href="#m66563c7b91" x="141.896047" y="155.264954" style="fill: #2ca02c; stroke: #2ca02c"/>
     <use xlink:href="#m66563c7b91" x="148.51315" y="150.492102" style="fill: #2ca02c; stroke: #2ca02c"/>
     <use xlink:href="#m66563c7b91" x="155.130253" y="145.717538" style="fill: #2ca02c; stroke: #2ca02c"/>
     <use xlink:href="#m66563c7b91" x="161.747356" y="140.941264" style="fill: #2ca02c; stroke: #2ca02c"/>
     <use xlink:href="#m66563c7b91" x="168.364459" y="136.163281" style="fill: #2ca02c; stroke: #2ca02c"/>
     <use xlink:href="#m66563c7b91" x="174.981562" y="131.383593" style="fill: #2ca02c; stroke: #2ca02c"/>
     <use xlink:href="#m66563c7b91" x="181.598665" y="126.602199" style="fill: #2ca02c; stroke: #2ca02c"/>
     <use xlink:href="#m66563c7b91" x="188.215767" y="121.819103" style="fill: #2ca02c; stroke: #2ca02c"/>
     <use xlink:href="#m66563c7b91" x="194.83287" y="117.034306" style="fill: #2ca02c; stroke: #2ca02c"/>
     <use xlink:href="#m66563c7b91" x="201.449973" y="112.247809" style="fill: #2ca02c; stroke: #2ca02c"/>
     <use xlink:href="#m66563c7b91" x="208.067076" y="107.459615" style="fill: #2ca02c; stroke: #2ca02c"/>
     <use xlink:href="#m66563c7b91" x="214.684179" y="102.669725" style="fill: #2ca02c; stroke: #2ca02c"/>
     <use xlink:href="#m66563c7b91" x="221.301282" y="97.878142" style="fill: #2ca02c; stroke: #2ca02c"/>
     <use xlink:href="#m66563c7b91" x="227.918385" y="93.084866" style="fill: #2ca02c; stroke: #2ca02c"/>
     <use xlink:href="#m66563c7b91" x="234.535487" y="88.289901" style="fill: #2ca02c; stroke: #2ca02c"/>
     <use xlink:href="#m66563c7b91" x="241.15259" y="83.493247" style="fill: #2ca02c; stroke: #2ca02c"/>
     <use xlink:href="#m66563c7b91" x="247.769693" y="78.694906" style="fill: #2ca02c; stroke: #2ca02c"/>
     <use xlink:href="#m66563c7b91" x="254.386796" y="73.894881" style="fill: #2ca02c; stroke: #2ca02c"/>
     <use xlink:href="#m66563c7b91" x="261.003899" y="69.093173" style="fill: #2ca02c; stroke: #2ca02c"/>
     <use xlink:href="#m66563c7b91" x="267.621002" y="64.289783" style="fill: #2ca02c; stroke: #2ca02c"/>
     <use xlink:href="#m66563c7b91" x="274.238105" y="59.484715" style="fill: #2ca02c; stroke: #2ca02c"/>
     <use xlink:href="#m66563c7b91" x="280.855207" y="54.677969" style="fill: #2ca02c; stroke: #2ca02c"/>
     <use xlink:href="#m66563c7b91" x="287.47231" y="49.869547" style="fill: #2ca02c; stroke: #2ca02c"/>
     <use xlink:href="#m66563c7b91" x="294.089413" y="45.059451" style="fill: #2ca02c; stroke: #2ca02c"/>
     <use xlink:href="#m66563c7b91" x="300.706516" y="40.247684" style="fill: #2ca02c; stroke: #2ca02c"/>
     <use xlink:href="#m66563c7b91" x="307.323619" y="35.434246" style="fill: #2ca02c; stroke: #2ca02c"/>
     <use xlink:href="#m66563c7b91" x="313.940722" y="30.61914" style="fill: #2ca02c; stroke: #2ca02c"/>
     <use xlink:href="#m66563c7b91" x="320.557825" y="25.802367" style="fill: #2ca02c; stroke: #2ca02c"/>
    </g>
   </g>
   <g id="line2d_20">
    <defs>
     <path id="mc66b5d65ed" d="M 0 1.5 
C 0.397805 1.5 0.77937 1.341951 1.06066 1.06066 
C 1.341951 0.77937 1.5 0.397805 1.5 0 
C 1.5 -0.397805 1.341951 -0.77937 1.06066 -1.06066 
C 0.77937 -1.341951 0.397805 -1.5 0 -1.5 
C -0.397805 -1.5 -0.77937 -1.341951 -1.06066 -1.06066 
C -1.341951 -0.77937 -1.5 -0.397805 -1.5 0 
C -1.5 0.397805 -1.341951 0.77937 -1.06066 1.06066 
C -0.77937 1.341951 -0.397805 1.5 0 1.5 
z
" style="stroke: #d62728"/>
    </defs>
    <g clip-path="url(#p2f63de424a)">
     <use xlink:href="#mc66b5d65ed" x="62.490813" y="21.663618" style="fill: #d62728; stroke: #d62728"/>
     <use xlink:href="#mc66b5d65ed" x="69.107916" y="26.415786" style="fill: #d62728; stroke: #d62728"/>
     <use xlink:href="#mc66b5d65ed" x="75.725019" y="31.169689" style="fill: #d62728; stroke: #d62728"/>
     <use xlink:href="#mc66b5d65ed" x="82.342122" y="35.925322" style="fill: #d62728; stroke: #d62728"/>
     <use xlink:href="#mc66b5d65ed" x="88.959225" y="40.682686" style="fill: #d62728; stroke: #d62728"/>
     <use xlink:href="#mc66b5d65ed" x="95.576327" y="45.441778" style="fill: #d62728; stroke: #d62728"/>
     <use xlink:href="#mc66b5d65ed" x="102.19343" y="50.202596" style="fill: #d62728; stroke: #d62728"/>
     <use xlink:href="#mc66b5d65ed" x="108.810533" y="54.965139" style="fill: #d62728; stroke: #d62728"/>
     <use xlink:href="#mc66b5d65ed" x="115.427636" y="59.729405" style="fill: #d62728; stroke: #d62728"/>
     <use xlink:href="#mc66b5d65ed" x="122.044739" y="64.495391" style="fill: #d62728; stroke: #d62728"/>
     <use xlink:href="#mc66b5d65ed" x="128.661842" y="69.263096" style="fill: #d62728; stroke: #d62728"/>
     <use xlink:href="#mc66b5d65ed" x="135.278945" y="74.032519" style="fill: #d62728; stroke: #d62728"/>
     <use xlink:href="#mc66b5d65ed" x="141.896047" y="78.803658" style="fill: #d62728; stroke: #d62728"/>
     <use xlink:href="#mc66b5d65ed" x="148.51315" y="83.57651" style="fill: #d62728; stroke: #d62728"/>
     <use xlink:href="#mc66b5d65ed" x="155.130253" y="88.351073" style="fill: #d62728; stroke: #d62728"/>
     <use xlink:href="#mc66b5d65ed" x="161.747356" y="93.127347" style="fill: #d62728; stroke: #d62728"/>
     <use xlink:href="#mc66b5d65ed" x="168.364459" y="97.90533" style="fill: #d62728; stroke: #d62728"/>
     <use xlink:href="#mc66b5d65ed" x="174.981562" y="102.685019" style="fill: #d62728; stroke: #d62728"/>
     <use xlink:href="#mc66b5d65ed" x="181.598665" y="107.466412" style="fill: #d62728; stroke: #d62728"/>
     <use xlink:href="#mc66b5d65ed" x="188.215767" y="112.249508" style="fill: #d62728; stroke: #d62728"/>
     <use xlink:href="#mc66b5d65ed" x="194.83287" y="117.034306" style="fill: #d62728; stroke: #d62728"/>
     <use xlink:href="#mc66b5d65ed" x="201.449973" y="121.820802" style="fill: #d62728; stroke: #d62728"/>
     <use xlink:href="#mc66b5d65ed" x="208.067076" y="126.608996" style="fill: #d62728; stroke: #d62728"/>
     <use xlink:href="#mc66b5d65ed" x="214.684179" y="131.398886" style="fill: #d62728; stroke: #d62728"/>
     <use xlink:href="#mc66b5d65ed" x="221.301282" y="136.190469" style="fill: #d62728; stroke: #d62728"/>
     <use xlink:href="#mc66b5d65ed" x="227.918385" y="140.983745" style="fill: #d62728; stroke: #d62728"/>
     <use xlink:href="#mc66b5d65ed" x="234.535487" y="145.77871" style="fill: #d62728; stroke: #d62728"/>
     <use xlink:href="#mc66b5d65ed" x="241.15259" y="150.575364" style="fill: #d62728; stroke: #d62728"/>
     <use xlink:href="#mc66b5d65ed" x="247.769693" y="155.373705" style="fill: #d62728; stroke: #d62728"/>
     <use xlink:href="#mc66b5d65ed" x="254.386796" y="160.17373" style="fill: #d62728; stroke: #d62728"/>
     <use xlink:href="#mc66b5d65ed" x="261.003899" y="164.975438" style="fill: #d62728; stroke: #d62728"/>
     <use xlink:href="#mc66b5d65ed" x="267.621002" y="169.778828" style="fill: #d62728; stroke: #d62728"/>
     <use xlink:href="#mc66b5d65ed" x="274.238105" y="174.583896" style="fill: #d62728; stroke: #d62728"/>
     <use xlink:href="#mc66b5d65ed" x="280.855207" y="179.390642" style="fill: #d62728; stroke: #d62728"/>
     <use xlink:href="#mc66b5d65ed" x="287.47231" y="184.199064" style="fill: #d62728; stroke: #d62728"/>
     <use xlink:href="#mc66b5d65ed" x="294.089413" y="189.00916" style="fill: #d62728; stroke: #d62728"/>
     <use xlink:href="#mc66b5d65ed" x="300.706516" y="193.820927" style="fill: #d62728; stroke: #d62728"/>
     <use xlink:href="#mc66b5d65ed" x="307.323619" y="198.634365" style="fill: #d62728; stroke: #d62728"/>
     <use xlink:href="#mc66b5d65ed" x="313.940722" y="203.449471" style="fill: #d62728; stroke: #d62728"/>
     <use xlink:href="#mc66b5d65ed" x="320.557825" y="208.266244" style="fill: #d62728; stroke: #d62728"/>
    </g>
   </g>
   <g id="patch_3">
    <path d="M 62.490813 222.188611 
L 62.490813 11.88 
" style="fill: none; stroke: #000000; stroke-width: 0.8; stroke-linejoin: miter; stroke-linecap: square"/>
   </g>
   <g id="patch_4">
    <path d="M 325.851507 222.188611 
L 325.851507 11.88 
" style="fill: none; stroke: #000000; stroke-width: 0.8; stroke-linejoin: miter; stroke-linecap: square"/>
   </g>
   <g id="patch_5">
    <path d="M 62.490813 222.188611 
L 325.851507 222.188611 
" style="fill: none; stroke: #000000; stroke-width: 0.8; stroke-linejoin: miter; stroke-linecap: square"/>
   </g>
   <g id="patch_6">
    <path d="M 62.490813 11.88 
L 325.851507 11.88 
" style="fill: none; stroke: #000000; stroke-width: 0.8; stroke-linejoin: miter; stroke-linecap: square"/>
   </g>
  </g>
 </g>
 <defs>
  <clipPath id="p2f63de424a">
   <rect x="62.490813" y="11.88" width="263.360694" height="210.308611"/>
  </clipPath>
 </defs>
</svg>
