<?xml version="1.0" encoding="utf-8" standalone="no"?>
<!DOCTYPE svg PUBLIC "-//W3C//DTD SVG 1.1//EN"
  "http://www.w3.org/Graphics/SVG/1.1/DTD/svg11.dtd">
<svg xmlns:xlink="http://www.w3.org/1999/xlink" width="352.8pt" height="252pt" viewBox="0 0 352.8 252" xmlns="http://www.w3.org/2000/svg" version="1.1">
 <metadata>
  <rdf:RDF xmlns:dc="http://purl.org/dc/elements/1.1/" xmlns:cc="http://creativecommons.org/ns#" xmlns:rdf="http://www.w3.org/1999/02/22-rdf-syntax-ns#">
   <cc:Work>
    <dc:type rdf:resource="http://purl.org/dc/dcmitype/StillImage"/>
    <dc:date>2022-11-02T18:22:56.150448</dc:date>
    <dc:format>image/svg+xml</dc:format>
    <dc:creator>
     <cc:Agent>
      <dc:title>Matplotlib v3.5.2, https://matplotlib.org/</dc:title>
     </cc:Agent>
    </dc:creator>
   </cc:Work>
  </rdf:RDF>
 </metadata>
 <defs>
  <style type="text/css">*{stroke-linejoin: round; stroke-linecap: butt}</style>
 </defs>
 <g id="figure_1">
  <g id="patch_1">
   <path d="M 0 252 
L 352.8 252 
L 352.8 0 
L 0 0 
z
" style="fill: #ffffff"/>
  </g>
  <g id="axes_1">
   <g id="patch_2">
    <path d="M 48.792183 222.188611 
L 282.494437 222.188611 
L 282.494437 15.800524 
L 48.792183 15.800524 
z
" style="fill: #ffffff"/>
   </g>
   <g id="matplotlib.axis_1">
    <g id="xtick_1">
     <g id="line2d_1">
      <path d="M 48.792183 222.188611 
L 48.792183 15.800524 
" clip-path="url(#p898e3ce880)" style="fill: none; stroke: #b0b0b0; stroke-width: 0.8; stroke-linecap: square"/>
     </g>
     <g id="line2d_2">
      <defs>
       <path id="m05657a6811" d="M 0 0 
L 0 3.5 
" style="stroke: #000000; stroke-width: 0.8"/>
      </defs>
      <g>
       <use xlink:href="#m05657a6811" x="48.792183" y="222.188611" style="stroke: #000000; stroke-width: 0.8"/>
      </g>
     </g>
     <g id="text_1">
      <!-- $\mathbf{\Gamma}$ -->
      <g transform="translate(45.745609 237.02966)scale(0.11 -0.11)">
       <defs>
        <path id="PazoMath-Bold-47" d="M 1626 3962 
C 1978 3981 2131 3981 2368 3981 
C 2803 3981 3072 3936 3078 3860 
L 3130 3383 
L 3360 3383 
L 3450 4287 
L 3411 4332 
C 3174 4345 3046 4352 2803 4352 
L 2477 4352 
C 1498 4352 1498 4332 1325 4332 
C 1088 4332 813 4339 179 4352 
L 179 4115 
L 416 4095 
C 704 4070 723 4032 723 3472 
L 723 879 
C 723 313 717 300 416 275 
L 179 256 
L 179 0 
C 717 -7 947 0 1171 0 
C 1389 19 1632 12 2234 0 
L 2234 256 
L 1933 275 
C 1638 294 1626 319 1626 879 
L 1626 3962 
z
" transform="scale(0.015625)"/>
       </defs>
       <use xlink:href="#PazoMath-Bold-47" transform="scale(0.996264)"/>
      </g>
     </g>
    </g>
    <g id="xtick_2">
     <g id="line2d_3">
      <path d="M 134.696218 222.188611 
L 134.696218 15.800524 
" clip-path="url(#p898e3ce880)" style="fill: none; stroke: #b0b0b0; stroke-width: 0.8; stroke-linecap: square"/>
     </g>
     <g id="line2d_4">
      <g>
       <use xlink:href="#m05657a6811" x="134.696218" y="222.188611" style="stroke: #000000; stroke-width: 0.8"/>
      </g>
     </g>
     <g id="text_2">
      <!-- $\mathbf{M}$ -->
      <g transform="translate(129.216766 237.02966)scale(0.11 -0.11)">
       <defs>
        <path id="URWPalladioL-Bold-4d" d="M 4749 3545 
L 4749 883 
C 4749 313 4742 300 4442 275 
L 4205 256 
L 4205 0 
C 4979 0 4979 0 5197 0 
C 5414 19 5421 19 6195 0 
L 6195 256 
L 5958 275 
C 5658 300 5651 313 5651 879 
L 5651 3472 
C 5651 4032 5670 4070 5958 4095 
L 6195 4115 
L 6195 4352 
C 5523 4332 5523 4332 5453 4332 
C 5382 4332 5382 4332 4717 4352 
C 4531 3911 4474 3778 4403 3631 
L 3232 1228 
L 2221 3326 
C 2144 3485 2016 3752 1741 4352 
L 973 4332 
C 870 4332 723 4339 531 4345 
C 435 4345 429 4345 205 4352 
L 205 4115 
L 442 4095 
C 730 4070 749 4032 749 3472 
L 749 879 
C 749 319 730 281 442 256 
L 205 236 
L 205 0 
C 819 0 819 0 941 0 
C 1069 19 1363 12 1670 0 
L 1670 236 
L 1434 256 
C 1146 281 1126 313 1126 883 
L 1126 3552 
L 2598 486 
C 2643 371 2714 217 2829 -64 
L 3046 -64 
C 3168 230 3194 294 3430 780 
L 4749 3545 
z
" transform="scale(0.015625)"/>
       </defs>
       <use xlink:href="#URWPalladioL-Bold-4d" transform="scale(0.996264)"/>
      </g>
     </g>
    </g>
    <g id="xtick_3">
     <g id="line2d_5">
      <path d="M 184.292936 222.188611 
L 184.292936 15.800524 
" clip-path="url(#p898e3ce880)" style="fill: none; stroke: #b0b0b0; stroke-width: 0.8; stroke-linecap: square"/>
     </g>
     <g id="line2d_6">
      <g>
       <use xlink:href="#m05657a6811" x="184.292936" y="222.188611" style="stroke: #000000; stroke-width: 0.8"/>
      </g>
     </g>
     <g id="text_3">
      <!-- $\mathbf{K}$ -->
      <g transform="translate(180.029976 237.02966)scale(0.11 -0.11)">
       <defs>
        <path id="URWPalladioL-Bold-4b" d="M 1696 2201 
L 1696 3472 
C 1696 4038 1702 4051 2003 4076 
L 2240 4095 
L 2240 4352 
C 1459 4332 1459 4332 1242 4332 
C 1024 4332 1018 4332 250 4352 
L 250 4095 
L 486 4076 
C 787 4051 794 4038 794 3472 
L 794 879 
C 794 313 787 300 486 275 
L 250 256 
L 250 0 
C 1024 0 1024 0 1242 0 
C 1459 19 1466 19 2240 0 
L 2240 256 
L 2003 275 
C 1702 300 1696 313 1696 883 
L 1696 2144 
C 1862 2048 1888 2022 2253 1593 
L 3584 0 
L 4237 0 
C 4282 0 4339 0 4666 -13 
C 4698 6 4774 6 4883 0 
L 4883 262 
C 4646 268 4499 351 4301 580 
L 2598 2570 
L 4019 3886 
C 4173 4025 4320 4070 4723 4102 
L 4723 4352 
C 4352 4339 4237 4332 4141 4332 
C 4045 4332 3930 4339 3558 4352 
L 3558 4191 
C 3558 4095 3526 4038 3392 3898 
C 3386 3886 3360 3854 3328 3822 
C 3168 3644 3014 3485 2957 3428 
L 1696 2201 
z
" transform="scale(0.015625)"/>
       </defs>
       <use xlink:href="#URWPalladioL-Bold-4b" transform="scale(0.996264)"/>
      </g>
     </g>
    </g>
    <g id="xtick_4">
     <g id="line2d_7">
      <path d="M 282.494437 222.188611 
L 282.494437 15.800524 
" clip-path="url(#p898e3ce880)" style="fill: none; stroke: #b0b0b0; stroke-width: 0.8; stroke-linecap: square"/>
     </g>
     <g id="line2d_8">
      <g>
       <use xlink:href="#m05657a6811" x="282.494437" y="222.188611" style="stroke: #000000; stroke-width: 0.8"/>
      </g>
     </g>
     <g id="text_4">
      <!-- $\mathbf{\Gamma}$ -->
      <g transform="translate(279.447863 237.02966)scale(0.11 -0.11)">
       <use xlink:href="#PazoMath-Bold-47" transform="scale(0.996264)"/>
      </g>
     </g>
    </g>
   </g>
   <g id="matplotlib.axis_2">
    <g id="ytick_1">
     <g id="line2d_9">
      <path d="M 48.792183 212.807334 
L 282.494437 212.807334 
" clip-path="url(#p898e3ce880)" style="fill: none; stroke: #b0b0b0; stroke-width: 0.8; stroke-linecap: square"/>
     </g>
     <g id="line2d_10">
      <defs>
       <path id="mcb9ed29796" d="M 0 0 
L -3.5 0 
" style="stroke: #000000; stroke-width: 0.8"/>
      </defs>
      <g>
       <use xlink:href="#mcb9ed29796" x="48.792183" y="212.807334" style="stroke: #000000; stroke-width: 0.8"/>
      </g>
     </g>
     <g id="text_5">
      <!-- $\mathdefault{−3}$ -->
      <g transform="translate(27.299153 216.727859)scale(0.11 -0.11)">
       <defs>
        <path id="CMSY10-0" d="M 4218 1472 
C 4326 1472 4442 1472 4442 1600 
C 4442 1728 4326 1728 4218 1728 
L 755 1728 
C 646 1728 531 1728 531 1600 
C 531 1472 646 1472 755 1472 
L 4218 1472 
z
" transform="scale(0.015625)"/>
        <path id="URWPalladioL-Roma-33" d="M 275 3196 
L 474 3196 
L 589 3553 
C 659 3770 1062 3987 1395 3987 
C 1811 3987 2150 3649 2150 3247 
C 2150 2769 1773 2368 1318 2368 
C 1267 2368 1197 2374 1114 2380 
L 1018 2387 
L 941 2047 
L 986 2008 
C 1229 2118 1350 2150 1523 2150 
C 2054 2150 2362 1808 2362 1222 
C 2362 565 1971 134 1376 134 
C 1082 134 819 231 627 411 
C 474 553 390 701 269 1048 
L 96 984 
C 230 591 282 359 320 38 
C 659 -77 941 -128 1178 -128 
C 1690 -128 2278 160 2630 591 
C 2848 855 2957 1139 2957 1441 
C 2957 1750 2829 2021 2598 2182 
C 2438 2297 2291 2348 1971 2406 
C 2483 2801 2675 3094 2675 3470 
C 2675 4038 2202 4416 1491 4416 
C 1056 4416 768 4294 461 3987 
L 275 3196 
z
" transform="scale(0.015625)"/>
       </defs>
       <use xlink:href="#CMSY10-0" transform="scale(1.038107)"/>
       <use xlink:href="#URWPalladioL-Roma-33" transform="translate(81.941696 0)scale(0.996264)"/>
      </g>
     </g>
    </g>
    <g id="ytick_2">
     <g id="line2d_11">
      <path d="M 48.792183 186.056012 
L 282.494437 186.056012 
" clip-path="url(#p898e3ce880)" style="fill: none; stroke: #b0b0b0; stroke-width: 0.8; stroke-linecap: square"/>
     </g>
     <g id="line2d_12">
      <g>
       <use xlink:href="#mcb9ed29796" x="48.792183" y="186.056012" style="stroke: #000000; stroke-width: 0.8"/>
      </g>
     </g>
     <g id="text_6">
      <!-- $\mathdefault{−2}$ -->
      <g transform="translate(27.299153 189.976537)scale(0.11 -0.11)">
       <defs>
        <path id="URWPalladioL-Roma-32" d="M 102 166 
L 102 0 
C 1299 0 1299 0 1530 0 
C 1760 19 1760 19 2995 0 
C 2982 134 2982 198 2982 287 
C 2982 370 2982 434 2995 574 
C 2259 542 1965 536 781 510 
L 1946 1741 
C 2566 2398 2758 2749 2758 3228 
C 2758 3961 2259 4416 1446 4416 
C 986 4416 672 4287 358 3967 
L 250 3100 
L 435 3100 
L 518 3394 
C 621 3763 851 3923 1280 3923 
C 1830 3923 2182 3578 2182 3036 
C 2182 2558 1914 2086 1190 1320 
L 102 166 
z
" transform="scale(0.015625)"/>
       </defs>
       <use xlink:href="#CMSY10-0" transform="scale(1.038107)"/>
       <use xlink:href="#URWPalladioL-Roma-32" transform="translate(81.941696 0)scale(0.996264)"/>
      </g>
     </g>
    </g>
    <g id="ytick_3">
     <g id="line2d_13">
      <path d="M 48.792183 159.30469 
L 282.494437 159.30469 
" clip-path="url(#p898e3ce880)" style="fill: none; stroke: #b0b0b0; stroke-width: 0.8; stroke-linecap: square"/>
     </g>
     <g id="line2d_14">
      <g>
       <use xlink:href="#mcb9ed29796" x="48.792183" y="159.30469" style="stroke: #000000; stroke-width: 0.8"/>
      </g>
     </g>
     <g id="text_7">
      <!-- $\mathdefault{−1}$ -->
      <g transform="translate(27.299153 163.225215)scale(0.11 -0.11)">
       <defs>
        <path id="URWPalladioL-Roma-31" d="M 429 3571 
L 493 3571 
L 1318 3942 
C 1325 3949 1331 3949 1338 3949 
C 1376 3949 1389 3891 1389 3737 
L 1389 633 
C 1389 300 1318 230 973 211 
L 614 192 
L 614 0 
C 1600 0 1600 0 1670 0 
C 1754 0 1894 0 2112 -7 
C 2189 6 2413 6 2675 0 
L 2675 192 
L 2342 211 
C 1990 229 1926 299 1926 628 
L 1926 4383 
L 1837 4416 
C 1421 4199 966 4009 384 3807 
L 429 3571 
z
" transform="scale(0.015625)"/>
       </defs>
       <use xlink:href="#CMSY10-0" transform="scale(1.038107)"/>
       <use xlink:href="#URWPalladioL-Roma-31" transform="translate(81.941696 0)scale(0.996264)"/>
      </g>
     </g>
    </g>
    <g id="ytick_4">
     <g id="line2d_15">
      <path d="M 48.792183 132.553368 
L 282.494437 132.553368 
" clip-path="url(#p898e3ce880)" style="fill: none; stroke: #b0b0b0; stroke-width: 0.8; stroke-linecap: square"/>
     </g>
     <g id="line2d_16">
      <g>
       <use xlink:href="#mcb9ed29796" x="48.792183" y="132.553368" style="stroke: #000000; stroke-width: 0.8"/>
      </g>
     </g>
     <g id="text_8">
      <!-- $\mathdefault{0}$ -->
      <g transform="translate(36.312731 136.473893)scale(0.11 -0.11)">
       <defs>
        <path id="URWPalladioL-Roma-30" d="M 1683 4416 
C 691 4416 186 3628 186 2076 
C 186 1326 320 679 544 365 
C 768 51 1126 -128 1523 -128 
C 2490 -128 2976 704 2976 2345 
C 2976 3749 2560 4416 1683 4416 
z
M 1568 4191 
C 2189 4191 2438 3563 2438 2025 
C 2438 660 2195 96 1606 96 
C 986 96 723 743 723 2307 
C 723 3660 960 4191 1568 4191 
z
" transform="scale(0.015625)"/>
       </defs>
       <use xlink:href="#URWPalladioL-Roma-30" transform="scale(0.996264)"/>
      </g>
     </g>
    </g>
    <g id="ytick_5">
     <g id="line2d_17">
      <path d="M 48.792183 105.802046 
L 282.494437 105.802046 
" clip-path="url(#p898e3ce880)" style="fill: none; stroke: #b0b0b0; stroke-width: 0.8; stroke-linecap: square"/>
     </g>
     <g id="line2d_18">
      <g>
       <use xlink:href="#mcb9ed29796" x="48.792183" y="105.802046" style="stroke: #000000; stroke-width: 0.8"/>
      </g>
     </g>
     <g id="text_9">
      <!-- $\mathdefault{1}$ -->
      <g transform="translate(36.312731 109.722571)scale(0.11 -0.11)">
       <use xlink:href="#URWPalladioL-Roma-31" transform="scale(0.996264)"/>
      </g>
     </g>
    </g>
    <g id="ytick_6">
     <g id="line2d_19">
      <path d="M 48.792183 79.050724 
L 282.494437 79.050724 
" clip-path="url(#p898e3ce880)" style="fill: none; stroke: #b0b0b0; stroke-width: 0.8; stroke-linecap: square"/>
     </g>
     <g id="line2d_20">
      <g>
       <use xlink:href="#mcb9ed29796" x="48.792183" y="79.050724" style="stroke: #000000; stroke-width: 0.8"/>
      </g>
     </g>
     <g id="text_10">
      <!-- $\mathdefault{2}$ -->
      <g transform="translate(36.312731 82.971249)scale(0.11 -0.11)">
       <use xlink:href="#URWPalladioL-Roma-32" transform="scale(0.996264)"/>
      </g>
     </g>
    </g>
    <g id="ytick_7">
     <g id="line2d_21">
      <path d="M 48.792183 52.299402 
L 282.494437 52.299402 
" clip-path="url(#p898e3ce880)" style="fill: none; stroke: #b0b0b0; stroke-width: 0.8; stroke-linecap: square"/>
     </g>
     <g id="line2d_22">
      <g>
       <use xlink:href="#mcb9ed29796" x="48.792183" y="52.299402" style="stroke: #000000; stroke-width: 0.8"/>
      </g>
     </g>
     <g id="text_11">
      <!-- $\mathdefault{3}$ -->
      <g transform="translate(36.312731 56.219927)scale(0.11 -0.11)">
       <use xlink:href="#URWPalladioL-Roma-33" transform="scale(0.996264)"/>
      </g>
     </g>
    </g>
    <g id="ytick_8">
     <g id="line2d_23">
      <path d="M 48.792183 25.54808 
L 282.494437 25.54808 
" clip-path="url(#p898e3ce880)" style="fill: none; stroke: #b0b0b0; stroke-width: 0.8; stroke-linecap: square"/>
     </g>
     <g id="line2d_24">
      <g>
       <use xlink:href="#mcb9ed29796" x="48.792183" y="25.54808" style="stroke: #000000; stroke-width: 0.8"/>
      </g>
     </g>
     <g id="text_12">
      <!-- $\mathdefault{4}$ -->
      <g transform="translate(36.312731 29.468605)scale(0.11 -0.11)">
       <defs>
        <path id="URWPalladioL-Roma-34" d="M 1792 1152 
L 1792 684 
C 1792 310 1722 223 1408 210 
L 1011 192 
L 1011 0 
C 1862 0 1862 0 2016 0 
C 2170 19 2170 19 3021 0 
L 3021 192 
L 2714 210 
C 2400 229 2330 310 2330 684 
L 2330 1152 
C 2707 1152 2842 1145 3021 1127 
L 3021 1580 
C 2720 1555 2598 1555 2502 1561 
L 2483 1561 
L 2330 1561 
L 2330 2445 
C 2330 3576 2342 4122 2374 4383 
L 2298 4416 
L 1824 4243 
L 13 1299 
L 83 1152 
L 1792 1152 
z
M 1792 1561 
L 416 1561 
L 1792 3798 
L 1792 1561 
z
" transform="scale(0.015625)"/>
       </defs>
       <use xlink:href="#URWPalladioL-Roma-34" transform="scale(0.996264)"/>
      </g>
     </g>
    </g>
    <g id="text_13">
     <!-- $\varepsilon(\mathbf{k})/t_1$ -->
     <g transform="translate(20.208813 136.810852)rotate(-90)scale(0.11 -0.11)">
      <defs>
       <path id="PazoMath-Italic-23" d="M 1971 2663 
L 1952 2243 
L 2131 2243 
C 2163 2529 2221 2695 2304 2924 
C 2093 3040 1779 3104 1562 3104 
C 1274 3104 1037 2988 774 2803 
C 582 2669 326 2389 326 2154 
C 326 1893 531 1721 890 1651 
C 742 1606 576 1497 365 1323 
C 154 1156 96 905 96 725 
C 96 500 173 371 262 256 
C 454 12 800 -64 1146 -64 
C 1466 -64 1824 102 2330 500 
L 2253 609 
C 1914 365 1606 256 1376 256 
C 1062 256 627 397 627 809 
C 627 1207 768 1535 1389 1535 
C 1549 1535 1683 1523 1792 1490 
C 1792 1529 1824 1683 1843 1728 
L 1830 1791 
C 1696 1747 1568 1728 1440 1728 
C 1050 1728 787 1899 787 2237 
C 787 2593 1146 2880 1510 2880 
C 1645 2880 1741 2854 1843 2809 
C 1939 2771 1965 2676 1971 2663 
z
" transform="scale(0.015625)"/>
       <path id="CMR10-28" d="M 2118 -1536 
C 2118 -1517 2118 -1504 2010 -1396 
C 1210 -589 1005 620 1005 1600 
C 1005 2713 1248 3827 2035 4627 
C 2118 4704 2118 4716 2118 4736 
C 2118 4780 2093 4800 2054 4800 
C 1990 4800 1414 4365 1037 3552 
C 710 2848 634 2137 634 1600 
C 634 1100 704 326 1056 -397 
C 1440 -1184 1990 -1600 2054 -1600 
C 2093 -1600 2118 -1581 2118 -1536 
z
" transform="scale(0.015625)"/>
       <path id="URWPalladioL-Bold-6b" d="M 1370 4627 
L 909 4486 
C 723 4428 506 4390 134 4352 
L 134 4121 
L 474 4102 
C 614 4095 640 4031 640 3649 
L 640 657 
C 640 313 608 262 410 249 
L 186 236 
L 186 0 
L 1011 19 
C 1139 19 1446 12 1875 0 
L 1875 236 
L 1651 249 
C 1453 262 1421 313 1421 657 
L 1421 1459 
L 1485 1459 
L 2163 695 
C 2259 587 2624 140 2720 19 
L 3821 19 
L 3821 236 
C 3686 249 3584 313 3469 440 
L 2214 1841 
L 2266 1892 
C 2458 2083 2643 2255 2714 2299 
L 3110 2586 
C 3213 2662 3322 2700 3418 2700 
L 3616 2700 
L 3616 2944 
L 2784 2944 
L 2099 2223 
C 1952 2070 1779 1911 1421 1605 
L 1421 4588 
L 1370 4627 
z
" transform="scale(0.015625)"/>
       <path id="CMR10-29" d="M 1850 1600 
C 1850 2099 1779 2873 1427 3597 
C 1043 4384 493 4800 429 4800 
C 390 4800 365 4774 365 4736 
C 365 4716 365 4704 486 4589 
C 1114 3955 1478 2937 1478 1600 
C 1478 505 1242 -621 448 -1428 
C 365 -1504 365 -1517 365 -1536 
C 365 -1575 390 -1600 429 -1600 
C 493 -1600 1069 -1165 1446 -352 
C 1773 352 1850 1062 1850 1600 
z
" transform="scale(0.015625)"/>
       <path id="URWPalladioL-Roma-2f" d="M 3322 4646 
L 2938 4646 
L 557 -762 
L 941 -762 
L 3322 4646 
z
" transform="scale(0.015625)"/>
       <path id="URWPalladioL-Ital-74" d="M 800 2489 
L 442 678 
C 435 633 429 620 410 544 
C 371 364 358 268 358 192 
C 358 32 429 -64 550 -64 
C 774 -64 998 64 1498 467 
L 1594 544 
L 1696 627 
L 1632 742 
L 1344 544 
C 1158 416 1030 352 960 352 
C 902 352 870 403 870 480 
C 870 646 960 1164 1146 2092 
L 1229 2489 
L 1914 2489 
L 1984 2809 
C 1741 2784 1523 2771 1280 2771 
C 1382 3373 1453 3686 1568 4032 
L 1498 4128 
C 1370 4051 1197 3974 998 3897 
L 838 2809 
C 557 2675 390 2604 275 2572 
L 262 2489 
L 800 2489 
z
" transform="scale(0.015625)"/>
      </defs>
      <use xlink:href="#PazoMath-Italic-23" transform="scale(0.996264)"/>
      <use xlink:href="#CMR10-28" transform="translate(39.950178 0)scale(1.038107)"/>
      <use xlink:href="#URWPalladioL-Bold-6b" transform="translate(82.689882 0)scale(0.996264)"/>
      <use xlink:href="#CMR10-29" transform="translate(146.051291 0)scale(1.038107)"/>
      <use xlink:href="#URWPalladioL-Roma-2f" transform="translate(188.790996 0)scale(0.996264)"/>
      <use xlink:href="#URWPalladioL-Ital-74" transform="translate(251.6552 0)scale(0.996264)"/>
      <use xlink:href="#URWPalladioL-Roma-31" transform="translate(286.075183 -18.577338)scale(0.757155)"/>
     </g>
    </g>
   </g>
   <g id="line2d_25">
    <path d="M 48.792183 212.807334 
L 52.228344 212.666583 
L 55.664506 212.24507 
L 59.100667 211.545026 
L 62.536829 210.57018 
L 65.97299 209.325785 
L 69.409151 207.818652 
L 72.845313 206.0572 
L 76.281474 204.051536 
L 79.717636 201.813555 
L 84.012837 198.710661 
L 88.308039 195.298381 
L 92.603241 191.614792 
L 97.757483 186.901542 
L 104.629806 180.288087 
L 114.079249 171.172916 
L 118.374451 167.347345 
L 121.810613 164.610047 
L 124.387734 162.829602 
L 126.964855 161.350831 
L 128.682935 160.563586 
L 130.401016 159.955481 
L 132.119097 159.541092 
L 133.837178 159.331078 
L 139.159922 159.067244 
L 142.135726 158.645984 
L 145.111529 158.016173 
L 148.087332 157.180298 
L 151.063135 156.141655 
L 154.534905 154.679144 
L 158.006675 152.954111 
L 161.478445 150.975823 
L 164.950216 148.754904 
L 168.917953 145.934972 
L 172.88569 142.833536 
L 177.349395 139.035095 
L 181.8131 134.941675 
L 184.292936 132.553368 
L 189.252607 137.543205 
L 195.204213 143.840725 
L 203.139688 152.599031 
L 223.97031 175.837917 
L 229.921916 182.085008 
L 234.881588 187.020505 
L 239.841259 191.652342 
L 243.808997 195.104947 
L 247.776734 198.306439 
L 251.744472 201.234362 
L 255.712209 203.868179 
L 259.679946 206.189415 
L 263.647684 208.181788 
L 266.623487 209.451755 
L 269.59929 210.523815 
L 272.575093 211.393736 
L 275.550896 212.058085 
L 278.526699 212.514241 
L 281.502502 212.760404 
L 282.494437 212.7956 
L 282.494437 212.7956 
" clip-path="url(#p898e3ce880)" style="fill: none; stroke: #008066; stroke-width: 1.5; stroke-linecap: square"/>
   </g>
   <g id="line2d_26">
    <path d="M 48.792183 212.807334 
L 52.228344 212.666583 
L 55.664506 212.24507 
L 59.100667 211.545026 
L 62.536829 210.57018 
L 65.97299 209.325785 
L 69.409151 207.818652 
L 72.845313 206.0572 
L 76.281474 204.051536 
L 79.717636 201.813555 
L 84.012837 198.710661 
L 88.308039 195.298381 
L 92.603241 191.614792 
L 97.757483 186.901542 
L 104.629806 180.288087 
L 114.079249 171.172916 
L 118.374451 167.347345 
L 121.810613 164.610047 
L 124.387734 162.829602 
L 126.964855 161.350831 
L 128.682935 160.563586 
L 130.401016 159.955481 
L 132.119097 159.541092 
L 133.837178 159.331078 
L 139.159922 159.067244 
L 142.135726 158.645984 
L 145.111529 158.016173 
L 148.087332 157.180298 
L 151.063135 156.141655 
L 154.534905 154.679144 
L 158.006675 152.954111 
L 161.478445 150.975823 
L 164.950216 148.754904 
L 168.917953 145.934972 
L 172.88569 142.833536 
L 177.349395 139.035095 
L 181.8131 134.941675 
L 184.292936 132.553368 
L 189.252607 137.543205 
L 195.204213 143.840725 
L 203.139688 152.599031 
L 223.97031 175.837917 
L 229.921916 182.085008 
L 234.881588 187.020505 
L 239.841259 191.652342 
L 243.808997 195.104947 
L 247.776734 198.306439 
L 251.744472 201.234362 
L 255.712209 203.868179 
L 259.679946 206.189415 
L 263.647684 208.181788 
L 266.623487 209.451755 
L 269.59929 210.523815 
L 272.575093 211.393736 
L 275.550896 212.058085 
L 278.526699 212.514241 
L 281.502502 212.760404 
L 282.494437 212.7956 
L 282.494437 212.7956 
" clip-path="url(#p898e3ce880)" style="fill: none; stroke: #008066; stroke-width: 1.5; stroke-linecap: square"/>
   </g>
   <g id="line2d_27">
    <path d="M 48.792183 52.299402 
L 52.228344 52.440154 
L 55.664506 52.861667 
L 59.100667 53.561711 
L 62.536829 54.536557 
L 65.97299 55.780952 
L 69.409151 57.288085 
L 72.845313 59.049536 
L 76.281474 61.055201 
L 79.717636 63.293182 
L 84.012837 66.396076 
L 88.308039 69.808355 
L 92.603241 73.491944 
L 97.757483 78.205195 
L 104.629806 84.818649 
L 114.079249 93.933821 
L 118.374451 97.759392 
L 121.810613 100.49669 
L 124.387734 102.277134 
L 126.964855 103.755906 
L 128.682935 104.543151 
L 130.401016 105.151256 
L 132.119097 105.565644 
L 133.837178 105.775659 
L 139.159922 106.039493 
L 142.135726 106.460753 
L 145.111529 107.090563 
L 148.087332 107.926439 
L 151.063135 108.965081 
L 154.534905 110.427593 
L 158.006675 112.152625 
L 161.478445 114.130914 
L 164.950216 116.351833 
L 168.917953 119.171765 
L 172.88569 122.273201 
L 177.349395 126.071642 
L 181.8131 130.165062 
L 184.292936 132.553368 
L 189.252607 127.563532 
L 195.204213 121.266012 
L 203.139688 112.507706 
L 223.97031 89.26882 
L 229.921916 83.021728 
L 234.881588 78.086232 
L 239.841259 73.454395 
L 243.808997 70.00179 
L 247.776734 66.800297 
L 251.744472 63.872374 
L 255.712209 61.238558 
L 259.679946 58.917322 
L 263.647684 56.924949 
L 266.623487 55.654982 
L 269.59929 54.582922 
L 272.575093 53.713001 
L 275.550896 53.048651 
L 278.526699 52.592495 
L 281.502502 52.346333 
L 282.494437 52.311136 
L 282.494437 52.311136 
" clip-path="url(#p898e3ce880)" style="fill: none; stroke: #008066; stroke-width: 1.5; stroke-linecap: square"/>
   </g>
   <g id="line2d_28">
    <path d="M 48.792183 52.299402 
L 52.228344 52.440154 
L 55.664506 52.861667 
L 59.100667 53.561711 
L 62.536829 54.536557 
L 65.97299 55.780952 
L 69.409151 57.288085 
L 72.845313 59.049536 
L 76.281474 61.055201 
L 79.717636 63.293182 
L 84.012837 66.396076 
L 88.308039 69.808355 
L 92.603241 73.491944 
L 97.757483 78.205195 
L 104.629806 84.818649 
L 114.079249 93.933821 
L 118.374451 97.759392 
L 121.810613 100.49669 
L 124.387734 102.277134 
L 126.964855 103.755906 
L 128.682935 104.543151 
L 130.401016 105.151256 
L 132.119097 105.565644 
L 133.837178 105.775659 
L 139.159922 106.039493 
L 142.135726 106.460753 
L 145.111529 107.090563 
L 148.087332 107.926439 
L 151.063135 108.965081 
L 154.534905 110.427593 
L 158.006675 112.152625 
L 161.478445 114.130914 
L 164.950216 116.351833 
L 168.917953 119.171765 
L 172.88569 122.273201 
L 177.349395 126.071642 
L 181.8131 130.165062 
L 184.292936 132.553368 
L 189.252607 127.563532 
L 195.204213 121.266012 
L 203.139688 112.507706 
L 223.97031 89.26882 
L 229.921916 83.021728 
L 234.881588 78.086232 
L 239.841259 73.454395 
L 243.808997 70.00179 
L 247.776734 66.800297 
L 251.744472 63.872374 
L 255.712209 61.238558 
L 259.679946 58.917322 
L 263.647684 56.924949 
L 266.623487 55.654982 
L 269.59929 54.582922 
L 272.575093 53.713001 
L 275.550896 53.048651 
L 278.526699 52.592495 
L 281.502502 52.346333 
L 282.494437 52.311136 
L 282.494437 52.311136 
" clip-path="url(#p898e3ce880)" style="fill: none; stroke: #008066; stroke-width: 1.5; stroke-linecap: square"/>
   </g>
   <g id="line2d_29">
    <path d="M 48.792183 193.059712 
L 53.087385 192.950302 
L 57.382586 192.621165 
L 61.677788 192.069659 
L 65.97299 191.29166 
L 70.268192 190.281978 
L 74.563393 189.034958 
L 78.858595 187.545276 
L 83.153797 185.808961 
L 87.448999 183.824698 
L 91.7442 181.595508 
L 96.039402 179.130948 
L 101.193644 175.890536 
L 107.206927 171.799591 
L 120.092532 162.88089 
L 123.528693 160.851131 
L 126.105814 159.563559 
L 128.682935 158.543865 
L 131.260056 157.848906 
L 132.978137 157.588707 
L 135.688152 157.491277 
L 139.159922 157.303238 
L 142.631693 156.875678 
L 146.103463 156.208158 
L 149.575233 155.300066 
L 153.047003 154.150709 
L 156.518774 152.75944 
L 159.990544 151.125803 
L 163.462314 149.249708 
L 166.934084 147.131623 
L 170.405855 144.772774 
L 174.373592 141.785008 
L 178.341329 138.490885 
L 182.309067 134.89803 
L 184.292936 132.992718 
L 193.220345 141.886046 
L 205.123557 153.711992 
L 212.067097 160.261773 
L 218.018704 165.530234 
L 222.978375 169.622305 
L 227.938047 173.410058 
L 232.897719 176.871573 
L 236.865456 179.396331 
L 240.833194 181.699549 
L 244.800931 183.78006 
L 248.768669 185.638863 
L 252.736406 187.278677 
L 256.704143 188.703483 
L 260.671881 189.918059 
L 264.639618 190.927536 
L 268.607356 191.736975 
L 272.575093 192.351 
L 276.54283 192.773467 
L 280.510568 193.007215 
L 282.494437 193.053881 
L 282.494437 193.053881 
" clip-path="url(#p898e3ce880)" style="fill: none; stroke: #249266; stroke-width: 1.5; stroke-linecap: square"/>
   </g>
   <g id="line2d_30">
    <path d="M 48.792183 193.059712 
L 53.087385 192.950302 
L 57.382586 192.621165 
L 61.677788 192.069659 
L 65.97299 191.29166 
L 70.268192 190.281978 
L 74.563393 189.034958 
L 78.858595 187.545276 
L 83.153797 185.808961 
L 87.448999 183.824698 
L 91.7442 181.595508 
L 96.039402 179.130948 
L 101.193644 175.890536 
L 107.206927 171.799591 
L 120.092532 162.88089 
L 123.528693 160.851131 
L 126.105814 159.563559 
L 128.682935 158.543865 
L 131.260056 157.848906 
L 132.978137 157.588707 
L 135.688152 157.491277 
L 139.159922 157.303238 
L 142.631693 156.875678 
L 146.103463 156.208158 
L 149.575233 155.300066 
L 153.047003 154.150709 
L 156.518774 152.75944 
L 159.990544 151.125803 
L 163.462314 149.249708 
L 166.934084 147.131623 
L 170.405855 144.772774 
L 174.373592 141.785008 
L 178.341329 138.490885 
L 182.309067 134.89803 
L 184.292936 132.992718 
L 193.220345 141.886046 
L 205.123557 153.711992 
L 212.067097 160.261773 
L 218.018704 165.530234 
L 222.978375 169.622305 
L 227.938047 173.410058 
L 232.897719 176.871573 
L 236.865456 179.396331 
L 240.833194 181.699549 
L 244.800931 183.78006 
L 248.768669 185.638863 
L 252.736406 187.278677 
L 256.704143 188.703483 
L 260.671881 189.918059 
L 264.639618 190.927536 
L 268.607356 191.736975 
L 272.575093 192.351 
L 276.54283 192.773467 
L 280.510568 193.007215 
L 282.494437 193.053881 
L 282.494437 193.053881 
" clip-path="url(#p898e3ce880)" style="fill: none; stroke: #249266; stroke-width: 1.5; stroke-linecap: square"/>
   </g>
   <g id="line2d_31">
    <path d="M 48.792183 32.55178 
L 51.369304 32.670786 
L 53.946425 33.027216 
L 56.523546 33.619308 
L 59.100667 34.444133 
L 61.677788 35.49761 
L 64.254909 36.774515 
L 66.83203 38.268509 
L 69.409151 39.972153 
L 72.845313 42.554942 
L 76.281474 45.472135 
L 79.717636 48.697461 
L 83.153797 52.201514 
L 87.448999 56.923714 
L 92.603241 62.998127 
L 98.616523 70.471297 
L 111.502128 86.660569 
L 115.79733 91.642873 
L 119.233492 95.27592 
L 121.810613 97.715155 
L 124.387734 99.843443 
L 126.964855 101.596014 
L 128.682935 102.523429 
L 130.401016 103.237149 
L 132.119097 103.722179 
L 133.837178 103.967585 
L 138.663955 104.217396 
L 141.639758 104.667574 
L 144.615561 105.359336 
L 147.591364 106.287629 
L 150.567168 107.445706 
L 153.542971 108.825193 
L 157.014741 110.701143 
L 160.486511 112.846774 
L 163.958281 115.24158 
L 167.926019 118.254587 
L 172.389723 121.952529 
L 177.349395 126.379312 
L 183.301001 132.02531 
L 184.292936 132.992718 
L 188.260673 128.97229 
L 193.220345 123.573872 
L 198.180017 117.796699 
L 203.139688 111.687611 
L 209.091294 103.998399 
L 217.026769 93.330056 
L 232.897719 71.818738 
L 238.849325 64.176987 
L 243.808997 58.177631 
L 247.776734 53.688681 
L 251.744472 49.527065 
L 255.712209 45.737565 
L 258.688012 43.164791 
L 261.663815 40.840915 
L 264.639618 38.780659 
L 267.615421 36.997196 
L 270.591224 35.50202 
L 273.567027 34.304835 
L 276.54283 33.413452 
L 279.518634 32.833709 
L 282.494437 32.569417 
L 282.494437 32.569417 
" clip-path="url(#p898e3ce880)" style="fill: none; stroke: #249266; stroke-width: 1.5; stroke-linecap: square"/>
   </g>
   <g id="line2d_32">
    <path d="M 48.792183 32.55178 
L 51.369304 32.670786 
L 53.946425 33.027216 
L 56.523546 33.619308 
L 59.100667 34.444133 
L 61.677788 35.49761 
L 64.254909 36.774515 
L 66.83203 38.268509 
L 69.409151 39.972153 
L 72.845313 42.554942 
L 76.281474 45.472135 
L 79.717636 48.697461 
L 83.153797 52.201514 
L 87.448999 56.923714 
L 92.603241 62.998127 
L 98.616523 70.471297 
L 111.502128 86.660569 
L 115.79733 91.642873 
L 119.233492 95.27592 
L 121.810613 97.715155 
L 124.387734 99.843443 
L 126.964855 101.596014 
L 128.682935 102.523429 
L 130.401016 103.237149 
L 132.119097 103.722179 
L 133.837178 103.967585 
L 138.663955 104.217396 
L 141.639758 104.667574 
L 144.615561 105.359336 
L 147.591364 106.287629 
L 150.567168 107.445706 
L 153.542971 108.825193 
L 157.014741 110.701143 
L 160.486511 112.846774 
L 163.958281 115.24158 
L 167.926019 118.254587 
L 172.389723 121.952529 
L 177.349395 126.379312 
L 183.301001 132.02531 
L 184.292936 132.992718 
L 188.260673 128.97229 
L 193.220345 123.573872 
L 198.180017 117.796699 
L 203.139688 111.687611 
L 209.091294 103.998399 
L 217.026769 93.330056 
L 232.897719 71.818738 
L 238.849325 64.176987 
L 243.808997 58.177631 
L 247.776734 53.688681 
L 251.744472 49.527065 
L 255.712209 45.737565 
L 258.688012 43.164791 
L 261.663815 40.840915 
L 264.639618 38.780659 
L 267.615421 36.997196 
L 270.591224 35.50202 
L 273.567027 34.304835 
L 276.54283 33.413452 
L 279.518634 32.833709 
L 282.494437 32.569417 
L 282.494437 32.569417 
" clip-path="url(#p898e3ce880)" style="fill: none; stroke: #249266; stroke-width: 1.5; stroke-linecap: square"/>
   </g>
   <g id="line2d_33">
    <path d="M 48.792183 200.429691 
L 52.228344 200.308052 
L 55.664506 199.943843 
L 59.100667 199.339177 
L 62.536829 198.497531 
L 65.97299 197.423672 
L 69.409151 196.123574 
L 72.845313 194.604314 
L 76.281474 192.873956 
L 80.576676 190.427873 
L 84.871878 187.685244 
L 89.167079 184.667211 
L 93.462281 181.39706 
L 98.616523 177.177357 
L 104.629806 171.918046 
L 113.220209 164.030909 
L 119.233492 158.588007 
L 122.669653 155.716734 
L 125.246774 153.79444 
L 127.823895 152.172696 
L 129.541976 151.312368 
L 131.260056 150.66745 
L 132.978137 150.266971 
L 134.696218 150.131064 
L 139.159922 150.020287 
L 143.623627 149.68452 
L 148.087332 149.113638 
L 152.055069 148.395788 
L 156.022806 147.464467 
L 159.990544 146.302133 
L 163.958281 144.889434 
L 167.430052 143.432021 
L 170.901822 141.753848 
L 174.373592 139.84193 
L 177.845362 137.684402 
L 181.317133 135.271059 
L 184.292936 132.992718 
L 190.244542 137.916402 
L 196.196148 143.131014 
L 204.131623 150.399001 
L 226.946113 171.55303 
L 232.897719 176.695544 
L 237.857391 180.737005 
L 242.817062 184.506533 
L 247.776734 187.959993 
L 251.744472 190.467674 
L 255.712209 192.727834 
L 259.679946 194.723194 
L 263.647684 196.438425 
L 267.615421 197.860301 
L 271.583159 198.977822 
L 274.558962 199.610923 
L 277.534765 200.065129 
L 280.510568 200.338451 
L 282.494437 200.41955 
L 282.494437 200.41955 
" clip-path="url(#p898e3ce880)" style="fill: none; stroke: #49a466; stroke-width: 1.5; stroke-linecap: square"/>
   </g>
   <g id="line2d_34">
    <path d="M 48.792183 200.429691 
L 52.228344 200.308052 
L 55.664506 199.943843 
L 59.100667 199.339177 
L 62.536829 198.497531 
L 65.97299 197.423672 
L 69.409151 196.123574 
L 72.845313 194.604314 
L 76.281474 192.873956 
L 80.576676 190.427873 
L 84.871878 187.685244 
L 89.167079 184.667211 
L 93.462281 181.39706 
L 98.616523 177.177357 
L 104.629806 171.918046 
L 113.220209 164.030909 
L 119.233492 158.588007 
L 122.669653 155.716734 
L 125.246774 153.79444 
L 127.823895 152.172696 
L 129.541976 151.312368 
L 131.260056 150.66745 
L 132.978137 150.266971 
L 134.696218 150.131064 
L 139.159922 150.020287 
L 143.623627 149.68452 
L 148.087332 149.113638 
L 152.055069 148.395788 
L 156.022806 147.464467 
L 159.990544 146.302133 
L 163.958281 144.889434 
L 167.430052 143.432021 
L 170.901822 141.753848 
L 174.373592 139.84193 
L 177.845362 137.684402 
L 181.317133 135.271059 
L 184.292936 132.992718 
L 190.244542 137.916402 
L 196.196148 143.131014 
L 204.131623 150.399001 
L 226.946113 171.55303 
L 232.897719 176.695544 
L 237.857391 180.737005 
L 242.817062 184.506533 
L 247.776734 187.959993 
L 251.744472 190.467674 
L 255.712209 192.727834 
L 259.679946 194.723194 
L 263.647684 196.438425 
L 267.615421 197.860301 
L 271.583159 198.977822 
L 274.558962 199.610923 
L 277.534765 200.065129 
L 280.510568 200.338451 
L 282.494437 200.41955 
L 282.494437 200.41955 
" clip-path="url(#p898e3ce880)" style="fill: none; stroke: #49a466; stroke-width: 1.5; stroke-linecap: square"/>
   </g>
   <g id="line2d_35">
    <path d="M 48.792183 25.181801 
L 51.369304 25.329874 
L 53.946425 25.773161 
L 56.523546 26.508875 
L 59.100667 27.532404 
L 61.677788 28.837349 
L 64.254909 30.415587 
L 66.83203 32.257347 
L 69.409151 34.351298 
L 71.986272 36.684654 
L 75.422434 40.143597 
L 78.858595 43.966062 
L 82.294757 48.111897 
L 86.589958 53.683273 
L 91.7442 60.821691 
L 97.757483 69.568777 
L 112.361169 91.013412 
L 116.656371 96.852524 
L 120.092532 101.154903 
L 122.669653 104.074927 
L 125.246774 106.644169 
L 126.964855 108.113636 
L 128.682935 109.349659 
L 130.401016 110.317506 
L 132.119097 110.984673 
L 133.837178 111.325431 
L 141.143791 111.764642 
L 144.615561 112.304536 
L 148.087332 113.070004 
L 151.559102 114.05741 
L 155.030872 115.262052 
L 158.502642 116.67817 
L 162.47038 118.546775 
L 166.438117 120.670905 
L 170.405855 123.03709 
L 174.869559 125.9695 
L 179.333264 129.165195 
L 184.292936 132.992718 
L 188.260673 129.647498 
L 192.22841 125.94789 
L 196.196148 121.896249 
L 200.163885 117.501585 
L 204.131623 112.780039 
L 208.09936 107.755184 
L 213.059032 101.095689 
L 219.010638 92.653239 
L 226.946113 80.909104 
L 238.849325 63.238626 
L 243.808997 56.234554 
L 247.776734 50.923512 
L 251.744472 45.948445 
L 255.712209 41.376918 
L 258.688012 38.251471 
L 261.663815 35.413667 
L 264.639618 32.88633 
L 267.615421 30.69 
L 270.591224 28.842683 
L 273.567027 27.359635 
L 275.550896 26.579517 
L 277.534765 25.969729 
L 279.518634 25.532536 
L 281.502502 25.269567 
L 282.494437 25.203748 
L 282.494437 25.203748 
" clip-path="url(#p898e3ce880)" style="fill: none; stroke: #49a466; stroke-width: 1.5; stroke-linecap: square"/>
   </g>
   <g id="line2d_36">
    <path d="M 48.792183 25.181801 
L 51.369304 25.329874 
L 53.946425 25.773161 
L 56.523546 26.508875 
L 59.100667 27.532404 
L 61.677788 28.837349 
L 64.254909 30.415587 
L 66.83203 32.257347 
L 69.409151 34.351298 
L 71.986272 36.684654 
L 75.422434 40.143597 
L 78.858595 43.966062 
L 82.294757 48.111897 
L 86.589958 53.683273 
L 91.7442 60.821691 
L 97.757483 69.568777 
L 112.361169 91.013412 
L 116.656371 96.852524 
L 120.092532 101.154903 
L 122.669653 104.074927 
L 125.246774 106.644169 
L 126.964855 108.113636 
L 128.682935 109.349659 
L 130.401016 110.317506 
L 132.119097 110.984673 
L 133.837178 111.325431 
L 141.143791 111.764642 
L 144.615561 112.304536 
L 148.087332 113.070004 
L 151.559102 114.05741 
L 155.030872 115.262052 
L 158.502642 116.67817 
L 162.47038 118.546775 
L 166.438117 120.670905 
L 170.405855 123.03709 
L 174.869559 125.9695 
L 179.333264 129.165195 
L 184.292936 132.992718 
L 188.260673 129.647498 
L 192.22841 125.94789 
L 196.196148 121.896249 
L 200.163885 117.501585 
L 204.131623 112.780039 
L 208.09936 107.755184 
L 213.059032 101.095689 
L 219.010638 92.653239 
L 226.946113 80.909104 
L 238.849325 63.238626 
L 243.808997 56.234554 
L 247.776734 50.923512 
L 251.744472 45.948445 
L 255.712209 41.376918 
L 258.688012 38.251471 
L 261.663815 35.413667 
L 264.639618 32.88633 
L 267.615421 30.69 
L 270.591224 28.842683 
L 273.567027 27.359635 
L 275.550896 26.579517 
L 277.534765 25.969729 
L 279.518634 25.532536 
L 281.502502 25.269567 
L 282.494437 25.203748 
L 282.494437 25.203748 
" clip-path="url(#p898e3ce880)" style="fill: none; stroke: #49a466; stroke-width: 1.5; stroke-linecap: square"/>
   </g>
   <g id="line2d_37">
    <path d="M 48.792183 199.125516 
L 52.228344 199.019845 
L 55.664506 198.702957 
L 59.100667 198.175227 
L 62.536829 197.437308 
L 65.97299 196.490173 
L 69.409151 195.33516 
L 72.845313 193.97405 
L 76.281474 192.409141 
L 79.717636 190.643359 
L 84.012837 188.159339 
L 88.308039 185.376529 
L 92.603241 182.307201 
L 96.898443 178.967811 
L 102.052685 174.636486 
L 107.206927 170.007439 
L 115.79733 161.917082 
L 120.951572 157.174457 
L 124.387734 154.304503 
L 126.964855 152.450202 
L 128.682935 151.420319 
L 130.401016 150.60056 
L 132.119097 150.028264 
L 133.837178 149.733594 
L 145.111529 149.146629 
L 149.575233 148.551174 
L 153.542971 147.815823 
L 157.510708 146.865036 
L 161.478445 145.675321 
L 164.950216 144.418674 
L 168.421986 142.943012 
L 171.893756 141.231982 
L 175.365526 139.270524 
L 178.837297 137.045557 
L 182.309067 134.546623 
L 184.292936 132.992718 
L 189.252607 137.127781 
L 195.204213 142.397785 
L 202.147754 148.852029 
L 224.962244 170.34624 
L 230.91385 175.50981 
L 235.873522 179.533939 
L 240.833194 183.25684 
L 244.800931 185.992878 
L 248.768669 188.496124 
L 252.736406 190.753481 
L 256.704143 192.75447 
L 260.671881 194.490973 
L 264.639618 195.956913 
L 268.607356 197.147921 
L 272.575093 198.060988 
L 276.54283 198.694159 
L 280.510568 199.046261 
L 282.494437 199.116709 
L 282.494437 199.116709 
" clip-path="url(#p898e3ce880)" style="fill: none; stroke: #6db666; stroke-width: 1.5; stroke-linecap: square"/>
   </g>
   <g id="line2d_38">
    <path d="M 48.792183 199.125516 
L 52.228344 199.019845 
L 55.664506 198.702957 
L 59.100667 198.175227 
L 62.536829 197.437308 
L 65.97299 196.490173 
L 69.409151 195.33516 
L 72.845313 193.97405 
L 76.281474 192.409141 
L 79.717636 190.643359 
L 84.012837 188.159339 
L 88.308039 185.376529 
L 92.603241 182.307201 
L 96.898443 178.967811 
L 102.052685 174.636486 
L 107.206927 170.007439 
L 115.79733 161.917082 
L 120.951572 157.174457 
L 124.387734 154.304503 
L 126.964855 152.450202 
L 128.682935 151.420319 
L 130.401016 150.60056 
L 132.119097 150.028264 
L 133.837178 149.733594 
L 145.111529 149.146629 
L 149.575233 148.551174 
L 153.542971 147.815823 
L 157.510708 146.865036 
L 161.478445 145.675321 
L 164.950216 144.418674 
L 168.421986 142.943012 
L 171.893756 141.231982 
L 175.365526 139.270524 
L 178.837297 137.045557 
L 182.309067 134.546623 
L 184.292936 132.992718 
L 189.252607 137.127781 
L 195.204213 142.397785 
L 202.147754 148.852029 
L 224.962244 170.34624 
L 230.91385 175.50981 
L 235.873522 179.533939 
L 240.833194 183.25684 
L 244.800931 185.992878 
L 248.768669 188.496124 
L 252.736406 190.753481 
L 256.704143 192.75447 
L 260.671881 194.490973 
L 264.639618 195.956913 
L 268.607356 197.147921 
L 272.575093 198.060988 
L 276.54283 198.694159 
L 280.510568 199.046261 
L 282.494437 199.116709 
L 282.494437 199.116709 
" clip-path="url(#p898e3ce880)" style="fill: none; stroke: #6db666; stroke-width: 1.5; stroke-linecap: square"/>
   </g>
   <g id="line2d_39">
    <path d="M 48.792183 26.485977 
L 51.369304 26.625055 
L 53.946425 27.041544 
L 56.523546 27.733211 
L 59.100667 28.696355 
L 61.677788 29.925823 
L 64.254909 31.41505 
L 66.83203 33.156099 
L 69.409151 35.139713 
L 71.986272 37.355371 
L 75.422434 40.650131 
L 78.858595 44.305624 
L 82.294757 48.287785 
L 86.589958 53.668301 
L 90.88516 59.42346 
L 96.039402 66.706205 
L 103.770765 78.072786 
L 112.361169 90.663854 
L 116.656371 96.626139 
L 120.092532 101.061326 
L 122.669653 104.096365 
L 125.246774 106.787296 
L 126.964855 108.336752 
L 128.682935 109.646975 
L 130.401016 110.677963 
L 132.119097 111.391542 
L 133.837178 111.756994 
L 142.135726 112.298978 
L 145.607496 112.869174 
L 149.079266 113.653963 
L 152.551036 114.652052 
L 156.022806 115.861551 
L 159.990544 117.499268 
L 163.958281 119.404172 
L 167.926019 121.568885 
L 171.893756 123.98378 
L 176.357461 126.984339 
L 180.821165 130.264588 
L 184.292936 132.992718 
L 188.260673 129.606364 
L 192.22841 125.848224 
L 196.196148 121.724396 
L 200.163885 117.248866 
L 204.131623 112.44371 
L 209.091294 106.020334 
L 214.050966 99.205163 
L 220.002572 90.641462 
L 240.833194 60.173516 
L 245.792866 53.519537 
L 249.760603 48.549332 
L 253.72834 43.95986 
L 256.704143 40.802299 
L 259.679946 37.913592 
L 262.65575 35.314229 
L 265.631553 33.022693 
L 268.607356 31.05531 
L 271.583159 29.42611 
L 274.558962 28.146724 
L 276.54283 27.492759 
L 278.526699 27.000459 
L 280.510568 26.671387 
L 282.494437 26.506589 
L 282.494437 26.506589 
" clip-path="url(#p898e3ce880)" style="fill: none; stroke: #6db666; stroke-width: 1.5; stroke-linecap: square"/>
   </g>
   <g id="line2d_40">
    <path d="M 48.792183 26.485977 
L 51.369304 26.625055 
L 53.946425 27.041544 
L 56.523546 27.733211 
L 59.100667 28.696355 
L 61.677788 29.925823 
L 64.254909 31.41505 
L 66.83203 33.156099 
L 69.409151 35.139713 
L 71.986272 37.355371 
L 75.422434 40.650131 
L 78.858595 44.305624 
L 82.294757 48.287785 
L 86.589958 53.668301 
L 90.88516 59.42346 
L 96.039402 66.706205 
L 103.770765 78.072786 
L 112.361169 90.663854 
L 116.656371 96.626139 
L 120.092532 101.061326 
L 122.669653 104.096365 
L 125.246774 106.787296 
L 126.964855 108.336752 
L 128.682935 109.646975 
L 130.401016 110.677963 
L 132.119097 111.391542 
L 133.837178 111.756994 
L 142.135726 112.298978 
L 145.607496 112.869174 
L 149.079266 113.653963 
L 152.551036 114.652052 
L 156.022806 115.861551 
L 159.990544 117.499268 
L 163.958281 119.404172 
L 167.926019 121.568885 
L 171.893756 123.98378 
L 176.357461 126.984339 
L 180.821165 130.264588 
L 184.292936 132.992718 
L 188.260673 129.606364 
L 192.22841 125.848224 
L 196.196148 121.724396 
L 200.163885 117.248866 
L 204.131623 112.44371 
L 209.091294 106.020334 
L 214.050966 99.205163 
L 220.002572 90.641462 
L 240.833194 60.173516 
L 245.792866 53.519537 
L 249.760603 48.549332 
L 253.72834 43.95986 
L 256.704143 40.802299 
L 259.679946 37.913592 
L 262.65575 35.314229 
L 265.631553 33.022693 
L 268.607356 31.05531 
L 271.583159 29.42611 
L 274.558962 28.146724 
L 276.54283 27.492759 
L 278.526699 27.000459 
L 280.510568 26.671387 
L 282.494437 26.506589 
L 282.494437 26.506589 
" clip-path="url(#p898e3ce880)" style="fill: none; stroke: #6db666; stroke-width: 1.5; stroke-linecap: square"/>
   </g>
   <g id="line2d_41">
    <path d="M 48.792183 199.269808 
L 53.087385 199.176018 
L 57.382586 198.889719 
L 61.677788 198.39662 
L 65.97299 197.674522 
L 70.268192 196.695589 
L 73.704353 195.706981 
L 77.140514 194.518836 
L 80.576676 193.116881 
L 84.012837 191.489232 
L 87.448999 189.627406 
L 90.88516 187.527235 
L 94.321321 185.1897 
L 97.757483 182.621701 
L 102.052685 179.109112 
L 106.347886 175.302419 
L 112.361169 169.615425 
L 120.951572 161.406268 
L 124.387734 158.452755 
L 126.964855 156.545794 
L 128.682935 155.487555 
L 130.401016 154.645805 
L 132.119097 154.0585 
L 133.837178 153.756221 
L 141.143791 153.350545 
L 144.615561 152.850086 
L 148.087332 152.140795 
L 151.559102 151.226005 
L 155.526839 149.93389 
L 159.494577 148.384568 
L 163.462314 146.583922 
L 167.430052 144.53696 
L 171.397789 142.247271 
L 175.365526 139.716615 
L 179.333264 136.944724 
L 183.796968 133.53511 
L 184.292936 133.13701 
L 188.260673 136.485423 
L 192.22841 140.109844 
L 197.188082 144.970248 
L 203.139688 151.16146 
L 221.986441 171.149434 
L 226.946113 175.940409 
L 230.91385 179.497141 
L 234.881588 182.769733 
L 238.849325 185.733166 
L 242.817062 188.372901 
L 246.7848 190.684588 
L 250.752537 192.673204 
L 254.720275 194.351694 
L 258.688012 195.739187 
L 262.65575 196.858921 
L 266.623487 197.73601 
L 270.591224 198.395197 
L 274.558962 198.858741 
L 279.518634 199.189826 
L 282.494437 199.264827 
L 282.494437 199.264827 
" clip-path="url(#p898e3ce880)" style="fill: none; stroke: #92c866; stroke-width: 1.5; stroke-linecap: square"/>
   </g>
   <g id="line2d_42">
    <path d="M 48.792183 199.269808 
L 53.087385 199.176018 
L 57.382586 198.889719 
L 61.677788 198.39662 
L 65.97299 197.674522 
L 70.268192 196.695589 
L 73.704353 195.706981 
L 77.140514 194.518836 
L 80.576676 193.116881 
L 84.012837 191.489232 
L 87.448999 189.627406 
L 90.88516 187.527235 
L 94.321321 185.1897 
L 97.757483 182.621701 
L 102.052685 179.109112 
L 106.347886 175.302419 
L 112.361169 169.615425 
L 120.951572 161.406268 
L 124.387734 158.452755 
L 126.964855 156.545794 
L 128.682935 155.487555 
L 130.401016 154.645805 
L 132.119097 154.0585 
L 133.837178 153.756221 
L 141.143791 153.350545 
L 144.615561 152.850086 
L 148.087332 152.140795 
L 151.559102 151.226005 
L 155.526839 149.93389 
L 159.494577 148.384568 
L 163.462314 146.583922 
L 167.430052 144.53696 
L 171.397789 142.247271 
L 175.365526 139.716615 
L 179.333264 136.944724 
L 183.796968 133.53511 
L 184.292936 133.13701 
L 188.260673 136.485423 
L 192.22841 140.109844 
L 197.188082 144.970248 
L 203.139688 151.16146 
L 221.986441 171.149434 
L 226.946113 175.940409 
L 230.91385 179.497141 
L 234.881588 182.769733 
L 238.849325 185.733166 
L 242.817062 188.372901 
L 246.7848 190.684588 
L 250.752537 192.673204 
L 254.720275 194.351694 
L 258.688012 195.739187 
L 262.65575 196.858921 
L 266.623487 197.73601 
L 270.591224 198.395197 
L 274.558962 198.858741 
L 279.518634 199.189826 
L 282.494437 199.264827 
L 282.494437 199.264827 
" clip-path="url(#p898e3ce880)" style="fill: none; stroke: #92c866; stroke-width: 1.5; stroke-linecap: square"/>
   </g>
   <g id="line2d_43">
    <path d="M 48.792183 26.630268 
L 51.369304 26.79512 
L 53.946425 27.288246 
L 56.523546 28.105381 
L 59.100667 29.239511 
L 61.677788 30.680997 
L 64.254909 32.417759 
L 66.83203 34.435494 
L 69.409151 36.717929 
L 71.986272 39.24711 
L 75.422434 42.969592 
L 78.858595 47.047569 
L 83.153797 52.567548 
L 87.448999 58.462904 
L 93.462281 67.157628 
L 114.079249 97.496294 
L 118.374451 103.189396 
L 121.810613 107.328124 
L 124.387734 110.083102 
L 126.964855 112.432344 
L 128.682935 113.714211 
L 130.401016 114.723208 
L 132.119097 115.421778 
L 133.837178 115.779621 
L 137.176054 115.856026 
L 141.639758 116.072251 
L 146.103463 116.505387 
L 150.567168 117.177475 
L 154.534905 117.999527 
L 158.502642 119.058194 
L 161.974413 120.198437 
L 165.446183 121.55526 
L 168.917953 123.14286 
L 172.389723 124.972394 
L 175.861494 127.050969 
L 179.333264 129.380788 
L 182.805034 131.958493 
L 184.292936 133.13701 
L 188.260673 129.811563 
L 192.22841 126.232319 
L 196.196148 122.394133 
L 200.163885 118.293045 
L 204.131623 113.927603 
L 209.091294 108.103315 
L 214.050966 101.887232 
L 219.010638 95.313472 
L 224.962244 87.031199 
L 232.897719 75.555237 
L 243.808997 59.779714 
L 248.768669 52.981045 
L 252.736406 47.864976 
L 256.704143 43.128262 
L 259.679946 39.874841 
L 262.65575 36.915077 
L 265.631553 34.280221 
L 268.607356 31.998758 
L 271.583159 30.095847 
L 273.567027 29.04825 
L 275.550896 28.183746 
L 277.534765 27.506724 
L 279.518634 27.020641 
L 281.502502 26.727987 
L 282.494437 26.654706 
L 282.494437 26.654706 
" clip-path="url(#p898e3ce880)" style="fill: none; stroke: #92c866; stroke-width: 1.5; stroke-linecap: square"/>
   </g>
   <g id="line2d_44">
    <path d="M 48.792183 26.630268 
L 51.369304 26.79512 
L 53.946425 27.288246 
L 56.523546 28.105381 
L 59.100667 29.239511 
L 61.677788 30.680997 
L 64.254909 32.417759 
L 66.83203 34.435494 
L 69.409151 36.717929 
L 71.986272 39.24711 
L 75.422434 42.969592 
L 78.858595 47.047569 
L 83.153797 52.567548 
L 87.448999 58.462904 
L 93.462281 67.157628 
L 114.079249 97.496294 
L 118.374451 103.189396 
L 121.810613 107.328124 
L 124.387734 110.083102 
L 126.964855 112.432344 
L 128.682935 113.714211 
L 130.401016 114.723208 
L 132.119097 115.421778 
L 133.837178 115.779621 
L 137.176054 115.856026 
L 141.639758 116.072251 
L 146.103463 116.505387 
L 150.567168 117.177475 
L 154.534905 117.999527 
L 158.502642 119.058194 
L 161.974413 120.198437 
L 165.446183 121.55526 
L 168.917953 123.14286 
L 172.389723 124.972394 
L 175.861494 127.050969 
L 179.333264 129.380788 
L 182.805034 131.958493 
L 184.292936 133.13701 
L 188.260673 129.811563 
L 192.22841 126.232319 
L 196.196148 122.394133 
L 200.163885 118.293045 
L 204.131623 113.927603 
L 209.091294 108.103315 
L 214.050966 101.887232 
L 219.010638 95.313472 
L 224.962244 87.031199 
L 232.897719 75.555237 
L 243.808997 59.779714 
L 248.768669 52.981045 
L 252.736406 47.864976 
L 256.704143 43.128262 
L 259.679946 39.874841 
L 262.65575 36.915077 
L 265.631553 34.280221 
L 268.607356 31.998758 
L 271.583159 30.095847 
L 273.567027 29.04825 
L 275.550896 28.183746 
L 277.534765 27.506724 
L 279.518634 27.020641 
L 281.502502 26.727987 
L 282.494437 26.654706 
L 282.494437 26.654706 
" clip-path="url(#p898e3ce880)" style="fill: none; stroke: #92c866; stroke-width: 1.5; stroke-linecap: square"/>
   </g>
   <g id="line2d_45">
    <path d="M 48.792183 200.429691 
L 53.087385 200.298056 
L 57.382586 199.901924 
L 61.677788 199.237757 
L 65.97299 198.300099 
L 70.268192 197.082217 
L 74.563393 195.576919 
L 78.858595 193.777515 
L 83.153797 191.678885 
L 87.448999 189.278624 
L 91.7442 186.578314 
L 96.039402 183.585042 
L 100.334604 180.313435 
L 104.629806 176.788759 
L 109.784048 172.284588 
L 122.669653 160.763437 
L 125.246774 158.763253 
L 127.823895 157.056347 
L 129.541976 156.142729 
L 131.260056 155.45378 
L 132.978137 155.024066 
L 134.696218 154.877893 
L 137.672021 154.781277 
L 141.143791 154.426023 
L 144.615561 153.815195 
L 148.087332 152.958294 
L 151.559102 151.867836 
L 155.030872 150.558378 
L 158.99861 148.813536 
L 162.966347 146.825379 
L 167.430052 144.322376 
L 171.893756 141.557474 
L 176.357461 138.541943 
L 180.821165 135.276174 
L 184.292936 132.557068 
L 188.260673 135.920085 
L 192.22841 139.580973 
L 197.188082 144.499805 
L 203.139688 150.751302 
L 219.010638 167.676868 
L 223.97031 172.601099 
L 228.929981 177.194501 
L 232.897719 180.591814 
L 236.865456 183.72109 
L 240.833194 186.571119 
L 244.800931 189.137512 
L 248.768669 191.421286 
L 252.736406 193.427377 
L 256.704143 195.163224 
L 260.671881 196.637512 
L 264.639618 197.859137 
L 268.607356 198.836421 
L 272.575093 199.576553 
L 276.54283 200.085245 
L 280.510568 200.366532 
L 282.494437 200.422676 
L 282.494437 200.422676 
" clip-path="url(#p898e3ce880)" style="fill: none; stroke: #b6db66; stroke-width: 1.5; stroke-linecap: square"/>
   </g>
   <g id="line2d_46">
    <path d="M 48.792183 200.429691 
L 53.087385 200.298056 
L 57.382586 199.901924 
L 61.677788 199.237757 
L 65.97299 198.300099 
L 70.268192 197.082217 
L 74.563393 195.576919 
L 78.858595 193.777515 
L 83.153797 191.678885 
L 87.448999 189.278624 
L 91.7442 186.578314 
L 96.039402 183.585042 
L 100.334604 180.313435 
L 104.629806 176.788759 
L 109.784048 172.284588 
L 122.669653 160.763437 
L 125.246774 158.763253 
L 127.823895 157.056347 
L 129.541976 156.142729 
L 131.260056 155.45378 
L 132.978137 155.024066 
L 134.696218 154.877893 
L 137.672021 154.781277 
L 141.143791 154.426023 
L 144.615561 153.815195 
L 148.087332 152.958294 
L 151.559102 151.867836 
L 155.030872 150.558378 
L 158.99861 148.813536 
L 162.966347 146.825379 
L 167.430052 144.322376 
L 171.893756 141.557474 
L 176.357461 138.541943 
L 180.821165 135.276174 
L 184.292936 132.557068 
L 188.260673 135.920085 
L 192.22841 139.580973 
L 197.188082 144.499805 
L 203.139688 150.751302 
L 219.010638 167.676868 
L 223.97031 172.601099 
L 228.929981 177.194501 
L 232.897719 180.591814 
L 236.865456 183.72109 
L 240.833194 186.571119 
L 244.800931 189.137512 
L 248.768669 191.421286 
L 252.736406 193.427377 
L 256.704143 195.163224 
L 260.671881 196.637512 
L 264.639618 197.859137 
L 268.607356 198.836421 
L 272.575093 199.576553 
L 276.54283 200.085245 
L 280.510568 200.366532 
L 282.494437 200.422676 
L 282.494437 200.422676 
" clip-path="url(#p898e3ce880)" style="fill: none; stroke: #b6db66; stroke-width: 1.5; stroke-linecap: square"/>
   </g>
   <g id="line2d_47">
    <path d="M 48.792183 27.790152 
L 51.369304 27.941308 
L 53.946425 28.393829 
L 56.523546 29.144891 
L 59.100667 30.189818 
L 61.677788 31.522134 
L 64.254909 33.133624 
L 66.83203 35.014422 
L 69.409151 37.15311 
L 71.986272 39.536823 
L 75.422434 43.071565 
L 78.858595 46.979689 
L 82.294757 51.22112 
L 86.589958 56.926299 
L 90.88516 62.99722 
L 96.898443 71.934569 
L 114.93829 99.154295 
L 118.374451 103.860678 
L 121.810613 108.16926 
L 124.387734 111.033409 
L 126.105814 112.713595 
L 127.823895 114.169156 
L 129.541976 115.360846 
L 131.260056 116.249024 
L 132.978137 116.798518 
L 134.696218 116.984658 
L 140.647824 117.093814 
L 146.103463 117.411303 
L 150.567168 117.871757 
L 154.534905 118.476522 
L 158.502642 119.307907 
L 161.974413 120.254244 
L 165.446183 121.432496 
L 168.917953 122.865293 
L 172.389723 124.569911 
L 175.861494 126.556892 
L 179.333264 128.82905 
L 182.805034 131.380921 
L 184.292936 132.557068 
L 189.252607 128.382933 
L 193.220345 124.779524 
L 197.188082 120.923175 
L 201.15582 116.799202 
L 205.123557 112.397815 
L 209.091294 107.716687 
L 214.050966 101.484075 
L 219.010638 94.865772 
L 224.962244 86.51349 
L 234.881588 72.075734 
L 242.817062 60.696901 
L 247.776734 53.974327 
L 251.744472 48.94201 
L 255.712209 44.301408 
L 258.688012 41.121612 
L 261.663815 38.230594 
L 264.639618 35.653505 
L 267.615421 33.412634 
L 270.591224 31.527228 
L 273.567027 30.013359 
L 275.550896 29.216988 
L 277.534765 28.594491 
L 279.518634 28.14819 
L 281.502502 27.879745 
L 282.494437 27.812555 
L 282.494437 27.812555 
" clip-path="url(#p898e3ce880)" style="fill: none; stroke: #b6db66; stroke-width: 1.5; stroke-linecap: square"/>
   </g>
   <g id="line2d_48">
    <path d="M 48.792183 27.790152 
L 51.369304 27.941308 
L 53.946425 28.393829 
L 56.523546 29.144891 
L 59.100667 30.189818 
L 61.677788 31.522134 
L 64.254909 33.133624 
L 66.83203 35.014422 
L 69.409151 37.15311 
L 71.986272 39.536823 
L 75.422434 43.071565 
L 78.858595 46.979689 
L 82.294757 51.22112 
L 86.589958 56.926299 
L 90.88516 62.99722 
L 96.898443 71.934569 
L 114.93829 99.154295 
L 118.374451 103.860678 
L 121.810613 108.16926 
L 124.387734 111.033409 
L 126.105814 112.713595 
L 127.823895 114.169156 
L 129.541976 115.360846 
L 131.260056 116.249024 
L 132.978137 116.798518 
L 134.696218 116.984658 
L 140.647824 117.093814 
L 146.103463 117.411303 
L 150.567168 117.871757 
L 154.534905 118.476522 
L 158.502642 119.307907 
L 161.974413 120.254244 
L 165.446183 121.432496 
L 168.917953 122.865293 
L 172.389723 124.569911 
L 175.861494 126.556892 
L 179.333264 128.82905 
L 182.805034 131.380921 
L 184.292936 132.557068 
L 189.252607 128.382933 
L 193.220345 124.779524 
L 197.188082 120.923175 
L 201.15582 116.799202 
L 205.123557 112.397815 
L 209.091294 107.716687 
L 214.050966 101.484075 
L 219.010638 94.865772 
L 224.962244 86.51349 
L 234.881588 72.075734 
L 242.817062 60.696901 
L 247.776734 53.974327 
L 251.744472 48.94201 
L 255.712209 44.301408 
L 258.688012 41.121612 
L 261.663815 38.230594 
L 264.639618 35.653505 
L 267.615421 33.412634 
L 270.591224 31.527228 
L 273.567027 30.013359 
L 275.550896 29.216988 
L 277.534765 28.594491 
L 279.518634 28.14819 
L 281.502502 27.879745 
L 282.494437 27.812555 
L 282.494437 27.812555 
" clip-path="url(#p898e3ce880)" style="fill: none; stroke: #b6db66; stroke-width: 1.5; stroke-linecap: square"/>
   </g>
   <g id="line2d_49">
    <path d="M 48.792183 201.251045 
L 52.228344 201.148193 
L 55.664506 200.8404 
L 59.100667 200.329886 
L 62.536829 199.620157 
L 65.97299 198.715728 
L 69.409151 197.621776 
L 73.704353 195.996109 
L 77.999555 194.093103 
L 82.294757 191.921802 
L 86.589958 189.489483 
L 90.88516 186.801842 
L 95.180362 183.864162 
L 99.475564 180.683748 
L 104.629806 176.566546 
L 110.643088 171.414747 
L 122.669653 160.909632 
L 125.246774 158.951616 
L 127.823895 157.281214 
L 129.541976 156.387671 
L 131.260056 155.714251 
L 132.978137 155.294439 
L 134.696218 155.151678 
L 138.167988 155.024576 
L 141.639758 154.64476 
L 145.111529 154.016589 
L 148.583299 153.147012 
L 152.055069 152.045099 
L 155.526839 150.721452 
L 159.494577 148.951878 
L 163.462314 146.924765 
L 167.430052 144.655992 
L 171.893756 141.831259 
L 176.357461 138.731099 
L 180.821165 135.362453 
L 184.292936 132.557068 
L 188.260673 136.017394 
L 192.22841 139.765453 
L 197.188082 144.765837 
L 204.131623 152.122167 
L 215.042901 163.725544 
L 220.994507 169.709027 
L 225.954178 174.377378 
L 230.91385 178.704833 
L 234.881588 181.903164 
L 238.849325 184.860474 
L 242.817062 187.575449 
L 246.7848 190.049142 
L 250.752537 192.28312 
L 254.720275 194.278031 
L 258.688012 196.032713 
L 262.65575 197.543879 
L 266.623487 198.806346 
L 270.591224 199.813696 
L 274.558962 200.559215 
L 278.526699 201.036914 
L 282.494437 201.242469 
L 282.494437 201.242469 
" clip-path="url(#p898e3ce880)" style="fill: none; stroke: #dbed66; stroke-width: 1.5; stroke-linecap: square"/>
   </g>
   <g id="line2d_50">
    <path d="M 48.792183 201.251045 
L 52.228344 201.148193 
L 55.664506 200.8404 
L 59.100667 200.329886 
L 62.536829 199.620157 
L 65.97299 198.715728 
L 69.409151 197.621776 
L 73.704353 195.996109 
L 77.999555 194.093103 
L 82.294757 191.921802 
L 86.589958 189.489483 
L 90.88516 186.801842 
L 95.180362 183.864162 
L 99.475564 180.683748 
L 104.629806 176.566546 
L 110.643088 171.414747 
L 122.669653 160.909632 
L 125.246774 158.951616 
L 127.823895 157.281214 
L 129.541976 156.387671 
L 131.260056 155.714251 
L 132.978137 155.294439 
L 134.696218 155.151678 
L 138.167988 155.024576 
L 141.639758 154.64476 
L 145.111529 154.016589 
L 148.583299 153.147012 
L 152.055069 152.045099 
L 155.526839 150.721452 
L 159.494577 148.951878 
L 163.462314 146.924765 
L 167.430052 144.655992 
L 171.893756 141.831259 
L 176.357461 138.731099 
L 180.821165 135.362453 
L 184.292936 132.557068 
L 188.260673 136.017394 
L 192.22841 139.765453 
L 197.188082 144.765837 
L 204.131623 152.122167 
L 215.042901 163.725544 
L 220.994507 169.709027 
L 225.954178 174.377378 
L 230.91385 178.704833 
L 234.881588 181.903164 
L 238.849325 184.860474 
L 242.817062 187.575449 
L 246.7848 190.049142 
L 250.752537 192.28312 
L 254.720275 194.278031 
L 258.688012 196.032713 
L 262.65575 197.543879 
L 266.623487 198.806346 
L 270.591224 199.813696 
L 274.558962 200.559215 
L 278.526699 201.036914 
L 282.494437 201.242469 
L 282.494437 201.242469 
" clip-path="url(#p898e3ce880)" style="fill: none; stroke: #dbed66; stroke-width: 1.5; stroke-linecap: square"/>
   </g>
   <g id="line2d_51">
    <path d="M 48.792183 26.968799 
L 51.369304 27.130459 
L 53.946425 27.614091 
L 56.523546 28.41568 
L 59.100667 29.528622 
L 61.677788 30.943857 
L 64.254909 32.650048 
L 66.83203 34.633796 
L 69.409151 36.879892 
L 71.986272 39.371594 
L 75.422434 43.04468 
L 78.858595 47.077157 
L 82.294757 51.422031 
L 86.589958 57.219616 
L 91.7442 64.591428 
L 98.616523 74.865056 
L 111.502128 94.257075 
L 115.79733 100.34648 
L 119.233492 104.897913 
L 121.810613 108.038144 
L 124.387734 110.858553 
L 126.105814 112.512344 
L 127.823895 113.944288 
L 129.541976 115.115904 
L 131.260056 115.988553 
L 132.978137 116.528145 
L 134.696218 116.710873 
L 141.143791 116.824973 
L 146.59943 117.134487 
L 151.063135 117.590728 
L 155.030872 118.201872 
L 158.502642 118.934225 
L 161.974413 119.884261 
L 165.446183 121.08102 
L 168.421986 122.32165 
L 171.397789 123.772651 
L 174.373592 125.440885 
L 177.845362 127.664049 
L 181.317133 130.179577 
L 184.292936 132.557068 
L 189.252607 128.262525 
L 194.212279 123.618285 
L 199.171951 118.608199 
L 204.131623 113.218346 
L 209.091294 107.442903 
L 214.050966 101.289947 
L 219.010638 94.786578 
L 224.962244 86.592096 
L 232.897719 75.234207 
L 243.808997 59.626808 
L 248.768669 52.908959 
L 252.736406 47.859107 
L 256.704143 43.18872 
L 259.679946 39.984016 
L 262.65575 37.071009 
L 265.631553 34.479855 
L 268.607356 32.237895 
L 271.583159 30.369158 
L 273.567027 29.340864 
L 275.550896 28.492556 
L 277.534765 27.828389 
L 279.518634 27.351628 
L 281.502502 27.064625 
L 282.494437 26.992763 
L 282.494437 26.992763 
" clip-path="url(#p898e3ce880)" style="fill: none; stroke: #dbed66; stroke-width: 1.5; stroke-linecap: square"/>
   </g>
   <g id="line2d_52">
    <path d="M 48.792183 26.968799 
L 51.369304 27.130459 
L 53.946425 27.614091 
L 56.523546 28.41568 
L 59.100667 29.528622 
L 61.677788 30.943857 
L 64.254909 32.650048 
L 66.83203 34.633796 
L 69.409151 36.879892 
L 71.986272 39.371594 
L 75.422434 43.04468 
L 78.858595 47.077157 
L 82.294757 51.422031 
L 86.589958 57.219616 
L 91.7442 64.591428 
L 98.616523 74.865056 
L 111.502128 94.257075 
L 115.79733 100.34648 
L 119.233492 104.897913 
L 121.810613 108.038144 
L 124.387734 110.858553 
L 126.105814 112.512344 
L 127.823895 113.944288 
L 129.541976 115.115904 
L 131.260056 115.988553 
L 132.978137 116.528145 
L 134.696218 116.710873 
L 141.143791 116.824973 
L 146.59943 117.134487 
L 151.063135 117.590728 
L 155.030872 118.201872 
L 158.502642 118.934225 
L 161.974413 119.884261 
L 165.446183 121.08102 
L 168.421986 122.32165 
L 171.397789 123.772651 
L 174.373592 125.440885 
L 177.845362 127.664049 
L 181.317133 130.179577 
L 184.292936 132.557068 
L 189.252607 128.262525 
L 194.212279 123.618285 
L 199.171951 118.608199 
L 204.131623 113.218346 
L 209.091294 107.442903 
L 214.050966 101.289947 
L 219.010638 94.786578 
L 224.962244 86.592096 
L 232.897719 75.234207 
L 243.808997 59.626808 
L 248.768669 52.908959 
L 252.736406 47.859107 
L 256.704143 43.18872 
L 259.679946 39.984016 
L 262.65575 37.071009 
L 265.631553 34.479855 
L 268.607356 32.237895 
L 271.583159 30.369158 
L 273.567027 29.340864 
L 275.550896 28.492556 
L 277.534765 27.828389 
L 279.518634 27.351628 
L 281.502502 27.064625 
L 282.494437 26.992763 
L 282.494437 26.992763 
" clip-path="url(#p898e3ce880)" style="fill: none; stroke: #dbed66; stroke-width: 1.5; stroke-linecap: square"/>
   </g>
   <g id="line2d_53">
    <path d="M 48.792183 201.836536 
L 52.228344 201.717363 
L 55.664506 201.361965 
L 59.100667 200.776507 
L 62.536829 199.970621 
L 65.97299 198.956514 
L 69.409151 197.747859 
L 73.704353 195.984581 
L 77.999555 193.963811 
L 82.294757 191.705078 
L 86.589958 189.220758 
L 90.88516 186.515774 
L 95.180362 183.58915 
L 100.334604 179.78011 
L 105.488846 175.649508 
L 110.643088 171.228838 
L 124.387734 159.199337 
L 126.964855 157.349394 
L 128.682935 156.313793 
L 130.401016 155.485078 
L 132.119097 154.9041 
L 133.837178 154.604149 
L 141.143791 154.18532 
L 144.615561 153.664952 
L 148.087332 152.924336 
L 151.559102 151.964166 
L 155.030872 150.785547 
L 158.502642 149.390104 
L 161.974413 147.780079 
L 165.94215 145.681069 
L 169.909887 143.31106 
L 173.877625 140.676537 
L 177.845362 137.784789 
L 182.309067 134.233753 
L 184.292936 132.557068 
L 188.260673 136.139418 
L 192.22841 140.017638 
L 197.188082 145.170149 
L 218.018704 167.242829 
L 222.978375 171.961186 
L 227.938047 176.338151 
L 232.897719 180.362865 
L 237.857391 184.043558 
L 242.817062 187.396944 
L 247.776734 190.437973 
L 252.736406 193.171774 
L 256.704143 195.131917 
L 260.671881 196.878128 
L 264.639618 198.393571 
L 268.607356 199.658117 
L 272.575093 200.650743 
L 276.54283 201.352137 
L 279.518634 201.677718 
L 282.494437 201.826591 
L 282.494437 201.826591 
" clip-path="url(#p898e3ce880)" style="fill: none; stroke: #ffff66; stroke-width: 1.5; stroke-linecap: square"/>
   </g>
   <g id="line2d_54">
    <path d="M 48.792183 201.836536 
L 52.228344 201.717363 
L 55.664506 201.361965 
L 59.100667 200.776507 
L 62.536829 199.970621 
L 65.97299 198.956514 
L 69.409151 197.747859 
L 73.704353 195.984581 
L 77.999555 193.963811 
L 82.294757 191.705078 
L 86.589958 189.220758 
L 90.88516 186.515774 
L 95.180362 183.58915 
L 100.334604 179.78011 
L 105.488846 175.649508 
L 110.643088 171.228838 
L 124.387734 159.199337 
L 126.964855 157.349394 
L 128.682935 156.313793 
L 130.401016 155.485078 
L 132.119097 154.9041 
L 133.837178 154.604149 
L 141.143791 154.18532 
L 144.615561 153.664952 
L 148.087332 152.924336 
L 151.559102 151.964166 
L 155.030872 150.785547 
L 158.502642 149.390104 
L 161.974413 147.780079 
L 165.94215 145.681069 
L 169.909887 143.31106 
L 173.877625 140.676537 
L 177.845362 137.784789 
L 182.309067 134.233753 
L 184.292936 132.557068 
L 188.260673 136.139418 
L 192.22841 140.017638 
L 197.188082 145.170149 
L 218.018704 167.242829 
L 222.978375 171.961186 
L 227.938047 176.338151 
L 232.897719 180.362865 
L 237.857391 184.043558 
L 242.817062 187.396944 
L 247.776734 190.437973 
L 252.736406 193.171774 
L 256.704143 195.131917 
L 260.671881 196.878128 
L 264.639618 198.393571 
L 268.607356 199.658117 
L 272.575093 200.650743 
L 276.54283 201.352137 
L 279.518634 201.677718 
L 282.494437 201.826591 
L 282.494437 201.826591 
" clip-path="url(#p898e3ce880)" style="fill: none; stroke: #ffff66; stroke-width: 1.5; stroke-linecap: square"/>
   </g>
   <g id="line2d_55">
    <path d="M 48.792183 26.383308 
L 50.510264 26.459286 
L 52.228344 26.686869 
L 54.805465 27.310008 
L 57.382586 28.265292 
L 59.959707 29.543003 
L 62.536829 31.130417 
L 65.11395 33.012159 
L 67.691071 35.170619 
L 70.268192 37.586408 
L 73.704353 41.171863 
L 77.140514 45.126804 
L 80.576676 49.399371 
L 84.871878 55.109209 
L 90.02612 62.377877 
L 96.898443 72.531268 
L 113.220209 96.927625 
L 117.515411 102.900396 
L 120.951572 107.317773 
L 123.528693 110.315751 
L 126.105814 112.937904 
L 127.823895 114.417106 
L 129.541976 115.632648 
L 131.260056 116.541523 
L 132.978137 117.105179 
L 134.696218 117.296365 
L 143.12766 117.401843 
L 149.079266 117.692501 
L 153.542971 118.13381 
L 157.510708 118.763233 
L 160.982478 119.548015 
L 163.958281 120.425494 
L 166.934084 121.514228 
L 169.909887 122.830617 
L 172.88569 124.385577 
L 175.861494 126.183825 
L 178.837297 128.223484 
L 182.309067 130.896445 
L 184.292936 132.557068 
L 189.252607 128.108161 
L 194.212279 123.302503 
L 199.171951 118.151855 
L 204.131623 112.6666 
L 209.091294 106.857411 
L 214.050966 100.738201 
L 220.002572 93.016663 
L 225.954178 84.940867 
L 234.881588 72.391004 
L 245.792866 57.089668 
L 250.752537 50.509572 
L 254.720275 45.571618 
L 258.688012 41.0214 
L 261.663815 37.917489 
L 264.639618 35.119071 
L 267.615421 32.660564 
L 270.591224 30.573266 
L 272.575093 29.40165 
L 274.558962 28.414231 
L 276.54283 27.616953 
L 278.526699 27.014668 
L 280.510568 26.611067 
L 282.494437 26.40864 
L 282.494437 26.40864 
" clip-path="url(#p898e3ce880)" style="fill: none; stroke: #ffff66; stroke-width: 1.5; stroke-linecap: square"/>
   </g>
   <g id="line2d_56">
    <path d="M 48.792183 26.383308 
L 50.510264 26.459286 
L 52.228344 26.686869 
L 54.805465 27.310008 
L 57.382586 28.265292 
L 59.959707 29.543003 
L 62.536829 31.130417 
L 65.11395 33.012159 
L 67.691071 35.170619 
L 70.268192 37.586408 
L 73.704353 41.171863 
L 77.140514 45.126804 
L 80.576676 49.399371 
L 84.871878 55.109209 
L 90.02612 62.377877 
L 96.898443 72.531268 
L 113.220209 96.927625 
L 117.515411 102.900396 
L 120.951572 107.317773 
L 123.528693 110.315751 
L 126.105814 112.937904 
L 127.823895 114.417106 
L 129.541976 115.632648 
L 131.260056 116.541523 
L 132.978137 117.105179 
L 134.696218 117.296365 
L 143.12766 117.401843 
L 149.079266 117.692501 
L 153.542971 118.13381 
L 157.510708 118.763233 
L 160.982478 119.548015 
L 163.958281 120.425494 
L 166.934084 121.514228 
L 169.909887 122.830617 
L 172.88569 124.385577 
L 175.861494 126.183825 
L 178.837297 128.223484 
L 182.309067 130.896445 
L 184.292936 132.557068 
L 189.252607 128.108161 
L 194.212279 123.302503 
L 199.171951 118.151855 
L 204.131623 112.6666 
L 209.091294 106.857411 
L 214.050966 100.738201 
L 220.002572 93.016663 
L 225.954178 84.940867 
L 234.881588 72.391004 
L 245.792866 57.089668 
L 250.752537 50.509572 
L 254.720275 45.571618 
L 258.688012 41.0214 
L 261.663815 37.917489 
L 264.639618 35.119071 
L 267.615421 32.660564 
L 270.591224 30.573266 
L 272.575093 29.40165 
L 274.558962 28.414231 
L 276.54283 27.616953 
L 278.526699 27.014668 
L 280.510568 26.611067 
L 282.494437 26.40864 
L 282.494437 26.40864 
" clip-path="url(#p898e3ce880)" style="fill: none; stroke: #ffff66; stroke-width: 1.5; stroke-linecap: square"/>
   </g>
   <g id="patch_3">
    <path d="M 48.792183 222.188611 
L 48.792183 15.800524 
" style="fill: none; stroke: #000000; stroke-width: 0.8; stroke-linejoin: miter; stroke-linecap: square"/>
   </g>
   <g id="patch_4">
    <path d="M 282.494437 222.188611 
L 282.494437 15.800524 
" style="fill: none; stroke: #000000; stroke-width: 0.8; stroke-linejoin: miter; stroke-linecap: square"/>
   </g>
   <g id="patch_5">
    <path d="M 48.792183 222.188611 
L 282.494437 222.188611 
" style="fill: none; stroke: #000000; stroke-width: 0.8; stroke-linejoin: miter; stroke-linecap: square"/>
   </g>
   <g id="patch_6">
    <path d="M 48.792183 15.800524 
L 282.494437 15.800524 
" style="fill: none; stroke: #000000; stroke-width: 0.8; stroke-linejoin: miter; stroke-linecap: square"/>
   </g>
  </g>
  <g id="axes_2">
   <g id="patch_7">
    <path d="M 297.100827 222.188611 
L 307.420232 222.188611 
L 307.420232 15.800524 
L 297.100827 15.800524 
z
" style="fill: #ffffff"/>
   </g>
   <g id="patch_8">
    <path clip-path="url(#p27e8c927dc)" style="fill: #ffffff; stroke: #ffffff; stroke-width: 0.01; stroke-linejoin: miter"/>
   </g>
   <g id="QuadMesh_1">
    <path d="M 297.100827 222.188611 
L 307.420232 222.188611 
L 307.420232 196.3901 
L 297.100827 196.3901 
L 297.100827 222.188611 
" clip-path="url(#p27e8c927dc)" style="fill: #008066"/>
    <path d="M 297.100827 196.3901 
L 307.420232 196.3901 
L 307.420232 170.591589 
L 297.100827 170.591589 
L 297.100827 196.3901 
" clip-path="url(#p27e8c927dc)" style="fill: #249266"/>
    <path d="M 297.100827 170.591589 
L 307.420232 170.591589 
L 307.420232 144.793079 
L 297.100827 144.793079 
L 297.100827 170.591589 
" clip-path="url(#p27e8c927dc)" style="fill: #49a466"/>
    <path d="M 297.100827 144.793079 
L 307.420232 144.793079 
L 307.420232 118.994568 
L 297.100827 118.994568 
L 297.100827 144.793079 
" clip-path="url(#p27e8c927dc)" style="fill: #6db666"/>
    <path d="M 297.100827 118.994568 
L 307.420232 118.994568 
L 307.420232 93.196057 
L 297.100827 93.196057 
L 297.100827 118.994568 
" clip-path="url(#p27e8c927dc)" style="fill: #92c866"/>
    <path d="M 297.100827 93.196057 
L 307.420232 93.196057 
L 307.420232 67.397546 
L 297.100827 67.397546 
L 297.100827 93.196057 
" clip-path="url(#p27e8c927dc)" style="fill: #b6db66"/>
    <path d="M 297.100827 67.397546 
L 307.420232 67.397546 
L 307.420232 41.599035 
L 297.100827 41.599035 
L 297.100827 67.397546 
" clip-path="url(#p27e8c927dc)" style="fill: #dbed66"/>
    <path d="M 297.100827 41.599035 
L 307.420232 41.599035 
L 307.420232 15.800524 
L 297.100827 15.800524 
L 297.100827 41.599035 
" clip-path="url(#p27e8c927dc)" style="fill: #ffff66"/>
   </g>
   <g id="matplotlib.axis_3">
    <g id="ytick_9">
     <g id="line2d_57">
      <defs>
       <path id="m5309d167f6" d="M 0 0 
L 3.5 0 
" style="stroke: #000000; stroke-width: 0.8"/>
      </defs>
      <g>
       <use xlink:href="#m5309d167f6" x="307.420232" y="222.188611" style="stroke: #000000; stroke-width: 0.8"/>
      </g>
     </g>
     <g id="text_14">
      <!-- $\mathdefault{0}$ -->
      <g transform="translate(314.420232 226.109136)scale(0.11 -0.11)">
       <use xlink:href="#URWPalladioL-Roma-30" transform="scale(0.996264)"/>
      </g>
     </g>
    </g>
    <g id="ytick_10">
     <g id="line2d_58">
      <g>
       <use xlink:href="#m5309d167f6" x="307.420232" y="196.3901" style="stroke: #000000; stroke-width: 0.8"/>
      </g>
     </g>
     <g id="text_15">
      <!-- $\mathdefault{1}$ -->
      <g transform="translate(314.420232 200.310625)scale(0.11 -0.11)">
       <use xlink:href="#URWPalladioL-Roma-31" transform="scale(0.996264)"/>
      </g>
     </g>
    </g>
    <g id="ytick_11">
     <g id="line2d_59">
      <g>
       <use xlink:href="#m5309d167f6" x="307.420232" y="170.591589" style="stroke: #000000; stroke-width: 0.8"/>
      </g>
     </g>
     <g id="text_16">
      <!-- $\mathdefault{2}$ -->
      <g transform="translate(314.420232 174.512114)scale(0.11 -0.11)">
       <use xlink:href="#URWPalladioL-Roma-32" transform="scale(0.996264)"/>
      </g>
     </g>
    </g>
    <g id="ytick_12">
     <g id="line2d_60">
      <g>
       <use xlink:href="#m5309d167f6" x="307.420232" y="144.793079" style="stroke: #000000; stroke-width: 0.8"/>
      </g>
     </g>
     <g id="text_17">
      <!-- $\mathdefault{3}$ -->
      <g transform="translate(314.420232 148.713603)scale(0.11 -0.11)">
       <use xlink:href="#URWPalladioL-Roma-33" transform="scale(0.996264)"/>
      </g>
     </g>
    </g>
    <g id="ytick_13">
     <g id="line2d_61">
      <g>
       <use xlink:href="#m5309d167f6" x="307.420232" y="118.994568" style="stroke: #000000; stroke-width: 0.8"/>
      </g>
     </g>
     <g id="text_18">
      <!-- $\mathdefault{4}$ -->
      <g transform="translate(314.420232 122.915092)scale(0.11 -0.11)">
       <use xlink:href="#URWPalladioL-Roma-34" transform="scale(0.996264)"/>
      </g>
     </g>
    </g>
    <g id="ytick_14">
     <g id="line2d_62">
      <g>
       <use xlink:href="#m5309d167f6" x="307.420232" y="93.196057" style="stroke: #000000; stroke-width: 0.8"/>
      </g>
     </g>
     <g id="text_19">
      <!-- $\mathdefault{5}$ -->
      <g transform="translate(314.420232 97.116581)scale(0.11 -0.11)">
       <defs>
        <path id="URWPalladioL-Roma-35" d="M 813 3891 
C 1638 3865 1997 3859 2765 3859 
L 2797 3891 
C 2784 4006 2784 4057 2784 4140 
C 2784 4230 2784 4281 2797 4396 
L 2765 4428 
C 2285 4403 1997 4396 1651 4396 
C 1299 4396 1018 4403 538 4428 
L 506 4396 
C 512 4006 518 3724 518 3520 
C 518 2976 499 2360 480 2076 
L 608 2038 
C 909 2341 1082 2432 1395 2432 
C 2010 2432 2394 1992 2394 1295 
C 2394 579 1984 160 1286 160 
C 941 160 621 276 531 443 
L 237 973 
L 83 882 
C 230 514 307 308 397 25 
C 576 -71 832 -128 1107 -128 
C 1536 -128 1990 57 2342 366 
C 2733 715 2938 1153 2938 1631 
C 2938 2360 2419 2873 1690 2873 
C 1382 2873 1152 2790 755 2553 
L 813 3891 
z
" transform="scale(0.015625)"/>
       </defs>
       <use xlink:href="#URWPalladioL-Roma-35" transform="scale(0.996264)"/>
      </g>
     </g>
    </g>
    <g id="ytick_15">
     <g id="line2d_63">
      <g>
       <use xlink:href="#m5309d167f6" x="307.420232" y="67.397546" style="stroke: #000000; stroke-width: 0.8"/>
      </g>
     </g>
     <g id="text_20">
      <!-- $\mathdefault{6}$ -->
      <g transform="translate(314.420232 71.318071)scale(0.11 -0.11)">
       <defs>
        <path id="URWPalladioL-Roma-36" d="M 2662 4287 
L 2426 4396 
C 1811 4193 1549 4066 1222 3788 
C 563 3237 205 2463 205 1585 
C 205 526 717 -128 1542 -128 
C 2374 -128 2995 532 2995 1405 
C 2995 2143 2554 2624 1875 2624 
C 1555 2624 1363 2540 986 2239 
C 915 2182 909 2175 838 2124 
C 973 3275 1510 3895 2662 4237 
L 2662 4287 
z
M 1632 2239 
C 2118 2239 2445 1816 2445 1180 
C 2445 513 2118 83 1626 83 
C 1082 83 787 551 787 1411 
C 787 1636 813 1758 883 1867 
C 1024 2085 1325 2239 1632 2239 
z
" transform="scale(0.015625)"/>
       </defs>
       <use xlink:href="#URWPalladioL-Roma-36" transform="scale(0.996264)"/>
      </g>
     </g>
    </g>
    <g id="ytick_16">
     <g id="line2d_64">
      <g>
       <use xlink:href="#m5309d167f6" x="307.420232" y="41.599035" style="stroke: #000000; stroke-width: 0.8"/>
      </g>
     </g>
     <g id="text_21">
      <!-- $\mathdefault{7}$ -->
      <g transform="translate(314.420232 45.51956)scale(0.11 -0.11)">
       <defs>
        <path id="URWPalladioL-Roma-37" d="M 358 83 
L 416 0 
C 666 0 666 0 710 0 
C 755 19 755 19 1005 0 
C 1274 700 1587 1369 2010 2141 
L 3181 4255 
L 3181 4448 
C 2490 4422 2266 4416 1747 4416 
C 1280 4416 966 4422 346 4448 
L 282 4416 
C 301 3807 301 3807 301 3743 
C 301 3672 301 3672 282 3087 
L 474 3087 
L 518 3447 
C 570 3846 614 3897 909 3897 
L 2618 3897 
C 2362 3370 2163 2996 1920 2604 
L 358 83 
z
" transform="scale(0.015625)"/>
       </defs>
       <use xlink:href="#URWPalladioL-Roma-37" transform="scale(0.996264)"/>
      </g>
     </g>
    </g>
    <g id="ytick_17">
     <g id="line2d_65">
      <g>
       <use xlink:href="#m5309d167f6" x="307.420232" y="15.800524" style="stroke: #000000; stroke-width: 0.8"/>
      </g>
     </g>
     <g id="text_22">
      <!-- $\mathdefault{8}$ -->
      <g transform="translate(314.420232 19.721049)scale(0.11 -0.11)">
       <defs>
        <path id="URWPalladioL-Roma-38" d="M 1075 2211 
C 813 2089 704 2019 563 1884 
C 320 1640 192 1352 192 1019 
C 192 358 723 -128 1446 -128 
C 2278 -128 2970 525 2970 1320 
C 2970 1833 2733 2108 2003 2442 
C 2586 2839 2790 3108 2790 3493 
C 2790 4044 2336 4416 1658 4416 
C 896 4416 339 3929 339 3256 
C 339 2820 512 2576 1075 2211 
z
M 1818 1890 
C 2221 1711 2464 1397 2464 1051 
C 2464 512 2061 89 1542 89 
C 998 89 646 474 646 1070 
C 646 1538 832 1833 1306 2121 
L 1818 1890 
z
M 1427 2711 
C 1024 2910 819 3166 819 3486 
C 819 3910 1126 4198 1581 4198 
C 2048 4198 2355 3890 2355 3422 
C 2355 3057 2195 2807 1779 2538 
L 1427 2711 
z
" transform="scale(0.015625)"/>
       </defs>
       <use xlink:href="#URWPalladioL-Roma-38" transform="scale(0.996264)"/>
      </g>
     </g>
    </g>
    <g id="text_23">
     <!-- Highest order of included nearest neighbors -->
     <g transform="translate(327.058635 12.069791)rotate(-270)scale(0.11 -0.11)">
      <defs>
       <path id="URWPalladioL-Roma-48" d="M 3942 787 
C 3942 281 3910 230 3616 211 
L 3309 192 
L 3309 0 
C 3686 -7 3910 0 4243 0 
C 4576 19 4806 12 5184 0 
L 5184 192 
L 4877 211 
C 4582 230 4550 281 4550 783 
L 4550 3635 
C 4550 4135 4582 4186 4877 4205 
L 5184 4223 
L 5184 4416 
C 4717 4396 4576 4396 4243 4396 
C 3923 4396 3770 4403 3309 4416 
L 3309 4223 
L 3616 4205 
C 3910 4186 3942 4135 3942 3635 
L 3942 2508 
C 3808 2502 3674 2496 3411 2496 
L 1914 2496 
C 1651 2496 1510 2502 1382 2508 
L 1382 3635 
C 1382 4135 1414 4186 1709 4205 
L 2016 4223 
L 2016 4416 
C 1549 4396 1408 4396 1075 4396 
C 755 4396 602 4403 141 4416 
L 141 4223 
L 448 4205 
C 742 4186 774 4135 774 3635 
L 774 783 
C 774 281 742 230 448 211 
L 141 192 
L 141 0 
C 518 -7 742 0 1075 0 
C 1408 19 1638 12 2016 0 
L 2016 192 
L 1709 211 
C 1414 230 1382 281 1382 783 
L 1382 2201 
C 1555 2214 1658 2214 1914 2214 
L 3411 2214 
C 3667 2214 3770 2214 3942 2201 
L 3942 787 
z
" transform="scale(0.015625)"/>
       <path id="URWPalladioL-Roma-69" d="M 1203 2982 
L 1146 3008 
C 819 2873 486 2784 147 2746 
L 147 2568 
L 384 2568 
C 640 2568 666 2523 666 2103 
L 666 669 
C 666 268 646 223 429 211 
L 134 192 
L 134 0 
C 774 0 774 0 934 0 
C 1094 19 1094 19 1734 0 
L 1734 192 
L 1440 211 
C 1222 224 1203 268 1203 671 
L 1203 2982 
z
M 909 4416 
C 717 4416 550 4249 550 4057 
C 550 3871 717 3705 902 3705 
C 1088 3705 1261 3871 1261 4057 
C 1261 4236 1088 4416 909 4416 
z
" transform="scale(0.015625)"/>
       <path id="URWPalladioL-Roma-67" d="M 3322 2452 
L 3482 2713 
L 3456 2790 
L 2547 2764 
C 2310 2956 2080 3033 1766 3033 
C 1485 3033 1158 2944 896 2790 
C 538 2586 352 2274 352 1885 
C 352 1413 646 1087 1120 1036 
L 614 638 
C 550 540 518 455 518 358 
C 518 179 634 76 941 -13 
L 384 -315 
C 294 -367 205 -604 205 -804 
C 205 -1388 774 -1792 1587 -1792 
C 2554 -1792 3315 -1183 3315 -399 
C 3315 64 3008 384 2560 384 
L 1536 384 
C 1203 384 1050 462 1050 638 
C 1050 723 1101 795 1267 939 
C 1306 972 1318 985 1344 1011 
C 1408 1004 1446 998 1498 998 
C 1773 998 2112 1119 2374 1305 
C 2662 1515 2803 1770 2803 2108 
C 2803 2235 2784 2318 2733 2452 
L 3322 2452 
z
M 1536 2816 
C 1971 2816 2266 2458 2266 1917 
C 2266 1502 1997 1216 1606 1216 
C 1178 1216 890 1547 890 2038 
C 890 2529 1126 2816 1536 2816 
z
M 1837 -64 
C 2560 -64 2810 -212 2810 -630 
C 2810 -1183 2304 -1594 1632 -1594 
C 1075 -1594 691 -1266 691 -791 
C 691 -502 858 -238 1114 -129 
C 1216 -77 1395 -64 1837 -64 
z
" transform="scale(0.015625)"/>
       <path id="URWPalladioL-Roma-68" d="M 45 4249 
L 403 4249 
C 518 4249 563 4179 563 3987 
L 563 672 
C 563 268 544 224 326 211 
L 38 192 
L 38 0 
C 474 -7 646 0 832 0 
C 1018 19 1190 12 1626 0 
L 1626 192 
L 1338 211 
C 1120 223 1101 268 1101 670 
L 1101 2023 
C 1101 2311 1523 2624 1914 2624 
C 2342 2624 2624 2304 2624 1813 
L 2624 0 
C 3014 0 3021 0 3130 0 
C 3219 19 3219 19 3661 0 
L 3661 192 
L 3398 211 
C 3181 223 3162 262 3162 670 
L 3162 1902 
C 3162 2649 2810 3014 2093 3014 
C 1856 3014 1722 2969 1587 2854 
L 1101 2432 
L 1101 4608 
L 1043 4659 
C 762 4550 550 4499 45 4422 
L 45 4249 
z
" transform="scale(0.015625)"/>
       <path id="URWPalladioL-Roma-65" d="M 2797 447 
L 2714 511 
C 2304 268 2157 211 1882 211 
C 1466 211 1120 396 941 710 
C 819 921 774 1100 762 1472 
L 1696 1472 
C 2138 1472 2413 1491 2854 1561 
C 2861 1651 2867 1708 2867 1786 
C 2867 2526 2394 3008 1677 3008 
C 1440 3008 1165 2924 902 2771 
C 378 2468 166 2069 166 1401 
C 166 998 262 652 435 409 
C 691 70 1120 -128 1600 -128 
C 1837 -128 2074 -77 2336 38 
C 2509 108 2643 192 2669 230 
L 2797 447 
z
M 2298 1708 
C 1965 1696 1811 1689 1581 1689 
C 1286 1689 1120 1696 774 1728 
C 774 2030 800 2172 883 2339 
C 1018 2623 1293 2796 1600 2796 
C 1811 2796 1978 2713 2093 2539 
C 2234 2326 2278 2140 2298 1708 
z
" transform="scale(0.015625)"/>
       <path id="URWPalladioL-Roma-73" d="M 262 917 
C 262 474 243 282 192 25 
C 525 -84 774 -128 1069 -128 
C 1907 -128 2502 320 2502 949 
C 2502 1148 2445 1295 2323 1423 
C 2157 1584 1946 1661 1382 1770 
C 858 1872 685 2001 685 2296 
C 685 2617 909 2796 1299 2796 
C 1728 2796 2054 2572 2054 2270 
L 2054 2123 
L 2234 2123 
C 2240 2495 2246 2649 2266 2847 
C 1926 2963 1696 3008 1434 3008 
C 691 3008 237 2655 237 2078 
C 237 1770 378 1552 672 1417 
C 845 1340 1184 1237 1619 1141 
C 1907 1077 2029 942 2029 698 
C 2029 352 1709 108 1254 108 
C 787 108 454 333 454 654 
L 454 917 
L 262 917 
z
" transform="scale(0.015625)"/>
       <path id="URWPalladioL-Roma-74" d="M 627 2457 
L 627 614 
C 627 140 838 -64 1331 -64 
C 1478 -64 1632 -32 1670 12 
L 1978 352 
L 1894 460 
C 1734 371 1638 339 1517 339 
C 1267 339 1165 467 1165 780 
L 1165 2457 
L 1984 2457 
L 2042 2803 
L 1165 2764 
L 1165 3008 
C 1165 3277 1184 3507 1235 3917 
L 1158 3987 
C 1005 3891 813 3808 614 3744 
C 634 3552 640 3430 640 3238 
L 640 2790 
L 141 2566 
L 141 2432 
L 627 2457 
z
" transform="scale(0.015625)"/>
       <path id="URWPalladioL-Roma-6f" d="M 1786 3008 
C 851 3008 205 2347 205 1391 
C 205 487 774 -128 1600 -128 
C 2586 -128 3290 557 3290 1520 
C 3290 2386 2662 3008 1786 3008 
z
M 1670 2796 
C 2259 2796 2694 2155 2694 1282 
C 2694 545 2368 83 1850 83 
C 1222 83 800 699 800 1609 
C 800 2379 1107 2796 1670 2796 
z
" transform="scale(0.015625)"/>
       <path id="URWPalladioL-Roma-72" d="M 147 2579 
L 384 2579 
C 640 2579 666 2534 666 2112 
L 666 672 
C 666 268 646 224 429 211 
L 134 192 
L 134 0 
C 595 -7 762 0 922 0 
C 1050 19 1050 19 1837 0 
L 1837 192 
L 1504 211 
C 1216 230 1203 249 1203 669 
L 1203 1763 
C 1203 2145 1459 2463 1773 2463 
C 1965 2463 2099 2374 2202 2171 
L 2336 2171 
L 2394 2937 
C 2323 2982 2208 3008 2093 3008 
C 1901 3008 1696 2905 1562 2745 
L 1203 2324 
L 1203 2982 
L 1146 3008 
C 819 2873 486 2783 147 2745 
L 147 2579 
z
" transform="scale(0.015625)"/>
       <path id="URWPalladioL-Roma-64" d="M 2637 2803 
C 2278 2956 2099 3008 1875 3008 
C 1702 3008 1549 2969 1389 2886 
L 826 2592 
C 461 2400 224 1934 224 1392 
C 224 881 397 460 710 204 
C 928 19 1229 -64 1645 -64 
C 1773 -64 1920 -39 1952 -13 
L 2662 581 
L 2630 0 
C 2944 -7 3046 0 3123 0 
C 3174 0 3264 0 3398 -7 
C 3443 6 3571 6 3706 0 
L 3706 192 
L 3411 211 
C 3194 224 3174 268 3174 672 
L 3174 4614 
L 3117 4665 
C 2835 4557 2624 4505 2118 4429 
L 2118 4249 
L 2477 4249 
C 2592 4249 2637 4179 2637 3987 
L 2637 2803 
z
M 2637 1424 
C 2637 1009 2624 945 2541 798 
C 2362 498 2048 300 1747 300 
C 1184 300 781 843 781 1602 
C 781 2298 1126 2707 1702 2707 
C 1946 2707 2202 2624 2426 2470 
C 2560 2381 2637 2298 2637 2247 
L 2637 1424 
z
" transform="scale(0.015625)"/>
       <path id="URWPalladioL-Roma-66" d="M 2182 4601 
C 2048 4652 1971 4672 1888 4672 
C 1683 4672 1459 4563 1318 4403 
L 947 3981 
C 762 3770 678 3482 678 3060 
L 678 2792 
L 237 2594 
L 237 2453 
L 678 2479 
L 678 671 
C 678 268 659 223 442 211 
L 147 192 
L 147 0 
C 787 0 787 0 947 0 
C 1107 19 1107 19 1747 0 
L 1747 192 
L 1453 211 
C 1235 223 1216 268 1216 671 
L 1216 2479 
L 2010 2479 
L 2054 2818 
L 1216 2792 
L 1216 3335 
C 1216 4070 1299 4249 1664 4249 
C 1837 4249 1952 4204 2106 4070 
L 2182 4108 
L 2182 4601 
z
" transform="scale(0.015625)"/>
       <path id="URWPalladioL-Roma-6e" d="M 2624 0 
C 3014 0 3021 0 3130 0 
C 3219 19 3219 19 3661 0 
L 3661 192 
L 3398 211 
C 3181 223 3162 262 3162 670 
L 3162 1902 
C 3162 2649 2810 3014 2093 3014 
C 1856 3014 1722 2969 1587 2854 
L 1101 2432 
L 1101 2988 
L 1043 3008 
C 717 2873 384 2784 45 2746 
L 45 2568 
L 282 2568 
C 538 2568 563 2523 563 2103 
L 563 669 
C 563 268 544 223 326 211 
L 38 192 
L 38 0 
C 474 -7 646 0 832 0 
C 1018 19 1190 12 1626 0 
L 1626 192 
L 1338 211 
C 1120 223 1101 268 1101 670 
L 1101 2023 
C 1101 2311 1523 2624 1914 2624 
C 2342 2624 2624 2304 2624 1813 
L 2624 0 
z
" transform="scale(0.015625)"/>
       <path id="URWPalladioL-Roma-63" d="M 2554 1995 
C 2554 2290 2586 2553 2643 2783 
C 2387 2937 2163 3008 1901 3008 
C 1594 3008 1235 2886 851 2643 
C 403 2360 166 1911 166 1347 
C 166 480 774 -128 1632 -128 
C 1965 -128 2445 -7 2509 89 
L 2643 294 
L 2579 390 
C 2342 262 2138 204 1907 204 
C 1197 204 730 756 730 1603 
C 730 2290 1050 2675 1626 2675 
C 1907 2675 2214 2547 2330 2386 
L 2374 1995 
L 2554 1995 
z
" transform="scale(0.015625)"/>
       <path id="URWPalladioL-Roma-6c" d="M 147 4249 
L 506 4249 
C 621 4249 666 4179 666 3987 
L 666 672 
C 666 268 646 224 429 211 
L 134 192 
L 134 0 
C 774 0 774 0 934 0 
C 1094 19 1094 19 1734 0 
L 1734 192 
L 1440 211 
C 1222 224 1203 268 1203 672 
L 1203 4614 
L 1146 4665 
C 864 4557 653 4505 147 4429 
L 147 4249 
z
" transform="scale(0.015625)"/>
       <path id="URWPalladioL-Roma-75" d="M 3219 2982 
L 3162 3008 
C 2835 2873 2502 2784 2163 2745 
L 2163 2567 
L 2400 2567 
C 2656 2567 2682 2522 2682 2101 
L 2682 1060 
C 2682 920 2592 741 2445 594 
C 2266 415 2061 326 1811 326 
C 1587 326 1408 396 1306 517 
C 1216 620 1171 817 1171 1098 
L 1171 2982 
L 1114 3008 
C 787 2873 454 2784 115 2745 
L 115 2567 
L 352 2567 
C 608 2567 634 2522 634 2101 
L 634 1028 
C 634 581 672 383 787 224 
C 928 32 1171 -64 1536 -64 
C 1824 -58 2080 32 2253 192 
L 2682 588 
C 2682 403 2675 300 2656 0 
C 3085 0 3091 0 3187 0 
C 3277 19 3277 19 3718 0 
L 3718 192 
L 3456 211 
C 3238 224 3219 262 3219 672 
L 3219 2982 
z
" transform="scale(0.015625)"/>
       <path id="URWPalladioL-Roma-61" d="M 2074 544 
L 2042 0 
C 2458 0 2458 0 2541 0 
C 2573 19 2733 12 3014 0 
L 3014 192 
L 2765 204 
C 2611 211 2586 262 2586 576 
L 2586 1751 
C 2586 2688 2317 3027 1574 3027 
C 1299 3027 1043 2956 800 2809 
L 461 2604 
L 461 2187 
L 627 2142 
L 710 2341 
C 845 2642 909 2688 1203 2688 
C 1805 2688 2054 2450 2074 1866 
L 1440 1751 
C 570 1590 205 1289 205 730 
C 205 224 506 -64 1011 -64 
C 1126 -64 1235 -45 1280 -13 
L 2074 544 
z
M 2074 806 
C 1888 544 1485 300 1235 300 
C 979 300 755 537 755 812 
C 755 1049 883 1273 1075 1395 
C 1235 1491 1587 1580 2074 1651 
L 2074 806 
z
" transform="scale(0.015625)"/>
       <path id="URWPalladioL-Roma-62" d="M 960 4601 
L 902 4652 
C 621 4544 410 4492 -96 4416 
L -96 4236 
L 262 4236 
C 378 4236 422 4166 422 3974 
L 422 990 
C 422 594 416 421 371 -26 
L 474 -64 
L 730 166 
C 986 0 1216 -64 1555 -64 
C 1805 -64 1971 -20 2106 76 
L 2746 536 
C 3027 741 3251 1270 3251 1736 
C 3251 2477 2771 3008 2093 3008 
C 1792 3008 1478 2892 1312 2726 
L 960 2368 
L 960 4601 
z
M 960 1979 
C 960 2068 1024 2183 1126 2298 
C 1306 2483 1555 2591 1818 2591 
C 2355 2591 2694 2158 2694 1475 
C 2694 760 2310 262 1766 262 
C 1434 262 960 466 960 607 
L 960 1979 
z
" transform="scale(0.015625)"/>
      </defs>
      <use xlink:href="#URWPalladioL-Roma-48" transform="scale(0.996264)"/>
      <use xlink:href="#URWPalladioL-Roma-69" transform="translate(82.888661 0)scale(0.996264)"/>
      <use xlink:href="#URWPalladioL-Roma-67" transform="translate(111.879022 0)scale(0.996264)"/>
      <use xlink:href="#URWPalladioL-Roma-68" transform="translate(167.270699 0)scale(0.996264)"/>
      <use xlink:href="#URWPalladioL-Roma-65" transform="translate(225.25276 0)scale(0.996264)"/>
      <use xlink:href="#URWPalladioL-Roma-73" transform="translate(272.973055 0)scale(0.996264)"/>
      <use xlink:href="#URWPalladioL-Roma-74" transform="translate(315.214521 0)scale(0.996264)"/>
      <use xlink:href="#URWPalladioL-Roma-6f" transform="translate(372.59821 0)scale(0.996264)"/>
      <use xlink:href="#URWPalladioL-Roma-72" transform="translate(426.99379 0)scale(0.996264)"/>
      <use xlink:href="#URWPalladioL-Roma-64" transform="translate(464.553107 0)scale(0.996264)"/>
      <use xlink:href="#URWPalladioL-Roma-65" transform="translate(525.424738 0)scale(0.996264)"/>
      <use xlink:href="#URWPalladioL-Roma-72" transform="translate(573.145033 0)scale(0.996264)"/>
      <use xlink:href="#URWPalladioL-Roma-6f" transform="translate(637.403529 0)scale(0.996264)"/>
      <use xlink:href="#URWPalladioL-Roma-66" transform="translate(691.79911 0)scale(0.996264)"/>
      <use xlink:href="#URWPalladioL-Roma-69" transform="translate(749.88094 0)scale(0.996264)"/>
      <use xlink:href="#URWPalladioL-Roma-6e" transform="translate(778.871301 0)scale(0.996264)"/>
      <use xlink:href="#URWPalladioL-Roma-63" transform="translate(836.853362 0)scale(0.996264)"/>
      <use xlink:href="#URWPalladioL-Roma-6c" transform="translate(881.08693 0)scale(0.996264)"/>
      <use xlink:href="#URWPalladioL-Roma-75" transform="translate(910.077292 0)scale(0.996264)"/>
      <use xlink:href="#URWPalladioL-Roma-64" transform="translate(970.151027 0)scale(0.996264)"/>
      <use xlink:href="#URWPalladioL-Roma-65" transform="translate(1031.022657 0)scale(0.996264)"/>
      <use xlink:href="#URWPalladioL-Roma-64" transform="translate(1078.742952 0)scale(0.996264)"/>
      <use xlink:href="#URWPalladioL-Roma-6e" transform="translate(1164.521183 0)scale(0.996264)"/>
      <use xlink:href="#URWPalladioL-Roma-65" transform="translate(1222.503244 0)scale(0.996264)"/>
      <use xlink:href="#URWPalladioL-Roma-61" transform="translate(1270.223539 0)scale(0.996264)"/>
      <use xlink:href="#URWPalladioL-Roma-72" transform="translate(1320.03674 0)scale(0.996264)"/>
      <use xlink:href="#URWPalladioL-Roma-65" transform="translate(1357.596057 0)scale(0.996264)"/>
      <use xlink:href="#URWPalladioL-Roma-73" transform="translate(1405.316352 0)scale(0.996264)"/>
      <use xlink:href="#URWPalladioL-Roma-74" transform="translate(1447.557818 0)scale(0.996264)"/>
      <use xlink:href="#URWPalladioL-Roma-6e" transform="translate(1504.941507 0)scale(0.996264)"/>
      <use xlink:href="#URWPalladioL-Roma-65" transform="translate(1562.923567 0)scale(0.996264)"/>
      <use xlink:href="#URWPalladioL-Roma-69" transform="translate(1610.643862 0)scale(0.996264)"/>
      <use xlink:href="#URWPalladioL-Roma-67" transform="translate(1639.634224 0)scale(0.996264)"/>
      <use xlink:href="#URWPalladioL-Roma-68" transform="translate(1695.025901 0)scale(0.996264)"/>
      <use xlink:href="#URWPalladioL-Roma-62" transform="translate(1753.007961 0)scale(0.996264)"/>
      <use xlink:href="#URWPalladioL-Roma-6f" transform="translate(1808.100361 0)scale(0.996264)"/>
      <use xlink:href="#URWPalladioL-Roma-72" transform="translate(1862.495941 0)scale(0.996264)"/>
      <use xlink:href="#URWPalladioL-Roma-73" transform="translate(1901.847837 0)scale(0.996264)"/>
     </g>
    </g>
   </g>
   <g id="LineCollection_1"/>
   <g id="patch_9">
    <path d="M 297.100827 222.188611 
L 302.26053 222.188611 
L 307.420232 222.188611 
L 307.420232 15.800524 
L 302.26053 15.800524 
L 297.100827 15.800524 
L 297.100827 222.188611 
z
" style="fill: none; stroke: #000000; stroke-width: 0.8; stroke-linejoin: miter; stroke-linecap: square"/>
   </g>
  </g>
 </g>
 <defs>
  <clipPath id="p898e3ce880">
   <rect x="48.792183" y="15.800524" width="233.702254" height="206.388087"/>
  </clipPath>
  <clipPath id="p27e8c927dc">
   <rect x="297.100827" y="15.800524" width="10.319404" height="206.388087"/>
  </clipPath>
 </defs>
</svg>
