<?xml version="1.0" encoding="utf-8" standalone="no"?>
<!DOCTYPE svg PUBLIC "-//W3C//DTD SVG 1.1//EN"
  "http://www.w3.org/Graphics/SVG/1.1/DTD/svg11.dtd">
<svg xmlns:xlink="http://www.w3.org/1999/xlink" width="352.8pt" height="252pt" viewBox="0 0 352.8 252" xmlns="http://www.w3.org/2000/svg" version="1.1">
 <metadata>
  <rdf:RDF xmlns:dc="http://purl.org/dc/elements/1.1/" xmlns:cc="http://creativecommons.org/ns#" xmlns:rdf="http://www.w3.org/1999/02/22-rdf-syntax-ns#">
   <cc:Work>
    <dc:type rdf:resource="http://purl.org/dc/dcmitype/StillImage"/>
    <dc:date>2022-11-03T00:08:03.636784</dc:date>
    <dc:format>image/svg+xml</dc:format>
    <dc:creator>
     <cc:Agent>
      <dc:title>Matplotlib v3.5.2, https://matplotlib.org/</dc:title>
     </cc:Agent>
    </dc:creator>
   </cc:Work>
  </rdf:RDF>
 </metadata>
 <defs>
  <style type="text/css">*{stroke-linejoin: round; stroke-linecap: butt}</style>
 </defs>
 <g id="figure_1">
  <g id="patch_1">
   <path d="M 0 252 
L 352.8 252 
L 352.8 0 
L 0 0 
z
" style="fill: #ffffff"/>
  </g>
  <g id="axes_1">
   <g id="patch_2">
    <path d="M 48.792183 222.188611 
L 337.873426 222.188611 
L 337.873426 11.88 
L 48.792183 11.88 
z
" style="fill: #ffffff"/>
   </g>
   <g id="matplotlib.axis_1">
    <g id="xtick_1">
     <g id="line2d_1">
      <path d="M 48.792183 222.188611 
L 48.792183 11.88 
" clip-path="url(#pd6d6da8ab1)" style="fill: none; stroke: #b0b0b0; stroke-width: 0.8; stroke-linecap: square"/>
     </g>
     <g id="line2d_2">
      <defs>
       <path id="mae04014dbe" d="M 0 0 
L 0 3.5 
" style="stroke: #000000; stroke-width: 0.8"/>
      </defs>
      <g>
       <use xlink:href="#mae04014dbe" x="48.792183" y="222.188611" style="stroke: #000000; stroke-width: 0.8"/>
      </g>
     </g>
     <g id="text_1">
      <!-- $\mathbf{\Gamma}$ -->
      <g transform="translate(45.745609 237.02966)scale(0.11 -0.11)">
       <defs>
        <path id="PazoMath-Bold-47" d="M 1626 3962 
C 1978 3981 2131 3981 2368 3981 
C 2803 3981 3072 3936 3078 3860 
L 3130 3383 
L 3360 3383 
L 3450 4287 
L 3411 4332 
C 3174 4345 3046 4352 2803 4352 
L 2477 4352 
C 1498 4352 1498 4332 1325 4332 
C 1088 4332 813 4339 179 4352 
L 179 4115 
L 416 4095 
C 704 4070 723 4032 723 3472 
L 723 879 
C 723 313 717 300 416 275 
L 179 256 
L 179 0 
C 717 -7 947 0 1171 0 
C 1389 19 1632 12 2234 0 
L 2234 256 
L 1933 275 
C 1638 294 1626 319 1626 879 
L 1626 3962 
z
" transform="scale(0.015625)"/>
       </defs>
       <use xlink:href="#PazoMath-Bold-47" transform="scale(0.996264)"/>
      </g>
     </g>
    </g>
    <g id="xtick_2">
     <g id="line2d_3">
      <path d="M 155.05237 222.188611 
L 155.05237 11.88 
" clip-path="url(#pd6d6da8ab1)" style="fill: none; stroke: #b0b0b0; stroke-width: 0.8; stroke-linecap: square"/>
     </g>
     <g id="line2d_4">
      <g>
       <use xlink:href="#mae04014dbe" x="155.05237" y="222.188611" style="stroke: #000000; stroke-width: 0.8"/>
      </g>
     </g>
     <g id="text_2">
      <!-- $\mathbf{M}$ -->
      <g transform="translate(149.572918 237.02966)scale(0.11 -0.11)">
       <defs>
        <path id="URWPalladioL-Bold-4d" d="M 4749 3545 
L 4749 883 
C 4749 313 4742 300 4442 275 
L 4205 256 
L 4205 0 
C 4979 0 4979 0 5197 0 
C 5414 19 5421 19 6195 0 
L 6195 256 
L 5958 275 
C 5658 300 5651 313 5651 879 
L 5651 3472 
C 5651 4032 5670 4070 5958 4095 
L 6195 4115 
L 6195 4352 
C 5523 4332 5523 4332 5453 4332 
C 5382 4332 5382 4332 4717 4352 
C 4531 3911 4474 3778 4403 3631 
L 3232 1228 
L 2221 3326 
C 2144 3485 2016 3752 1741 4352 
L 973 4332 
C 870 4332 723 4339 531 4345 
C 435 4345 429 4345 205 4352 
L 205 4115 
L 442 4095 
C 730 4070 749 4032 749 3472 
L 749 879 
C 749 319 730 281 442 256 
L 205 236 
L 205 0 
C 819 0 819 0 941 0 
C 1069 19 1363 12 1670 0 
L 1670 236 
L 1434 256 
C 1146 281 1126 313 1126 883 
L 1126 3552 
L 2598 486 
C 2643 371 2714 217 2829 -64 
L 3046 -64 
C 3168 230 3194 294 3430 780 
L 4749 3545 
z
" transform="scale(0.015625)"/>
       </defs>
       <use xlink:href="#URWPalladioL-Bold-4d" transform="scale(0.996264)"/>
      </g>
     </g>
    </g>
    <g id="xtick_3">
     <g id="line2d_5">
      <path d="M 216.401718 222.188611 
L 216.401718 11.88 
" clip-path="url(#pd6d6da8ab1)" style="fill: none; stroke: #b0b0b0; stroke-width: 0.8; stroke-linecap: square"/>
     </g>
     <g id="line2d_6">
      <g>
       <use xlink:href="#mae04014dbe" x="216.401718" y="222.188611" style="stroke: #000000; stroke-width: 0.8"/>
      </g>
     </g>
     <g id="text_3">
      <!-- $\mathbf{K}$ -->
      <g transform="translate(212.138758 237.02966)scale(0.11 -0.11)">
       <defs>
        <path id="URWPalladioL-Bold-4b" d="M 1696 2201 
L 1696 3472 
C 1696 4038 1702 4051 2003 4076 
L 2240 4095 
L 2240 4352 
C 1459 4332 1459 4332 1242 4332 
C 1024 4332 1018 4332 250 4352 
L 250 4095 
L 486 4076 
C 787 4051 794 4038 794 3472 
L 794 879 
C 794 313 787 300 486 275 
L 250 256 
L 250 0 
C 1024 0 1024 0 1242 0 
C 1459 19 1466 19 2240 0 
L 2240 256 
L 2003 275 
C 1702 300 1696 313 1696 883 
L 1696 2144 
C 1862 2048 1888 2022 2253 1593 
L 3584 0 
L 4237 0 
C 4282 0 4339 0 4666 -13 
C 4698 6 4774 6 4883 0 
L 4883 262 
C 4646 268 4499 351 4301 580 
L 2598 2570 
L 4019 3886 
C 4173 4025 4320 4070 4723 4102 
L 4723 4352 
C 4352 4339 4237 4332 4141 4332 
C 4045 4332 3930 4339 3558 4352 
L 3558 4191 
C 3558 4095 3526 4038 3392 3898 
C 3386 3886 3360 3854 3328 3822 
C 3168 3644 3014 3485 2957 3428 
L 1696 2201 
z
" transform="scale(0.015625)"/>
       </defs>
       <use xlink:href="#URWPalladioL-Bold-4b" transform="scale(0.996264)"/>
      </g>
     </g>
    </g>
    <g id="xtick_4">
     <g id="line2d_7">
      <path d="M 337.873426 222.188611 
L 337.873426 11.88 
" clip-path="url(#pd6d6da8ab1)" style="fill: none; stroke: #b0b0b0; stroke-width: 0.8; stroke-linecap: square"/>
     </g>
     <g id="line2d_8">
      <g>
       <use xlink:href="#mae04014dbe" x="337.873426" y="222.188611" style="stroke: #000000; stroke-width: 0.8"/>
      </g>
     </g>
     <g id="text_4">
      <!-- $\mathbf{\Gamma}$ -->
      <g transform="translate(334.826852 237.02966)scale(0.11 -0.11)">
       <use xlink:href="#PazoMath-Bold-47" transform="scale(0.996264)"/>
      </g>
     </g>
    </g>
   </g>
   <g id="matplotlib.axis_2">
    <g id="ytick_1">
     <g id="line2d_9">
      <path d="M 48.792183 215.616467 
L 337.873426 215.616467 
" clip-path="url(#pd6d6da8ab1)" style="fill: none; stroke: #b0b0b0; stroke-width: 0.8; stroke-linecap: square"/>
     </g>
     <g id="line2d_10">
      <defs>
       <path id="m32571e5c21" d="M 0 0 
L -3.5 0 
" style="stroke: #000000; stroke-width: 0.8"/>
      </defs>
      <g>
       <use xlink:href="#m32571e5c21" x="48.792183" y="215.616467" style="stroke: #000000; stroke-width: 0.8"/>
      </g>
     </g>
     <g id="text_5">
      <!-- $\mathdefault{−3}$ -->
      <g transform="translate(27.299153 219.536991)scale(0.11 -0.11)">
       <defs>
        <path id="CMSY10-0" d="M 4218 1472 
C 4326 1472 4442 1472 4442 1600 
C 4442 1728 4326 1728 4218 1728 
L 755 1728 
C 646 1728 531 1728 531 1600 
C 531 1472 646 1472 755 1472 
L 4218 1472 
z
" transform="scale(0.015625)"/>
        <path id="URWPalladioL-Roma-33" d="M 275 3196 
L 474 3196 
L 589 3553 
C 659 3770 1062 3987 1395 3987 
C 1811 3987 2150 3649 2150 3247 
C 2150 2769 1773 2368 1318 2368 
C 1267 2368 1197 2374 1114 2380 
L 1018 2387 
L 941 2047 
L 986 2008 
C 1229 2118 1350 2150 1523 2150 
C 2054 2150 2362 1808 2362 1222 
C 2362 565 1971 134 1376 134 
C 1082 134 819 231 627 411 
C 474 553 390 701 269 1048 
L 96 984 
C 230 591 282 359 320 38 
C 659 -77 941 -128 1178 -128 
C 1690 -128 2278 160 2630 591 
C 2848 855 2957 1139 2957 1441 
C 2957 1750 2829 2021 2598 2182 
C 2438 2297 2291 2348 1971 2406 
C 2483 2801 2675 3094 2675 3470 
C 2675 4038 2202 4416 1491 4416 
C 1056 4416 768 4294 461 3987 
L 275 3196 
z
" transform="scale(0.015625)"/>
       </defs>
       <use xlink:href="#CMSY10-0" transform="scale(1.038107)"/>
       <use xlink:href="#URWPalladioL-Roma-33" transform="translate(81.941696 0)scale(0.996264)"/>
      </g>
     </g>
    </g>
    <g id="ytick_2">
     <g id="line2d_11">
      <path d="M 48.792183 182.755747 
L 337.873426 182.755747 
" clip-path="url(#pd6d6da8ab1)" style="fill: none; stroke: #b0b0b0; stroke-width: 0.8; stroke-linecap: square"/>
     </g>
     <g id="line2d_12">
      <g>
       <use xlink:href="#m32571e5c21" x="48.792183" y="182.755747" style="stroke: #000000; stroke-width: 0.8"/>
      </g>
     </g>
     <g id="text_6">
      <!-- $\mathdefault{−2}$ -->
      <g transform="translate(27.299153 186.676271)scale(0.11 -0.11)">
       <defs>
        <path id="URWPalladioL-Roma-32" d="M 102 166 
L 102 0 
C 1299 0 1299 0 1530 0 
C 1760 19 1760 19 2995 0 
C 2982 134 2982 198 2982 287 
C 2982 370 2982 434 2995 574 
C 2259 542 1965 536 781 510 
L 1946 1741 
C 2566 2398 2758 2749 2758 3228 
C 2758 3961 2259 4416 1446 4416 
C 986 4416 672 4287 358 3967 
L 250 3100 
L 435 3100 
L 518 3394 
C 621 3763 851 3923 1280 3923 
C 1830 3923 2182 3578 2182 3036 
C 2182 2558 1914 2086 1190 1320 
L 102 166 
z
" transform="scale(0.015625)"/>
       </defs>
       <use xlink:href="#CMSY10-0" transform="scale(1.038107)"/>
       <use xlink:href="#URWPalladioL-Roma-32" transform="translate(81.941696 0)scale(0.996264)"/>
      </g>
     </g>
    </g>
    <g id="ytick_3">
     <g id="line2d_13">
      <path d="M 48.792183 149.895026 
L 337.873426 149.895026 
" clip-path="url(#pd6d6da8ab1)" style="fill: none; stroke: #b0b0b0; stroke-width: 0.8; stroke-linecap: square"/>
     </g>
     <g id="line2d_14">
      <g>
       <use xlink:href="#m32571e5c21" x="48.792183" y="149.895026" style="stroke: #000000; stroke-width: 0.8"/>
      </g>
     </g>
     <g id="text_7">
      <!-- $\mathdefault{−1}$ -->
      <g transform="translate(27.299153 153.815551)scale(0.11 -0.11)">
       <defs>
        <path id="URWPalladioL-Roma-31" d="M 429 3571 
L 493 3571 
L 1318 3942 
C 1325 3949 1331 3949 1338 3949 
C 1376 3949 1389 3891 1389 3737 
L 1389 633 
C 1389 300 1318 230 973 211 
L 614 192 
L 614 0 
C 1600 0 1600 0 1670 0 
C 1754 0 1894 0 2112 -7 
C 2189 6 2413 6 2675 0 
L 2675 192 
L 2342 211 
C 1990 229 1926 299 1926 628 
L 1926 4383 
L 1837 4416 
C 1421 4199 966 4009 384 3807 
L 429 3571 
z
" transform="scale(0.015625)"/>
       </defs>
       <use xlink:href="#CMSY10-0" transform="scale(1.038107)"/>
       <use xlink:href="#URWPalladioL-Roma-31" transform="translate(81.941696 0)scale(0.996264)"/>
      </g>
     </g>
    </g>
    <g id="ytick_4">
     <g id="line2d_15">
      <path d="M 48.792183 117.034306 
L 337.873426 117.034306 
" clip-path="url(#pd6d6da8ab1)" style="fill: none; stroke: #b0b0b0; stroke-width: 0.8; stroke-linecap: square"/>
     </g>
     <g id="line2d_16">
      <g>
       <use xlink:href="#m32571e5c21" x="48.792183" y="117.034306" style="stroke: #000000; stroke-width: 0.8"/>
      </g>
     </g>
     <g id="text_8">
      <!-- $\mathdefault{0}$ -->
      <g transform="translate(36.312731 120.95483)scale(0.11 -0.11)">
       <defs>
        <path id="URWPalladioL-Roma-30" d="M 1683 4416 
C 691 4416 186 3628 186 2076 
C 186 1326 320 679 544 365 
C 768 51 1126 -128 1523 -128 
C 2490 -128 2976 704 2976 2345 
C 2976 3749 2560 4416 1683 4416 
z
M 1568 4191 
C 2189 4191 2438 3563 2438 2025 
C 2438 660 2195 96 1606 96 
C 986 96 723 743 723 2307 
C 723 3660 960 4191 1568 4191 
z
" transform="scale(0.015625)"/>
       </defs>
       <use xlink:href="#URWPalladioL-Roma-30" transform="scale(0.996264)"/>
      </g>
     </g>
    </g>
    <g id="ytick_5">
     <g id="line2d_17">
      <path d="M 48.792183 84.173585 
L 337.873426 84.173585 
" clip-path="url(#pd6d6da8ab1)" style="fill: none; stroke: #b0b0b0; stroke-width: 0.8; stroke-linecap: square"/>
     </g>
     <g id="line2d_18">
      <g>
       <use xlink:href="#m32571e5c21" x="48.792183" y="84.173585" style="stroke: #000000; stroke-width: 0.8"/>
      </g>
     </g>
     <g id="text_9">
      <!-- $\mathdefault{1}$ -->
      <g transform="translate(36.312731 88.09411)scale(0.11 -0.11)">
       <use xlink:href="#URWPalladioL-Roma-31" transform="scale(0.996264)"/>
      </g>
     </g>
    </g>
    <g id="ytick_6">
     <g id="line2d_19">
      <path d="M 48.792183 51.312865 
L 337.873426 51.312865 
" clip-path="url(#pd6d6da8ab1)" style="fill: none; stroke: #b0b0b0; stroke-width: 0.8; stroke-linecap: square"/>
     </g>
     <g id="line2d_20">
      <g>
       <use xlink:href="#m32571e5c21" x="48.792183" y="51.312865" style="stroke: #000000; stroke-width: 0.8"/>
      </g>
     </g>
     <g id="text_10">
      <!-- $\mathdefault{2}$ -->
      <g transform="translate(36.312731 55.233389)scale(0.11 -0.11)">
       <use xlink:href="#URWPalladioL-Roma-32" transform="scale(0.996264)"/>
      </g>
     </g>
    </g>
    <g id="ytick_7">
     <g id="line2d_21">
      <path d="M 48.792183 18.452144 
L 337.873426 18.452144 
" clip-path="url(#pd6d6da8ab1)" style="fill: none; stroke: #b0b0b0; stroke-width: 0.8; stroke-linecap: square"/>
     </g>
     <g id="line2d_22">
      <g>
       <use xlink:href="#m32571e5c21" x="48.792183" y="18.452144" style="stroke: #000000; stroke-width: 0.8"/>
      </g>
     </g>
     <g id="text_11">
      <!-- $\mathdefault{3}$ -->
      <g transform="translate(36.312731 22.372669)scale(0.11 -0.11)">
       <use xlink:href="#URWPalladioL-Roma-33" transform="scale(0.996264)"/>
      </g>
     </g>
    </g>
    <g id="text_12">
     <!-- $\varepsilon(\mathbf{k})/t_1$ -->
     <g transform="translate(20.208813 134.850589)rotate(-90)scale(0.11 -0.11)">
      <defs>
       <path id="PazoMath-Italic-23" d="M 1971 2663 
L 1952 2243 
L 2131 2243 
C 2163 2529 2221 2695 2304 2924 
C 2093 3040 1779 3104 1562 3104 
C 1274 3104 1037 2988 774 2803 
C 582 2669 326 2389 326 2154 
C 326 1893 531 1721 890 1651 
C 742 1606 576 1497 365 1323 
C 154 1156 96 905 96 725 
C 96 500 173 371 262 256 
C 454 12 800 -64 1146 -64 
C 1466 -64 1824 102 2330 500 
L 2253 609 
C 1914 365 1606 256 1376 256 
C 1062 256 627 397 627 809 
C 627 1207 768 1535 1389 1535 
C 1549 1535 1683 1523 1792 1490 
C 1792 1529 1824 1683 1843 1728 
L 1830 1791 
C 1696 1747 1568 1728 1440 1728 
C 1050 1728 787 1899 787 2237 
C 787 2593 1146 2880 1510 2880 
C 1645 2880 1741 2854 1843 2809 
C 1939 2771 1965 2676 1971 2663 
z
" transform="scale(0.015625)"/>
       <path id="CMR10-28" d="M 2118 -1536 
C 2118 -1517 2118 -1504 2010 -1396 
C 1210 -589 1005 620 1005 1600 
C 1005 2713 1248 3827 2035 4627 
C 2118 4704 2118 4716 2118 4736 
C 2118 4780 2093 4800 2054 4800 
C 1990 4800 1414 4365 1037 3552 
C 710 2848 634 2137 634 1600 
C 634 1100 704 326 1056 -397 
C 1440 -1184 1990 -1600 2054 -1600 
C 2093 -1600 2118 -1581 2118 -1536 
z
" transform="scale(0.015625)"/>
       <path id="URWPalladioL-Bold-6b" d="M 1370 4627 
L 909 4486 
C 723 4428 506 4390 134 4352 
L 134 4121 
L 474 4102 
C 614 4095 640 4031 640 3649 
L 640 657 
C 640 313 608 262 410 249 
L 186 236 
L 186 0 
L 1011 19 
C 1139 19 1446 12 1875 0 
L 1875 236 
L 1651 249 
C 1453 262 1421 313 1421 657 
L 1421 1459 
L 1485 1459 
L 2163 695 
C 2259 587 2624 140 2720 19 
L 3821 19 
L 3821 236 
C 3686 249 3584 313 3469 440 
L 2214 1841 
L 2266 1892 
C 2458 2083 2643 2255 2714 2299 
L 3110 2586 
C 3213 2662 3322 2700 3418 2700 
L 3616 2700 
L 3616 2944 
L 2784 2944 
L 2099 2223 
C 1952 2070 1779 1911 1421 1605 
L 1421 4588 
L 1370 4627 
z
" transform="scale(0.015625)"/>
       <path id="CMR10-29" d="M 1850 1600 
C 1850 2099 1779 2873 1427 3597 
C 1043 4384 493 4800 429 4800 
C 390 4800 365 4774 365 4736 
C 365 4716 365 4704 486 4589 
C 1114 3955 1478 2937 1478 1600 
C 1478 505 1242 -621 448 -1428 
C 365 -1504 365 -1517 365 -1536 
C 365 -1575 390 -1600 429 -1600 
C 493 -1600 1069 -1165 1446 -352 
C 1773 352 1850 1062 1850 1600 
z
" transform="scale(0.015625)"/>
       <path id="URWPalladioL-Roma-2f" d="M 3322 4646 
L 2938 4646 
L 557 -762 
L 941 -762 
L 3322 4646 
z
" transform="scale(0.015625)"/>
       <path id="URWPalladioL-Ital-74" d="M 800 2489 
L 442 678 
C 435 633 429 620 410 544 
C 371 364 358 268 358 192 
C 358 32 429 -64 550 -64 
C 774 -64 998 64 1498 467 
L 1594 544 
L 1696 627 
L 1632 742 
L 1344 544 
C 1158 416 1030 352 960 352 
C 902 352 870 403 870 480 
C 870 646 960 1164 1146 2092 
L 1229 2489 
L 1914 2489 
L 1984 2809 
C 1741 2784 1523 2771 1280 2771 
C 1382 3373 1453 3686 1568 4032 
L 1498 4128 
C 1370 4051 1197 3974 998 3897 
L 838 2809 
C 557 2675 390 2604 275 2572 
L 262 2489 
L 800 2489 
z
" transform="scale(0.015625)"/>
      </defs>
      <use xlink:href="#PazoMath-Italic-23" transform="scale(0.996264)"/>
      <use xlink:href="#CMR10-28" transform="translate(39.950178 0)scale(1.038107)"/>
      <use xlink:href="#URWPalladioL-Bold-6b" transform="translate(82.689882 0)scale(0.996264)"/>
      <use xlink:href="#CMR10-29" transform="translate(146.051291 0)scale(1.038107)"/>
      <use xlink:href="#URWPalladioL-Roma-2f" transform="translate(188.790996 0)scale(0.996264)"/>
      <use xlink:href="#URWPalladioL-Ital-74" transform="translate(251.6552 0)scale(0.996264)"/>
      <use xlink:href="#URWPalladioL-Roma-31" transform="translate(286.075183 -18.577338)scale(0.757155)"/>
     </g>
    </g>
   </g>
   <g id="line2d_23">
    <path d="M 48.792183 219.201128 
L 51.979989 219.103856 
L 55.167794 218.812326 
L 58.3556 218.327404 
L 61.543405 217.650537 
L 64.731211 216.783753 
L 67.919017 215.729676 
L 71.106822 214.491527 
L 75.35723 212.56105 
L 79.607637 210.321079 
L 83.858045 207.784564 
L 88.108452 204.966692 
L 92.35886 201.885093 
L 96.609267 198.56012 
L 101.922277 194.097772 
L 107.235286 189.346299 
L 113.610897 183.356686 
L 131.675129 166.127767 
L 135.925536 162.478524 
L 139.113342 159.996668 
L 142.301148 157.80961 
L 144.426351 156.552641 
L 146.551555 155.483361 
L 148.676759 154.623875 
L 150.801963 153.993897 
L 152.927166 153.609119 
L 155.05237 153.479687 
L 158.733331 153.350001 
L 162.414292 152.961454 
L 166.095253 152.31558 
L 169.776213 151.414927 
L 173.457174 150.263051 
L 177.138135 148.864497 
L 180.819096 147.224784 
L 184.500057 145.350384 
L 188.181018 143.248694 
L 192.475472 140.520568 
L 196.769926 137.509052 
L 201.064381 134.230323 
L 205.972329 130.178656 
L 210.880276 125.82944 
L 216.401718 120.618967 
L 222.536652 126.748369 
L 229.898574 134.484101 
L 238.487483 143.8789 
L 266.708183 175.093277 
L 272.843118 181.462516 
L 278.978052 187.525169 
L 283.886 192.109781 
L 288.793948 196.423431 
L 293.701896 200.435861 
L 298.609844 204.118928 
L 302.290804 206.64945 
L 305.971765 208.970135 
L 309.652726 211.071825 
L 313.333687 212.946225 
L 317.014648 214.585938 
L 320.695609 215.984492 
L 324.37657 217.136368 
L 328.05753 218.037021 
L 331.738491 218.682895 
L 335.419452 219.071442 
L 337.873426 219.186714 
L 337.873426 219.186714 
" clip-path="url(#pd6d6da8ab1)" style="fill: none; stroke: #1f77b4; stroke-width: 1.5; stroke-linecap: square"/>
   </g>
   <g id="line2d_24">
    <path d="M 48.792183 212.031806 
L 51.979989 211.934533 
L 55.167794 211.643003 
L 58.3556 211.158082 
L 61.543405 210.481214 
L 64.731211 209.614431 
L 67.919017 208.560353 
L 71.106822 207.322204 
L 75.35723 205.391727 
L 79.607637 203.151757 
L 83.858045 200.615241 
L 88.108452 197.797369 
L 92.35886 194.71577 
L 96.609267 191.390797 
L 101.922277 186.928449 
L 107.235286 182.176976 
L 113.610897 176.187364 
L 131.675129 158.958444 
L 135.925536 155.309202 
L 139.113342 152.827345 
L 142.301148 150.640287 
L 144.426351 149.383318 
L 146.551555 148.314038 
L 148.676759 147.454552 
L 150.801963 146.824575 
L 152.927166 146.439796 
L 155.05237 146.310365 
L 158.733331 146.180679 
L 162.414292 145.792132 
L 166.095253 145.146257 
L 169.776213 144.245605 
L 173.457174 143.093729 
L 177.138135 141.695174 
L 180.819096 140.055462 
L 184.500057 138.181062 
L 188.181018 136.079372 
L 192.475472 133.351245 
L 196.769926 130.33973 
L 201.064381 127.061 
L 205.972329 123.009333 
L 210.880276 118.660117 
L 212.720757 117.109997 
L 216.401718 120.618967 
L 220.082679 117.0883 
L 226.217613 123.401708 
L 233.579535 131.302817 
L 243.395431 142.183681 
L 261.800235 162.654623 
L 269.162157 170.504041 
L 275.297091 176.758848 
L 281.432026 182.680055 
L 286.339974 187.133092 
L 291.247922 191.299787 
L 296.15587 195.150914 
L 301.063817 198.659459 
L 304.744778 201.051149 
L 308.425739 203.226802 
L 312.1067 205.177832 
L 315.787661 206.896539 
L 319.468622 208.376141 
L 323.149583 209.610797 
L 326.830543 210.595635 
L 330.511504 211.326768 
L 334.192465 211.801311 
L 337.873426 212.017392 
L 337.873426 212.017392 
" clip-path="url(#pd6d6da8ab1)" style="fill: none; stroke: #1f77b4; stroke-width: 1.5; stroke-linecap: square"/>
   </g>
   <g id="line2d_25">
    <path d="M 48.792183 22.036805 
L 51.979989 22.134078 
L 55.167794 22.425608 
L 58.3556 22.910529 
L 61.543405 23.587397 
L 64.731211 24.45418 
L 67.919017 25.508258 
L 71.106822 26.746407 
L 75.35723 28.676884 
L 79.607637 30.916854 
L 83.858045 33.45337 
L 88.108452 36.271242 
L 92.35886 39.352841 
L 96.609267 42.677814 
L 101.922277 47.140162 
L 107.235286 51.891635 
L 113.610897 57.881248 
L 131.675129 75.110167 
L 135.925536 78.759409 
L 139.113342 81.241266 
L 142.301148 83.428324 
L 144.426351 84.685293 
L 146.551555 85.754573 
L 148.676759 86.614059 
L 150.801963 87.244036 
L 152.927166 87.628815 
L 155.05237 87.758246 
L 158.733331 87.887933 
L 162.414292 88.27648 
L 166.095253 88.922354 
L 169.776213 89.823006 
L 173.457174 90.974883 
L 177.138135 92.373437 
L 180.819096 94.01315 
L 184.500057 95.88755 
L 188.181018 97.989239 
L 192.475472 100.717366 
L 196.769926 103.728881 
L 201.064381 107.007611 
L 205.972329 111.059278 
L 210.880276 115.408494 
L 212.720757 116.958614 
L 216.401718 113.449644 
L 220.082679 116.980311 
L 226.217613 110.666904 
L 233.579535 102.765795 
L 243.395431 91.88493 
L 261.800235 71.413989 
L 269.162157 63.56457 
L 275.297091 57.309763 
L 281.432026 51.388556 
L 286.339974 46.935519 
L 291.247922 42.768824 
L 296.15587 38.917698 
L 301.063817 35.409152 
L 304.744778 33.017462 
L 308.425739 30.841809 
L 312.1067 28.890779 
L 315.787661 27.172072 
L 319.468622 25.69247 
L 323.149583 24.457815 
L 326.830543 23.472977 
L 330.511504 22.741843 
L 334.192465 22.2673 
L 337.873426 22.051219 
L 337.873426 22.051219 
" clip-path="url(#pd6d6da8ab1)" style="fill: none; stroke: #1f77b4; stroke-width: 1.5; stroke-linecap: square"/>
   </g>
   <g id="line2d_26">
    <path d="M 48.792183 14.867483 
L 51.979989 14.964756 
L 55.167794 15.256285 
L 58.3556 15.741207 
L 61.543405 16.418074 
L 64.731211 17.284858 
L 67.919017 18.338935 
L 71.106822 19.577085 
L 75.35723 21.507561 
L 79.607637 23.747532 
L 83.858045 26.284047 
L 88.108452 29.101919 
L 92.35886 32.183518 
L 96.609267 35.508491 
L 101.922277 39.970839 
L 107.235286 44.722312 
L 113.610897 50.711925 
L 131.675129 67.940844 
L 135.925536 71.590087 
L 139.113342 74.071943 
L 142.301148 76.259001 
L 144.426351 77.51597 
L 146.551555 78.585251 
L 148.676759 79.444736 
L 150.801963 80.074714 
L 152.927166 80.459492 
L 155.05237 80.588924 
L 158.733331 80.71861 
L 162.414292 81.107157 
L 166.095253 81.753031 
L 169.776213 82.653684 
L 173.457174 83.80556 
L 177.138135 85.204114 
L 180.819096 86.843827 
L 184.500057 88.718227 
L 188.181018 90.819917 
L 192.475472 93.548043 
L 196.769926 96.559559 
L 201.064381 99.838288 
L 205.972329 103.889955 
L 210.880276 108.239171 
L 216.401718 113.449644 
L 222.536652 107.320242 
L 229.898574 99.58451 
L 238.487483 90.189711 
L 266.708183 58.975334 
L 272.843118 52.606095 
L 278.978052 46.543442 
L 283.886 41.95883 
L 288.793948 37.64518 
L 293.701896 33.63275 
L 298.609844 29.949683 
L 302.290804 27.419161 
L 305.971765 25.098476 
L 309.652726 22.996786 
L 313.333687 21.122386 
L 317.014648 19.482673 
L 320.695609 18.084119 
L 324.37657 16.932243 
L 328.05753 16.03159 
L 331.738491 15.385716 
L 335.419452 14.997169 
L 337.873426 14.881897 
L 337.873426 14.881897 
" clip-path="url(#pd6d6da8ab1)" style="fill: none; stroke: #1f77b4; stroke-width: 1.5; stroke-linecap: square"/>
   </g>
   <g id="line2d_27">
    <path d="M 48.792183 218.587139 
L 51.979989 218.497407 
L 55.167794 218.228324 
L 58.3556 217.780224 
L 61.543405 217.153689 
L 64.731211 216.349567 
L 67.919017 215.369018 
L 72.169424 213.789856 
L 76.419832 211.904557 
L 80.670239 209.719486 
L 84.920647 207.242939 
L 89.171054 204.485518 
L 93.421462 201.460569 
L 97.671869 198.184681 
L 102.984878 193.768499 
L 108.297888 189.042767 
L 114.673499 183.055591 
L 133.800333 164.793266 
L 138.05074 161.235666 
L 141.238546 158.871691 
L 144.426351 156.855651 
L 146.551555 155.746194 
L 148.676759 154.852651 
L 150.801963 154.196661 
L 152.927166 153.795539 
L 155.05237 153.66053 
L 158.733331 153.529167 
L 162.414292 153.135663 
L 166.095253 152.481766 
L 169.776213 151.570372 
L 173.457174 150.405496 
L 177.138135 148.992236 
L 180.819096 147.336726 
L 184.500057 145.446081 
L 188.181018 143.32834 
L 192.475472 140.58253 
L 196.769926 137.555232 
L 201.064381 134.263232 
L 205.972329 130.199898 
L 210.880276 125.84273 
L 216.401718 120.626969 
L 222.536652 126.781082 
L 228.671587 133.266134 
L 236.033509 141.375409 
L 248.303378 155.304294 
L 260.573248 169.135405 
L 267.93517 177.096027 
L 274.070104 183.410711 
L 278.978052 188.200634 
L 283.886 192.721246 
L 288.793948 196.942568 
L 293.701896 200.838315 
L 298.609844 204.385891 
L 302.290804 206.806509 
L 305.971765 209.013732 
L 309.652726 211.001776 
L 313.333687 212.765778 
L 317.014648 214.301709 
L 320.695609 215.606293 
L 324.37657 216.676923 
L 328.05753 217.511584 
L 331.738491 218.108784 
L 335.419452 218.467501 
L 337.873426 218.573844 
L 337.873426 218.573844 
" clip-path="url(#pd6d6da8ab1)" style="fill: none; stroke: #ff7f0e; stroke-linecap: square"/>
   </g>
   <g id="line2d_28">
    <path d="M 48.792183 212.645795 
L 51.979989 212.540981 
L 55.167794 212.227005 
L 58.3556 211.705262 
L 61.543405 210.978063 
L 64.731211 210.048618 
L 67.919017 208.921014 
L 71.106822 207.60018 
L 74.294628 206.091862 
L 78.545035 203.800524 
L 82.795443 201.205123 
L 87.04585 198.325499 
L 91.296258 195.183741 
L 96.609267 190.925322 
L 101.922277 186.348852 
L 108.297888 180.523236 
L 116.798703 172.397972 
L 127.424721 162.233435 
L 132.737731 157.469746 
L 136.988138 153.994243 
L 140.175944 151.672278 
L 143.363749 149.668254 
L 145.488953 148.543992 
L 147.614157 147.61352 
L 149.739361 146.896057 
L 151.864564 146.407811 
L 153.989768 146.160576 
L 159.960318 145.902 
L 163.641279 145.433467 
L 167.32224 144.711307 
L 171.0032 143.738019 
L 174.684161 142.516996 
L 178.365122 141.052535 
L 182.046083 139.349847 
L 185.727044 137.415067 
L 189.408005 135.255264 
L 193.702459 132.461822 
L 197.996913 129.387362 
L 202.291368 126.047937 
L 207.199316 121.929847 
L 212.720757 117.122925 
L 216.401718 120.626969 
L 220.082679 117.07031 
L 227.4446 124.616595 
L 236.033509 133.784703 
L 249.530365 148.590736 
L 263.027222 163.30978 
L 271.616131 172.327579 
L 277.751065 178.484343 
L 283.886 184.328993 
L 288.793948 188.734971 
L 293.701896 192.864085 
L 298.609844 196.682643 
L 303.517791 200.158004 
L 307.198752 202.520571 
L 310.879713 204.660319 
L 314.560674 206.565828 
L 318.241635 208.226681 
L 321.922596 209.63361 
L 325.603556 210.778623 
L 329.284517 211.655118 
L 332.965478 212.257984 
L 336.646439 212.583674 
L 337.873426 212.630263 
L 337.873426 212.630263 
" clip-path="url(#pd6d6da8ab1)" style="fill: none; stroke: #ff7f0e; stroke-linecap: square"/>
   </g>
   <g id="line2d_29">
    <path d="M 48.792183 19.567504 
L 51.979989 19.672363 
L 55.167794 19.986536 
L 58.3556 20.508814 
L 61.543405 21.237189 
L 64.731211 22.168868 
L 67.919017 23.300291 
L 71.106822 24.627144 
L 74.294628 26.144381 
L 78.545035 28.453463 
L 82.795443 31.075104 
L 87.04585 33.991533 
L 91.296258 37.18276 
L 95.546665 40.626444 
L 100.859675 45.247781 
L 106.172684 50.168773 
L 112.548295 56.376509 
L 132.737731 76.351346 
L 136.988138 80.068087 
L 140.175944 82.56791 
L 143.363749 84.738115 
L 145.488953 85.961455 
L 147.614157 86.977458 
L 149.739361 87.763227 
L 151.864564 88.299202 
L 153.989768 88.571008 
L 160.573811 88.87976 
L 164.254772 89.367434 
L 167.935733 90.097753 
L 171.616694 91.069242 
L 175.297655 92.279862 
L 178.978616 93.726953 
L 182.659576 95.407164 
L 186.340537 97.316385 
L 190.021498 99.449666 
L 194.315953 102.213801 
L 198.610407 105.263864 
L 202.904861 108.586877 
L 207.199316 112.167798 
L 212.720757 116.947453 
L 216.401718 113.441642 
L 220.082679 116.986115 
L 226.217613 110.669009 
L 233.579535 102.757595 
L 243.395431 91.837156 
L 265.481196 67.095878 
L 272.843118 59.233174 
L 278.978052 52.980515 
L 285.112987 47.076023 
L 290.020935 42.649782 
L 294.928883 38.525088 
L 299.83683 34.734747 
L 303.517791 32.130086 
L 307.198752 29.743132 
L 310.879713 27.58525 
L 314.560674 25.666869 
L 318.241635 23.997386 
L 321.922596 22.58508 
L 325.603556 21.437024 
L 329.284517 20.55902 
L 332.965478 19.955534 
L 336.646439 19.629651 
L 337.873426 19.583043 
L 337.873426 19.583043 
" clip-path="url(#pd6d6da8ab1)" style="fill: none; stroke: #ff7f0e; stroke-linecap: square"/>
   </g>
   <g id="line2d_30">
    <path d="M 48.792183 17.336784 
L 51.979989 17.42647 
L 55.167794 17.695357 
L 58.3556 18.142922 
L 61.543405 18.768282 
L 64.731211 19.570168 
L 67.919017 20.546899 
L 72.169424 22.117428 
L 76.419832 23.988486 
L 80.670239 26.151819 
L 84.920647 28.597106 
L 89.171054 31.311651 
L 93.421462 34.280022 
L 97.671869 37.483617 
L 102.984878 41.784519 
L 108.297888 46.364394 
L 115.736101 53.114074 
L 130.612527 66.757974 
L 134.862935 70.327319 
L 138.05074 72.779209 
L 141.238546 74.968168 
L 144.426351 76.824201 
L 146.551555 77.84089 
L 148.676759 78.657065 
L 150.801963 79.254656 
L 152.927166 79.619371 
L 155.665864 79.745819 
L 158.733331 79.87931 
L 161.800798 80.202985 
L 164.868266 80.715555 
L 168.549227 81.577067 
L 172.230187 82.702749 
L 175.911148 84.086302 
L 179.592109 85.720104 
L 183.27307 87.595312 
L 186.954031 89.701989 
L 191.248485 92.437741 
L 195.542939 95.45497 
L 199.837394 98.733745 
L 204.745342 102.774385 
L 209.653289 107.097222 
L 215.174731 112.256904 
L 216.401718 113.441642 
L 222.536652 107.315744 
L 229.898574 99.586251 
L 238.487483 90.212742 
L 261.800235 64.520567 
L 269.162157 56.837431 
L 275.297091 50.755355 
L 280.205039 46.147037 
L 285.112987 41.800897 
L 290.020935 37.744933 
L 294.928883 34.004345 
L 299.83683 30.601496 
L 303.517791 28.282865 
L 307.198752 26.172494 
L 310.879713 24.276768 
L 314.560674 22.601254 
L 318.241635 21.150738 
L 321.922596 19.929257 
L 325.603556 18.940129 
L 329.284517 18.185989 
L 332.965478 17.668812 
L 336.646439 17.389935 
L 337.873426 17.350073 
L 337.873426 17.350073 
" clip-path="url(#pd6d6da8ab1)" style="fill: none; stroke: #ff7f0e; stroke-linecap: square"/>
   </g>
   <g id="patch_3">
    <path d="M 48.792183 222.188611 
L 48.792183 11.88 
" style="fill: none; stroke: #000000; stroke-width: 0.8; stroke-linejoin: miter; stroke-linecap: square"/>
   </g>
   <g id="patch_4">
    <path d="M 337.873426 222.188611 
L 337.873426 11.88 
" style="fill: none; stroke: #000000; stroke-width: 0.8; stroke-linejoin: miter; stroke-linecap: square"/>
   </g>
   <g id="patch_5">
    <path d="M 48.792183 222.188611 
L 337.873426 222.188611 
" style="fill: none; stroke: #000000; stroke-width: 0.8; stroke-linejoin: miter; stroke-linecap: square"/>
   </g>
   <g id="patch_6">
    <path d="M 48.792183 11.88 
L 337.873426 11.88 
" style="fill: none; stroke: #000000; stroke-width: 0.8; stroke-linejoin: miter; stroke-linecap: square"/>
   </g>
  </g>
 </g>
 <defs>
  <clipPath id="pd6d6da8ab1">
   <rect x="48.792183" y="11.88" width="289.081243" height="210.308611"/>
  </clipPath>
 </defs>
</svg>
