<?xml version="1.0" encoding="utf-8" standalone="no"?>
<!DOCTYPE svg PUBLIC "-//W3C//DTD SVG 1.1//EN"
  "http://www.w3.org/Graphics/SVG/1.1/DTD/svg11.dtd">
<svg xmlns:xlink="http://www.w3.org/1999/xlink" width="352.8pt" height="252pt" viewBox="0 0 352.8 252" xmlns="http://www.w3.org/2000/svg" version="1.1">
 <metadata>
  <rdf:RDF xmlns:dc="http://purl.org/dc/elements/1.1/" xmlns:cc="http://creativecommons.org/ns#" xmlns:rdf="http://www.w3.org/1999/02/22-rdf-syntax-ns#">
   <cc:Work>
    <dc:type rdf:resource="http://purl.org/dc/dcmitype/StillImage"/>
    <dc:date>2022-11-03T03:45:19.223287</dc:date>
    <dc:format>image/svg+xml</dc:format>
    <dc:creator>
     <cc:Agent>
      <dc:title>Matplotlib v3.5.2, https://matplotlib.org/</dc:title>
     </cc:Agent>
    </dc:creator>
   </cc:Work>
  </rdf:RDF>
 </metadata>
 <defs>
  <style type="text/css">*{stroke-linejoin: round; stroke-linecap: butt}</style>
 </defs>
 <g id="figure_1">
  <g id="patch_1">
   <path d="M 0 252 
L 352.8 252 
L 352.8 0 
L 0 0 
z
" style="fill: #ffffff"/>
  </g>
  <g id="axes_1">
   <g id="patch_2">
    <path d="M 33.37303 222.188611 
L 337.873426 222.188611 
L 337.873426 11.88 
L 33.37303 11.88 
z
" style="fill: #ffffff"/>
   </g>
   <g id="matplotlib.axis_1">
    <g id="xtick_1">
     <g id="line2d_1">
      <path d="M 33.37303 222.188611 
L 33.37303 11.88 
" clip-path="url(#p0ab6189b8e)" style="fill: none; stroke: #b0b0b0; stroke-opacity: 0.4; stroke-width: 0.8; stroke-linecap: square"/>
     </g>
     <g id="line2d_2">
      <defs>
       <path id="m5d752c7e9a" d="M 0 0 
L 0 3.5 
" style="stroke: #000000; stroke-width: 0.8"/>
      </defs>
      <g>
       <use xlink:href="#m5d752c7e9a" x="33.37303" y="222.188611" style="stroke: #000000; stroke-width: 0.8"/>
      </g>
     </g>
     <g id="text_1">
      <!-- $\mathbf{\Gamma}$ -->
      <g transform="translate(30.326456 237.02966)scale(0.11 -0.11)">
       <defs>
        <path id="PazoMath-Bold-47" d="M 1626 3962 
C 1978 3981 2131 3981 2368 3981 
C 2803 3981 3072 3936 3078 3860 
L 3130 3383 
L 3360 3383 
L 3450 4287 
L 3411 4332 
C 3174 4345 3046 4352 2803 4352 
L 2477 4352 
C 1498 4352 1498 4332 1325 4332 
C 1088 4332 813 4339 179 4352 
L 179 4115 
L 416 4095 
C 704 4070 723 4032 723 3472 
L 723 879 
C 723 313 717 300 416 275 
L 179 256 
L 179 0 
C 717 -7 947 0 1171 0 
C 1389 19 1632 12 2234 0 
L 2234 256 
L 1933 275 
C 1638 294 1626 319 1626 879 
L 1626 3962 
z
" transform="scale(0.015625)"/>
       </defs>
       <use xlink:href="#PazoMath-Bold-47" transform="scale(0.996264)"/>
      </g>
     </g>
    </g>
    <g id="xtick_2">
     <g id="line2d_3">
      <path d="M 145.300973 222.188611 
L 145.300973 11.88 
" clip-path="url(#p0ab6189b8e)" style="fill: none; stroke: #b0b0b0; stroke-opacity: 0.4; stroke-width: 0.8; stroke-linecap: square"/>
     </g>
     <g id="line2d_4">
      <g>
       <use xlink:href="#m5d752c7e9a" x="145.300973" y="222.188611" style="stroke: #000000; stroke-width: 0.8"/>
      </g>
     </g>
     <g id="text_2">
      <!-- $\mathbf{M}$ -->
      <g transform="translate(139.821521 237.02966)scale(0.11 -0.11)">
       <defs>
        <path id="URWPalladioL-Bold-4d" d="M 4749 3545 
L 4749 883 
C 4749 313 4742 300 4442 275 
L 4205 256 
L 4205 0 
C 4979 0 4979 0 5197 0 
C 5414 19 5421 19 6195 0 
L 6195 256 
L 5958 275 
C 5658 300 5651 313 5651 879 
L 5651 3472 
C 5651 4032 5670 4070 5958 4095 
L 6195 4115 
L 6195 4352 
C 5523 4332 5523 4332 5453 4332 
C 5382 4332 5382 4332 4717 4352 
C 4531 3911 4474 3778 4403 3631 
L 3232 1228 
L 2221 3326 
C 2144 3485 2016 3752 1741 4352 
L 973 4332 
C 870 4332 723 4339 531 4345 
C 435 4345 429 4345 205 4352 
L 205 4115 
L 442 4095 
C 730 4070 749 4032 749 3472 
L 749 879 
C 749 319 730 281 442 256 
L 205 236 
L 205 0 
C 819 0 819 0 941 0 
C 1069 19 1363 12 1670 0 
L 1670 236 
L 1434 256 
C 1146 281 1126 313 1126 883 
L 1126 3552 
L 2598 486 
C 2643 371 2714 217 2829 -64 
L 3046 -64 
C 3168 230 3194 294 3430 780 
L 4749 3545 
z
" transform="scale(0.015625)"/>
       </defs>
       <use xlink:href="#URWPalladioL-Bold-4d" transform="scale(0.996264)"/>
      </g>
     </g>
    </g>
    <g id="xtick_3">
     <g id="line2d_5">
      <path d="M 209.922602 222.188611 
L 209.922602 11.88 
" clip-path="url(#p0ab6189b8e)" style="fill: none; stroke: #b0b0b0; stroke-opacity: 0.4; stroke-width: 0.8; stroke-linecap: square"/>
     </g>
     <g id="line2d_6">
      <g>
       <use xlink:href="#m5d752c7e9a" x="209.922602" y="222.188611" style="stroke: #000000; stroke-width: 0.8"/>
      </g>
     </g>
     <g id="text_3">
      <!-- $\mathbf{K}$ -->
      <g transform="translate(205.659642 237.02966)scale(0.11 -0.11)">
       <defs>
        <path id="URWPalladioL-Bold-4b" d="M 1696 2201 
L 1696 3472 
C 1696 4038 1702 4051 2003 4076 
L 2240 4095 
L 2240 4352 
C 1459 4332 1459 4332 1242 4332 
C 1024 4332 1018 4332 250 4352 
L 250 4095 
L 486 4076 
C 787 4051 794 4038 794 3472 
L 794 879 
C 794 313 787 300 486 275 
L 250 256 
L 250 0 
C 1024 0 1024 0 1242 0 
C 1459 19 1466 19 2240 0 
L 2240 256 
L 2003 275 
C 1702 300 1696 313 1696 883 
L 1696 2144 
C 1862 2048 1888 2022 2253 1593 
L 3584 0 
L 4237 0 
C 4282 0 4339 0 4666 -13 
C 4698 6 4774 6 4883 0 
L 4883 262 
C 4646 268 4499 351 4301 580 
L 2598 2570 
L 4019 3886 
C 4173 4025 4320 4070 4723 4102 
L 4723 4352 
C 4352 4339 4237 4332 4141 4332 
C 4045 4332 3930 4339 3558 4352 
L 3558 4191 
C 3558 4095 3526 4038 3392 3898 
C 3386 3886 3360 3854 3328 3822 
C 3168 3644 3014 3485 2957 3428 
L 1696 2201 
z
" transform="scale(0.015625)"/>
       </defs>
       <use xlink:href="#URWPalladioL-Bold-4b" transform="scale(0.996264)"/>
      </g>
     </g>
    </g>
    <g id="xtick_4">
     <g id="line2d_7">
      <path d="M 337.873426 222.188611 
L 337.873426 11.88 
" clip-path="url(#p0ab6189b8e)" style="fill: none; stroke: #b0b0b0; stroke-opacity: 0.4; stroke-width: 0.8; stroke-linecap: square"/>
     </g>
     <g id="line2d_8">
      <g>
       <use xlink:href="#m5d752c7e9a" x="337.873426" y="222.188611" style="stroke: #000000; stroke-width: 0.8"/>
      </g>
     </g>
     <g id="text_4">
      <!-- $\mathbf{\Gamma}$ -->
      <g transform="translate(334.826852 237.02966)scale(0.11 -0.11)">
       <use xlink:href="#PazoMath-Bold-47" transform="scale(0.996264)"/>
      </g>
     </g>
    </g>
   </g>
   <g id="matplotlib.axis_2">
    <g id="ytick_1">
     <g id="line2d_9">
      <path d="M 33.37303 203.391005 
L 337.873426 203.391005 
" clip-path="url(#p0ab6189b8e)" style="fill: none; stroke: #b0b0b0; stroke-opacity: 0.4; stroke-width: 0.8; stroke-linecap: square"/>
     </g>
     <g id="line2d_10">
      <defs>
       <path id="m9e9e7c61f5" d="M 0 0 
L -3.5 0 
" style="stroke: #000000; stroke-width: 0.8"/>
      </defs>
      <g>
       <use xlink:href="#m9e9e7c61f5" x="33.37303" y="203.391005" style="stroke: #000000; stroke-width: 0.8"/>
      </g>
     </g>
     <g id="text_5">
      <!-- $\mathdefault{−4}$ -->
      <g transform="translate(11.88 207.31153)scale(0.11 -0.11)">
       <defs>
        <path id="CMSY10-0" d="M 4218 1472 
C 4326 1472 4442 1472 4442 1600 
C 4442 1728 4326 1728 4218 1728 
L 755 1728 
C 646 1728 531 1728 531 1600 
C 531 1472 646 1472 755 1472 
L 4218 1472 
z
" transform="scale(0.015625)"/>
        <path id="URWPalladioL-Roma-34" d="M 1792 1152 
L 1792 684 
C 1792 310 1722 223 1408 210 
L 1011 192 
L 1011 0 
C 1862 0 1862 0 2016 0 
C 2170 19 2170 19 3021 0 
L 3021 192 
L 2714 210 
C 2400 229 2330 310 2330 684 
L 2330 1152 
C 2707 1152 2842 1145 3021 1127 
L 3021 1580 
C 2720 1555 2598 1555 2502 1561 
L 2483 1561 
L 2330 1561 
L 2330 2445 
C 2330 3576 2342 4122 2374 4383 
L 2298 4416 
L 1824 4243 
L 13 1299 
L 83 1152 
L 1792 1152 
z
M 1792 1561 
L 416 1561 
L 1792 3798 
L 1792 1561 
z
" transform="scale(0.015625)"/>
       </defs>
       <use xlink:href="#CMSY10-0" transform="scale(1.038107)"/>
       <use xlink:href="#URWPalladioL-Roma-34" transform="translate(81.941696 0)scale(0.996264)"/>
      </g>
     </g>
    </g>
    <g id="ytick_2">
     <g id="line2d_11">
      <path d="M 33.37303 178.489286 
L 337.873426 178.489286 
" clip-path="url(#p0ab6189b8e)" style="fill: none; stroke: #b0b0b0; stroke-opacity: 0.4; stroke-width: 0.8; stroke-linecap: square"/>
     </g>
     <g id="line2d_12">
      <g>
       <use xlink:href="#m9e9e7c61f5" x="33.37303" y="178.489286" style="stroke: #000000; stroke-width: 0.8"/>
      </g>
     </g>
     <g id="text_6">
      <!-- $\mathdefault{−3}$ -->
      <g transform="translate(11.88 182.409811)scale(0.11 -0.11)">
       <defs>
        <path id="URWPalladioL-Roma-33" d="M 275 3196 
L 474 3196 
L 589 3553 
C 659 3770 1062 3987 1395 3987 
C 1811 3987 2150 3649 2150 3247 
C 2150 2769 1773 2368 1318 2368 
C 1267 2368 1197 2374 1114 2380 
L 1018 2387 
L 941 2047 
L 986 2008 
C 1229 2118 1350 2150 1523 2150 
C 2054 2150 2362 1808 2362 1222 
C 2362 565 1971 134 1376 134 
C 1082 134 819 231 627 411 
C 474 553 390 701 269 1048 
L 96 984 
C 230 591 282 359 320 38 
C 659 -77 941 -128 1178 -128 
C 1690 -128 2278 160 2630 591 
C 2848 855 2957 1139 2957 1441 
C 2957 1750 2829 2021 2598 2182 
C 2438 2297 2291 2348 1971 2406 
C 2483 2801 2675 3094 2675 3470 
C 2675 4038 2202 4416 1491 4416 
C 1056 4416 768 4294 461 3987 
L 275 3196 
z
" transform="scale(0.015625)"/>
       </defs>
       <use xlink:href="#CMSY10-0" transform="scale(1.038107)"/>
       <use xlink:href="#URWPalladioL-Roma-33" transform="translate(81.941696 0)scale(0.996264)"/>
      </g>
     </g>
    </g>
    <g id="ytick_3">
     <g id="line2d_13">
      <path d="M 33.37303 153.587567 
L 337.873426 153.587567 
" clip-path="url(#p0ab6189b8e)" style="fill: none; stroke: #b0b0b0; stroke-opacity: 0.4; stroke-width: 0.8; stroke-linecap: square"/>
     </g>
     <g id="line2d_14">
      <g>
       <use xlink:href="#m9e9e7c61f5" x="33.37303" y="153.587567" style="stroke: #000000; stroke-width: 0.8"/>
      </g>
     </g>
     <g id="text_7">
      <!-- $\mathdefault{−2}$ -->
      <g transform="translate(11.88 157.508091)scale(0.11 -0.11)">
       <defs>
        <path id="URWPalladioL-Roma-32" d="M 102 166 
L 102 0 
C 1299 0 1299 0 1530 0 
C 1760 19 1760 19 2995 0 
C 2982 134 2982 198 2982 287 
C 2982 370 2982 434 2995 574 
C 2259 542 1965 536 781 510 
L 1946 1741 
C 2566 2398 2758 2749 2758 3228 
C 2758 3961 2259 4416 1446 4416 
C 986 4416 672 4287 358 3967 
L 250 3100 
L 435 3100 
L 518 3394 
C 621 3763 851 3923 1280 3923 
C 1830 3923 2182 3578 2182 3036 
C 2182 2558 1914 2086 1190 1320 
L 102 166 
z
" transform="scale(0.015625)"/>
       </defs>
       <use xlink:href="#CMSY10-0" transform="scale(1.038107)"/>
       <use xlink:href="#URWPalladioL-Roma-32" transform="translate(81.941696 0)scale(0.996264)"/>
      </g>
     </g>
    </g>
    <g id="ytick_4">
     <g id="line2d_15">
      <path d="M 33.37303 128.685848 
L 337.873426 128.685848 
" clip-path="url(#p0ab6189b8e)" style="fill: none; stroke: #b0b0b0; stroke-opacity: 0.4; stroke-width: 0.8; stroke-linecap: square"/>
     </g>
     <g id="line2d_16">
      <g>
       <use xlink:href="#m9e9e7c61f5" x="33.37303" y="128.685848" style="stroke: #000000; stroke-width: 0.8"/>
      </g>
     </g>
     <g id="text_8">
      <!-- $\mathdefault{−1}$ -->
      <g transform="translate(11.88 132.606372)scale(0.11 -0.11)">
       <defs>
        <path id="URWPalladioL-Roma-31" d="M 429 3571 
L 493 3571 
L 1318 3942 
C 1325 3949 1331 3949 1338 3949 
C 1376 3949 1389 3891 1389 3737 
L 1389 633 
C 1389 300 1318 230 973 211 
L 614 192 
L 614 0 
C 1600 0 1600 0 1670 0 
C 1754 0 1894 0 2112 -7 
C 2189 6 2413 6 2675 0 
L 2675 192 
L 2342 211 
C 1990 229 1926 299 1926 628 
L 1926 4383 
L 1837 4416 
C 1421 4199 966 4009 384 3807 
L 429 3571 
z
" transform="scale(0.015625)"/>
       </defs>
       <use xlink:href="#CMSY10-0" transform="scale(1.038107)"/>
       <use xlink:href="#URWPalladioL-Roma-31" transform="translate(81.941696 0)scale(0.996264)"/>
      </g>
     </g>
    </g>
    <g id="ytick_5">
     <g id="line2d_17">
      <path d="M 33.37303 103.784128 
L 337.873426 103.784128 
" clip-path="url(#p0ab6189b8e)" style="fill: none; stroke: #b0b0b0; stroke-opacity: 0.4; stroke-width: 0.8; stroke-linecap: square"/>
     </g>
     <g id="line2d_18">
      <g>
       <use xlink:href="#m9e9e7c61f5" x="33.37303" y="103.784128" style="stroke: #000000; stroke-width: 0.8"/>
      </g>
     </g>
     <g id="text_9">
      <!-- $\mathdefault{0}$ -->
      <g transform="translate(20.893578 107.704653)scale(0.11 -0.11)">
       <defs>
        <path id="URWPalladioL-Roma-30" d="M 1683 4416 
C 691 4416 186 3628 186 2076 
C 186 1326 320 679 544 365 
C 768 51 1126 -128 1523 -128 
C 2490 -128 2976 704 2976 2345 
C 2976 3749 2560 4416 1683 4416 
z
M 1568 4191 
C 2189 4191 2438 3563 2438 2025 
C 2438 660 2195 96 1606 96 
C 986 96 723 743 723 2307 
C 723 3660 960 4191 1568 4191 
z
" transform="scale(0.015625)"/>
       </defs>
       <use xlink:href="#URWPalladioL-Roma-30" transform="scale(0.996264)"/>
      </g>
     </g>
    </g>
    <g id="ytick_6">
     <g id="line2d_19">
      <path d="M 33.37303 78.882409 
L 337.873426 78.882409 
" clip-path="url(#p0ab6189b8e)" style="fill: none; stroke: #b0b0b0; stroke-opacity: 0.4; stroke-width: 0.8; stroke-linecap: square"/>
     </g>
     <g id="line2d_20">
      <g>
       <use xlink:href="#m9e9e7c61f5" x="33.37303" y="78.882409" style="stroke: #000000; stroke-width: 0.8"/>
      </g>
     </g>
     <g id="text_10">
      <!-- $\mathdefault{1}$ -->
      <g transform="translate(20.893578 82.802934)scale(0.11 -0.11)">
       <use xlink:href="#URWPalladioL-Roma-31" transform="scale(0.996264)"/>
      </g>
     </g>
    </g>
    <g id="ytick_7">
     <g id="line2d_21">
      <path d="M 33.37303 53.98069 
L 337.873426 53.98069 
" clip-path="url(#p0ab6189b8e)" style="fill: none; stroke: #b0b0b0; stroke-opacity: 0.4; stroke-width: 0.8; stroke-linecap: square"/>
     </g>
     <g id="line2d_22">
      <g>
       <use xlink:href="#m9e9e7c61f5" x="33.37303" y="53.98069" style="stroke: #000000; stroke-width: 0.8"/>
      </g>
     </g>
     <g id="text_11">
      <!-- $\mathdefault{2}$ -->
      <g transform="translate(20.893578 57.901214)scale(0.11 -0.11)">
       <use xlink:href="#URWPalladioL-Roma-32" transform="scale(0.996264)"/>
      </g>
     </g>
    </g>
    <g id="ytick_8">
     <g id="line2d_23">
      <path d="M 33.37303 29.07897 
L 337.873426 29.07897 
" clip-path="url(#p0ab6189b8e)" style="fill: none; stroke: #b0b0b0; stroke-opacity: 0.4; stroke-width: 0.8; stroke-linecap: square"/>
     </g>
     <g id="line2d_24">
      <g>
       <use xlink:href="#m9e9e7c61f5" x="33.37303" y="29.07897" style="stroke: #000000; stroke-width: 0.8"/>
      </g>
     </g>
     <g id="text_12">
      <!-- $\mathdefault{3}$ -->
      <g transform="translate(20.893578 32.999495)scale(0.11 -0.11)">
       <use xlink:href="#URWPalladioL-Roma-33" transform="scale(0.996264)"/>
      </g>
     </g>
    </g>
   </g>
   <g id="line2d_25">
    <path d="M 33.37303 182.756204 
L 37.850147 182.619881 
L 42.327265 182.21163 
L 46.804383 181.533612 
L 51.281501 180.589434 
L 55.758618 179.384174 
L 60.235736 177.924402 
L 64.712854 176.218222 
L 69.189972 174.275333 
L 73.667089 172.107111 
L 78.144207 169.726734 
L 83.740604 166.476203 
L 89.337002 162.95257 
L 96.052678 158.4222 
L 103.887634 152.833157 
L 120.676826 140.688596 
L 125.153943 137.716832 
L 129.631061 135.033343 
L 132.9889 133.290319 
L 136.346738 131.853619 
L 138.585297 131.103353 
L 140.823856 130.54576 
L 143.062414 130.201306 
L 145.94719 130.081944 
L 149.824487 129.950555 
L 153.701785 129.622595 
L 157.579083 129.099376 
L 162.102597 128.245015 
L 166.626111 127.132454 
L 171.149625 125.767806 
L 175.673139 124.15862 
L 180.196653 122.313896 
L 184.720167 120.244156 
L 189.889897 117.619033 
L 195.059627 114.738423 
L 200.875574 111.233473 
L 207.983953 106.874179 
L 209.276385 106.356146 
L 209.922602 106.2743 
L 211.215034 106.585944 
L 212.507467 107.289619 
L 215.092332 109.054413 
L 220.262062 112.955011 
L 228.016658 119.141462 
L 239.648551 128.782966 
L 257.742607 143.828941 
L 265.497202 150.015973 
L 273.251798 155.902893 
L 279.71396 160.512046 
L 284.883691 163.968551 
L 290.053421 167.193477 
L 295.223151 170.164175 
L 300.392882 172.859787 
L 305.562612 175.261385 
L 310.732342 177.352113 
L 314.60964 178.707236 
L 318.486937 179.873841 
L 322.364235 180.84732 
L 326.241533 181.62383 
L 330.118831 182.200304 
L 333.996128 182.574466 
L 337.873426 182.744839 
L 337.873426 182.744839 
" clip-path="url(#p0ab6189b8e)" style="fill: none; stroke-dasharray: 9.6,2.4,1.5,2.4; stroke-dashoffset: 0; stroke: #1f77b4; stroke-width: 1.5"/>
   </g>
   <g id="line2d_26">
    <path d="M 33.37303 174.222562 
L 37.850147 174.096838 
L 42.327265 173.720329 
L 46.804383 173.09503 
L 51.281501 172.224279 
L 55.758618 171.112786 
L 60.235736 169.76667 
L 64.712854 168.193516 
L 69.189972 166.402456 
L 73.667089 164.404285 
L 79.263487 161.634736 
L 84.859884 158.590668 
L 90.456281 155.307356 
L 97.171958 151.112638 
L 107.245472 144.50473 
L 117.318987 137.943101 
L 122.915385 134.578659 
L 127.392502 132.181587 
L 130.750341 130.628188 
L 134.108179 129.338963 
L 137.466017 128.357814 
L 139.704576 127.890562 
L 141.943135 127.578413 
L 144.181694 127.422489 
L 150.470704 127.229224 
L 154.348001 126.871427 
L 158.225299 126.320195 
L 162.748813 125.435607 
L 167.272327 124.295625 
L 171.795841 122.906529 
L 176.319355 121.276023 
L 180.842869 119.413266 
L 185.366383 117.328959 
L 190.536113 114.691761 
L 195.705844 111.804719 
L 201.52179 108.303083 
L 207.983953 104.389827 
L 209.276385 103.875682 
L 209.922602 103.784128 
L 211.215034 104.038592 
L 212.507467 104.665066 
L 215.092332 106.272944 
L 220.262062 109.858287 
L 228.016658 115.558446 
L 239.648551 124.447686 
L 257.742607 138.3225 
L 266.789635 144.95469 
L 274.54423 150.329141 
L 281.006393 154.523768 
L 287.468556 158.410851 
L 292.638286 161.270293 
L 297.808016 163.885448 
L 302.977747 166.237953 
L 308.147477 168.31129 
L 313.317207 170.090904 
L 317.194505 171.225264 
L 321.071803 172.182854 
L 324.9491 172.959891 
L 328.826398 173.553308 
L 332.703696 173.960762 
L 336.580993 174.180642 
L 337.873426 174.212081 
L 337.873426 174.212081 
" clip-path="url(#p0ab6189b8e)" style="fill: none; stroke-dasharray: 9.6,2.4,1.5,2.4; stroke-dashoffset: 0; stroke: #1f77b4; stroke-width: 1.5"/>
   </g>
   <g id="line2d_27">
    <path d="M 33.37303 30.032871 
L 37.850147 30.164405 
L 42.327265 30.558313 
L 46.804383 31.212512 
L 51.281501 32.123516 
L 55.758618 33.286421 
L 60.235736 34.694867 
L 64.712854 36.340992 
L 69.189972 38.215355 
L 73.667089 40.30682 
L 79.263487 43.206469 
L 84.859884 46.394842 
L 90.456281 49.835684 
L 97.171958 54.23513 
L 106.126193 60.395179 
L 117.318987 68.083551 
L 122.915385 71.633162 
L 127.392502 74.164054 
L 130.750341 75.80187 
L 134.108179 77.153178 
L 136.346738 77.86745 
L 138.585297 78.416517 
L 140.823856 78.792898 
L 143.062414 79.000853 
L 153.701785 79.542461 
L 157.579083 80.084752 
L 161.45638 80.827243 
L 165.333678 81.766951 
L 169.857192 83.107441 
L 174.380706 84.703785 
L 178.90422 86.547102 
L 183.427734 88.626967 
L 187.951248 90.931265 
L 193.120978 93.821094 
L 198.290709 96.957472 
L 208.630169 103.452816 
L 209.276385 103.685823 
L 209.922602 103.784128 
L 211.215034 103.505701 
L 212.507467 102.835627 
L 215.092332 101.139129 
L 220.262062 97.379082 
L 228.016658 91.411485 
L 239.648551 82.109446 
L 257.742607 67.592425 
L 266.789635 60.653539 
L 273.251798 55.94275 
L 279.71396 51.495542 
L 286.176123 47.360744 
L 291.345854 44.30846 
L 296.515584 41.506669 
L 301.685314 38.975044 
L 306.855044 36.73136 
L 312.024775 34.791367 
L 315.902072 33.543944 
L 319.77937 32.479979 
L 323.656668 31.603673 
L 327.533965 30.918487 
L 331.411263 30.427127 
L 335.288561 30.131532 
L 337.873426 30.043836 
L 337.873426 30.043836 
" clip-path="url(#p0ab6189b8e)" style="fill: none; stroke-dasharray: 9.6,2.4,1.5,2.4; stroke-dashoffset: 0; stroke: #1f77b4; stroke-width: 1.5"/>
   </g>
   <g id="line2d_28">
    <path d="M 33.37303 28.124876 
L 37.850147 28.25539 
L 42.327265 28.64624 
L 46.804383 29.29536 
L 51.281501 30.199284 
L 55.758618 31.353132 
L 60.235736 32.750575 
L 64.712854 34.383783 
L 69.189972 36.243369 
L 73.667089 38.318296 
L 79.263487 41.195089 
L 84.859884 44.358891 
L 90.456281 47.774915 
L 97.171958 52.148209 
L 106.126193 58.295215 
L 119.557546 67.570807 
L 125.153943 71.138652 
L 129.631061 73.699226 
L 132.9889 75.371646 
L 136.346738 76.767044 
L 138.585297 77.511661 
L 140.823856 78.082884 
L 143.062414 78.45342 
L 145.300973 78.585283 
L 149.824487 78.713473 
L 154.348001 79.097344 
L 158.871515 79.734797 
L 163.395029 80.622346 
L 167.918543 81.755117 
L 172.442057 83.126862 
L 176.965571 84.729952 
L 181.489085 86.555343 
L 186.658816 88.900082 
L 191.828546 91.502539 
L 197.644492 94.707758 
L 204.752871 98.91916 
L 207.983953 100.737329 
L 209.276385 101.218862 
L 209.922602 101.293956 
L 211.215034 101.006277 
L 212.507467 100.346201 
L 215.092332 98.670027 
L 220.262062 94.944133 
L 228.016658 89.02512 
L 239.648551 79.796416 
L 257.742607 65.392647 
L 266.789635 58.507734 
L 273.251798 53.833561 
L 279.71396 49.420907 
L 286.176123 45.318224 
L 291.345854 42.289643 
L 296.515584 39.509607 
L 301.685314 36.997638 
L 306.855044 34.771372 
L 312.024775 32.846438 
L 315.902072 31.608697 
L 319.77937 30.552991 
L 323.656668 29.683487 
L 327.533965 29.003619 
L 331.411263 28.516072 
L 335.288561 28.222772 
L 337.873426 28.135757 
L 337.873426 28.135757 
" clip-path="url(#p0ab6189b8e)" style="fill: none; stroke-dasharray: 9.6,2.4,1.5,2.4; stroke-dashoffset: 0; stroke: #1f77b4; stroke-width: 1.5"/>
   </g>
   <g id="line2d_29">
    <path d="M 33.37303 197.691771 
L 36.730868 197.604603 
L 40.088706 197.343359 
L 43.446545 196.908821 
L 46.804383 196.302292 
L 51.281501 195.229275 
L 55.758618 193.859576 
L 60.235736 192.200641 
L 64.712854 190.261598 
L 69.189972 188.053292 
L 73.667089 185.588334 
L 78.144207 182.881172 
L 82.621325 179.948204 
L 88.217722 175.992887 
L 93.814119 171.755333 
L 100.529796 166.366639 
L 109.484031 158.838529 
L 121.796105 148.442213 
L 127.392502 144.03954 
L 130.750341 141.627183 
L 134.108179 139.479578 
L 136.346738 138.246279 
L 138.585297 137.216537 
L 140.823856 136.434111 
L 143.062414 135.942196 
L 145.300973 135.774 
L 149.178271 135.67582 
L 153.055569 135.381765 
L 156.932866 134.893298 
L 161.45638 134.081049 
L 165.979894 133.013312 
L 170.503408 131.697967 
L 175.026922 130.145401 
L 179.550436 128.369208 
L 184.720167 126.089069 
L 190.536113 123.253979 
L 204.106655 116.410308 
L 206.045304 115.683144 
L 207.983953 115.177591 
L 209.276385 115.011602 
L 209.922602 114.989902 
L 211.215034 115.079513 
L 212.507467 115.348712 
L 213.799899 115.786189 
L 216.384765 117.073277 
L 218.96963 118.747912 
L 222.846927 121.687247 
L 228.016658 126.041408 
L 234.478821 131.84251 
L 244.818281 141.478725 
L 259.035039 154.723687 
L 266.789635 161.673665 
L 273.251798 167.204784 
L 279.71396 172.431108 
L 284.883691 176.352781 
L 290.053421 180.013189 
L 295.223151 183.386115 
L 300.392882 186.447483 
L 304.270179 188.525848 
L 308.147477 190.408338 
L 312.024775 192.087435 
L 315.902072 193.556436 
L 319.77937 194.809482 
L 323.656668 195.841579 
L 327.533965 196.648615 
L 331.411263 197.227376 
L 335.288561 197.575556 
L 337.873426 197.678854 
L 337.873426 197.678854 
" clip-path="url(#p0ab6189b8e)" style="fill: none; stroke-dasharray: 5.55,2.4; stroke-dashoffset: 0; stroke: #ff7f0e; stroke-width: 1.5"/>
   </g>
   <g id="line2d_30">
    <path d="M 33.37303 159.29076 
L 37.850147 159.183506 
L 42.327265 158.862319 
L 46.804383 158.328932 
L 51.281501 157.586258 
L 55.758618 156.638438 
L 60.235736 155.490903 
L 64.712854 154.150475 
L 70.309251 152.216556 
L 75.905648 150.014534 
L 81.502045 147.569582 
L 88.217722 144.359872 
L 96.052678 140.326565 
L 115.080429 130.355106 
L 119.557546 128.322944 
L 122.915385 126.989108 
L 126.273223 125.866985 
L 129.631061 124.995305 
L 132.9889 124.396318 
L 136.346738 124.060283 
L 140.823856 123.918858 
L 149.824487 123.787491 
L 154.348001 123.402936 
L 158.871515 122.765035 
L 163.395029 121.878409 
L 167.918543 120.749736 
L 172.442057 119.388026 
L 176.965571 117.805153 
L 182.135302 115.745754 
L 187.305032 113.451397 
L 193.767195 110.336079 
L 202.814223 105.962952 
L 206.045304 104.694443 
L 207.983953 104.131372 
L 209.922602 103.784128 
L 211.215034 103.84399 
L 212.507467 103.726363 
L 215.092332 104.13433 
L 217.677197 104.922945 
L 220.262062 105.982357 
L 224.13936 107.896387 
L 229.30909 110.801895 
L 235.771253 114.733925 
L 247.403146 122.155649 
L 261.619904 131.211326 
L 270.666932 136.699474 
L 278.421528 141.112112 
L 284.883691 144.526616 
L 291.345854 147.660333 
L 296.515584 149.941096 
L 301.685314 152.002828 
L 306.855044 153.830696 
L 312.024775 155.411587 
L 317.194505 156.734189 
L 322.364235 157.789052 
L 327.533965 158.568649 
L 332.703696 159.067422 
L 337.873426 159.281818 
L 337.873426 159.281818 
" clip-path="url(#p0ab6189b8e)" style="fill: none; stroke-dasharray: 5.55,2.4; stroke-dashoffset: 0; stroke: #ff7f0e; stroke-width: 1.5"/>
   </g>
   <g id="line2d_31">
    <path d="M 33.37303 33.370167 
L 37.850147 33.503551 
L 42.327265 33.902995 
L 46.804383 34.566366 
L 51.281501 35.490103 
L 55.758618 36.669197 
L 60.235736 38.09715 
L 64.712854 39.765914 
L 69.189972 41.665776 
L 73.667089 43.785179 
L 79.263487 46.722098 
L 84.859884 49.948102 
L 90.456281 53.422702 
L 97.171958 57.846773 
L 116.199708 70.649527 
L 120.676826 73.301354 
L 124.034664 75.059183 
L 127.392502 76.553713 
L 130.750341 77.726957 
L 132.9889 78.306631 
L 135.227458 78.714147 
L 137.466017 78.94989 
L 140.823856 79.019394 
L 147.239622 78.932656 
L 151.11692 79.161209 
L 154.994218 79.617215 
L 158.871515 80.29846 
L 162.748813 81.201584 
L 166.626111 82.32201 
L 170.503408 83.653843 
L 175.026922 85.464873 
L 179.550436 87.538523 
L 184.07395 89.855017 
L 189.243681 92.763933 
L 195.705844 96.68923 
L 202.814223 101.008999 
L 205.399088 102.360002 
L 207.337737 103.164991 
L 209.276385 103.688361 
L 209.922602 103.784128 
L 211.215034 103.694856 
L 212.507467 103.725995 
L 213.799899 103.441386 
L 215.092332 103.012358 
L 217.677197 101.822751 
L 220.262062 100.331565 
L 224.13936 97.76191 
L 229.30909 93.989185 
L 235.771253 88.98266 
L 248.695579 78.604197 
L 260.327472 69.336486 
L 268.082067 63.400676 
L 274.54423 58.689579 
L 281.006393 54.25059 
L 286.176123 50.929344 
L 291.345854 47.838565 
L 296.515584 45.000439 
L 301.685314 42.435265 
L 306.855044 40.16134 
L 312.024775 38.194852 
L 315.902072 36.930235 
L 319.77937 35.851513 
L 323.656668 34.962993 
L 327.533965 34.26822 
L 331.411263 33.769966 
L 335.288561 33.470216 
L 337.873426 33.381287 
L 337.873426 33.381287 
" clip-path="url(#p0ab6189b8e)" style="fill: none; stroke-dasharray: 5.55,2.4; stroke-dashoffset: 0; stroke: #ff7f0e; stroke-width: 1.5"/>
   </g>
   <g id="line2d_32">
    <path d="M 33.37303 24.783816 
L 37.850147 24.912621 
L 42.327265 25.298347 
L 46.804383 25.938923 
L 51.281501 26.830877 
L 55.758618 27.969303 
L 60.235736 29.34782 
L 64.712854 30.958526 
L 69.189972 32.791946 
L 73.667089 34.83697 
L 79.263487 37.671142 
L 84.859884 40.786878 
L 90.456281 44.150622 
L 97.171958 48.459647 
L 105.006914 53.762184 
L 125.153943 67.577268 
L 129.631061 70.360073 
L 134.108179 72.868 
L 137.466017 74.484797 
L 139.704576 75.384929 
L 141.943135 76.083636 
L 144.181694 76.487872 
L 149.178271 76.620723 
L 153.701785 76.909192 
L 158.225299 77.407918 
L 162.748813 78.113112 
L 167.272327 79.01919 
L 172.442057 80.290775 
L 177.611788 81.799109 
L 183.427734 83.751409 
L 189.889897 86.180145 
L 202.814223 91.1878 
L 205.399088 91.950614 
L 207.337737 92.3582 
L 209.276385 92.563806 
L 211.215034 92.518154 
L 212.507467 92.335443 
L 215.092332 91.620141 
L 217.677197 90.518072 
L 220.262062 89.139638 
L 224.13936 86.737858 
L 229.30909 83.167818 
L 235.771253 78.38888 
L 247.403146 69.425382 
L 261.619904 58.52374 
L 269.3745 52.843221 
L 275.836663 48.346519 
L 282.298826 44.121282 
L 287.468556 40.969164 
L 292.638286 38.044664 
L 297.808016 35.368874 
L 302.977747 32.961012 
L 308.147477 30.838318 
L 313.317207 29.015952 
L 317.194505 27.854169 
L 321.071803 26.87333 
L 324.9491 26.077363 
L 328.826398 25.469453 
L 332.703696 25.05203 
L 336.580993 24.826764 
L 337.873426 24.794554 
L 337.873426 24.794554 
" clip-path="url(#p0ab6189b8e)" style="fill: none; stroke-dasharray: 5.55,2.4; stroke-dashoffset: 0; stroke: #ff7f0e; stroke-width: 1.5"/>
   </g>
   <g id="line2d_33">
    <path d="M 33.37303 212.629129 
L 36.730868 212.531451 
L 40.088706 212.238714 
L 43.446545 211.751804 
L 46.804383 211.072201 
L 50.162221 210.201974 
L 53.52006 209.143782 
L 56.877898 207.900876 
L 61.355016 205.963057 
L 65.832133 203.714492 
L 70.309251 201.167808 
L 74.786369 198.337546 
L 79.263487 195.240214 
L 83.740604 191.894378 
L 89.337002 187.39449 
L 94.933399 182.584949 
L 101.649075 176.480262 
L 110.603311 167.961547 
L 122.915385 156.187921 
L 127.392502 152.15958 
L 130.750341 149.35331 
L 134.108179 146.833048 
L 136.346738 145.37475 
L 138.585297 144.150339 
L 140.823856 143.215662 
L 143.062414 142.626087 
L 145.300973 142.424158 
L 149.178271 142.327536 
L 153.055569 142.038293 
L 157.579083 141.459974 
L 162.102597 140.627368 
L 166.626111 139.548468 
L 171.149625 138.23446 
L 175.673139 136.70055 
L 180.842869 134.705168 
L 186.658816 132.206166 
L 202.168006 125.335803 
L 204.752871 124.49629 
L 207.337737 123.919155 
L 209.276385 123.719511 
L 211.215034 123.763572 
L 212.507467 123.94156 
L 213.799899 124.241828 
L 216.384765 125.196802 
L 218.96963 126.571206 
L 221.554495 128.28162 
L 224.13936 130.247841 
L 228.016658 133.540041 
L 233.186388 138.349154 
L 239.648551 144.748892 
L 251.280444 156.697075 
L 262.912337 168.541419 
L 270.666932 176.100253 
L 277.129095 182.073979 
L 282.298826 186.587664 
L 287.468556 190.828445 
L 292.638286 194.764753 
L 297.808016 198.367576 
L 301.685314 200.834886 
L 305.562612 203.089625 
L 309.439909 205.12259 
L 313.317207 206.925507 
L 317.194505 208.491052 
L 321.071803 209.812878 
L 324.9491 210.885634 
L 328.826398 211.70498 
L 332.703696 212.267606 
L 336.580993 212.57124 
L 337.873426 212.614655 
L 337.873426 212.614655 
" clip-path="url(#p0ab6189b8e)" style="fill: none; stroke: #d62728; stroke-width: 1.5; stroke-linecap: square"/>
   </g>
   <g id="line2d_34">
    <path d="M 33.37303 144.36223 
L 38.969427 144.22335 
L 44.565824 143.807931 
L 50.162221 143.119695 
L 55.758618 142.165013 
L 61.355016 140.953193 
L 66.951413 139.496931 
L 72.54781 137.813019 
L 79.263487 135.523208 
L 85.979163 132.988953 
L 94.933399 129.35924 
L 106.126193 124.824212 
L 111.72259 122.818882 
L 116.199708 121.496602 
L 119.557546 120.742262 
L 122.915385 120.243566 
L 126.273223 120.035922 
L 129.631061 120.12872 
L 132.9889 120.488369 
L 144.181694 122.032418 
L 147.885838 122.013502 
L 152.409352 121.752462 
L 156.932866 121.250292 
L 161.45638 120.511883 
L 165.979894 119.544764 
L 170.503408 118.359491 
L 175.673139 116.756249 
L 180.842869 114.915947 
L 186.658816 112.614142 
L 204.752871 105.207182 
L 207.983953 104.236559 
L 209.922602 103.784128 
L 211.215034 103.99179 
L 212.507467 104.082608 
L 213.799899 104.054107 
L 216.384765 103.651065 
L 217.677197 103.291193 
L 220.262062 103.535262 
L 222.846927 104.037349 
L 225.431793 104.716675 
L 229.30909 105.999277 
L 233.186388 107.517716 
L 238.356118 109.791121 
L 244.818281 112.878287 
L 257.742607 119.374571 
L 269.3745 125.147027 
L 277.129095 128.7867 
L 284.883691 132.170633 
L 291.345854 134.748541 
L 297.808016 137.071449 
L 302.977747 138.72683 
L 308.147477 140.187816 
L 313.317207 141.443219 
L 318.486937 142.483502 
L 323.656668 143.300814 
L 328.826398 143.889017 
L 333.996128 144.243706 
L 337.873426 144.354818 
L 337.873426 144.354818 
" clip-path="url(#p0ab6189b8e)" style="fill: none; stroke: #d62728; stroke-width: 1.5; stroke-linecap: square"/>
   </g>
   <g id="line2d_35">
    <path d="M 33.37303 36.705672 
L 37.850147 36.840974 
L 42.327265 37.246148 
L 46.804383 37.918991 
L 51.281501 38.855819 
L 55.758618 40.051448 
L 60.235736 41.499134 
L 64.712854 43.190477 
L 69.189972 45.115245 
L 73.667089 47.261079 
L 79.263487 50.231213 
L 84.859884 53.486661 
L 91.57556 57.701504 
L 100.529796 63.646278 
L 109.484031 69.550797 
L 113.961149 72.272104 
L 117.318987 74.112772 
L 120.676826 75.713589 
L 124.034664 77.011931 
L 126.273223 77.681986 
L 128.511782 78.181668 
L 130.750341 78.50549 
L 132.9889 78.655713 
L 136.346738 78.585143 
L 140.823856 78.11911 
L 144.181694 77.809485 
L 147.239622 77.815103 
L 151.11692 78.065637 
L 154.994218 78.565233 
L 158.871515 79.310905 
L 162.748813 80.298075 
L 166.626111 81.52042 
L 170.503408 82.969641 
L 174.380706 84.635065 
L 178.90422 86.832846 
L 183.427734 89.27711 
L 188.597464 92.318989 
L 203.460439 101.321905 
L 206.045304 102.543395 
L 207.983953 103.269307 
L 209.922602 103.784128 
L 212.507467 103.365535 
L 215.092332 103.181827 
L 217.677197 103.241857 
L 218.96963 102.838987 
L 221.554495 101.700303 
L 224.13936 100.314215 
L 228.016658 97.905738 
L 231.893955 95.229213 
L 237.063686 91.39987 
L 244.818281 85.35199 
L 265.497202 69.031557 
L 273.251798 63.25732 
L 279.71396 58.720048 
L 286.176123 54.491806 
L 291.345854 51.365687 
L 296.515584 48.49306 
L 301.685314 45.895231 
L 306.855044 43.591319 
L 312.024775 41.598187 
L 315.902072 40.316114 
L 319.77937 39.222314 
L 323.656668 38.321251 
L 327.533965 37.616595 
L 331.411263 37.111213 
L 335.288561 36.80716 
L 337.873426 36.716952 
L 337.873426 36.716952 
" clip-path="url(#p0ab6189b8e)" style="fill: none; stroke: #d62728; stroke-width: 1.5; stroke-linecap: square"/>
   </g>
   <g id="line2d_36">
    <path d="M 33.37303 21.439482 
L 37.850147 21.566702 
L 42.327265 21.94766 
L 46.804383 22.580242 
L 51.281501 23.460894 
L 55.758618 24.584576 
L 60.235736 25.944712 
L 64.712854 27.533132 
L 69.189972 29.340018 
L 73.667089 31.353861 
L 79.263487 34.141878 
L 84.859884 37.202824 
L 90.456281 40.502833 
L 97.171958 44.724462 
L 105.006914 49.915533 
L 127.392502 64.989222 
L 131.86962 67.715714 
L 135.227458 69.580235 
L 138.585297 71.198156 
L 140.823856 72.062007 
L 143.062414 72.657508 
L 145.300973 72.875247 
L 150.470704 72.983467 
L 155.640434 73.306522 
L 160.810164 73.839488 
L 166.626111 74.679117 
L 172.442057 75.754445 
L 178.90422 77.190656 
L 186.658816 79.164294 
L 199.583141 82.501368 
L 203.460439 83.269234 
L 206.69152 83.701433 
L 209.276385 83.855913 
L 211.215034 83.834364 
L 213.799899 83.597282 
L 216.384765 83.107041 
L 218.96963 82.365638 
L 221.554495 81.392475 
L 224.13936 80.217565 
L 228.016658 78.149292 
L 231.893955 75.80376 
L 237.063686 72.381744 
L 243.525849 67.814255 
L 257.742607 57.368806 
L 268.082067 49.921062 
L 275.836663 44.624926 
L 282.298826 40.484883 
L 288.760988 36.64955 
L 293.930719 33.832416 
L 299.100449 31.262093 
L 304.270179 28.958068 
L 309.439909 26.937639 
L 314.60964 25.215862 
L 318.486937 24.128283 
L 322.364235 23.220438 
L 326.241533 22.496088 
L 330.118831 21.95823 
L 333.996128 21.609083 
L 337.873426 21.450088 
L 337.873426 21.450088 
" clip-path="url(#p0ab6189b8e)" style="fill: none; stroke: #d62728; stroke-width: 1.5; stroke-linecap: square"/>
   </g>
   <g id="patch_3">
    <path d="M 33.37303 222.188611 
L 33.37303 11.88 
" style="fill: none; stroke: #000000; stroke-width: 0.8; stroke-linejoin: miter; stroke-linecap: square"/>
   </g>
   <g id="patch_4">
    <path d="M 337.873426 222.188611 
L 337.873426 11.88 
" style="fill: none; stroke: #000000; stroke-width: 0.8; stroke-linejoin: miter; stroke-linecap: square"/>
   </g>
   <g id="patch_5">
    <path d="M 33.37303 222.188611 
L 337.873426 222.188611 
" style="fill: none; stroke: #000000; stroke-width: 0.8; stroke-linejoin: miter; stroke-linecap: square"/>
   </g>
   <g id="patch_6">
    <path d="M 33.37303 11.88 
L 337.873426 11.88 
" style="fill: none; stroke: #000000; stroke-width: 0.8; stroke-linejoin: miter; stroke-linecap: square"/>
   </g>
  </g>
 </g>
 <defs>
  <clipPath id="p0ab6189b8e">
   <rect x="33.37303" y="11.88" width="304.500396" height="210.308611"/>
  </clipPath>
 </defs>
</svg>
