<?xml version="1.0" encoding="utf-8" standalone="no"?>
<!DOCTYPE svg PUBLIC "-//W3C//DTD SVG 1.1//EN"
  "http://www.w3.org/Graphics/SVG/1.1/DTD/svg11.dtd">
<svg xmlns:xlink="http://www.w3.org/1999/xlink" width="352.8pt" height="252pt" viewBox="0 0 352.8 252" xmlns="http://www.w3.org/2000/svg" version="1.1">
 <metadata>
  <rdf:RDF xmlns:dc="http://purl.org/dc/elements/1.1/" xmlns:cc="http://creativecommons.org/ns#" xmlns:rdf="http://www.w3.org/1999/02/22-rdf-syntax-ns#">
   <cc:Work>
    <dc:type rdf:resource="http://purl.org/dc/dcmitype/StillImage"/>
    <dc:date>2022-11-02T20:20:19.370459</dc:date>
    <dc:format>image/svg+xml</dc:format>
    <dc:creator>
     <cc:Agent>
      <dc:title>Matplotlib v3.5.2, https://matplotlib.org/</dc:title>
     </cc:Agent>
    </dc:creator>
   </cc:Work>
  </rdf:RDF>
 </metadata>
 <defs>
  <style type="text/css">*{stroke-linejoin: round; stroke-linecap: butt}</style>
 </defs>
 <g id="figure_1">
  <g id="patch_1">
   <path d="M 0 252 
L 352.8 252 
L 352.8 0 
L 0 0 
z
" style="fill: #ffffff"/>
  </g>
  <g id="axes_1">
   <g id="patch_2">
    <path d="M 48.792183 222.188611 
L 337.873426 222.188611 
L 337.873426 11.88 
L 48.792183 11.88 
z
" style="fill: #ffffff"/>
   </g>
   <g id="matplotlib.axis_1">
    <g id="xtick_1">
     <g id="line2d_1">
      <path d="M 48.792183 222.188611 
L 48.792183 11.88 
" clip-path="url(#p6eb117f3f8)" style="fill: none; stroke: #b0b0b0; stroke-opacity: 0.3; stroke-width: 0.8; stroke-linecap: square"/>
     </g>
     <g id="line2d_2">
      <defs>
       <path id="m55ce05e1cb" d="M 0 0 
L 0 3.5 
" style="stroke: #000000; stroke-width: 0.8"/>
      </defs>
      <g>
       <use xlink:href="#m55ce05e1cb" x="48.792183" y="222.188611" style="stroke: #000000; stroke-width: 0.8"/>
      </g>
     </g>
     <g id="text_1">
      <!-- $\mathbf{\Gamma}$ -->
      <g transform="translate(45.745609 237.02966)scale(0.11 -0.11)">
       <defs>
        <path id="PazoMath-Bold-47" d="M 1626 3962 
C 1978 3981 2131 3981 2368 3981 
C 2803 3981 3072 3936 3078 3860 
L 3130 3383 
L 3360 3383 
L 3450 4287 
L 3411 4332 
C 3174 4345 3046 4352 2803 4352 
L 2477 4352 
C 1498 4352 1498 4332 1325 4332 
C 1088 4332 813 4339 179 4352 
L 179 4115 
L 416 4095 
C 704 4070 723 4032 723 3472 
L 723 879 
C 723 313 717 300 416 275 
L 179 256 
L 179 0 
C 717 -7 947 0 1171 0 
C 1389 19 1632 12 2234 0 
L 2234 256 
L 1933 275 
C 1638 294 1626 319 1626 879 
L 1626 3962 
z
" transform="scale(0.015625)"/>
       </defs>
       <use xlink:href="#PazoMath-Bold-47" transform="scale(0.996264)"/>
      </g>
     </g>
    </g>
    <g id="xtick_2">
     <g id="line2d_3">
      <path d="M 155.05237 222.188611 
L 155.05237 11.88 
" clip-path="url(#p6eb117f3f8)" style="fill: none; stroke: #b0b0b0; stroke-opacity: 0.3; stroke-width: 0.8; stroke-linecap: square"/>
     </g>
     <g id="line2d_4">
      <g>
       <use xlink:href="#m55ce05e1cb" x="155.05237" y="222.188611" style="stroke: #000000; stroke-width: 0.8"/>
      </g>
     </g>
     <g id="text_2">
      <!-- $\mathbf{M}$ -->
      <g transform="translate(149.572918 237.02966)scale(0.11 -0.11)">
       <defs>
        <path id="URWPalladioL-Bold-4d" d="M 4749 3545 
L 4749 883 
C 4749 313 4742 300 4442 275 
L 4205 256 
L 4205 0 
C 4979 0 4979 0 5197 0 
C 5414 19 5421 19 6195 0 
L 6195 256 
L 5958 275 
C 5658 300 5651 313 5651 879 
L 5651 3472 
C 5651 4032 5670 4070 5958 4095 
L 6195 4115 
L 6195 4352 
C 5523 4332 5523 4332 5453 4332 
C 5382 4332 5382 4332 4717 4352 
C 4531 3911 4474 3778 4403 3631 
L 3232 1228 
L 2221 3326 
C 2144 3485 2016 3752 1741 4352 
L 973 4332 
C 870 4332 723 4339 531 4345 
C 435 4345 429 4345 205 4352 
L 205 4115 
L 442 4095 
C 730 4070 749 4032 749 3472 
L 749 879 
C 749 319 730 281 442 256 
L 205 236 
L 205 0 
C 819 0 819 0 941 0 
C 1069 19 1363 12 1670 0 
L 1670 236 
L 1434 256 
C 1146 281 1126 313 1126 883 
L 1126 3552 
L 2598 486 
C 2643 371 2714 217 2829 -64 
L 3046 -64 
C 3168 230 3194 294 3430 780 
L 4749 3545 
z
" transform="scale(0.015625)"/>
       </defs>
       <use xlink:href="#URWPalladioL-Bold-4d" transform="scale(0.996264)"/>
      </g>
     </g>
    </g>
    <g id="xtick_3">
     <g id="line2d_5">
      <path d="M 216.401718 222.188611 
L 216.401718 11.88 
" clip-path="url(#p6eb117f3f8)" style="fill: none; stroke: #b0b0b0; stroke-opacity: 0.3; stroke-width: 0.8; stroke-linecap: square"/>
     </g>
     <g id="line2d_6">
      <g>
       <use xlink:href="#m55ce05e1cb" x="216.401718" y="222.188611" style="stroke: #000000; stroke-width: 0.8"/>
      </g>
     </g>
     <g id="text_3">
      <!-- $\mathbf{K}$ -->
      <g transform="translate(212.138758 237.02966)scale(0.11 -0.11)">
       <defs>
        <path id="URWPalladioL-Bold-4b" d="M 1696 2201 
L 1696 3472 
C 1696 4038 1702 4051 2003 4076 
L 2240 4095 
L 2240 4352 
C 1459 4332 1459 4332 1242 4332 
C 1024 4332 1018 4332 250 4352 
L 250 4095 
L 486 4076 
C 787 4051 794 4038 794 3472 
L 794 879 
C 794 313 787 300 486 275 
L 250 256 
L 250 0 
C 1024 0 1024 0 1242 0 
C 1459 19 1466 19 2240 0 
L 2240 256 
L 2003 275 
C 1702 300 1696 313 1696 883 
L 1696 2144 
C 1862 2048 1888 2022 2253 1593 
L 3584 0 
L 4237 0 
C 4282 0 4339 0 4666 -13 
C 4698 6 4774 6 4883 0 
L 4883 262 
C 4646 268 4499 351 4301 580 
L 2598 2570 
L 4019 3886 
C 4173 4025 4320 4070 4723 4102 
L 4723 4352 
C 4352 4339 4237 4332 4141 4332 
C 4045 4332 3930 4339 3558 4352 
L 3558 4191 
C 3558 4095 3526 4038 3392 3898 
C 3386 3886 3360 3854 3328 3822 
C 3168 3644 3014 3485 2957 3428 
L 1696 2201 
z
" transform="scale(0.015625)"/>
       </defs>
       <use xlink:href="#URWPalladioL-Bold-4b" transform="scale(0.996264)"/>
      </g>
     </g>
    </g>
    <g id="xtick_4">
     <g id="line2d_7">
      <path d="M 337.873426 222.188611 
L 337.873426 11.88 
" clip-path="url(#p6eb117f3f8)" style="fill: none; stroke: #b0b0b0; stroke-opacity: 0.3; stroke-width: 0.8; stroke-linecap: square"/>
     </g>
     <g id="line2d_8">
      <g>
       <use xlink:href="#m55ce05e1cb" x="337.873426" y="222.188611" style="stroke: #000000; stroke-width: 0.8"/>
      </g>
     </g>
     <g id="text_4">
      <!-- $\mathbf{\Gamma}$ -->
      <g transform="translate(334.826852 237.02966)scale(0.11 -0.11)">
       <use xlink:href="#PazoMath-Bold-47" transform="scale(0.996264)"/>
      </g>
     </g>
    </g>
   </g>
   <g id="matplotlib.axis_2">
    <g id="ytick_1">
     <g id="line2d_9">
      <path d="M 48.792183 215.616467 
L 337.873426 215.616467 
" clip-path="url(#p6eb117f3f8)" style="fill: none; stroke: #b0b0b0; stroke-opacity: 0.3; stroke-width: 0.8; stroke-linecap: square"/>
     </g>
     <g id="line2d_10">
      <defs>
       <path id="m0b2e0ddede" d="M 0 0 
L -3.5 0 
" style="stroke: #000000; stroke-width: 0.8"/>
      </defs>
      <g>
       <use xlink:href="#m0b2e0ddede" x="48.792183" y="215.616467" style="stroke: #000000; stroke-width: 0.8"/>
      </g>
     </g>
     <g id="text_5">
      <!-- $\mathdefault{−3}$ -->
      <g transform="translate(27.299153 219.536991)scale(0.11 -0.11)">
       <defs>
        <path id="CMSY10-0" d="M 4218 1472 
C 4326 1472 4442 1472 4442 1600 
C 4442 1728 4326 1728 4218 1728 
L 755 1728 
C 646 1728 531 1728 531 1600 
C 531 1472 646 1472 755 1472 
L 4218 1472 
z
" transform="scale(0.015625)"/>
        <path id="URWPalladioL-Roma-33" d="M 275 3196 
L 474 3196 
L 589 3553 
C 659 3770 1062 3987 1395 3987 
C 1811 3987 2150 3649 2150 3247 
C 2150 2769 1773 2368 1318 2368 
C 1267 2368 1197 2374 1114 2380 
L 1018 2387 
L 941 2047 
L 986 2008 
C 1229 2118 1350 2150 1523 2150 
C 2054 2150 2362 1808 2362 1222 
C 2362 565 1971 134 1376 134 
C 1082 134 819 231 627 411 
C 474 553 390 701 269 1048 
L 96 984 
C 230 591 282 359 320 38 
C 659 -77 941 -128 1178 -128 
C 1690 -128 2278 160 2630 591 
C 2848 855 2957 1139 2957 1441 
C 2957 1750 2829 2021 2598 2182 
C 2438 2297 2291 2348 1971 2406 
C 2483 2801 2675 3094 2675 3470 
C 2675 4038 2202 4416 1491 4416 
C 1056 4416 768 4294 461 3987 
L 275 3196 
z
" transform="scale(0.015625)"/>
       </defs>
       <use xlink:href="#CMSY10-0" transform="scale(1.038107)"/>
       <use xlink:href="#URWPalladioL-Roma-33" transform="translate(81.941696 0)scale(0.996264)"/>
      </g>
     </g>
    </g>
    <g id="ytick_2">
     <g id="line2d_11">
      <path d="M 48.792183 182.755747 
L 337.873426 182.755747 
" clip-path="url(#p6eb117f3f8)" style="fill: none; stroke: #b0b0b0; stroke-opacity: 0.3; stroke-width: 0.8; stroke-linecap: square"/>
     </g>
     <g id="line2d_12">
      <g>
       <use xlink:href="#m0b2e0ddede" x="48.792183" y="182.755747" style="stroke: #000000; stroke-width: 0.8"/>
      </g>
     </g>
     <g id="text_6">
      <!-- $\mathdefault{−2}$ -->
      <g transform="translate(27.299153 186.676271)scale(0.11 -0.11)">
       <defs>
        <path id="URWPalladioL-Roma-32" d="M 102 166 
L 102 0 
C 1299 0 1299 0 1530 0 
C 1760 19 1760 19 2995 0 
C 2982 134 2982 198 2982 287 
C 2982 370 2982 434 2995 574 
C 2259 542 1965 536 781 510 
L 1946 1741 
C 2566 2398 2758 2749 2758 3228 
C 2758 3961 2259 4416 1446 4416 
C 986 4416 672 4287 358 3967 
L 250 3100 
L 435 3100 
L 518 3394 
C 621 3763 851 3923 1280 3923 
C 1830 3923 2182 3578 2182 3036 
C 2182 2558 1914 2086 1190 1320 
L 102 166 
z
" transform="scale(0.015625)"/>
       </defs>
       <use xlink:href="#CMSY10-0" transform="scale(1.038107)"/>
       <use xlink:href="#URWPalladioL-Roma-32" transform="translate(81.941696 0)scale(0.996264)"/>
      </g>
     </g>
    </g>
    <g id="ytick_3">
     <g id="line2d_13">
      <path d="M 48.792183 149.895026 
L 337.873426 149.895026 
" clip-path="url(#p6eb117f3f8)" style="fill: none; stroke: #b0b0b0; stroke-opacity: 0.3; stroke-width: 0.8; stroke-linecap: square"/>
     </g>
     <g id="line2d_14">
      <g>
       <use xlink:href="#m0b2e0ddede" x="48.792183" y="149.895026" style="stroke: #000000; stroke-width: 0.8"/>
      </g>
     </g>
     <g id="text_7">
      <!-- $\mathdefault{−1}$ -->
      <g transform="translate(27.299153 153.815551)scale(0.11 -0.11)">
       <defs>
        <path id="URWPalladioL-Roma-31" d="M 429 3571 
L 493 3571 
L 1318 3942 
C 1325 3949 1331 3949 1338 3949 
C 1376 3949 1389 3891 1389 3737 
L 1389 633 
C 1389 300 1318 230 973 211 
L 614 192 
L 614 0 
C 1600 0 1600 0 1670 0 
C 1754 0 1894 0 2112 -7 
C 2189 6 2413 6 2675 0 
L 2675 192 
L 2342 211 
C 1990 229 1926 299 1926 628 
L 1926 4383 
L 1837 4416 
C 1421 4199 966 4009 384 3807 
L 429 3571 
z
" transform="scale(0.015625)"/>
       </defs>
       <use xlink:href="#CMSY10-0" transform="scale(1.038107)"/>
       <use xlink:href="#URWPalladioL-Roma-31" transform="translate(81.941696 0)scale(0.996264)"/>
      </g>
     </g>
    </g>
    <g id="ytick_4">
     <g id="line2d_15">
      <path d="M 48.792183 117.034306 
L 337.873426 117.034306 
" clip-path="url(#p6eb117f3f8)" style="fill: none; stroke: #b0b0b0; stroke-opacity: 0.3; stroke-width: 0.8; stroke-linecap: square"/>
     </g>
     <g id="line2d_16">
      <g>
       <use xlink:href="#m0b2e0ddede" x="48.792183" y="117.034306" style="stroke: #000000; stroke-width: 0.8"/>
      </g>
     </g>
     <g id="text_8">
      <!-- $\mathdefault{0}$ -->
      <g transform="translate(36.312731 120.95483)scale(0.11 -0.11)">
       <defs>
        <path id="URWPalladioL-Roma-30" d="M 1683 4416 
C 691 4416 186 3628 186 2076 
C 186 1326 320 679 544 365 
C 768 51 1126 -128 1523 -128 
C 2490 -128 2976 704 2976 2345 
C 2976 3749 2560 4416 1683 4416 
z
M 1568 4191 
C 2189 4191 2438 3563 2438 2025 
C 2438 660 2195 96 1606 96 
C 986 96 723 743 723 2307 
C 723 3660 960 4191 1568 4191 
z
" transform="scale(0.015625)"/>
       </defs>
       <use xlink:href="#URWPalladioL-Roma-30" transform="scale(0.996264)"/>
      </g>
     </g>
    </g>
    <g id="ytick_5">
     <g id="line2d_17">
      <path d="M 48.792183 84.173585 
L 337.873426 84.173585 
" clip-path="url(#p6eb117f3f8)" style="fill: none; stroke: #b0b0b0; stroke-opacity: 0.3; stroke-width: 0.8; stroke-linecap: square"/>
     </g>
     <g id="line2d_18">
      <g>
       <use xlink:href="#m0b2e0ddede" x="48.792183" y="84.173585" style="stroke: #000000; stroke-width: 0.8"/>
      </g>
     </g>
     <g id="text_9">
      <!-- $\mathdefault{1}$ -->
      <g transform="translate(36.312731 88.09411)scale(0.11 -0.11)">
       <use xlink:href="#URWPalladioL-Roma-31" transform="scale(0.996264)"/>
      </g>
     </g>
    </g>
    <g id="ytick_6">
     <g id="line2d_19">
      <path d="M 48.792183 51.312865 
L 337.873426 51.312865 
" clip-path="url(#p6eb117f3f8)" style="fill: none; stroke: #b0b0b0; stroke-opacity: 0.3; stroke-width: 0.8; stroke-linecap: square"/>
     </g>
     <g id="line2d_20">
      <g>
       <use xlink:href="#m0b2e0ddede" x="48.792183" y="51.312865" style="stroke: #000000; stroke-width: 0.8"/>
      </g>
     </g>
     <g id="text_10">
      <!-- $\mathdefault{2}$ -->
      <g transform="translate(36.312731 55.233389)scale(0.11 -0.11)">
       <use xlink:href="#URWPalladioL-Roma-32" transform="scale(0.996264)"/>
      </g>
     </g>
    </g>
    <g id="ytick_7">
     <g id="line2d_21">
      <path d="M 48.792183 18.452144 
L 337.873426 18.452144 
" clip-path="url(#p6eb117f3f8)" style="fill: none; stroke: #b0b0b0; stroke-opacity: 0.3; stroke-width: 0.8; stroke-linecap: square"/>
     </g>
     <g id="line2d_22">
      <g>
       <use xlink:href="#m0b2e0ddede" x="48.792183" y="18.452144" style="stroke: #000000; stroke-width: 0.8"/>
      </g>
     </g>
     <g id="text_11">
      <!-- $\mathdefault{3}$ -->
      <g transform="translate(36.312731 22.372669)scale(0.11 -0.11)">
       <use xlink:href="#URWPalladioL-Roma-33" transform="scale(0.996264)"/>
      </g>
     </g>
    </g>
    <g id="text_12">
     <!-- $\varepsilon(\mathbf{k})/t_1$ -->
     <g transform="translate(20.208813 134.850589)rotate(-90)scale(0.11 -0.11)">
      <defs>
       <path id="PazoMath-Italic-23" d="M 1971 2663 
L 1952 2243 
L 2131 2243 
C 2163 2529 2221 2695 2304 2924 
C 2093 3040 1779 3104 1562 3104 
C 1274 3104 1037 2988 774 2803 
C 582 2669 326 2389 326 2154 
C 326 1893 531 1721 890 1651 
C 742 1606 576 1497 365 1323 
C 154 1156 96 905 96 725 
C 96 500 173 371 262 256 
C 454 12 800 -64 1146 -64 
C 1466 -64 1824 102 2330 500 
L 2253 609 
C 1914 365 1606 256 1376 256 
C 1062 256 627 397 627 809 
C 627 1207 768 1535 1389 1535 
C 1549 1535 1683 1523 1792 1490 
C 1792 1529 1824 1683 1843 1728 
L 1830 1791 
C 1696 1747 1568 1728 1440 1728 
C 1050 1728 787 1899 787 2237 
C 787 2593 1146 2880 1510 2880 
C 1645 2880 1741 2854 1843 2809 
C 1939 2771 1965 2676 1971 2663 
z
" transform="scale(0.015625)"/>
       <path id="CMR10-28" d="M 2118 -1536 
C 2118 -1517 2118 -1504 2010 -1396 
C 1210 -589 1005 620 1005 1600 
C 1005 2713 1248 3827 2035 4627 
C 2118 4704 2118 4716 2118 4736 
C 2118 4780 2093 4800 2054 4800 
C 1990 4800 1414 4365 1037 3552 
C 710 2848 634 2137 634 1600 
C 634 1100 704 326 1056 -397 
C 1440 -1184 1990 -1600 2054 -1600 
C 2093 -1600 2118 -1581 2118 -1536 
z
" transform="scale(0.015625)"/>
       <path id="URWPalladioL-Bold-6b" d="M 1370 4627 
L 909 4486 
C 723 4428 506 4390 134 4352 
L 134 4121 
L 474 4102 
C 614 4095 640 4031 640 3649 
L 640 657 
C 640 313 608 262 410 249 
L 186 236 
L 186 0 
L 1011 19 
C 1139 19 1446 12 1875 0 
L 1875 236 
L 1651 249 
C 1453 262 1421 313 1421 657 
L 1421 1459 
L 1485 1459 
L 2163 695 
C 2259 587 2624 140 2720 19 
L 3821 19 
L 3821 236 
C 3686 249 3584 313 3469 440 
L 2214 1841 
L 2266 1892 
C 2458 2083 2643 2255 2714 2299 
L 3110 2586 
C 3213 2662 3322 2700 3418 2700 
L 3616 2700 
L 3616 2944 
L 2784 2944 
L 2099 2223 
C 1952 2070 1779 1911 1421 1605 
L 1421 4588 
L 1370 4627 
z
" transform="scale(0.015625)"/>
       <path id="CMR10-29" d="M 1850 1600 
C 1850 2099 1779 2873 1427 3597 
C 1043 4384 493 4800 429 4800 
C 390 4800 365 4774 365 4736 
C 365 4716 365 4704 486 4589 
C 1114 3955 1478 2937 1478 1600 
C 1478 505 1242 -621 448 -1428 
C 365 -1504 365 -1517 365 -1536 
C 365 -1575 390 -1600 429 -1600 
C 493 -1600 1069 -1165 1446 -352 
C 1773 352 1850 1062 1850 1600 
z
" transform="scale(0.015625)"/>
       <path id="URWPalladioL-Roma-2f" d="M 3322 4646 
L 2938 4646 
L 557 -762 
L 941 -762 
L 3322 4646 
z
" transform="scale(0.015625)"/>
       <path id="URWPalladioL-Ital-74" d="M 800 2489 
L 442 678 
C 435 633 429 620 410 544 
C 371 364 358 268 358 192 
C 358 32 429 -64 550 -64 
C 774 -64 998 64 1498 467 
L 1594 544 
L 1696 627 
L 1632 742 
L 1344 544 
C 1158 416 1030 352 960 352 
C 902 352 870 403 870 480 
C 870 646 960 1164 1146 2092 
L 1229 2489 
L 1914 2489 
L 1984 2809 
C 1741 2784 1523 2771 1280 2771 
C 1382 3373 1453 3686 1568 4032 
L 1498 4128 
C 1370 4051 1197 3974 998 3897 
L 838 2809 
C 557 2675 390 2604 275 2572 
L 262 2489 
L 800 2489 
z
" transform="scale(0.015625)"/>
      </defs>
      <use xlink:href="#PazoMath-Italic-23" transform="scale(0.996264)"/>
      <use xlink:href="#CMR10-28" transform="translate(39.950178 0)scale(1.038107)"/>
      <use xlink:href="#URWPalladioL-Bold-6b" transform="translate(82.689882 0)scale(0.996264)"/>
      <use xlink:href="#CMR10-29" transform="translate(146.051291 0)scale(1.038107)"/>
      <use xlink:href="#URWPalladioL-Roma-2f" transform="translate(188.790996 0)scale(0.996264)"/>
      <use xlink:href="#URWPalladioL-Ital-74" transform="translate(251.6552 0)scale(0.996264)"/>
      <use xlink:href="#URWPalladioL-Roma-31" transform="translate(286.075183 -18.577338)scale(0.757155)"/>
     </g>
    </g>
   </g>
   <g id="line2d_23">
    <path d="M 48.792183 215.616467 
L 51.979989 215.519194 
L 55.167794 215.227665 
L 58.3556 214.742743 
L 61.543405 214.065876 
L 64.731211 213.199092 
L 67.919017 212.145014 
L 71.106822 210.906865 
L 75.35723 208.976388 
L 79.607637 206.736418 
L 83.858045 204.199903 
L 88.108452 201.382031 
L 92.35886 198.300431 
L 96.609267 194.975459 
L 101.922277 190.51311 
L 107.235286 185.761637 
L 113.610897 179.772025 
L 131.675129 162.543106 
L 135.925536 158.893863 
L 139.113342 156.412006 
L 142.301148 154.224949 
L 144.426351 152.967979 
L 146.551555 151.898699 
L 148.676759 151.039214 
L 150.801963 150.409236 
L 152.927166 150.024457 
L 155.05237 149.895026 
L 158.733331 149.76534 
L 162.414292 149.376793 
L 166.095253 148.730919 
L 169.776213 147.830266 
L 173.457174 146.67839 
L 177.138135 145.279836 
L 180.819096 143.640123 
L 184.500057 141.765723 
L 188.181018 139.664033 
L 192.475472 136.935906 
L 196.769926 133.924391 
L 201.064381 130.645662 
L 205.972329 126.593994 
L 210.880276 122.244778 
L 216.401718 117.034306 
L 222.536652 123.163708 
L 229.898574 130.89944 
L 238.487483 140.294239 
L 266.708183 171.508616 
L 272.843118 177.877855 
L 278.978052 183.940508 
L 283.886 188.52512 
L 288.793948 192.83877 
L 293.701896 196.8512 
L 298.609844 200.534267 
L 302.290804 203.064789 
L 305.971765 205.385474 
L 309.652726 207.487164 
L 313.333687 209.361564 
L 317.014648 211.001276 
L 320.695609 212.399831 
L 324.37657 213.551707 
L 328.05753 214.45236 
L 331.738491 215.098234 
L 335.419452 215.486781 
L 337.873426 215.602053 
L 337.873426 215.602053 
" clip-path="url(#p6eb117f3f8)" style="fill: none; stroke: #000000; stroke-width: 0.6; stroke-linecap: square"/>
   </g>
   <g id="line2d_24">
    <path d="M 48.792183 215.616467 
L 51.979989 215.519194 
L 55.167794 215.227665 
L 58.3556 214.742743 
L 61.543405 214.065876 
L 64.731211 213.199092 
L 67.919017 212.145014 
L 71.106822 210.906865 
L 75.35723 208.976388 
L 79.607637 206.736418 
L 83.858045 204.199903 
L 88.108452 201.382031 
L 92.35886 198.300431 
L 96.609267 194.975459 
L 101.922277 190.51311 
L 107.235286 185.761637 
L 113.610897 179.772025 
L 131.675129 162.543106 
L 135.925536 158.893863 
L 139.113342 156.412006 
L 142.301148 154.224949 
L 144.426351 152.967979 
L 146.551555 151.898699 
L 148.676759 151.039214 
L 150.801963 150.409236 
L 152.927166 150.024457 
L 155.05237 149.895026 
L 158.733331 149.76534 
L 162.414292 149.376793 
L 166.095253 148.730919 
L 169.776213 147.830266 
L 173.457174 146.67839 
L 177.138135 145.279836 
L 180.819096 143.640123 
L 184.500057 141.765723 
L 188.181018 139.664033 
L 192.475472 136.935906 
L 196.769926 133.924391 
L 201.064381 130.645662 
L 205.972329 126.593994 
L 210.880276 122.244778 
L 216.401718 117.034306 
L 222.536652 123.163708 
L 229.898574 130.89944 
L 238.487483 140.294239 
L 266.708183 171.508616 
L 272.843118 177.877855 
L 278.978052 183.940508 
L 283.886 188.52512 
L 288.793948 192.83877 
L 293.701896 196.8512 
L 298.609844 200.534267 
L 302.290804 203.064789 
L 305.971765 205.385474 
L 309.652726 207.487164 
L 313.333687 209.361564 
L 317.014648 211.001276 
L 320.695609 212.399831 
L 324.37657 213.551707 
L 328.05753 214.45236 
L 331.738491 215.098234 
L 335.419452 215.486781 
L 337.873426 215.602053 
L 337.873426 215.602053 
" clip-path="url(#p6eb117f3f8)" style="fill: none; stroke: #000000; stroke-width: 0.6; stroke-linecap: square"/>
   </g>
   <g id="line2d_25">
    <path d="M 48.792183 18.452144 
L 51.979989 18.549417 
L 55.167794 18.840947 
L 58.3556 19.325868 
L 61.543405 20.002736 
L 64.731211 20.869519 
L 67.919017 21.923597 
L 71.106822 23.161746 
L 75.35723 25.092223 
L 79.607637 27.332193 
L 83.858045 29.868708 
L 88.108452 32.68658 
L 92.35886 35.76818 
L 96.609267 39.093152 
L 101.922277 43.555501 
L 107.235286 48.306974 
L 113.610897 54.296586 
L 131.675129 71.525505 
L 135.925536 75.174748 
L 139.113342 77.656605 
L 142.301148 79.843663 
L 144.426351 81.100632 
L 146.551555 82.169912 
L 148.676759 83.029398 
L 150.801963 83.659375 
L 152.927166 84.044154 
L 155.05237 84.173585 
L 158.733331 84.303271 
L 162.414292 84.691818 
L 166.095253 85.337692 
L 169.776213 86.238345 
L 173.457174 87.390221 
L 177.138135 88.788776 
L 180.819096 90.428488 
L 184.500057 92.302888 
L 188.181018 94.404578 
L 192.475472 97.132705 
L 196.769926 100.14422 
L 201.064381 103.422949 
L 205.972329 107.474617 
L 210.880276 111.823833 
L 216.401718 117.034306 
L 222.536652 110.904903 
L 229.898574 103.169171 
L 238.487483 93.774372 
L 266.708183 62.559995 
L 272.843118 56.190756 
L 278.978052 50.128104 
L 283.886 45.543491 
L 288.793948 41.229841 
L 293.701896 37.217411 
L 298.609844 33.534344 
L 302.290804 31.003822 
L 305.971765 28.683137 
L 309.652726 26.581447 
L 313.333687 24.707047 
L 317.014648 23.067335 
L 320.695609 21.66878 
L 324.37657 20.516904 
L 328.05753 19.616252 
L 331.738491 18.970377 
L 335.419452 18.58183 
L 337.873426 18.466558 
L 337.873426 18.466558 
" clip-path="url(#p6eb117f3f8)" style="fill: none; stroke: #000000; stroke-width: 0.6; stroke-linecap: square"/>
   </g>
   <g id="line2d_26">
    <path d="M 48.792183 18.452144 
L 51.979989 18.549417 
L 55.167794 18.840947 
L 58.3556 19.325868 
L 61.543405 20.002736 
L 64.731211 20.869519 
L 67.919017 21.923597 
L 71.106822 23.161746 
L 75.35723 25.092223 
L 79.607637 27.332193 
L 83.858045 29.868708 
L 88.108452 32.68658 
L 92.35886 35.76818 
L 96.609267 39.093152 
L 101.922277 43.555501 
L 107.235286 48.306974 
L 113.610897 54.296586 
L 131.675129 71.525505 
L 135.925536 75.174748 
L 139.113342 77.656605 
L 142.301148 79.843663 
L 144.426351 81.100632 
L 146.551555 82.169912 
L 148.676759 83.029398 
L 150.801963 83.659375 
L 152.927166 84.044154 
L 155.05237 84.173585 
L 158.733331 84.303271 
L 162.414292 84.691818 
L 166.095253 85.337692 
L 169.776213 86.238345 
L 173.457174 87.390221 
L 177.138135 88.788776 
L 180.819096 90.428488 
L 184.500057 92.302888 
L 188.181018 94.404578 
L 192.475472 97.132705 
L 196.769926 100.14422 
L 201.064381 103.422949 
L 205.972329 107.474617 
L 210.880276 111.823833 
L 216.401718 117.034306 
L 222.536652 110.904903 
L 229.898574 103.169171 
L 238.487483 93.774372 
L 266.708183 62.559995 
L 272.843118 56.190756 
L 278.978052 50.128104 
L 283.886 45.543491 
L 288.793948 41.229841 
L 293.701896 37.217411 
L 298.609844 33.534344 
L 302.290804 31.003822 
L 305.971765 28.683137 
L 309.652726 26.581447 
L 313.333687 24.707047 
L 317.014648 23.067335 
L 320.695609 21.66878 
L 324.37657 20.516904 
L 328.05753 19.616252 
L 331.738491 18.970377 
L 335.419452 18.58183 
L 337.873426 18.466558 
L 337.873426 18.466558 
" clip-path="url(#p6eb117f3f8)" style="fill: none; stroke: #000000; stroke-width: 0.6; stroke-linecap: square"/>
   </g>
   <g id="line2d_27">
    <path d="M 48.792183 219.201128 
L 51.979989 219.103856 
L 55.167794 218.812326 
L 58.3556 218.327404 
L 61.543405 217.650537 
L 64.731211 216.783753 
L 67.919017 215.729676 
L 71.106822 214.491527 
L 75.35723 212.56105 
L 79.607637 210.321079 
L 83.858045 207.784564 
L 88.108452 204.966692 
L 92.35886 201.885093 
L 96.609267 198.56012 
L 101.922277 194.097772 
L 107.235286 189.346299 
L 113.610897 183.356686 
L 131.675129 166.127767 
L 135.925536 162.478524 
L 139.113342 159.996668 
L 142.301148 157.80961 
L 144.426351 156.552641 
L 146.551555 155.483361 
L 148.676759 154.623875 
L 150.801963 153.993897 
L 152.927166 153.609119 
L 155.05237 153.479687 
L 158.733331 153.350001 
L 162.414292 152.961454 
L 166.095253 152.31558 
L 169.776213 151.414927 
L 173.457174 150.263051 
L 177.138135 148.864497 
L 180.819096 147.224784 
L 184.500057 145.350384 
L 188.181018 143.248694 
L 192.475472 140.520568 
L 196.769926 137.509052 
L 201.064381 134.230323 
L 205.972329 130.178656 
L 210.880276 125.82944 
L 216.401718 120.618967 
L 222.536652 126.748369 
L 229.898574 134.484101 
L 238.487483 143.8789 
L 266.708183 175.093277 
L 272.843118 181.462516 
L 278.978052 187.525169 
L 283.886 192.109781 
L 288.793948 196.423431 
L 293.701896 200.435861 
L 298.609844 204.118928 
L 302.290804 206.64945 
L 305.971765 208.970135 
L 309.652726 211.071825 
L 313.333687 212.946225 
L 317.014648 214.585938 
L 320.695609 215.984492 
L 324.37657 217.136368 
L 328.05753 218.037021 
L 331.738491 218.682895 
L 335.419452 219.071442 
L 337.873426 219.186714 
L 337.873426 219.186714 
" clip-path="url(#p6eb117f3f8)" style="fill: none; stroke: #1f77b4; stroke-width: 1.8; stroke-linecap: square"/>
   </g>
   <g id="line2d_28">
    <path d="M 48.792183 212.031806 
L 51.979989 211.934533 
L 55.167794 211.643003 
L 58.3556 211.158082 
L 61.543405 210.481214 
L 64.731211 209.614431 
L 67.919017 208.560353 
L 71.106822 207.322204 
L 75.35723 205.391727 
L 79.607637 203.151757 
L 83.858045 200.615241 
L 88.108452 197.797369 
L 92.35886 194.71577 
L 96.609267 191.390797 
L 101.922277 186.928449 
L 107.235286 182.176976 
L 113.610897 176.187364 
L 131.675129 158.958444 
L 135.925536 155.309202 
L 139.113342 152.827345 
L 142.301148 150.640287 
L 144.426351 149.383318 
L 146.551555 148.314038 
L 148.676759 147.454552 
L 150.801963 146.824575 
L 152.927166 146.439796 
L 155.05237 146.310365 
L 158.733331 146.180679 
L 162.414292 145.792132 
L 166.095253 145.146257 
L 169.776213 144.245605 
L 173.457174 143.093729 
L 177.138135 141.695174 
L 180.819096 140.055462 
L 184.500057 138.181062 
L 188.181018 136.079372 
L 192.475472 133.351245 
L 196.769926 130.33973 
L 201.064381 127.061 
L 205.972329 123.009333 
L 210.880276 118.660117 
L 212.720757 117.109997 
L 216.401718 120.618967 
L 220.082679 117.0883 
L 226.217613 123.401708 
L 233.579535 131.302817 
L 243.395431 142.183681 
L 261.800235 162.654623 
L 269.162157 170.504041 
L 275.297091 176.758848 
L 281.432026 182.680055 
L 286.339974 187.133092 
L 291.247922 191.299787 
L 296.15587 195.150914 
L 301.063817 198.659459 
L 304.744778 201.051149 
L 308.425739 203.226802 
L 312.1067 205.177832 
L 315.787661 206.896539 
L 319.468622 208.376141 
L 323.149583 209.610797 
L 326.830543 210.595635 
L 330.511504 211.326768 
L 334.192465 211.801311 
L 337.873426 212.017392 
L 337.873426 212.017392 
" clip-path="url(#p6eb117f3f8)" style="fill: none; stroke: #1f77b4; stroke-width: 1.8; stroke-linecap: square"/>
   </g>
   <g id="line2d_29">
    <path d="M 48.792183 22.036805 
L 51.979989 22.134078 
L 55.167794 22.425608 
L 58.3556 22.910529 
L 61.543405 23.587397 
L 64.731211 24.45418 
L 67.919017 25.508258 
L 71.106822 26.746407 
L 75.35723 28.676884 
L 79.607637 30.916854 
L 83.858045 33.45337 
L 88.108452 36.271242 
L 92.35886 39.352841 
L 96.609267 42.677814 
L 101.922277 47.140162 
L 107.235286 51.891635 
L 113.610897 57.881248 
L 131.675129 75.110167 
L 135.925536 78.759409 
L 139.113342 81.241266 
L 142.301148 83.428324 
L 144.426351 84.685293 
L 146.551555 85.754573 
L 148.676759 86.614059 
L 150.801963 87.244036 
L 152.927166 87.628815 
L 155.05237 87.758246 
L 158.733331 87.887933 
L 162.414292 88.27648 
L 166.095253 88.922354 
L 169.776213 89.823006 
L 173.457174 90.974883 
L 177.138135 92.373437 
L 180.819096 94.01315 
L 184.500057 95.88755 
L 188.181018 97.989239 
L 192.475472 100.717366 
L 196.769926 103.728881 
L 201.064381 107.007611 
L 205.972329 111.059278 
L 210.880276 115.408494 
L 212.720757 116.958614 
L 216.401718 113.449644 
L 220.082679 116.980311 
L 226.217613 110.666904 
L 233.579535 102.765795 
L 243.395431 91.88493 
L 261.800235 71.413989 
L 269.162157 63.56457 
L 275.297091 57.309763 
L 281.432026 51.388556 
L 286.339974 46.935519 
L 291.247922 42.768824 
L 296.15587 38.917698 
L 301.063817 35.409152 
L 304.744778 33.017462 
L 308.425739 30.841809 
L 312.1067 28.890779 
L 315.787661 27.172072 
L 319.468622 25.69247 
L 323.149583 24.457815 
L 326.830543 23.472977 
L 330.511504 22.741843 
L 334.192465 22.2673 
L 337.873426 22.051219 
L 337.873426 22.051219 
" clip-path="url(#p6eb117f3f8)" style="fill: none; stroke: #1f77b4; stroke-width: 1.8; stroke-linecap: square"/>
   </g>
   <g id="line2d_30">
    <path d="M 48.792183 14.867483 
L 51.979989 14.964756 
L 55.167794 15.256285 
L 58.3556 15.741207 
L 61.543405 16.418074 
L 64.731211 17.284858 
L 67.919017 18.338935 
L 71.106822 19.577085 
L 75.35723 21.507561 
L 79.607637 23.747532 
L 83.858045 26.284047 
L 88.108452 29.101919 
L 92.35886 32.183518 
L 96.609267 35.508491 
L 101.922277 39.970839 
L 107.235286 44.722312 
L 113.610897 50.711925 
L 131.675129 67.940844 
L 135.925536 71.590087 
L 139.113342 74.071943 
L 142.301148 76.259001 
L 144.426351 77.51597 
L 146.551555 78.585251 
L 148.676759 79.444736 
L 150.801963 80.074714 
L 152.927166 80.459492 
L 155.05237 80.588924 
L 158.733331 80.71861 
L 162.414292 81.107157 
L 166.095253 81.753031 
L 169.776213 82.653684 
L 173.457174 83.80556 
L 177.138135 85.204114 
L 180.819096 86.843827 
L 184.500057 88.718227 
L 188.181018 90.819917 
L 192.475472 93.548043 
L 196.769926 96.559559 
L 201.064381 99.838288 
L 205.972329 103.889955 
L 210.880276 108.239171 
L 216.401718 113.449644 
L 222.536652 107.320242 
L 229.898574 99.58451 
L 238.487483 90.189711 
L 266.708183 58.975334 
L 272.843118 52.606095 
L 278.978052 46.543442 
L 283.886 41.95883 
L 288.793948 37.64518 
L 293.701896 33.63275 
L 298.609844 29.949683 
L 302.290804 27.419161 
L 305.971765 25.098476 
L 309.652726 22.996786 
L 313.333687 21.122386 
L 317.014648 19.482673 
L 320.695609 18.084119 
L 324.37657 16.932243 
L 328.05753 16.03159 
L 331.738491 15.385716 
L 335.419452 14.997169 
L 337.873426 14.881897 
L 337.873426 14.881897 
" clip-path="url(#p6eb117f3f8)" style="fill: none; stroke: #1f77b4; stroke-width: 1.8; stroke-linecap: square"/>
   </g>
   <g id="line2d_31">
    <path d="M 72.722827 253 
L 334.179259 -1 
L 334.179259 -1 
" clip-path="url(#p6eb117f3f8)" style="fill: none; stroke-dasharray: 4.44,1.92; stroke-dashoffset: 0; stroke: #ff7f0e; stroke-width: 1.2"/>
   </g>
   <g id="line2d_32">
    <path d="M 80.164411 253 
L 337.873426 2.640545 
L 337.873426 2.640545 
" clip-path="url(#p6eb117f3f8)" style="fill: none; stroke-dasharray: 4.44,1.92; stroke-dashoffset: 0; stroke: #ff7f0e; stroke-width: 1.2"/>
   </g>
   <g id="line2d_33">
    <path d="M 91.18061 -1 
L 337.873426 238.657425 
L 337.873426 238.657425 
" clip-path="url(#p6eb117f3f8)" style="fill: none; stroke-dasharray: 4.44,1.92; stroke-dashoffset: 0; stroke: #ff7f0e; stroke-width: 1.2"/>
   </g>
   <g id="line2d_34">
    <path d="M 98.622194 -1 
L 337.873426 231.428066 
L 337.873426 231.428066 
" clip-path="url(#p6eb117f3f8)" style="fill: none; stroke-dasharray: 4.44,1.92; stroke-dashoffset: 0; stroke: #ff7f0e; stroke-width: 1.2"/>
   </g>
   <g id="patch_3">
    <path d="M 48.792183 222.188611 
L 48.792183 11.88 
" style="fill: none; stroke: #000000; stroke-width: 0.8; stroke-linejoin: miter; stroke-linecap: square"/>
   </g>
   <g id="patch_4">
    <path d="M 337.873426 222.188611 
L 337.873426 11.88 
" style="fill: none; stroke: #000000; stroke-width: 0.8; stroke-linejoin: miter; stroke-linecap: square"/>
   </g>
   <g id="patch_5">
    <path d="M 48.792183 222.188611 
L 337.873426 222.188611 
" style="fill: none; stroke: #000000; stroke-width: 0.8; stroke-linejoin: miter; stroke-linecap: square"/>
   </g>
   <g id="patch_6">
    <path d="M 48.792183 11.88 
L 337.873426 11.88 
" style="fill: none; stroke: #000000; stroke-width: 0.8; stroke-linejoin: miter; stroke-linecap: square"/>
   </g>
   <g id="patch_7">
    <path d="M 209.915443 122.949235 
L 222.88601 122.949235 
L 222.88601 111.119376 
L 209.915443 111.119376 
L 209.915443 122.949235 
z
" clip-path="url(#p6eb117f3f8)" style="fill: none; stroke: #808080; stroke-linejoin: miter"/>
   </g>
   <g id="patch_8">
    <path d="M 126.844119 148.580597 
Q 174.865064 135.764916 222.88601 122.949235 
" style="fill: none; stroke: #808080; stroke-linecap: round"/>
   </g>
   <g id="patch_9">
    <path d="M 126.844119 85.488014 
Q 174.865064 98.303695 222.88601 111.119376 
" style="fill: none; stroke: #808080; stroke-linecap: round"/>
   </g>
   <g id="axes_2">
    <g id="patch_10">
     <path d="M 83.481932 148.580597 
L 126.844119 148.580597 
L 126.844119 85.488014 
L 83.481932 85.488014 
z
" style="fill: #ffffff"/>
    </g>
    <g id="matplotlib.axis_3">
     <g id="xtick_5">
      <g id="line2d_35">
       <path d="M 105.163025 148.580597 
L 105.163025 85.488014 
" clip-path="url(#pe5db77efe4)" style="fill: none; stroke: #b0b0b0; stroke-width: 0.8; stroke-linecap: square"/>
      </g>
      <g id="line2d_36">
       <g>
        <use xlink:href="#m55ce05e1cb" x="105.163025" y="148.580597" style="stroke: #000000; stroke-width: 0.8"/>
       </g>
      </g>
      <g id="text_13">
       <!-- $\mathbf{K}$ -->
       <g transform="translate(100.900066 163.421646)scale(0.11 -0.11)">
        <use xlink:href="#URWPalladioL-Bold-4b" transform="scale(0.996264)"/>
       </g>
      </g>
     </g>
    </g>
    <g id="matplotlib.axis_4">
     <g id="ytick_8">
      <g id="line2d_37">
       <path d="M 83.481932 136.312595 
L 126.844119 136.312595 
" clip-path="url(#pe5db77efe4)" style="fill: none; stroke: #b0b0b0; stroke-width: 0.8; stroke-linecap: square"/>
      </g>
      <g id="line2d_38">
       <g>
        <use xlink:href="#m0b2e0ddede" x="83.481932" y="136.312595" style="stroke: #000000; stroke-width: 0.8"/>
       </g>
      </g>
      <g id="text_14">
       <!-- $-t_{\perp}/t_1$ -->
       <g transform="translate(50.712874 139.163887)scale(0.08 -0.08)">
        <defs>
         <path id="CMSY10-3f" d="M 2618 4069 
C 2618 4185 2618 4300 2490 4300 
C 2362 4300 2362 4166 2362 4069 
L 2362 256 
L 582 256 
C 486 256 352 256 352 128 
C 352 0 486 0 582 0 
L 4403 0 
C 4512 0 4627 0 4627 128 
C 4627 256 4512 256 4403 256 
L 2618 256 
L 2618 4069 
z
" transform="scale(0.015625)"/>
        </defs>
        <use xlink:href="#CMSY10-0" transform="scale(1.038107)"/>
        <use xlink:href="#URWPalladioL-Ital-74" transform="translate(83.186996 0)scale(0.996264)"/>
        <use xlink:href="#CMSY10-3f" transform="translate(118.553395 -20.470766)scale(0.788955)"/>
        <use xlink:href="#URWPalladioL-Roma-2f" transform="translate(182.572069 0)scale(0.996264)"/>
        <use xlink:href="#URWPalladioL-Ital-74" transform="translate(245.436273 0)scale(0.996264)"/>
        <use xlink:href="#URWPalladioL-Roma-31" transform="translate(279.856255 -18.577338)scale(0.757155)"/>
       </g>
      </g>
     </g>
     <g id="ytick_9">
      <g id="line2d_39">
       <path d="M 83.481932 97.756016 
L 126.844119 97.756016 
" clip-path="url(#pe5db77efe4)" style="fill: none; stroke: #b0b0b0; stroke-width: 0.8; stroke-linecap: square"/>
      </g>
      <g id="line2d_40">
       <g>
        <use xlink:href="#m0b2e0ddede" x="83.481932" y="97.756016" style="stroke: #000000; stroke-width: 0.8"/>
       </g>
      </g>
      <g id="text_15">
       <!-- $t_{\perp}/t_1$ -->
       <g transform="translate(57.367834 100.607308)scale(0.08 -0.08)">
        <use xlink:href="#URWPalladioL-Ital-74" transform="scale(0.996264)"/>
        <use xlink:href="#CMSY10-3f" transform="translate(35.366399 -20.470766)scale(0.788955)"/>
        <use xlink:href="#URWPalladioL-Roma-2f" transform="translate(99.385073 0)scale(0.996264)"/>
        <use xlink:href="#URWPalladioL-Ital-74" transform="translate(162.249277 0)scale(0.996264)"/>
        <use xlink:href="#URWPalladioL-Roma-31" transform="translate(196.669259 -18.577338)scale(0.757155)"/>
       </g>
      </g>
     </g>
    </g>
    <g id="line2d_41">
     <path d="M -1 248.513235 
L 4.668145 243.479563 
L 10.821096 237.726185 
L 16.974046 231.680741 
L 23.126997 225.349197 
L 29.279948 218.737802 
L 35.432898 211.85308 
L 41.585849 204.701825 
L 49.789783 194.764448 
L 57.993717 184.383246 
L 66.197651 173.576429 
L 74.401585 162.362959 
L 82.605519 150.762505 
L 90.809454 138.795421 
L 99.013388 126.482699 
L 105.166338 117.034306 
L 113.370272 129.899572 
L 125.676174 149.724451 
L 137.982075 170.111976 
L 150.287976 190.981689 
L 162.593877 212.251224 
L 179.001746 241.087283 
L 185.713502 253 
L 185.713502 253 
" clip-path="url(#pe5db77efe4)" style="fill: none; stroke: #000000; stroke-width: 0.6; stroke-linecap: square"/>
    </g>
    <g id="line2d_42">
     <path d="M -1 248.513235 
L 4.668145 243.479563 
L 10.821096 237.726185 
L 16.974046 231.680741 
L 23.126997 225.349197 
L 29.279948 218.737802 
L 35.432898 211.85308 
L 41.585849 204.701825 
L 49.789783 194.764448 
L 57.993717 184.383246 
L 66.197651 173.576429 
L 74.401585 162.362959 
L 82.605519 150.762505 
L 90.809454 138.795421 
L 99.013388 126.482699 
L 105.166338 117.034306 
L 113.370272 129.899572 
L 125.676174 149.724451 
L 137.982075 170.111976 
L 150.287976 190.981689 
L 162.593877 212.251224 
L 179.001746 241.087283 
L 185.713502 253 
L 185.713502 253 
" clip-path="url(#pe5db77efe4)" style="fill: none; stroke: #000000; stroke-width: 0.6; stroke-linecap: square"/>
    </g>
    <g id="line2d_43">
     <path d="M 13.558639 -1 
L 19.02503 4.466899 
L 25.17798 10.892435 
L 31.330931 17.595677 
L 37.483882 24.570012 
L 43.636832 31.808555 
L 51.840766 41.858553 
L 60.044701 52.347896 
L 68.248635 63.258182 
L 76.452569 74.57027 
L 84.656503 86.264315 
L 92.860437 98.319801 
L 101.064371 110.71558 
L 105.166338 117.034306 
L 113.370272 104.169039 
L 125.676174 84.34416 
L 137.982075 63.956635 
L 150.287976 43.086923 
L 162.593877 21.817387 
L 175.596751 -1 
L 175.596751 -1 
" clip-path="url(#pe5db77efe4)" style="fill: none; stroke: #000000; stroke-width: 0.6; stroke-linecap: square"/>
    </g>
    <g id="line2d_44">
     <path d="M 13.558639 -1 
L 19.02503 4.466899 
L 25.17798 10.892435 
L 31.330931 17.595677 
L 37.483882 24.570012 
L 43.636832 31.808555 
L 51.840766 41.858553 
L 60.044701 52.347896 
L 68.248635 63.258182 
L 76.452569 74.57027 
L 84.656503 86.264315 
L 92.860437 98.319801 
L 101.064371 110.71558 
L 105.166338 117.034306 
L 113.370272 104.169039 
L 125.676174 84.34416 
L 137.982075 63.956635 
L 150.287976 43.086923 
L 162.593877 21.817387 
L 175.596751 -1 
L 175.596751 -1 
" clip-path="url(#pe5db77efe4)" style="fill: none; stroke: #000000; stroke-width: 0.6; stroke-linecap: square"/>
    </g>
    <g id="line2d_45">
     <path d="M 14.766505 253 
L 19.02503 248.719906 
L 25.17798 242.29437 
L 31.330931 235.591127 
L 37.483882 228.616793 
L 43.636832 221.37825 
L 51.840766 211.328251 
L 60.044701 200.838908 
L 68.248635 189.928623 
L 76.452569 178.616535 
L 84.656503 166.92249 
L 92.860437 154.867003 
L 101.064371 142.471224 
L 105.166338 136.152499 
L 113.370272 149.017765 
L 125.676174 168.842644 
L 137.982075 189.23017 
L 150.287976 210.099882 
L 162.593877 231.369418 
L 174.92533 253 
L 174.92533 253 
" clip-path="url(#pe5db77efe4)" style="fill: none; stroke: #1f77b4; stroke-width: 1.8; stroke-linecap: square"/>
    </g>
    <g id="line2d_46">
     <path d="M -1 229.395042 
L 4.668145 224.36137 
L 10.821096 218.607992 
L 16.974046 212.562548 
L 23.126997 206.231004 
L 29.279948 199.619608 
L 35.432898 192.734886 
L 41.585849 185.583632 
L 49.789783 175.646255 
L 57.993717 165.265052 
L 66.197651 154.458236 
L 74.401585 143.244765 
L 82.605519 131.644312 
L 90.809454 119.677227 
L 92.860437 117.437995 
L 101.064371 129.833773 
L 105.166338 136.152499 
L 113.370272 123.287233 
L 117.47224 117.322276 
L 129.778141 137.343513 
L 142.084042 157.900809 
L 154.389943 178.913031 
L 170.797811 207.493448 
L 191.307647 243.843003 
L 196.436756 253 
L 196.436756 253 
" clip-path="url(#pe5db77efe4)" style="fill: none; stroke: #1f77b4; stroke-width: 1.8; stroke-linecap: square"/>
    </g>
    <g id="line2d_47">
     <path d="M -1 4.673569 
L 4.668145 9.707241 
L 10.821096 15.460619 
L 16.974046 21.506063 
L 23.126997 27.837607 
L 29.279948 34.449003 
L 35.432898 41.333725 
L 41.585849 48.48498 
L 49.789783 58.422356 
L 57.993717 68.803559 
L 66.197651 79.610375 
L 74.401585 90.823846 
L 82.605519 102.424299 
L 90.809454 114.391384 
L 92.860437 116.630616 
L 101.064371 104.234838 
L 105.166338 97.916112 
L 113.370272 110.781379 
L 117.47224 116.746335 
L 129.778141 96.725098 
L 142.084042 76.167803 
L 154.389943 55.15558 
L 170.797811 26.575163 
L 186.381081 -1 
L 186.381081 -1 
" clip-path="url(#pe5db77efe4)" style="fill: none; stroke: #1f77b4; stroke-width: 1.8; stroke-linecap: square"/>
    </g>
    <g id="line2d_48">
     <path d="M 31.797892 -1 
L 37.483882 5.451818 
L 43.636832 12.690361 
L 51.840766 22.74036 
L 60.044701 33.229703 
L 68.248635 44.139989 
L 76.452569 55.452076 
L 84.656503 67.146121 
L 92.860437 79.201608 
L 101.064371 91.597387 
L 105.166338 97.916112 
L 113.370272 85.050846 
L 125.676174 65.225967 
L 137.982075 44.838441 
L 150.287976 23.968729 
L 164.711897 -1 
L 164.711897 -1 
" clip-path="url(#pe5db77efe4)" style="fill: none; stroke: #1f77b4; stroke-width: 1.8; stroke-linecap: square"/>
    </g>
    <g id="line2d_49">
     <path d="M 4.993898 253 
L 168.884039 -1 
L 168.884039 -1 
" clip-path="url(#pe5db77efe4)" style="fill: none; stroke-dasharray: 4.44,1.92; stroke-dashoffset: 0; stroke: #ff7f0e; stroke-width: 1.2"/>
    </g>
    <g id="line2d_50">
     <path d="M 29.872021 253 
L 193.762161 -1 
L 193.762161 -1 
" clip-path="url(#pe5db77efe4)" style="fill: none; stroke-dasharray: 4.44,1.92; stroke-dashoffset: 0; stroke: #ff7f0e; stroke-width: 1.2"/>
    </g>
    <g id="line2d_51">
     <path d="M 16.56389 -1 
L 180.45403 253 
L 180.45403 253 
" clip-path="url(#pe5db77efe4)" style="fill: none; stroke-dasharray: 4.44,1.92; stroke-dashoffset: 0; stroke: #ff7f0e; stroke-width: 1.2"/>
    </g>
    <g id="line2d_52">
     <path d="M 41.442012 -1 
L 205.332153 253 
L 205.332153 253 
" clip-path="url(#pe5db77efe4)" style="fill: none; stroke-dasharray: 4.44,1.92; stroke-dashoffset: 0; stroke: #ff7f0e; stroke-width: 1.2"/>
    </g>
    <g id="patch_11">
     <path d="M 83.481932 148.580597 
L 83.481932 85.488014 
" style="fill: none; stroke: #000000; stroke-width: 0.8; stroke-linejoin: miter; stroke-linecap: square"/>
    </g>
    <g id="patch_12">
     <path d="M 126.844119 148.580597 
L 126.844119 85.488014 
" style="fill: none; stroke: #000000; stroke-width: 0.8; stroke-linejoin: miter; stroke-linecap: square"/>
    </g>
    <g id="patch_13">
     <path d="M 83.481932 148.580597 
L 126.844119 148.580597 
" style="fill: none; stroke: #000000; stroke-width: 0.8; stroke-linejoin: miter; stroke-linecap: square"/>
    </g>
    <g id="patch_14">
     <path d="M 83.481932 85.488014 
L 126.844119 85.488014 
" style="fill: none; stroke: #000000; stroke-width: 0.8; stroke-linejoin: miter; stroke-linecap: square"/>
    </g>
   </g>
  </g>
 </g>
 <defs>
  <clipPath id="p6eb117f3f8">
   <rect x="48.792183" y="11.88" width="289.081243" height="210.308611"/>
  </clipPath>
  <clipPath id="pe5db77efe4">
   <rect x="83.481932" y="85.488014" width="43.362186" height="63.092583"/>
  </clipPath>
 </defs>
</svg>
