<?xml version="1.0" encoding="utf-8" standalone="no"?>
<!DOCTYPE svg PUBLIC "-//W3C//DTD SVG 1.1//EN"
  "http://www.w3.org/Graphics/SVG/1.1/DTD/svg11.dtd">
<svg xmlns:xlink="http://www.w3.org/1999/xlink" width="352.8pt" height="252pt" viewBox="0 0 352.8 252" xmlns="http://www.w3.org/2000/svg" version="1.1">
 <metadata>
  <rdf:RDF xmlns:dc="http://purl.org/dc/elements/1.1/" xmlns:cc="http://creativecommons.org/ns#" xmlns:rdf="http://www.w3.org/1999/02/22-rdf-syntax-ns#">
   <cc:Work>
    <dc:type rdf:resource="http://purl.org/dc/dcmitype/StillImage"/>
    <dc:date>2022-11-03T03:36:51.726528</dc:date>
    <dc:format>image/svg+xml</dc:format>
    <dc:creator>
     <cc:Agent>
      <dc:title>Matplotlib v3.5.2, https://matplotlib.org/</dc:title>
     </cc:Agent>
    </dc:creator>
   </cc:Work>
  </rdf:RDF>
 </metadata>
 <defs>
  <style type="text/css">*{stroke-linejoin: round; stroke-linecap: butt}</style>
 </defs>
 <g id="figure_1">
  <g id="patch_1">
   <path d="M 0 252 
L 352.8 252 
L 352.8 0 
L 0 0 
z
" style="fill: #ffffff"/>
  </g>
  <g id="axes_1">
   <g id="patch_2">
    <path d="M 33.37303 222.188611 
L 337.873426 222.188611 
L 337.873426 11.88 
L 33.37303 11.88 
z
" style="fill: #ffffff"/>
   </g>
   <g id="matplotlib.axis_1">
    <g id="xtick_1">
     <g id="line2d_1">
      <path d="M 33.37303 222.188611 
L 33.37303 11.88 
" clip-path="url(#pfee98fbca6)" style="fill: none; stroke: #b0b0b0; stroke-width: 0.8; stroke-linecap: square"/>
     </g>
     <g id="line2d_2">
      <defs>
       <path id="m9d67f1157d" d="M 0 0 
L 0 3.5 
" style="stroke: #000000; stroke-width: 0.8"/>
      </defs>
      <g>
       <use xlink:href="#m9d67f1157d" x="33.37303" y="222.188611" style="stroke: #000000; stroke-width: 0.8"/>
      </g>
     </g>
     <g id="text_1">
      <!-- $\mathbf{\Gamma}$ -->
      <g transform="translate(30.326456 237.02966)scale(0.11 -0.11)">
       <defs>
        <path id="PazoMath-Bold-47" d="M 1626 3962 
C 1978 3981 2131 3981 2368 3981 
C 2803 3981 3072 3936 3078 3860 
L 3130 3383 
L 3360 3383 
L 3450 4287 
L 3411 4332 
C 3174 4345 3046 4352 2803 4352 
L 2477 4352 
C 1498 4352 1498 4332 1325 4332 
C 1088 4332 813 4339 179 4352 
L 179 4115 
L 416 4095 
C 704 4070 723 4032 723 3472 
L 723 879 
C 723 313 717 300 416 275 
L 179 256 
L 179 0 
C 717 -7 947 0 1171 0 
C 1389 19 1632 12 2234 0 
L 2234 256 
L 1933 275 
C 1638 294 1626 319 1626 879 
L 1626 3962 
z
" transform="scale(0.015625)"/>
       </defs>
       <use xlink:href="#PazoMath-Bold-47" transform="scale(0.996264)"/>
      </g>
     </g>
    </g>
    <g id="xtick_2">
     <g id="line2d_3">
      <path d="M 145.300973 222.188611 
L 145.300973 11.88 
" clip-path="url(#pfee98fbca6)" style="fill: none; stroke: #b0b0b0; stroke-width: 0.8; stroke-linecap: square"/>
     </g>
     <g id="line2d_4">
      <g>
       <use xlink:href="#m9d67f1157d" x="145.300973" y="222.188611" style="stroke: #000000; stroke-width: 0.8"/>
      </g>
     </g>
     <g id="text_2">
      <!-- $\mathbf{M}$ -->
      <g transform="translate(139.821521 237.02966)scale(0.11 -0.11)">
       <defs>
        <path id="URWPalladioL-Bold-4d" d="M 4749 3545 
L 4749 883 
C 4749 313 4742 300 4442 275 
L 4205 256 
L 4205 0 
C 4979 0 4979 0 5197 0 
C 5414 19 5421 19 6195 0 
L 6195 256 
L 5958 275 
C 5658 300 5651 313 5651 879 
L 5651 3472 
C 5651 4032 5670 4070 5958 4095 
L 6195 4115 
L 6195 4352 
C 5523 4332 5523 4332 5453 4332 
C 5382 4332 5382 4332 4717 4352 
C 4531 3911 4474 3778 4403 3631 
L 3232 1228 
L 2221 3326 
C 2144 3485 2016 3752 1741 4352 
L 973 4332 
C 870 4332 723 4339 531 4345 
C 435 4345 429 4345 205 4352 
L 205 4115 
L 442 4095 
C 730 4070 749 4032 749 3472 
L 749 879 
C 749 319 730 281 442 256 
L 205 236 
L 205 0 
C 819 0 819 0 941 0 
C 1069 19 1363 12 1670 0 
L 1670 236 
L 1434 256 
C 1146 281 1126 313 1126 883 
L 1126 3552 
L 2598 486 
C 2643 371 2714 217 2829 -64 
L 3046 -64 
C 3168 230 3194 294 3430 780 
L 4749 3545 
z
" transform="scale(0.015625)"/>
       </defs>
       <use xlink:href="#URWPalladioL-Bold-4d" transform="scale(0.996264)"/>
      </g>
     </g>
    </g>
    <g id="xtick_3">
     <g id="line2d_5">
      <path d="M 209.922602 222.188611 
L 209.922602 11.88 
" clip-path="url(#pfee98fbca6)" style="fill: none; stroke: #b0b0b0; stroke-width: 0.8; stroke-linecap: square"/>
     </g>
     <g id="line2d_6">
      <g>
       <use xlink:href="#m9d67f1157d" x="209.922602" y="222.188611" style="stroke: #000000; stroke-width: 0.8"/>
      </g>
     </g>
     <g id="text_3">
      <!-- $\mathbf{K}$ -->
      <g transform="translate(205.659642 237.02966)scale(0.11 -0.11)">
       <defs>
        <path id="URWPalladioL-Bold-4b" d="M 1696 2201 
L 1696 3472 
C 1696 4038 1702 4051 2003 4076 
L 2240 4095 
L 2240 4352 
C 1459 4332 1459 4332 1242 4332 
C 1024 4332 1018 4332 250 4352 
L 250 4095 
L 486 4076 
C 787 4051 794 4038 794 3472 
L 794 879 
C 794 313 787 300 486 275 
L 250 256 
L 250 0 
C 1024 0 1024 0 1242 0 
C 1459 19 1466 19 2240 0 
L 2240 256 
L 2003 275 
C 1702 300 1696 313 1696 883 
L 1696 2144 
C 1862 2048 1888 2022 2253 1593 
L 3584 0 
L 4237 0 
C 4282 0 4339 0 4666 -13 
C 4698 6 4774 6 4883 0 
L 4883 262 
C 4646 268 4499 351 4301 580 
L 2598 2570 
L 4019 3886 
C 4173 4025 4320 4070 4723 4102 
L 4723 4352 
C 4352 4339 4237 4332 4141 4332 
C 4045 4332 3930 4339 3558 4352 
L 3558 4191 
C 3558 4095 3526 4038 3392 3898 
C 3386 3886 3360 3854 3328 3822 
C 3168 3644 3014 3485 2957 3428 
L 1696 2201 
z
" transform="scale(0.015625)"/>
       </defs>
       <use xlink:href="#URWPalladioL-Bold-4b" transform="scale(0.996264)"/>
      </g>
     </g>
    </g>
    <g id="xtick_4">
     <g id="line2d_7">
      <path d="M 337.873426 222.188611 
L 337.873426 11.88 
" clip-path="url(#pfee98fbca6)" style="fill: none; stroke: #b0b0b0; stroke-width: 0.8; stroke-linecap: square"/>
     </g>
     <g id="line2d_8">
      <g>
       <use xlink:href="#m9d67f1157d" x="337.873426" y="222.188611" style="stroke: #000000; stroke-width: 0.8"/>
      </g>
     </g>
     <g id="text_4">
      <!-- $\mathbf{\Gamma}$ -->
      <g transform="translate(334.826852 237.02966)scale(0.11 -0.11)">
       <use xlink:href="#PazoMath-Bold-47" transform="scale(0.996264)"/>
      </g>
     </g>
    </g>
   </g>
   <g id="matplotlib.axis_2">
    <g id="ytick_1">
     <g id="line2d_9">
      <path d="M 33.37303 215.616467 
L 337.873426 215.616467 
" clip-path="url(#pfee98fbca6)" style="fill: none; stroke: #b0b0b0; stroke-width: 0.8; stroke-linecap: square"/>
     </g>
     <g id="line2d_10">
      <defs>
       <path id="m542b066fc6" d="M 0 0 
L -3.5 0 
" style="stroke: #000000; stroke-width: 0.8"/>
      </defs>
      <g>
       <use xlink:href="#m542b066fc6" x="33.37303" y="215.616467" style="stroke: #000000; stroke-width: 0.8"/>
      </g>
     </g>
     <g id="text_5">
      <!-- $\mathdefault{−3}$ -->
      <g transform="translate(11.88 219.536991)scale(0.11 -0.11)">
       <defs>
        <path id="CMSY10-0" d="M 4218 1472 
C 4326 1472 4442 1472 4442 1600 
C 4442 1728 4326 1728 4218 1728 
L 755 1728 
C 646 1728 531 1728 531 1600 
C 531 1472 646 1472 755 1472 
L 4218 1472 
z
" transform="scale(0.015625)"/>
        <path id="URWPalladioL-Roma-33" d="M 275 3196 
L 474 3196 
L 589 3553 
C 659 3770 1062 3987 1395 3987 
C 1811 3987 2150 3649 2150 3247 
C 2150 2769 1773 2368 1318 2368 
C 1267 2368 1197 2374 1114 2380 
L 1018 2387 
L 941 2047 
L 986 2008 
C 1229 2118 1350 2150 1523 2150 
C 2054 2150 2362 1808 2362 1222 
C 2362 565 1971 134 1376 134 
C 1082 134 819 231 627 411 
C 474 553 390 701 269 1048 
L 96 984 
C 230 591 282 359 320 38 
C 659 -77 941 -128 1178 -128 
C 1690 -128 2278 160 2630 591 
C 2848 855 2957 1139 2957 1441 
C 2957 1750 2829 2021 2598 2182 
C 2438 2297 2291 2348 1971 2406 
C 2483 2801 2675 3094 2675 3470 
C 2675 4038 2202 4416 1491 4416 
C 1056 4416 768 4294 461 3987 
L 275 3196 
z
" transform="scale(0.015625)"/>
       </defs>
       <use xlink:href="#CMSY10-0" transform="scale(1.038107)"/>
       <use xlink:href="#URWPalladioL-Roma-33" transform="translate(81.941696 0)scale(0.996264)"/>
      </g>
     </g>
    </g>
    <g id="ytick_2">
     <g id="line2d_11">
      <path d="M 33.37303 182.755747 
L 337.873426 182.755747 
" clip-path="url(#pfee98fbca6)" style="fill: none; stroke: #b0b0b0; stroke-width: 0.8; stroke-linecap: square"/>
     </g>
     <g id="line2d_12">
      <g>
       <use xlink:href="#m542b066fc6" x="33.37303" y="182.755747" style="stroke: #000000; stroke-width: 0.8"/>
      </g>
     </g>
     <g id="text_6">
      <!-- $\mathdefault{−2}$ -->
      <g transform="translate(11.88 186.676271)scale(0.11 -0.11)">
       <defs>
        <path id="URWPalladioL-Roma-32" d="M 102 166 
L 102 0 
C 1299 0 1299 0 1530 0 
C 1760 19 1760 19 2995 0 
C 2982 134 2982 198 2982 287 
C 2982 370 2982 434 2995 574 
C 2259 542 1965 536 781 510 
L 1946 1741 
C 2566 2398 2758 2749 2758 3228 
C 2758 3961 2259 4416 1446 4416 
C 986 4416 672 4287 358 3967 
L 250 3100 
L 435 3100 
L 518 3394 
C 621 3763 851 3923 1280 3923 
C 1830 3923 2182 3578 2182 3036 
C 2182 2558 1914 2086 1190 1320 
L 102 166 
z
" transform="scale(0.015625)"/>
       </defs>
       <use xlink:href="#CMSY10-0" transform="scale(1.038107)"/>
       <use xlink:href="#URWPalladioL-Roma-32" transform="translate(81.941696 0)scale(0.996264)"/>
      </g>
     </g>
    </g>
    <g id="ytick_3">
     <g id="line2d_13">
      <path d="M 33.37303 149.895026 
L 337.873426 149.895026 
" clip-path="url(#pfee98fbca6)" style="fill: none; stroke: #b0b0b0; stroke-width: 0.8; stroke-linecap: square"/>
     </g>
     <g id="line2d_14">
      <g>
       <use xlink:href="#m542b066fc6" x="33.37303" y="149.895026" style="stroke: #000000; stroke-width: 0.8"/>
      </g>
     </g>
     <g id="text_7">
      <!-- $\mathdefault{−1}$ -->
      <g transform="translate(11.88 153.815551)scale(0.11 -0.11)">
       <defs>
        <path id="URWPalladioL-Roma-31" d="M 429 3571 
L 493 3571 
L 1318 3942 
C 1325 3949 1331 3949 1338 3949 
C 1376 3949 1389 3891 1389 3737 
L 1389 633 
C 1389 300 1318 230 973 211 
L 614 192 
L 614 0 
C 1600 0 1600 0 1670 0 
C 1754 0 1894 0 2112 -7 
C 2189 6 2413 6 2675 0 
L 2675 192 
L 2342 211 
C 1990 229 1926 299 1926 628 
L 1926 4383 
L 1837 4416 
C 1421 4199 966 4009 384 3807 
L 429 3571 
z
" transform="scale(0.015625)"/>
       </defs>
       <use xlink:href="#CMSY10-0" transform="scale(1.038107)"/>
       <use xlink:href="#URWPalladioL-Roma-31" transform="translate(81.941696 0)scale(0.996264)"/>
      </g>
     </g>
    </g>
    <g id="ytick_4">
     <g id="line2d_15">
      <path d="M 33.37303 117.034306 
L 337.873426 117.034306 
" clip-path="url(#pfee98fbca6)" style="fill: none; stroke: #b0b0b0; stroke-width: 0.8; stroke-linecap: square"/>
     </g>
     <g id="line2d_16">
      <g>
       <use xlink:href="#m542b066fc6" x="33.37303" y="117.034306" style="stroke: #000000; stroke-width: 0.8"/>
      </g>
     </g>
     <g id="text_8">
      <!-- $\mathdefault{0}$ -->
      <g transform="translate(20.893578 120.95483)scale(0.11 -0.11)">
       <defs>
        <path id="URWPalladioL-Roma-30" d="M 1683 4416 
C 691 4416 186 3628 186 2076 
C 186 1326 320 679 544 365 
C 768 51 1126 -128 1523 -128 
C 2490 -128 2976 704 2976 2345 
C 2976 3749 2560 4416 1683 4416 
z
M 1568 4191 
C 2189 4191 2438 3563 2438 2025 
C 2438 660 2195 96 1606 96 
C 986 96 723 743 723 2307 
C 723 3660 960 4191 1568 4191 
z
" transform="scale(0.015625)"/>
       </defs>
       <use xlink:href="#URWPalladioL-Roma-30" transform="scale(0.996264)"/>
      </g>
     </g>
    </g>
    <g id="ytick_5">
     <g id="line2d_17">
      <path d="M 33.37303 84.173585 
L 337.873426 84.173585 
" clip-path="url(#pfee98fbca6)" style="fill: none; stroke: #b0b0b0; stroke-width: 0.8; stroke-linecap: square"/>
     </g>
     <g id="line2d_18">
      <g>
       <use xlink:href="#m542b066fc6" x="33.37303" y="84.173585" style="stroke: #000000; stroke-width: 0.8"/>
      </g>
     </g>
     <g id="text_9">
      <!-- $\mathdefault{1}$ -->
      <g transform="translate(20.893578 88.09411)scale(0.11 -0.11)">
       <use xlink:href="#URWPalladioL-Roma-31" transform="scale(0.996264)"/>
      </g>
     </g>
    </g>
    <g id="ytick_6">
     <g id="line2d_19">
      <path d="M 33.37303 51.312865 
L 337.873426 51.312865 
" clip-path="url(#pfee98fbca6)" style="fill: none; stroke: #b0b0b0; stroke-width: 0.8; stroke-linecap: square"/>
     </g>
     <g id="line2d_20">
      <g>
       <use xlink:href="#m542b066fc6" x="33.37303" y="51.312865" style="stroke: #000000; stroke-width: 0.8"/>
      </g>
     </g>
     <g id="text_10">
      <!-- $\mathdefault{2}$ -->
      <g transform="translate(20.893578 55.233389)scale(0.11 -0.11)">
       <use xlink:href="#URWPalladioL-Roma-32" transform="scale(0.996264)"/>
      </g>
     </g>
    </g>
    <g id="ytick_7">
     <g id="line2d_21">
      <path d="M 33.37303 18.452144 
L 337.873426 18.452144 
" clip-path="url(#pfee98fbca6)" style="fill: none; stroke: #b0b0b0; stroke-width: 0.8; stroke-linecap: square"/>
     </g>
     <g id="line2d_22">
      <g>
       <use xlink:href="#m542b066fc6" x="33.37303" y="18.452144" style="stroke: #000000; stroke-width: 0.8"/>
      </g>
     </g>
     <g id="text_11">
      <!-- $\mathdefault{3}$ -->
      <g transform="translate(20.893578 22.372669)scale(0.11 -0.11)">
       <use xlink:href="#URWPalladioL-Roma-33" transform="scale(0.996264)"/>
      </g>
     </g>
    </g>
   </g>
   <g id="line2d_23">
    <path d="M 33.37303 221.758808 
L 36.730868 221.65724 
L 40.088706 221.352837 
L 43.446545 220.846504 
L 46.804383 220.139748 
L 50.162221 219.234689 
L 53.52006 218.134057 
L 56.877898 216.841207 
L 60.235736 215.360124 
L 64.712854 213.100645 
L 69.189972 210.527677 
L 73.667089 207.656274 
L 78.144207 204.503858 
L 82.621325 201.090458 
L 88.217722 196.491971 
L 93.814119 191.574223 
L 100.529796 185.340922 
L 110.603311 175.608175 
L 119.557546 167.054232 
L 124.034664 163.037444 
L 127.392502 160.239441 
L 130.750341 157.701258 
L 134.108179 155.505524 
L 136.346738 154.27878 
L 138.585297 153.277436 
L 140.823856 152.532489 
L 143.062414 152.071918 
L 145.300973 151.915908 
L 149.178271 151.785834 
L 153.055569 151.396133 
L 156.932866 150.748371 
L 160.810164 149.845155 
L 164.687462 148.690127 
L 168.56476 147.287962 
L 172.442057 145.644362 
L 176.319355 143.766069 
L 180.196653 141.660883 
L 184.720167 138.930047 
L 189.243681 135.919042 
L 193.767195 132.647771 
L 198.936925 128.625739 
L 207.983953 121.366669 
L 209.276385 120.718847 
L 209.922602 120.618967 
L 211.215034 121.003622 
L 212.507467 121.898989 
L 215.092332 124.199497 
L 218.96963 128.022639 
L 225.431793 134.75483 
L 234.478821 144.570332 
L 261.619904 174.347397 
L 269.3745 182.357552 
L 275.836663 188.686556 
L 281.006393 193.472847 
L 286.176123 197.976422 
L 291.345854 202.165637 
L 296.515584 206.011064 
L 300.392882 208.653182 
L 304.270179 211.076237 
L 308.147477 213.270657 
L 312.024775 215.227776 
L 315.902072 216.939861 
L 319.77937 218.400152 
L 323.656668 219.602881 
L 327.533965 220.543299 
L 331.411263 221.217691 
L 335.288561 221.623395 
L 337.873426 221.743757 
L 337.873426 221.743757 
" clip-path="url(#pfee98fbca6)" style="fill: none; stroke-dasharray: 6.66,2.88; stroke-dashoffset: 0; stroke: #1f77b4; stroke-width: 1.8"/>
   </g>
   <g id="line2d_24">
    <path d="M 33.37303 209.47443 
L 36.730868 209.381447 
L 40.088706 209.102771 
L 43.446545 208.639231 
L 46.804383 207.992211 
L 50.162221 207.163658 
L 53.52006 206.156087 
L 57.997177 204.539625 
L 62.474295 202.619487 
L 66.951413 200.406656 
L 71.428531 197.914227 
L 75.905648 195.157585 
L 80.382766 192.154662 
L 85.979163 188.086732 
L 91.57556 183.715151 
L 98.291237 178.152461 
L 108.364752 169.44474 
L 117.318987 161.808614 
L 121.796105 158.246002 
L 125.153943 155.77985 
L 128.511782 153.555929 
L 131.86962 151.638531 
L 134.108179 150.561831 
L 136.346738 149.665563 
L 138.585297 148.961974 
L 140.823856 148.45824 
L 143.062414 148.15659 
L 145.94719 148.052702 
L 149.824487 147.880772 
L 153.701785 147.45162 
L 157.579083 146.766972 
L 161.45638 145.829588 
L 165.333678 144.643252 
L 169.210976 143.212778 
L 173.088274 141.544 
L 176.965571 139.64379 
L 180.842869 137.520085 
L 185.366383 134.772154 
L 189.889897 131.749264 
L 194.413411 128.472045 
L 199.583141 124.453301 
L 207.983953 117.793003 
L 209.276385 117.148887 
L 209.922602 117.034306 
L 211.215034 117.33859 
L 212.507467 118.123588 
L 215.092332 120.19745 
L 218.96963 123.680262 
L 225.431793 129.833457 
L 234.478821 138.814334 
L 261.619904 166.070831 
L 269.3745 173.403676 
L 275.836663 179.197602 
L 281.006393 183.579278 
L 286.176123 187.70216 
L 291.345854 191.53727 
L 296.515584 195.057665 
L 301.685314 198.238616 
L 305.562612 200.388037 
L 309.439909 202.325412 
L 313.317207 204.043088 
L 317.194505 205.534278 
L 321.071803 206.793094 
L 324.9491 207.814562 
L 328.826398 208.59465 
L 332.703696 209.130275 
L 336.580993 209.419323 
L 337.873426 209.460652 
L 337.873426 209.460652 
" clip-path="url(#pfee98fbca6)" style="fill: none; stroke-dasharray: 6.66,2.88; stroke-dashoffset: 0; stroke: #1f77b4; stroke-width: 1.8"/>
   </g>
   <g id="line2d_25">
    <path d="M 33.37303 19.825294 
L 36.730868 19.922983 
L 40.088706 20.215762 
L 43.446545 20.70276 
L 46.804383 21.382525 
L 50.162221 22.253019 
L 53.52006 23.311611 
L 56.877898 24.555067 
L 61.355016 26.493831 
L 65.832133 28.743436 
L 70.309251 31.290875 
L 74.786369 34.120855 
L 79.263487 37.215561 
L 83.740604 40.554311 
L 89.337002 45.033945 
L 94.933399 49.800949 
L 102.768355 56.82249 
L 118.438267 71.009564 
L 122.915385 74.715205 
L 126.273223 77.254683 
L 129.631061 79.513155 
L 131.86962 80.825834 
L 134.108179 81.957888 
L 136.346738 82.888342 
L 138.585297 83.600145 
L 140.823856 84.084377 
L 143.062414 84.348633 
L 147.239622 84.460908 
L 150.470704 84.667462 
L 153.701785 85.061206 
L 157.579083 85.779207 
L 161.45638 86.762265 
L 165.333678 88.006417 
L 169.210976 89.50663 
L 173.088274 91.256802 
L 176.965571 93.249752 
L 180.842869 95.477199 
L 185.366383 98.359562 
L 189.889897 101.530715 
L 194.413411 104.969424 
L 199.583141 109.188469 
L 207.983953 116.215965 
L 209.276385 116.910732 
L 209.922602 117.034306 
L 211.215034 116.697466 
L 212.507467 115.850469 
L 215.092332 113.648275 
L 218.96963 109.97622 
L 225.431793 103.504 
L 234.478821 94.064775 
L 261.619904 65.425947 
L 269.3745 57.721774 
L 275.836663 51.63451 
L 281.006393 47.031024 
L 286.176123 42.69945 
L 291.345854 38.670226 
L 296.515584 34.971656 
L 300.392882 32.430439 
L 304.270179 30.099918 
L 308.147477 27.989299 
L 312.024775 26.10692 
L 315.902072 24.460216 
L 319.77937 23.055691 
L 323.656668 21.898891 
L 327.533965 20.994386 
L 331.411263 20.345747 
L 335.288561 19.955536 
L 337.873426 19.83977 
L 337.873426 19.83977 
" clip-path="url(#pfee98fbca6)" style="fill: none; stroke-dasharray: 6.66,2.88; stroke-dashoffset: 0; stroke: #1f77b4; stroke-width: 1.8"/>
   </g>
   <g id="line2d_26">
    <path d="M 33.37303 17.07869 
L 36.730868 17.175552 
L 40.088706 17.465853 
L 43.446545 17.948728 
L 46.804383 18.622738 
L 50.162221 19.485856 
L 53.52006 20.535467 
L 56.877898 21.768353 
L 61.355016 23.690584 
L 65.832133 25.920917 
L 70.309251 28.446434 
L 74.786369 31.252007 
L 79.263487 34.320133 
L 83.740604 37.630704 
L 89.337002 42.074442 
L 94.933399 46.808135 
L 101.649075 52.781593 
L 122.915385 72.005645 
L 127.392502 75.589046 
L 130.750341 78.005673 
L 134.108179 80.11198 
L 136.346738 81.304538 
L 138.585297 82.297668 
L 140.823856 83.062116 
L 143.062414 83.560082 
L 145.300973 83.737941 
L 149.178271 83.861734 
L 153.055569 84.232615 
L 156.932866 84.84909 
L 160.810164 85.708675 
L 164.687462 86.807896 
L 168.56476 88.142292 
L 172.442057 89.706421 
L 176.319355 91.493841 
L 180.842869 93.851369 
L 185.366383 96.488869 
L 189.889897 99.390116 
L 195.059627 103.002857 
L 200.229357 106.889006 
L 207.983953 112.761585 
L 209.276385 113.358756 
L 209.922602 113.449644 
L 211.215034 113.097544 
L 212.507467 112.264177 
L 215.092332 110.092001 
L 218.96963 106.458101 
L 225.431793 100.044935 
L 234.478821 90.687782 
L 261.619904 62.293047 
L 269.3745 54.654221 
L 275.836663 48.618554 
L 281.006393 44.054073 
L 286.176123 39.759191 
L 291.345854 35.76409 
L 296.515584 32.096838 
L 300.392882 29.577137 
L 304.270179 27.266345 
L 308.147477 25.173594 
L 312.024775 23.307149 
L 315.902072 21.674383 
L 319.77937 20.281746 
L 323.656668 19.134737 
L 327.533965 18.237887 
L 331.411263 17.594738 
L 335.288561 17.207829 
L 337.873426 17.093043 
L 337.873426 17.093043 
" clip-path="url(#pfee98fbca6)" style="fill: none; stroke-dasharray: 6.66,2.88; stroke-dashoffset: 0; stroke: #1f77b4; stroke-width: 1.8"/>
   </g>
   <g id="line2d_27">
    <path d="M 33.37303 218.718674 
L 36.730868 218.629502 
L 40.088706 218.362119 
L 43.446545 217.916926 
L 46.804383 217.294607 
L 50.162221 216.496138 
L 53.52006 215.522822 
L 57.997177 213.955993 
L 62.474295 212.086326 
L 66.951413 209.920269 
L 71.428531 207.465934 
L 75.905648 204.733373 
L 80.382766 201.73491 
L 84.859884 198.485537 
L 90.456281 194.098995 
L 96.052678 189.393083 
L 102.768355 183.40431 
L 111.72259 175.058418 
L 121.796105 165.714608 
L 126.273223 161.828981 
L 129.631061 159.136528 
L 132.9889 156.718328 
L 135.227458 155.305056 
L 137.466017 154.090289 
L 139.704576 153.114303 
L 141.943135 152.422815 
L 144.181694 152.061522 
L 151.763136 151.651776 
L 155.640434 151.085817 
L 159.517732 150.261864 
L 163.395029 149.183514 
L 167.272327 147.85547 
L 171.149625 146.283512 
L 175.026922 144.474484 
L 178.90422 142.436285 
L 183.427734 139.780777 
L 187.951248 136.841909 
L 192.474762 133.638851 
L 197.644492 129.686465 
L 204.106655 124.416609 
L 207.337737 121.838096 
L 208.630169 121.004232 
L 209.276385 120.73015 
L 209.922602 120.626969 
L 211.215034 121.031795 
L 212.507467 121.974618 
L 215.092332 124.383545 
L 220.262062 129.728459 
L 228.016658 138.154004 
L 256.450174 169.489129 
L 262.912337 176.188773 
L 269.3745 182.572798 
L 274.54423 187.410019 
L 279.71396 191.975374 
L 284.883691 196.24252 
L 290.053421 200.188014 
L 295.223151 203.79127 
L 299.100449 206.258296 
L 302.977747 208.516189 
L 306.855044 210.559201 
L 310.732342 212.38233 
L 314.60964 213.981286 
L 318.486937 215.352439 
L 322.364235 216.492779 
L 326.241533 217.399878 
L 330.118831 218.071854 
L 333.996128 218.507339 
L 337.873426 218.705462 
L 337.873426 218.705462 
" clip-path="url(#pfee98fbca6)" style="fill: none; stroke: #ff7f0e; stroke-width: 1.2; stroke-linecap: square"/>
   </g>
   <g id="line2d_28">
    <path d="M 33.37303 212.514721 
L 36.730868 212.409355 
L 40.088706 212.093702 
L 43.446545 211.56909 
L 46.804383 210.837731 
L 50.162221 209.902711 
L 53.52006 208.767976 
L 56.877898 207.438329 
L 60.235736 205.919413 
L 64.712854 203.611087 
L 69.189972 200.99554 
L 73.667089 198.093059 
L 78.144207 194.926649 
L 82.621325 191.522213 
L 88.217722 186.976643 
L 94.933399 181.184141 
L 103.887634 173.117436 
L 113.961149 164.083561 
L 119.557546 159.397817 
L 122.915385 156.815358 
L 126.273223 154.475144 
L 129.631061 152.441488 
L 131.86962 151.287941 
L 134.108179 150.315968 
L 136.346738 149.5375 
L 138.585297 148.956555 
L 140.823856 148.566074 
L 143.062414 148.347495 
L 152.409352 147.843496 
L 156.28665 147.241502 
L 160.163948 146.384688 
L 164.041246 145.276416 
L 167.918543 143.921061 
L 171.795841 142.324014 
L 175.673139 140.4917 
L 179.550436 138.431605 
L 184.07395 135.751852 
L 188.597464 132.789843 
L 193.120978 129.564945 
L 198.290709 125.591256 
L 208.630169 117.461488 
L 209.276385 117.175053 
L 209.922602 117.034306 
L 211.215034 117.267966 
L 212.507467 117.985294 
L 215.092332 119.945148 
L 218.96963 123.280415 
L 224.13936 128.012464 
L 230.601523 134.200976 
L 239.648551 143.20129 
L 270.666932 174.43311 
L 277.129095 180.496223 
L 283.591258 186.233637 
L 288.760988 190.538549 
L 293.930719 194.54975 
L 299.100449 198.231707 
L 302.977747 200.756932 
L 306.855044 203.064998 
L 310.732342 205.14373 
L 314.60964 206.982021 
L 318.486937 208.569933 
L 322.364235 209.898796 
L 326.241533 210.961289 
L 330.118831 211.751521 
L 333.996128 212.265085 
L 337.873426 212.499107 
L 337.873426 212.499107 
" clip-path="url(#pfee98fbca6)" style="fill: none; stroke: #ff7f0e; stroke-width: 1.2; stroke-linecap: square"/>
   </g>
   <g id="line2d_29">
    <path d="M 33.37303 19.009597 
L 36.730868 19.110659 
L 40.088706 19.413502 
L 43.446545 19.917109 
L 46.804383 20.619831 
L 50.162221 21.519429 
L 53.52006 22.613114 
L 56.877898 23.897562 
L 60.235736 25.368906 
L 64.712854 27.613652 
L 69.189972 30.170369 
L 73.667089 33.024433 
L 78.144207 36.158529 
L 82.621325 39.552183 
L 88.217722 44.121993 
L 93.814119 49.002002 
L 100.529796 55.16603 
L 118.438267 71.879437 
L 122.915385 75.668866 
L 126.273223 78.25691 
L 129.631061 80.55382 
L 132.9889 82.491314 
L 135.227458 83.55223 
L 137.466017 84.411235 
L 139.704576 85.058762 
L 141.943135 85.490428 
L 144.181694 85.705799 
L 150.470704 85.935089 
L 154.348001 86.351903 
L 158.225299 86.99436 
L 162.102597 87.860269 
L 165.979894 88.946671 
L 169.857192 90.24985 
L 173.73449 91.765325 
L 178.258004 93.794636 
L 182.781518 96.095935 
L 187.305032 98.657656 
L 188.597464 99.511843 
L 193.120978 103.100393 
L 198.290709 107.507812 
L 208.630169 116.547718 
L 209.276385 116.8765 
L 209.922602 117.034306 
L 211.215034 116.738431 
L 212.507467 115.904044 
L 215.092332 113.709863 
L 218.96963 110.046653 
L 225.431793 103.590135 
L 234.478821 94.169683 
L 264.20477 62.848505 
L 270.666932 56.45243 
L 277.129095 50.361968 
L 282.298826 45.755629 
L 287.468556 41.422224 
L 292.638286 37.393789 
L 297.808016 33.700523 
L 301.685314 31.167502 
L 305.562612 28.849812 
L 309.439909 26.75757 
L 313.317207 24.899993 
L 317.194505 23.285324 
L 321.071803 21.920783 
L 324.9491 20.812504 
L 328.826398 19.965499 
L 332.703696 19.383612 
L 336.580993 19.069492 
L 337.873426 19.024572 
L 337.873426 19.024572 
" clip-path="url(#pfee98fbca6)" style="fill: none; stroke: #ff7f0e; stroke-width: 1.2; stroke-linecap: square"/>
   </g>
   <g id="line2d_30">
    <path d="M 33.37303 17.89423 
L 36.730868 17.987706 
L 40.088706 18.2679 
L 43.446545 18.734097 
L 46.804383 19.385053 
L 50.162221 20.218944 
L 53.52006 21.23331 
L 57.997177 22.861027 
L 62.474295 24.794616 
L 66.951413 27.022573 
L 71.428531 29.531248 
L 75.905648 32.304876 
L 80.382766 35.32554 
L 85.979163 39.417755 
L 91.57556 43.819032 
L 98.291237 49.433242 
L 106.126193 56.297497 
L 119.557546 68.139835 
L 124.034664 71.834628 
L 128.511782 75.223493 
L 131.86962 77.47136 
L 135.227458 79.377868 
L 137.466017 80.413209 
L 139.704576 81.225725 
L 141.943135 81.787201 
L 144.181694 82.074564 
L 150.470704 82.371336 
L 153.701785 82.797968 
L 156.932866 83.425972 
L 160.163948 84.253293 
L 163.395029 85.277219 
L 167.272327 86.760673 
L 171.149625 88.515334 
L 175.026922 90.532845 
L 178.90422 92.803527 
L 182.781518 95.316349 
L 187.305032 98.537274 
L 188.597464 99.435526 
L 193.120978 102.310863 
L 198.290709 105.865205 
L 208.630169 113.123784 
L 209.276385 113.355519 
L 209.922602 113.441642 
L 211.215034 113.099029 
L 212.507467 112.273267 
L 215.092332 110.098666 
L 218.96963 106.448752 
L 225.431793 100.004916 
L 234.478821 90.611665 
L 259.035039 64.853556 
L 266.789635 57.147373 
L 273.251798 51.043867 
L 278.421528 46.417408 
L 283.591258 42.053153 
L 288.760988 37.980393 
L 293.930719 34.225996 
L 299.100449 30.814303 
L 302.977747 28.493605 
L 306.855044 26.38615 
L 310.732342 24.499285 
L 314.60964 22.839513 
L 318.486937 21.41249 
L 322.364235 20.223036 
L 326.241533 19.27513 
L 330.118831 18.571924 
L 333.996128 18.11574 
L 337.873426 17.908081 
L 337.873426 17.908081 
" clip-path="url(#pfee98fbca6)" style="fill: none; stroke: #ff7f0e; stroke-width: 1.2; stroke-linecap: square"/>
   </g>
   <g id="patch_3">
    <path d="M 33.37303 222.188611 
L 33.37303 11.88 
" style="fill: none; stroke: #000000; stroke-width: 0.8; stroke-linejoin: miter; stroke-linecap: square"/>
   </g>
   <g id="patch_4">
    <path d="M 337.873426 222.188611 
L 337.873426 11.88 
" style="fill: none; stroke: #000000; stroke-width: 0.8; stroke-linejoin: miter; stroke-linecap: square"/>
   </g>
   <g id="patch_5">
    <path d="M 33.37303 222.188611 
L 337.873426 222.188611 
" style="fill: none; stroke: #000000; stroke-width: 0.8; stroke-linejoin: miter; stroke-linecap: square"/>
   </g>
   <g id="patch_6">
    <path d="M 33.37303 11.88 
L 337.873426 11.88 
" style="fill: none; stroke: #000000; stroke-width: 0.8; stroke-linejoin: miter; stroke-linecap: square"/>
   </g>
  </g>
 </g>
 <defs>
  <clipPath id="pfee98fbca6">
   <rect x="33.37303" y="11.88" width="304.500396" height="210.308611"/>
  </clipPath>
 </defs>
</svg>
