<?xml version="1.0" encoding="utf-8" standalone="no"?>
<!DOCTYPE svg PUBLIC "-//W3C//DTD SVG 1.1//EN"
  "http://www.w3.org/Graphics/SVG/1.1/DTD/svg11.dtd">
<svg xmlns:xlink="http://www.w3.org/1999/xlink" width="352.8pt" height="252pt" viewBox="0 0 352.8 252" xmlns="http://www.w3.org/2000/svg" version="1.1">
 <metadata>
  <rdf:RDF xmlns:dc="http://purl.org/dc/elements/1.1/" xmlns:cc="http://creativecommons.org/ns#" xmlns:rdf="http://www.w3.org/1999/02/22-rdf-syntax-ns#">
   <cc:Work>
    <dc:type rdf:resource="http://purl.org/dc/dcmitype/StillImage"/>
    <dc:date>2022-11-03T03:36:33.511741</dc:date>
    <dc:format>image/svg+xml</dc:format>
    <dc:creator>
     <cc:Agent>
      <dc:title>Matplotlib v3.5.2, https://matplotlib.org/</dc:title>
     </cc:Agent>
    </dc:creator>
   </cc:Work>
  </rdf:RDF>
 </metadata>
 <defs>
  <style type="text/css">*{stroke-linejoin: round; stroke-linecap: butt}</style>
 </defs>
 <g id="figure_1">
  <g id="patch_1">
   <path d="M 0 252 
L 352.8 252 
L 352.8 0 
L 0 0 
z
" style="fill: #ffffff"/>
  </g>
  <g id="axes_1">
   <g id="patch_2">
    <path d="M 48.792183 222.188611 
L 337.873426 222.188611 
L 337.873426 11.88 
L 48.792183 11.88 
z
" style="fill: #ffffff"/>
   </g>
   <g id="matplotlib.axis_1">
    <g id="xtick_1">
     <g id="line2d_1">
      <path d="M 48.792183 222.188611 
L 48.792183 11.88 
" clip-path="url(#pf5b5dfdb1c)" style="fill: none; stroke: #b0b0b0; stroke-opacity: 0.5; stroke-width: 0.8; stroke-linecap: square"/>
     </g>
     <g id="line2d_2">
      <defs>
       <path id="mc87dea6184" d="M 0 0 
L 0 3.5 
" style="stroke: #000000; stroke-width: 0.8"/>
      </defs>
      <g>
       <use xlink:href="#mc87dea6184" x="48.792183" y="222.188611" style="stroke: #000000; stroke-width: 0.8"/>
      </g>
     </g>
     <g id="text_1">
      <!-- $\mathbf{\Gamma}$ -->
      <g transform="translate(45.745609 237.02966)scale(0.11 -0.11)">
       <defs>
        <path id="PazoMath-Bold-47" d="M 1626 3962 
C 1978 3981 2131 3981 2368 3981 
C 2803 3981 3072 3936 3078 3860 
L 3130 3383 
L 3360 3383 
L 3450 4287 
L 3411 4332 
C 3174 4345 3046 4352 2803 4352 
L 2477 4352 
C 1498 4352 1498 4332 1325 4332 
C 1088 4332 813 4339 179 4352 
L 179 4115 
L 416 4095 
C 704 4070 723 4032 723 3472 
L 723 879 
C 723 313 717 300 416 275 
L 179 256 
L 179 0 
C 717 -7 947 0 1171 0 
C 1389 19 1632 12 2234 0 
L 2234 256 
L 1933 275 
C 1638 294 1626 319 1626 879 
L 1626 3962 
z
" transform="scale(0.015625)"/>
       </defs>
       <use xlink:href="#PazoMath-Bold-47" transform="scale(0.996264)"/>
      </g>
     </g>
    </g>
    <g id="xtick_2">
     <g id="line2d_3">
      <path d="M 155.05237 222.188611 
L 155.05237 11.88 
" clip-path="url(#pf5b5dfdb1c)" style="fill: none; stroke: #b0b0b0; stroke-opacity: 0.5; stroke-width: 0.8; stroke-linecap: square"/>
     </g>
     <g id="line2d_4">
      <g>
       <use xlink:href="#mc87dea6184" x="155.05237" y="222.188611" style="stroke: #000000; stroke-width: 0.8"/>
      </g>
     </g>
     <g id="text_2">
      <!-- $\mathbf{M}$ -->
      <g transform="translate(149.572918 237.02966)scale(0.11 -0.11)">
       <defs>
        <path id="URWPalladioL-Bold-4d" d="M 4749 3545 
L 4749 883 
C 4749 313 4742 300 4442 275 
L 4205 256 
L 4205 0 
C 4979 0 4979 0 5197 0 
C 5414 19 5421 19 6195 0 
L 6195 256 
L 5958 275 
C 5658 300 5651 313 5651 879 
L 5651 3472 
C 5651 4032 5670 4070 5958 4095 
L 6195 4115 
L 6195 4352 
C 5523 4332 5523 4332 5453 4332 
C 5382 4332 5382 4332 4717 4352 
C 4531 3911 4474 3778 4403 3631 
L 3232 1228 
L 2221 3326 
C 2144 3485 2016 3752 1741 4352 
L 973 4332 
C 870 4332 723 4339 531 4345 
C 435 4345 429 4345 205 4352 
L 205 4115 
L 442 4095 
C 730 4070 749 4032 749 3472 
L 749 879 
C 749 319 730 281 442 256 
L 205 236 
L 205 0 
C 819 0 819 0 941 0 
C 1069 19 1363 12 1670 0 
L 1670 236 
L 1434 256 
C 1146 281 1126 313 1126 883 
L 1126 3552 
L 2598 486 
C 2643 371 2714 217 2829 -64 
L 3046 -64 
C 3168 230 3194 294 3430 780 
L 4749 3545 
z
" transform="scale(0.015625)"/>
       </defs>
       <use xlink:href="#URWPalladioL-Bold-4d" transform="scale(0.996264)"/>
      </g>
     </g>
    </g>
    <g id="xtick_3">
     <g id="line2d_5">
      <path d="M 216.401718 222.188611 
L 216.401718 11.88 
" clip-path="url(#pf5b5dfdb1c)" style="fill: none; stroke: #b0b0b0; stroke-opacity: 0.5; stroke-width: 0.8; stroke-linecap: square"/>
     </g>
     <g id="line2d_6">
      <g>
       <use xlink:href="#mc87dea6184" x="216.401718" y="222.188611" style="stroke: #000000; stroke-width: 0.8"/>
      </g>
     </g>
     <g id="text_3">
      <!-- $\mathbf{K}$ -->
      <g transform="translate(212.138758 237.02966)scale(0.11 -0.11)">
       <defs>
        <path id="URWPalladioL-Bold-4b" d="M 1696 2201 
L 1696 3472 
C 1696 4038 1702 4051 2003 4076 
L 2240 4095 
L 2240 4352 
C 1459 4332 1459 4332 1242 4332 
C 1024 4332 1018 4332 250 4352 
L 250 4095 
L 486 4076 
C 787 4051 794 4038 794 3472 
L 794 879 
C 794 313 787 300 486 275 
L 250 256 
L 250 0 
C 1024 0 1024 0 1242 0 
C 1459 19 1466 19 2240 0 
L 2240 256 
L 2003 275 
C 1702 300 1696 313 1696 883 
L 1696 2144 
C 1862 2048 1888 2022 2253 1593 
L 3584 0 
L 4237 0 
C 4282 0 4339 0 4666 -13 
C 4698 6 4774 6 4883 0 
L 4883 262 
C 4646 268 4499 351 4301 580 
L 2598 2570 
L 4019 3886 
C 4173 4025 4320 4070 4723 4102 
L 4723 4352 
C 4352 4339 4237 4332 4141 4332 
C 4045 4332 3930 4339 3558 4352 
L 3558 4191 
C 3558 4095 3526 4038 3392 3898 
C 3386 3886 3360 3854 3328 3822 
C 3168 3644 3014 3485 2957 3428 
L 1696 2201 
z
" transform="scale(0.015625)"/>
       </defs>
       <use xlink:href="#URWPalladioL-Bold-4b" transform="scale(0.996264)"/>
      </g>
     </g>
    </g>
    <g id="xtick_4">
     <g id="line2d_7">
      <path d="M 337.873426 222.188611 
L 337.873426 11.88 
" clip-path="url(#pf5b5dfdb1c)" style="fill: none; stroke: #b0b0b0; stroke-opacity: 0.5; stroke-width: 0.8; stroke-linecap: square"/>
     </g>
     <g id="line2d_8">
      <g>
       <use xlink:href="#mc87dea6184" x="337.873426" y="222.188611" style="stroke: #000000; stroke-width: 0.8"/>
      </g>
     </g>
     <g id="text_4">
      <!-- $\mathbf{\Gamma}$ -->
      <g transform="translate(334.826852 237.02966)scale(0.11 -0.11)">
       <use xlink:href="#PazoMath-Bold-47" transform="scale(0.996264)"/>
      </g>
     </g>
    </g>
   </g>
   <g id="matplotlib.axis_2">
    <g id="ytick_1">
     <g id="line2d_9">
      <path d="M 48.792183 215.616467 
L 337.873426 215.616467 
" clip-path="url(#pf5b5dfdb1c)" style="fill: none; stroke: #b0b0b0; stroke-opacity: 0.5; stroke-width: 0.8; stroke-linecap: square"/>
     </g>
     <g id="line2d_10">
      <defs>
       <path id="m0b5acbcbc9" d="M 0 0 
L -3.5 0 
" style="stroke: #000000; stroke-width: 0.8"/>
      </defs>
      <g>
       <use xlink:href="#m0b5acbcbc9" x="48.792183" y="215.616467" style="stroke: #000000; stroke-width: 0.8"/>
      </g>
     </g>
     <g id="text_5">
      <!-- $\mathdefault{−3}$ -->
      <g transform="translate(27.299153 219.536991)scale(0.11 -0.11)">
       <defs>
        <path id="CMSY10-0" d="M 4218 1472 
C 4326 1472 4442 1472 4442 1600 
C 4442 1728 4326 1728 4218 1728 
L 755 1728 
C 646 1728 531 1728 531 1600 
C 531 1472 646 1472 755 1472 
L 4218 1472 
z
" transform="scale(0.015625)"/>
        <path id="URWPalladioL-Roma-33" d="M 275 3196 
L 474 3196 
L 589 3553 
C 659 3770 1062 3987 1395 3987 
C 1811 3987 2150 3649 2150 3247 
C 2150 2769 1773 2368 1318 2368 
C 1267 2368 1197 2374 1114 2380 
L 1018 2387 
L 941 2047 
L 986 2008 
C 1229 2118 1350 2150 1523 2150 
C 2054 2150 2362 1808 2362 1222 
C 2362 565 1971 134 1376 134 
C 1082 134 819 231 627 411 
C 474 553 390 701 269 1048 
L 96 984 
C 230 591 282 359 320 38 
C 659 -77 941 -128 1178 -128 
C 1690 -128 2278 160 2630 591 
C 2848 855 2957 1139 2957 1441 
C 2957 1750 2829 2021 2598 2182 
C 2438 2297 2291 2348 1971 2406 
C 2483 2801 2675 3094 2675 3470 
C 2675 4038 2202 4416 1491 4416 
C 1056 4416 768 4294 461 3987 
L 275 3196 
z
" transform="scale(0.015625)"/>
       </defs>
       <use xlink:href="#CMSY10-0" transform="scale(1.038107)"/>
       <use xlink:href="#URWPalladioL-Roma-33" transform="translate(81.941696 0)scale(0.996264)"/>
      </g>
     </g>
    </g>
    <g id="ytick_2">
     <g id="line2d_11">
      <path d="M 48.792183 182.755747 
L 337.873426 182.755747 
" clip-path="url(#pf5b5dfdb1c)" style="fill: none; stroke: #b0b0b0; stroke-opacity: 0.5; stroke-width: 0.8; stroke-linecap: square"/>
     </g>
     <g id="line2d_12">
      <g>
       <use xlink:href="#m0b5acbcbc9" x="48.792183" y="182.755747" style="stroke: #000000; stroke-width: 0.8"/>
      </g>
     </g>
     <g id="text_6">
      <!-- $\mathdefault{−2}$ -->
      <g transform="translate(27.299153 186.676271)scale(0.11 -0.11)">
       <defs>
        <path id="URWPalladioL-Roma-32" d="M 102 166 
L 102 0 
C 1299 0 1299 0 1530 0 
C 1760 19 1760 19 2995 0 
C 2982 134 2982 198 2982 287 
C 2982 370 2982 434 2995 574 
C 2259 542 1965 536 781 510 
L 1946 1741 
C 2566 2398 2758 2749 2758 3228 
C 2758 3961 2259 4416 1446 4416 
C 986 4416 672 4287 358 3967 
L 250 3100 
L 435 3100 
L 518 3394 
C 621 3763 851 3923 1280 3923 
C 1830 3923 2182 3578 2182 3036 
C 2182 2558 1914 2086 1190 1320 
L 102 166 
z
" transform="scale(0.015625)"/>
       </defs>
       <use xlink:href="#CMSY10-0" transform="scale(1.038107)"/>
       <use xlink:href="#URWPalladioL-Roma-32" transform="translate(81.941696 0)scale(0.996264)"/>
      </g>
     </g>
    </g>
    <g id="ytick_3">
     <g id="line2d_13">
      <path d="M 48.792183 149.895026 
L 337.873426 149.895026 
" clip-path="url(#pf5b5dfdb1c)" style="fill: none; stroke: #b0b0b0; stroke-opacity: 0.5; stroke-width: 0.8; stroke-linecap: square"/>
     </g>
     <g id="line2d_14">
      <g>
       <use xlink:href="#m0b5acbcbc9" x="48.792183" y="149.895026" style="stroke: #000000; stroke-width: 0.8"/>
      </g>
     </g>
     <g id="text_7">
      <!-- $\mathdefault{−1}$ -->
      <g transform="translate(27.299153 153.815551)scale(0.11 -0.11)">
       <defs>
        <path id="URWPalladioL-Roma-31" d="M 429 3571 
L 493 3571 
L 1318 3942 
C 1325 3949 1331 3949 1338 3949 
C 1376 3949 1389 3891 1389 3737 
L 1389 633 
C 1389 300 1318 230 973 211 
L 614 192 
L 614 0 
C 1600 0 1600 0 1670 0 
C 1754 0 1894 0 2112 -7 
C 2189 6 2413 6 2675 0 
L 2675 192 
L 2342 211 
C 1990 229 1926 299 1926 628 
L 1926 4383 
L 1837 4416 
C 1421 4199 966 4009 384 3807 
L 429 3571 
z
" transform="scale(0.015625)"/>
       </defs>
       <use xlink:href="#CMSY10-0" transform="scale(1.038107)"/>
       <use xlink:href="#URWPalladioL-Roma-31" transform="translate(81.941696 0)scale(0.996264)"/>
      </g>
     </g>
    </g>
    <g id="ytick_4">
     <g id="line2d_15">
      <path d="M 48.792183 117.034306 
L 337.873426 117.034306 
" clip-path="url(#pf5b5dfdb1c)" style="fill: none; stroke: #b0b0b0; stroke-opacity: 0.5; stroke-width: 0.8; stroke-linecap: square"/>
     </g>
     <g id="line2d_16">
      <g>
       <use xlink:href="#m0b5acbcbc9" x="48.792183" y="117.034306" style="stroke: #000000; stroke-width: 0.8"/>
      </g>
     </g>
     <g id="text_8">
      <!-- $\mathdefault{0}$ -->
      <g transform="translate(36.312731 120.95483)scale(0.11 -0.11)">
       <defs>
        <path id="URWPalladioL-Roma-30" d="M 1683 4416 
C 691 4416 186 3628 186 2076 
C 186 1326 320 679 544 365 
C 768 51 1126 -128 1523 -128 
C 2490 -128 2976 704 2976 2345 
C 2976 3749 2560 4416 1683 4416 
z
M 1568 4191 
C 2189 4191 2438 3563 2438 2025 
C 2438 660 2195 96 1606 96 
C 986 96 723 743 723 2307 
C 723 3660 960 4191 1568 4191 
z
" transform="scale(0.015625)"/>
       </defs>
       <use xlink:href="#URWPalladioL-Roma-30" transform="scale(0.996264)"/>
      </g>
     </g>
    </g>
    <g id="ytick_5">
     <g id="line2d_17">
      <path d="M 48.792183 84.173585 
L 337.873426 84.173585 
" clip-path="url(#pf5b5dfdb1c)" style="fill: none; stroke: #b0b0b0; stroke-opacity: 0.5; stroke-width: 0.8; stroke-linecap: square"/>
     </g>
     <g id="line2d_18">
      <g>
       <use xlink:href="#m0b5acbcbc9" x="48.792183" y="84.173585" style="stroke: #000000; stroke-width: 0.8"/>
      </g>
     </g>
     <g id="text_9">
      <!-- $\mathdefault{1}$ -->
      <g transform="translate(36.312731 88.09411)scale(0.11 -0.11)">
       <use xlink:href="#URWPalladioL-Roma-31" transform="scale(0.996264)"/>
      </g>
     </g>
    </g>
    <g id="ytick_6">
     <g id="line2d_19">
      <path d="M 48.792183 51.312865 
L 337.873426 51.312865 
" clip-path="url(#pf5b5dfdb1c)" style="fill: none; stroke: #b0b0b0; stroke-opacity: 0.5; stroke-width: 0.8; stroke-linecap: square"/>
     </g>
     <g id="line2d_20">
      <g>
       <use xlink:href="#m0b5acbcbc9" x="48.792183" y="51.312865" style="stroke: #000000; stroke-width: 0.8"/>
      </g>
     </g>
     <g id="text_10">
      <!-- $\mathdefault{2}$ -->
      <g transform="translate(36.312731 55.233389)scale(0.11 -0.11)">
       <use xlink:href="#URWPalladioL-Roma-32" transform="scale(0.996264)"/>
      </g>
     </g>
    </g>
    <g id="ytick_7">
     <g id="line2d_21">
      <path d="M 48.792183 18.452144 
L 337.873426 18.452144 
" clip-path="url(#pf5b5dfdb1c)" style="fill: none; stroke: #b0b0b0; stroke-opacity: 0.5; stroke-width: 0.8; stroke-linecap: square"/>
     </g>
     <g id="line2d_22">
      <g>
       <use xlink:href="#m0b5acbcbc9" x="48.792183" y="18.452144" style="stroke: #000000; stroke-width: 0.8"/>
      </g>
     </g>
     <g id="text_11">
      <!-- $\mathdefault{3}$ -->
      <g transform="translate(36.312731 22.372669)scale(0.11 -0.11)">
       <use xlink:href="#URWPalladioL-Roma-33" transform="scale(0.996264)"/>
      </g>
     </g>
    </g>
    <g id="text_12">
     <!-- $\varepsilon(\mathbf{k})/t_1$ -->
     <g transform="translate(20.208813 134.850589)rotate(-90)scale(0.11 -0.11)">
      <defs>
       <path id="PazoMath-Italic-23" d="M 1971 2663 
L 1952 2243 
L 2131 2243 
C 2163 2529 2221 2695 2304 2924 
C 2093 3040 1779 3104 1562 3104 
C 1274 3104 1037 2988 774 2803 
C 582 2669 326 2389 326 2154 
C 326 1893 531 1721 890 1651 
C 742 1606 576 1497 365 1323 
C 154 1156 96 905 96 725 
C 96 500 173 371 262 256 
C 454 12 800 -64 1146 -64 
C 1466 -64 1824 102 2330 500 
L 2253 609 
C 1914 365 1606 256 1376 256 
C 1062 256 627 397 627 809 
C 627 1207 768 1535 1389 1535 
C 1549 1535 1683 1523 1792 1490 
C 1792 1529 1824 1683 1843 1728 
L 1830 1791 
C 1696 1747 1568 1728 1440 1728 
C 1050 1728 787 1899 787 2237 
C 787 2593 1146 2880 1510 2880 
C 1645 2880 1741 2854 1843 2809 
C 1939 2771 1965 2676 1971 2663 
z
" transform="scale(0.015625)"/>
       <path id="CMR10-28" d="M 2118 -1536 
C 2118 -1517 2118 -1504 2010 -1396 
C 1210 -589 1005 620 1005 1600 
C 1005 2713 1248 3827 2035 4627 
C 2118 4704 2118 4716 2118 4736 
C 2118 4780 2093 4800 2054 4800 
C 1990 4800 1414 4365 1037 3552 
C 710 2848 634 2137 634 1600 
C 634 1100 704 326 1056 -397 
C 1440 -1184 1990 -1600 2054 -1600 
C 2093 -1600 2118 -1581 2118 -1536 
z
" transform="scale(0.015625)"/>
       <path id="URWPalladioL-Bold-6b" d="M 1370 4627 
L 909 4486 
C 723 4428 506 4390 134 4352 
L 134 4121 
L 474 4102 
C 614 4095 640 4031 640 3649 
L 640 657 
C 640 313 608 262 410 249 
L 186 236 
L 186 0 
L 1011 19 
C 1139 19 1446 12 1875 0 
L 1875 236 
L 1651 249 
C 1453 262 1421 313 1421 657 
L 1421 1459 
L 1485 1459 
L 2163 695 
C 2259 587 2624 140 2720 19 
L 3821 19 
L 3821 236 
C 3686 249 3584 313 3469 440 
L 2214 1841 
L 2266 1892 
C 2458 2083 2643 2255 2714 2299 
L 3110 2586 
C 3213 2662 3322 2700 3418 2700 
L 3616 2700 
L 3616 2944 
L 2784 2944 
L 2099 2223 
C 1952 2070 1779 1911 1421 1605 
L 1421 4588 
L 1370 4627 
z
" transform="scale(0.015625)"/>
       <path id="CMR10-29" d="M 1850 1600 
C 1850 2099 1779 2873 1427 3597 
C 1043 4384 493 4800 429 4800 
C 390 4800 365 4774 365 4736 
C 365 4716 365 4704 486 4589 
C 1114 3955 1478 2937 1478 1600 
C 1478 505 1242 -621 448 -1428 
C 365 -1504 365 -1517 365 -1536 
C 365 -1575 390 -1600 429 -1600 
C 493 -1600 1069 -1165 1446 -352 
C 1773 352 1850 1062 1850 1600 
z
" transform="scale(0.015625)"/>
       <path id="URWPalladioL-Roma-2f" d="M 3322 4646 
L 2938 4646 
L 557 -762 
L 941 -762 
L 3322 4646 
z
" transform="scale(0.015625)"/>
       <path id="URWPalladioL-Ital-74" d="M 800 2489 
L 442 678 
C 435 633 429 620 410 544 
C 371 364 358 268 358 192 
C 358 32 429 -64 550 -64 
C 774 -64 998 64 1498 467 
L 1594 544 
L 1696 627 
L 1632 742 
L 1344 544 
C 1158 416 1030 352 960 352 
C 902 352 870 403 870 480 
C 870 646 960 1164 1146 2092 
L 1229 2489 
L 1914 2489 
L 1984 2809 
C 1741 2784 1523 2771 1280 2771 
C 1382 3373 1453 3686 1568 4032 
L 1498 4128 
C 1370 4051 1197 3974 998 3897 
L 838 2809 
C 557 2675 390 2604 275 2572 
L 262 2489 
L 800 2489 
z
" transform="scale(0.015625)"/>
      </defs>
      <use xlink:href="#PazoMath-Italic-23" transform="scale(0.996264)"/>
      <use xlink:href="#CMR10-28" transform="translate(39.950178 0)scale(1.038107)"/>
      <use xlink:href="#URWPalladioL-Bold-6b" transform="translate(82.689882 0)scale(0.996264)"/>
      <use xlink:href="#CMR10-29" transform="translate(146.051291 0)scale(1.038107)"/>
      <use xlink:href="#URWPalladioL-Roma-2f" transform="translate(188.790996 0)scale(0.996264)"/>
      <use xlink:href="#URWPalladioL-Ital-74" transform="translate(251.6552 0)scale(0.996264)"/>
      <use xlink:href="#URWPalladioL-Roma-31" transform="translate(286.075183 -18.577338)scale(0.757155)"/>
     </g>
    </g>
   </g>
   <g id="line2d_23">
    <path d="M 48.792183 217.42509 
L 51.979989 217.327833 
L 55.167794 217.036352 
L 58.3556 216.551511 
L 61.543405 215.874758 
L 64.731211 215.008124 
L 67.919017 213.954232 
L 71.106822 212.716305 
L 75.35723 210.786187 
L 79.607637 208.546653 
L 83.858045 206.010659 
L 88.108452 203.193402 
L 92.35886 200.112525 
L 96.609267 196.788395 
L 101.922277 192.327297 
L 107.235286 187.577335 
L 113.610897 181.589952 
L 131.675129 164.370717 
L 135.925536 160.724548 
L 139.113342 158.245106 
L 142.301148 156.060443 
L 144.426351 154.804982 
L 146.551555 153.73707 
L 148.676759 152.878746 
L 150.801963 152.249659 
L 152.927166 151.86544 
L 155.05237 151.7362 
L 158.733331 151.606707 
L 162.414292 151.218748 
L 166.095253 150.573884 
L 169.776213 149.67471 
L 173.457174 148.524855 
L 177.138135 147.128976 
L 180.819096 145.492756 
L 184.500057 143.622915 
L 188.181018 141.527231 
L 192.475472 138.808782 
L 196.769926 135.811554 
L 201.064381 132.555491 
L 205.972329 128.552894 
L 214.561237 121.34674 
L 215.788224 120.7149 
L 216.401718 120.618967 
L 217.628705 120.983131 
L 218.855692 121.831855 
L 221.309665 124.023393 
L 224.990626 127.677066 
L 231.125561 134.118956 
L 239.71447 143.515421 
L 265.481196 172.0266 
L 272.843118 179.696579 
L 278.978052 185.756841 
L 283.886 190.339914 
L 288.793948 194.652286 
L 293.701896 198.663652 
L 298.609844 202.345831 
L 302.290804 204.875788 
L 305.971765 207.195983 
L 309.652726 209.29725 
L 313.333687 211.17129 
L 317.014648 212.810699 
L 320.695609 214.209003 
L 324.37657 215.360678 
L 328.05753 216.261177 
L 331.738491 216.906942 
L 335.419452 217.295425 
L 337.873426 217.410678 
L 337.873426 217.410678 
" clip-path="url(#pf5b5dfdb1c)" style="fill: none; stroke: #1f77b4; stroke-width: 1.5; stroke-linecap: square"/>
   </g>
   <g id="line2d_24">
    <path d="M 48.792183 213.840428 
L 51.979989 213.743172 
L 55.167794 213.45169 
L 58.3556 212.96685 
L 61.543405 212.290097 
L 64.731211 211.423463 
L 67.919017 210.36957 
L 71.106822 209.131644 
L 75.35723 207.201526 
L 79.607637 204.961992 
L 83.858045 202.425997 
L 88.108452 199.608741 
L 92.35886 196.527863 
L 96.609267 193.203734 
L 101.922277 188.742636 
L 107.235286 183.992674 
L 113.610897 178.005291 
L 131.675129 160.786056 
L 135.925536 157.139887 
L 139.113342 154.660445 
L 142.301148 152.475782 
L 144.426351 151.220321 
L 146.551555 150.152409 
L 148.676759 149.294085 
L 150.801963 148.664997 
L 152.927166 148.280779 
L 155.05237 148.151539 
L 158.733331 148.022046 
L 162.414292 147.634087 
L 166.095253 146.989223 
L 169.776213 146.090048 
L 173.457174 144.940193 
L 177.138135 143.544314 
L 180.819096 141.908095 
L 184.500057 140.038254 
L 188.181018 137.94257 
L 192.475472 135.224121 
L 196.769926 132.226893 
L 201.064381 128.97083 
L 205.972329 124.968233 
L 214.561237 117.762079 
L 215.788224 117.130239 
L 216.401718 117.034306 
L 217.628705 117.39847 
L 218.855692 118.247193 
L 221.309665 120.438731 
L 224.990626 124.092405 
L 231.125561 130.534295 
L 239.71447 139.93076 
L 265.481196 168.441938 
L 272.843118 176.111918 
L 278.978052 182.17218 
L 283.886 186.755253 
L 288.793948 191.067625 
L 293.701896 195.078991 
L 298.609844 198.76117 
L 302.290804 201.291126 
L 305.971765 203.611321 
L 309.652726 205.712589 
L 313.333687 207.586629 
L 317.014648 209.226038 
L 320.695609 210.624341 
L 324.37657 211.776017 
L 328.05753 212.676516 
L 331.738491 213.322281 
L 335.419452 213.710764 
L 337.873426 213.826017 
L 337.873426 213.826017 
" clip-path="url(#pf5b5dfdb1c)" style="fill: none; stroke: #1f77b4; stroke-width: 1.5; stroke-linecap: square"/>
   </g>
   <g id="line2d_25">
    <path d="M 48.792183 20.228183 
L 51.979989 20.325439 
L 55.167794 20.616921 
L 58.3556 21.101761 
L 61.543405 21.778514 
L 64.731211 22.645148 
L 67.919017 23.699041 
L 71.106822 24.936967 
L 75.35723 26.867085 
L 79.607637 29.106619 
L 83.858045 31.642614 
L 88.108452 34.45987 
L 92.35886 37.540748 
L 96.609267 40.864878 
L 101.922277 45.325975 
L 107.235286 50.075937 
L 113.610897 56.06332 
L 131.675129 73.282555 
L 135.925536 76.928724 
L 139.113342 79.408166 
L 142.301148 81.592829 
L 144.426351 82.84829 
L 146.551555 83.916202 
L 148.676759 84.774526 
L 150.801963 85.403614 
L 152.927166 85.787832 
L 155.05237 85.917072 
L 158.733331 86.046565 
L 162.414292 86.434524 
L 166.095253 87.079389 
L 169.776213 87.978563 
L 173.457174 89.128418 
L 177.138135 90.524297 
L 180.819096 92.160516 
L 184.500057 94.030357 
L 188.181018 96.126041 
L 192.475472 98.84449 
L 196.769926 101.841718 
L 201.064381 105.097781 
L 205.972329 109.100378 
L 214.561237 116.306533 
L 215.788224 116.938372 
L 216.401718 117.034306 
L 217.628705 116.670141 
L 218.855692 115.821418 
L 221.309665 113.62988 
L 224.990626 109.976206 
L 231.125561 103.534316 
L 239.71447 94.137852 
L 265.481196 65.626673 
L 272.843118 57.956694 
L 278.978052 51.896431 
L 283.886 47.313358 
L 288.793948 43.000986 
L 293.701896 38.98962 
L 298.609844 35.307441 
L 302.290804 32.777485 
L 305.971765 30.45729 
L 309.652726 28.356022 
L 313.333687 26.481983 
L 317.014648 24.842573 
L 320.695609 23.44427 
L 324.37657 22.292594 
L 328.05753 21.392096 
L 331.738491 20.74633 
L 335.419452 20.357848 
L 337.873426 20.242594 
L 337.873426 20.242594 
" clip-path="url(#pf5b5dfdb1c)" style="fill: none; stroke: #1f77b4; stroke-width: 1.5; stroke-linecap: square"/>
   </g>
   <g id="line2d_26">
    <path d="M 48.792183 16.643522 
L 51.979989 16.740778 
L 55.167794 17.03226 
L 58.3556 17.5171 
L 61.543405 18.193853 
L 64.731211 19.060487 
L 67.919017 20.11438 
L 71.106822 21.352306 
L 75.35723 23.282424 
L 79.607637 25.521958 
L 83.858045 28.057953 
L 88.108452 30.875209 
L 92.35886 33.956086 
L 96.609267 37.280216 
L 101.922277 41.741314 
L 107.235286 46.491276 
L 113.610897 52.478659 
L 131.675129 69.697894 
L 135.925536 73.344063 
L 139.113342 75.823505 
L 142.301148 78.008168 
L 144.426351 79.263629 
L 146.551555 80.331541 
L 148.676759 81.189865 
L 150.801963 81.818952 
L 152.927166 82.203171 
L 155.05237 82.332411 
L 158.733331 82.461904 
L 162.414292 82.849863 
L 166.095253 83.494727 
L 169.776213 84.393901 
L 173.457174 85.543756 
L 177.138135 86.939636 
L 180.819096 88.575855 
L 184.500057 90.445696 
L 188.181018 92.54138 
L 192.475472 95.259829 
L 196.769926 98.257057 
L 201.064381 101.51312 
L 205.972329 105.515717 
L 214.561237 112.721871 
L 215.788224 113.353711 
L 216.401718 113.449644 
L 217.628705 113.08548 
L 218.855692 112.236756 
L 221.309665 110.045218 
L 224.990626 106.391545 
L 231.125561 99.949655 
L 239.71447 90.55319 
L 265.481196 62.042011 
L 272.843118 54.372032 
L 278.978052 48.31177 
L 283.886 43.728697 
L 288.793948 39.416325 
L 293.701896 35.404959 
L 298.609844 31.72278 
L 302.290804 29.192823 
L 305.971765 26.872628 
L 309.652726 24.771361 
L 313.333687 22.897321 
L 317.014648 21.257912 
L 320.695609 19.859608 
L 324.37657 18.707933 
L 328.05753 17.807434 
L 331.738491 17.161669 
L 335.419452 16.773186 
L 337.873426 16.657933 
L 337.873426 16.657933 
" clip-path="url(#pf5b5dfdb1c)" style="fill: none; stroke: #1f77b4; stroke-width: 1.5; stroke-linecap: square"/>
   </g>
   <g id="line2d_27">
    <path d="M 192.372519 253 
L 194.315953 231.884833 
L 196.769926 207.779384 
L 198.610407 191.561467 
L 200.450887 176.93884 
L 202.291368 163.911503 
L 204.131848 152.479454 
L 205.972329 142.642696 
L 207.812809 134.401226 
L 209.039796 129.793185 
L 210.266783 125.894161 
L 211.49377 122.704155 
L 212.720757 120.223167 
L 213.947744 118.451196 
L 214.561237 117.831092 
L 215.174731 117.388242 
L 215.788224 117.122647 
L 216.401718 117.034306 
L 217.628705 117.389387 
L 218.855692 118.453486 
L 220.082679 120.226602 
L 221.309665 122.708736 
L 222.536652 125.899888 
L 223.763639 129.800057 
L 224.990626 134.409243 
L 226.217613 139.727447 
L 227.4446 145.754668 
L 228.671587 152.490907 
L 229.898574 159.936164 
L 232.352548 176.953729 
L 234.806522 196.807364 
L 237.260496 219.49707 
L 239.71447 245.022845 
L 240.42238 253 
L 240.42238 253 
" clip-path="url(#pf5b5dfdb1c)" style="fill: none; stroke-dasharray: 5.55,2.4; stroke-dashoffset: 0; stroke: #ff7f0e; stroke-width: 1.5"/>
   </g>
   <g id="line2d_28">
    <path d="M 192.692114 253 
L 194.929446 229.177251 
L 197.38342 205.780818 
L 199.2239 190.094665 
L 201.064381 176.003801 
L 202.904861 163.508227 
L 204.745342 152.607942 
L 206.585822 143.302946 
L 207.812809 137.985887 
L 209.039796 133.377846 
L 210.266783 129.478823 
L 211.49377 126.288817 
L 212.720757 123.807828 
L 213.947744 122.035857 
L 214.561237 121.415753 
L 215.174731 120.972903 
L 215.788224 120.707308 
L 216.401718 120.618967 
L 217.628705 120.974048 
L 218.855692 122.038147 
L 220.082679 123.811264 
L 221.309665 126.293398 
L 222.536652 129.484549 
L 223.763639 133.384718 
L 224.990626 137.993904 
L 226.217613 143.312108 
L 227.4446 149.33933 
L 228.671587 156.075569 
L 229.898574 163.520825 
L 232.352548 180.53839 
L 234.806522 200.392026 
L 237.260496 223.081731 
L 239.71447 248.607506 
L 240.10427 253 
L 240.10427 253 
" clip-path="url(#pf5b5dfdb1c)" style="fill: none; stroke-dasharray: 5.55,2.4; stroke-dashoffset: 0; stroke: #ff7f0e; stroke-width: 1.5"/>
   </g>
   <g id="line2d_29">
    <path d="M 194.014039 -1 
L 196.156433 20.528747 
L 197.996913 37.278426 
L 199.837394 52.432816 
L 201.677874 65.991917 
L 203.518355 77.955728 
L 205.358835 88.32425 
L 207.199316 97.097483 
L 208.426302 102.060033 
L 209.653289 106.313565 
L 210.880276 109.85808 
L 212.107263 112.693577 
L 213.33425 114.820057 
L 214.561237 116.23752 
L 215.174731 116.680369 
L 215.788224 116.945964 
L 216.401718 117.034305 
L 217.628705 116.679224 
L 218.855692 115.615125 
L 220.082679 113.842009 
L 221.309665 111.359875 
L 222.536652 108.168723 
L 223.763639 104.268554 
L 224.990626 99.659368 
L 226.217613 94.341164 
L 227.4446 88.313943 
L 228.671587 81.577704 
L 229.898574 74.132447 
L 232.352548 57.114882 
L 234.806522 37.261247 
L 237.260496 14.571542 
L 238.783362 -1 
L 238.783362 -1 
" clip-path="url(#pf5b5dfdb1c)" style="fill: none; stroke-dasharray: 5.55,2.4; stroke-dashoffset: 0; stroke: #ff7f0e; stroke-width: 1.5"/>
   </g>
   <g id="line2d_30">
    <path d="M 194.355039 -1 
L 196.769926 22.704566 
L 198.610407 38.922483 
L 200.450887 53.54511 
L 202.291368 66.572447 
L 204.131848 78.004495 
L 205.972329 87.841254 
L 207.812809 96.082724 
L 209.039796 100.690765 
L 210.266783 104.589788 
L 211.49377 107.779795 
L 212.720757 110.260783 
L 213.947744 112.032754 
L 214.561237 112.652858 
L 215.174731 113.095708 
L 215.788224 113.361303 
L 216.401718 113.449644 
L 217.628705 113.094563 
L 218.855692 112.030464 
L 220.082679 110.257347 
L 221.309665 107.775213 
L 222.536652 104.584062 
L 223.763639 100.683893 
L 224.990626 96.074707 
L 226.217613 90.756503 
L 227.4446 84.729282 
L 228.671587 77.993043 
L 229.898574 70.547786 
L 232.352548 53.530221 
L 234.806522 33.676586 
L 237.260496 10.98688 
L 238.445803 -1 
L 238.445803 -1 
" clip-path="url(#pf5b5dfdb1c)" style="fill: none; stroke-dasharray: 5.55,2.4; stroke-dashoffset: 0; stroke: #ff7f0e; stroke-width: 1.5"/>
   </g>
   <g id="patch_3">
    <path d="M 48.792183 222.188611 
L 48.792183 11.88 
" style="fill: none; stroke: #000000; stroke-width: 0.8; stroke-linejoin: miter; stroke-linecap: square"/>
   </g>
   <g id="patch_4">
    <path d="M 337.873426 222.188611 
L 337.873426 11.88 
" style="fill: none; stroke: #000000; stroke-width: 0.8; stroke-linejoin: miter; stroke-linecap: square"/>
   </g>
   <g id="patch_5">
    <path d="M 48.792183 222.188611 
L 337.873426 222.188611 
" style="fill: none; stroke: #000000; stroke-width: 0.8; stroke-linejoin: miter; stroke-linecap: square"/>
   </g>
   <g id="patch_6">
    <path d="M 48.792183 11.88 
L 337.873426 11.88 
" style="fill: none; stroke: #000000; stroke-width: 0.8; stroke-linejoin: miter; stroke-linecap: square"/>
   </g>
   <g id="patch_7">
    <path d="M 209.915443 122.949235 
L 222.88601 122.949235 
L 222.88601 111.119376 
L 209.915443 111.119376 
L 209.915443 122.949235 
z
" clip-path="url(#pf5b5dfdb1c)" style="fill: none; stroke: #808080; stroke-linejoin: miter"/>
   </g>
   <g id="patch_8">
    <path d="M 126.844119 148.580597 
Q 174.865064 135.764916 222.88601 122.949235 
" style="fill: none; stroke: #808080; stroke-linecap: round"/>
   </g>
   <g id="patch_9">
    <path d="M 126.844119 85.488014 
Q 174.865064 98.303695 222.88601 111.119376 
" style="fill: none; stroke: #808080; stroke-linecap: round"/>
   </g>
   <g id="patch_10">
    <path d="M 287.306491 44.083506 
L 300.277057 44.083506 
L 300.277057 32.253647 
L 287.306491 32.253647 
L 287.306491 44.083506 
z
" clip-path="url(#pf5b5dfdb1c)" style="fill: none; stroke: #808080; stroke-linejoin: miter"/>
   </g>
   <g id="patch_11">
    <path d="M 287.284208 93.900358 
Q 287.29535 63.077003 287.306491 32.253647 
" style="fill: none; stroke: #808080; stroke-linecap: round"/>
   </g>
   <g id="patch_12">
    <path d="M 330.646395 93.900358 
Q 315.461726 63.077003 300.277057 32.253647 
" style="fill: none; stroke: #808080; stroke-linecap: round"/>
   </g>
   <g id="axes_2">
    <g id="patch_13">
     <path d="M 83.481932 148.580597 
L 126.844119 148.580597 
L 126.844119 85.488014 
L 83.481932 85.488014 
z
" style="fill: #ffffff"/>
    </g>
    <g id="matplotlib.axis_3">
     <g id="xtick_5">
      <g id="line2d_31">
       <path d="M 105.163025 148.580597 
L 105.163025 85.488014 
" clip-path="url(#pfea2f457f8)" style="fill: none; stroke: #b0b0b0; stroke-width: 0.8; stroke-linecap: square"/>
      </g>
      <g id="line2d_32">
       <g>
        <use xlink:href="#mc87dea6184" x="105.163025" y="148.580597" style="stroke: #000000; stroke-width: 0.8"/>
       </g>
      </g>
      <g id="text_13">
       <!-- $\mathbf{K}$ -->
       <g transform="translate(100.900066 163.421646)scale(0.11 -0.11)">
        <use xlink:href="#URWPalladioL-Bold-4b" transform="scale(0.996264)"/>
       </g>
      </g>
     </g>
    </g>
    <g id="matplotlib.axis_4">
     <g id="ytick_8">
      <g id="line2d_33">
       <path d="M 83.481932 136.312595 
L 126.844119 136.312595 
" clip-path="url(#pfea2f457f8)" style="fill: none; stroke: #b0b0b0; stroke-width: 0.8; stroke-linecap: square"/>
      </g>
      <g id="line2d_34">
       <g>
        <use xlink:href="#m0b5acbcbc9" x="83.481932" y="136.312595" style="stroke: #000000; stroke-width: 0.8"/>
       </g>
      </g>
      <g id="text_14">
       <!-- $-t_{\perp}/t_1$ -->
       <g transform="translate(50.712874 139.163887)scale(0.08 -0.08)">
        <defs>
         <path id="CMSY10-3f" d="M 2618 4069 
C 2618 4185 2618 4300 2490 4300 
C 2362 4300 2362 4166 2362 4069 
L 2362 256 
L 582 256 
C 486 256 352 256 352 128 
C 352 0 486 0 582 0 
L 4403 0 
C 4512 0 4627 0 4627 128 
C 4627 256 4512 256 4403 256 
L 2618 256 
L 2618 4069 
z
" transform="scale(0.015625)"/>
        </defs>
        <use xlink:href="#CMSY10-0" transform="scale(1.038107)"/>
        <use xlink:href="#URWPalladioL-Ital-74" transform="translate(83.186996 0)scale(0.996264)"/>
        <use xlink:href="#CMSY10-3f" transform="translate(118.553395 -20.470766)scale(0.788955)"/>
        <use xlink:href="#URWPalladioL-Roma-2f" transform="translate(182.572069 0)scale(0.996264)"/>
        <use xlink:href="#URWPalladioL-Ital-74" transform="translate(245.436273 0)scale(0.996264)"/>
        <use xlink:href="#URWPalladioL-Roma-31" transform="translate(279.856255 -18.577338)scale(0.757155)"/>
       </g>
      </g>
     </g>
     <g id="ytick_9">
      <g id="line2d_35">
       <path d="M 83.481932 117.034306 
L 126.844119 117.034306 
" clip-path="url(#pfea2f457f8)" style="fill: none; stroke: #b0b0b0; stroke-width: 0.8; stroke-linecap: square"/>
      </g>
      <g id="line2d_36">
       <g>
        <use xlink:href="#m0b5acbcbc9" x="83.481932" y="117.034306" style="stroke: #000000; stroke-width: 0.8"/>
       </g>
      </g>
      <g id="text_15">
       <!-- 0 -->
       <g transform="translate(72.496876 119.885597)scale(0.08 -0.08)">
        <use xlink:href="#URWPalladioL-Roma-30" transform="scale(0.996264)"/>
       </g>
      </g>
     </g>
     <g id="ytick_10">
      <g id="line2d_37">
       <path d="M 83.481932 97.756016 
L 126.844119 97.756016 
" clip-path="url(#pfea2f457f8)" style="fill: none; stroke: #b0b0b0; stroke-width: 0.8; stroke-linecap: square"/>
      </g>
      <g id="line2d_38">
       <g>
        <use xlink:href="#m0b5acbcbc9" x="83.481932" y="97.756016" style="stroke: #000000; stroke-width: 0.8"/>
       </g>
      </g>
      <g id="text_16">
       <!-- $t_{\perp}/t_1$ -->
       <g transform="translate(57.367834 100.607308)scale(0.08 -0.08)">
        <use xlink:href="#URWPalladioL-Ital-74" transform="scale(0.996264)"/>
        <use xlink:href="#CMSY10-3f" transform="translate(35.366399 -20.470766)scale(0.788955)"/>
        <use xlink:href="#URWPalladioL-Roma-2f" transform="translate(99.385073 0)scale(0.996264)"/>
        <use xlink:href="#URWPalladioL-Ital-74" transform="translate(162.249277 0)scale(0.996264)"/>
        <use xlink:href="#URWPalladioL-Roma-31" transform="translate(196.669259 -18.577338)scale(0.757155)"/>
       </g>
      </g>
     </g>
    </g>
    <g id="line2d_39">
     <path d="M 5.104056 253 
L 10.821096 247.663242 
L 16.974046 241.637661 
L 23.126997 235.329284 
L 29.279948 228.74514 
L 35.432898 221.892805 
L 41.585849 214.780535 
L 49.789783 204.909118 
L 57.993717 194.61734 
L 66.197651 183.937871 
L 74.401585 172.919023 
L 94.911421 144.928972 
L 96.962404 142.375507 
L 99.013388 140.033955 
L 101.064371 138.052138 
L 103.115355 136.664143 
L 105.166338 136.152499 
L 109.268305 138.094707 
L 113.370272 142.621235 
L 117.47224 148.226145 
L 121.574207 154.309437 
L 129.778141 167.16305 
L 137.982075 180.524984 
L 150.287976 201.156072 
L 162.593877 222.28895 
L 179.001746 251.014131 
L 180.124896 253 
L 180.124896 253 
" clip-path="url(#pfea2f457f8)" style="fill: none; stroke: #1f77b4; stroke-width: 1.5; stroke-linecap: square"/>
    </g>
    <g id="line2d_40">
     <path d="M -1 239.301186 
L 4.668145 234.281279 
L 10.821096 228.545049 
L 16.974046 222.519468 
L 23.126997 216.211091 
L 29.279948 209.626946 
L 35.432898 202.774612 
L 41.585849 195.662341 
L 49.789783 185.790925 
L 57.993717 175.499146 
L 66.197651 164.819678 
L 74.401585 153.800829 
L 94.911421 125.810779 
L 96.962404 123.257313 
L 99.013388 120.915762 
L 101.064371 118.933944 
L 103.115355 117.545949 
L 105.166338 117.034306 
L 109.268305 118.976514 
L 113.370272 123.503041 
L 117.47224 129.107951 
L 121.574207 135.191244 
L 129.778141 148.044856 
L 137.982075 161.40679 
L 150.287976 182.037879 
L 162.593877 203.170757 
L 179.001746 231.895937 
L 190.90552 253 
L 190.90552 253 
" clip-path="url(#pfea2f457f8)" style="fill: none; stroke: #1f77b4; stroke-width: 1.5; stroke-linecap: square"/>
    </g>
    <g id="line2d_41">
     <path d="M 3.793721 -1 
L 8.770112 3.579024 
L 14.923063 9.508862 
L 21.076013 15.72373 
L 27.228964 22.216764 
L 33.381915 28.980583 
L 39.534865 36.007174 
L 47.738799 45.769342 
L 55.942733 55.958723 
L 64.146668 66.54496 
L 72.350602 77.484985 
L 82.605519 91.536765 
L 92.860437 105.578907 
L 96.962404 110.811298 
L 99.013388 113.152849 
L 101.064371 115.134667 
L 103.115355 116.522662 
L 105.166338 117.034306 
L 109.268305 115.092097 
L 113.370272 110.56557 
L 117.47224 104.96066 
L 121.574207 98.877367 
L 129.778141 86.023755 
L 137.982075 72.661821 
L 150.287976 52.030732 
L 162.593877 30.897854 
L 179.001746 2.172674 
L 180.796118 -1 
L 180.796118 -1 
" clip-path="url(#pfea2f457f8)" style="fill: none; stroke: #1f77b4; stroke-width: 1.5; stroke-linecap: square"/>
    </g>
    <g id="line2d_42">
     <path d="M 23.374007 -1 
L 29.279948 5.323471 
L 35.432898 12.175806 
L 41.585849 19.288077 
L 49.789783 29.159493 
L 57.993717 39.451271 
L 66.197651 50.13074 
L 74.401585 61.149588 
L 94.911421 89.139639 
L 96.962404 91.693105 
L 99.013388 94.034656 
L 101.064371 96.016473 
L 103.115355 97.404468 
L 105.166338 97.916112 
L 109.268305 95.973904 
L 113.370272 91.447376 
L 117.47224 85.842466 
L 121.574207 79.759174 
L 129.778141 66.905561 
L 137.982075 53.543628 
L 150.287976 32.912539 
L 162.593877 11.779661 
L 169.928842 -1 
L 169.928842 -1 
" clip-path="url(#pfea2f457f8)" style="fill: none; stroke: #1f77b4; stroke-width: 1.5; stroke-linecap: square"/>
    </g>
    <g id="line2d_43">
     <path d="M 70.380147 253 
L 72.350602 238.015528 
L 74.401585 223.364026 
L 76.452569 209.657882 
L 78.503552 196.897094 
L 80.554536 185.081662 
L 82.605519 174.211588 
L 84.656503 164.28687 
L 86.707486 155.307509 
L 88.75847 147.273504 
L 90.809454 140.184856 
L 92.860437 134.041565 
L 94.911421 128.84363 
L 96.962404 124.591052 
L 99.013388 121.283831 
L 101.064371 118.921966 
L 103.115355 117.505458 
L 105.166338 117.034307 
L 109.268305 118.928074 
L 113.370272 124.603268 
L 117.47224 134.059889 
L 121.574207 147.297936 
L 125.676174 164.317411 
L 129.778141 185.118311 
L 133.880108 209.700639 
L 137.982075 238.064393 
L 139.887971 253 
L 139.887971 253 
" clip-path="url(#pfea2f457f8)" style="fill: none; stroke-dasharray: 5.55,2.4; stroke-dashoffset: 0; stroke: #ff7f0e; stroke-width: 1.5"/>
    </g>
    <g id="line2d_44">
     <path d="M 72.929259 253 
L 74.401585 242.48222 
L 76.452569 228.776075 
L 78.503552 216.015287 
L 80.554536 204.199856 
L 82.605519 193.329781 
L 84.656503 183.405063 
L 86.707486 174.425702 
L 88.75847 166.391697 
L 90.809454 159.303049 
L 92.860437 153.159758 
L 94.911421 147.961823 
L 96.962404 143.709245 
L 99.013388 140.402024 
L 101.064371 138.040159 
L 103.115355 136.623652 
L 105.166338 136.1525 
L 109.268305 138.046268 
L 113.370272 143.721462 
L 117.47224 153.178082 
L 121.574207 166.41613 
L 125.676174 183.435604 
L 129.778141 204.236505 
L 133.880108 228.818832 
L 137.377189 253 
L 137.377189 253 
" clip-path="url(#pfea2f457f8)" style="fill: none; stroke-dasharray: 5.55,2.4; stroke-dashoffset: 0; stroke: #ff7f0e; stroke-width: 1.5"/>
    </g>
    <g id="line2d_45">
     <path d="M 72.763124 -1 
L 74.401585 10.704585 
L 76.452569 24.410729 
L 78.503552 37.171517 
L 80.554536 48.986949 
L 82.605519 59.857023 
L 84.656503 69.781741 
L 86.707486 78.761103 
L 88.75847 86.795107 
L 90.809454 93.883755 
L 92.860437 100.027047 
L 94.911421 105.224981 
L 96.962404 109.477559 
L 99.013388 112.78478 
L 101.064371 115.146645 
L 103.115355 116.563153 
L 105.166338 117.034304 
L 109.268305 115.140537 
L 113.370272 109.465343 
L 117.47224 100.008722 
L 121.574207 86.770675 
L 125.676174 69.751201 
L 129.778141 48.9503 
L 133.880108 24.367972 
L 137.548825 -1 
L 137.548825 -1 
" clip-path="url(#pfea2f457f8)" style="fill: none; stroke-dasharray: 5.55,2.4; stroke-dashoffset: 0; stroke: #ff7f0e; stroke-width: 1.5"/>
    </g>
    <g id="line2d_46">
     <path d="M 75.510956 -1 
L 76.452569 5.292536 
L 78.503552 18.053324 
L 80.554536 29.868755 
L 82.605519 40.73883 
L 84.656503 50.663548 
L 86.707486 59.642909 
L 88.75847 67.676914 
L 90.809454 74.765562 
L 92.860437 80.908853 
L 94.911421 86.106788 
L 96.962404 90.359366 
L 99.013388 93.666587 
L 101.064371 96.028452 
L 103.115355 97.44496 
L 105.166338 97.916111 
L 109.268305 96.022343 
L 113.370272 90.347149 
L 117.47224 80.890529 
L 121.574207 67.652481 
L 125.676174 50.633007 
L 129.778141 29.832106 
L 133.880108 5.249779 
L 134.783951 -1 
L 134.783951 -1 
" clip-path="url(#pfea2f457f8)" style="fill: none; stroke-dasharray: 5.55,2.4; stroke-dashoffset: 0; stroke: #ff7f0e; stroke-width: 1.5"/>
    </g>
    <g id="patch_14">
     <path d="M 83.481932 148.580597 
L 83.481932 85.488014 
" style="fill: none; stroke: #000000; stroke-width: 0.8; stroke-linejoin: miter; stroke-linecap: square"/>
    </g>
    <g id="patch_15">
     <path d="M 126.844119 148.580597 
L 126.844119 85.488014 
" style="fill: none; stroke: #000000; stroke-width: 0.8; stroke-linejoin: miter; stroke-linecap: square"/>
    </g>
    <g id="patch_16">
     <path d="M 83.481932 148.580597 
L 126.844119 148.580597 
" style="fill: none; stroke: #000000; stroke-width: 0.8; stroke-linejoin: miter; stroke-linecap: square"/>
    </g>
    <g id="patch_17">
     <path d="M 83.481932 85.488014 
L 126.844119 85.488014 
" style="fill: none; stroke: #000000; stroke-width: 0.8; stroke-linejoin: miter; stroke-linecap: square"/>
    </g>
   </g>
   <g id="axes_3">
    <g id="patch_18">
     <path d="M 287.284208 156.992942 
L 330.646395 156.992942 
L 330.646395 93.900358 
L 287.284208 93.900358 
z
" style="fill: #ffffff"/>
    </g>
    <g id="matplotlib.axis_5">
     <g id="xtick_6">
      <g id="line2d_47">
       <path d="M 308.965302 156.992942 
L 308.965302 93.900358 
" clip-path="url(#p2f47f084ca)" style="fill: none; stroke: #b0b0b0; stroke-width: 0.8; stroke-linecap: square"/>
      </g>
      <g id="line2d_48">
       <g>
        <use xlink:href="#mc87dea6184" x="308.965302" y="156.992942" style="stroke: #000000; stroke-width: 0.8"/>
       </g>
      </g>
     </g>
    </g>
    <g id="matplotlib.axis_6">
     <g id="ytick_11">
      <g id="line2d_49">
       <path d="M 287.284208 128.951794 
L 330.646395 128.951794 
" clip-path="url(#p2f47f084ca)" style="fill: none; stroke: #b0b0b0; stroke-width: 0.8; stroke-linecap: square"/>
      </g>
      <g id="line2d_50">
       <g>
        <use xlink:href="#m0b5acbcbc9" x="287.284208" y="128.951794" style="stroke: #000000; stroke-width: 0.8"/>
       </g>
      </g>
      <g id="text_17">
       <!-- $\epsilon$ -->
       <g transform="translate(276.570139 131.803085)scale(0.08 -0.08)">
        <defs>
         <path id="PazoMath-Italic-65" d="M 2483 711 
L 2330 604 
C 1990 363 1683 256 1453 256 
C 1165 256 762 559 672 964 
C 659 1028 659 1097 659 1167 
C 659 1243 666 1325 678 1401 
C 838 1420 1146 1420 1190 1420 
C 1498 1420 1888 1420 2086 1414 
L 2125 1452 
L 2214 1676 
C 1741 1664 1664 1664 1421 1664 
C 1376 1664 960 1670 723 1670 
C 781 1982 902 2319 1178 2554 
C 1357 2707 1581 2790 1805 2790 
C 2016 2790 2227 2745 2355 2593 
C 2400 2548 2470 2440 2522 2344 
L 2643 2357 
L 2906 2688 
C 2707 2924 2406 3072 2067 3072 
C 1651 3072 1235 2911 890 2618 
C 480 2281 211 1810 128 1325 
C 109 1211 96 1097 96 990 
C 96 718 173 458 339 256 
C 538 12 883 -64 1222 -64 
C 1600 -64 1933 121 2534 591 
L 2483 711 
z
" transform="scale(0.015625)"/>
        </defs>
        <use xlink:href="#PazoMath-Italic-65" transform="scale(0.996264)"/>
       </g>
      </g>
     </g>
     <g id="ytick_12">
      <g id="line2d_51">
       <path d="M 287.284208 110.54979 
L 330.646395 110.54979 
" clip-path="url(#p2f47f084ca)" style="fill: none; stroke: #b0b0b0; stroke-width: 0.8; stroke-linecap: square"/>
      </g>
      <g id="line2d_52">
       <g>
        <use xlink:href="#m0b5acbcbc9" x="287.284208" y="110.54979" style="stroke: #000000; stroke-width: 0.8"/>
       </g>
      </g>
      <g id="text_18">
       <!-- $\epsilon+t_{\perp}/t_1$ -->
       <g transform="translate(247.502446 113.401082)scale(0.08 -0.08)">
        <defs>
         <path id="CMR10-2b" d="M 2618 1472 
L 4403 1472 
C 4493 1472 4614 1472 4614 1600 
C 4614 1728 4493 1728 4403 1728 
L 2618 1728 
L 2618 3501 
C 2618 3590 2618 3712 2490 3712 
C 2362 3712 2362 3590 2362 3501 
L 2362 1728 
L 570 1728 
C 480 1728 358 1728 358 1600 
C 358 1472 480 1472 570 1472 
L 2362 1472 
L 2362 -308 
C 2362 -397 2362 -519 2490 -519 
C 2618 -519 2618 -397 2618 -308 
L 2618 1472 
z
" transform="scale(0.015625)"/>
        </defs>
        <use xlink:href="#PazoMath-Italic-65" transform="scale(0.996264)"/>
        <use xlink:href="#CMR10-2b" transform="translate(68.287364 0)scale(1.038107)"/>
        <use xlink:href="#URWPalladioL-Ital-74" transform="translate(170.846113 0)scale(0.996264)"/>
        <use xlink:href="#CMSY10-3f" transform="translate(206.212512 -20.470766)scale(0.788955)"/>
        <use xlink:href="#URWPalladioL-Roma-2f" transform="translate(270.231186 0)scale(0.996264)"/>
        <use xlink:href="#URWPalladioL-Ital-74" transform="translate(333.09539 0)scale(0.996264)"/>
        <use xlink:href="#URWPalladioL-Roma-31" transform="translate(367.515372 -18.577338)scale(0.757155)"/>
       </g>
      </g>
     </g>
    </g>
    <g id="line2d_53">
     <path d="M 0 0 
" clip-path="url(#p2f47f084ca)" style="fill: none; stroke: #1f77b4; stroke-width: 1.5; stroke-linecap: square"/>
    </g>
    <g id="line2d_54">
     <path d="M 0 0 
" clip-path="url(#p2f47f084ca)" style="fill: none; stroke: #1f77b4; stroke-width: 1.5; stroke-linecap: square"/>
    </g>
    <g id="line2d_55">
     <path d="M 225.53726 253 
L 234.82942 237.655042 
L 247.135322 217.838598 
L 255.339256 204.978295 
L 263.54319 192.424995 
L 271.747124 180.200779 
L 279.951058 168.327141 
L 288.154992 156.824955 
L 296.358926 145.714438 
L 304.562861 135.015113 
L 312.766795 124.745779 
L 320.970729 114.924477 
L 329.174663 105.56846 
L 337.378597 96.694161 
L 345.582531 88.317165 
L 353.8 80.439855 
L 353.8 80.439855 
" clip-path="url(#p2f47f084ca)" style="fill: none; stroke: #1f77b4; stroke-width: 1.5; stroke-linecap: square"/>
    </g>
    <g id="line2d_56">
     <path d="M 214.185785 253 
L 222.523519 238.914528 
L 234.82942 218.536848 
L 247.135322 198.720405 
L 255.339256 185.860102 
L 263.54319 173.306802 
L 271.747124 161.082585 
L 279.951058 149.208948 
L 288.154992 137.706762 
L 296.358926 126.596244 
L 304.562861 115.896919 
L 312.766795 105.627585 
L 320.970729 95.806284 
L 329.174663 86.450267 
L 337.378597 77.575967 
L 345.582531 69.198971 
L 353.8 61.321662 
L 353.8 61.321662 
" clip-path="url(#p2f47f084ca)" style="fill: none; stroke: #1f77b4; stroke-width: 1.5; stroke-linecap: square"/>
    </g>
    <g id="patch_19">
     <path d="M 287.284208 156.992942 
L 287.284208 93.900358 
" style="fill: none; stroke: #000000; stroke-width: 0.8; stroke-linejoin: miter; stroke-linecap: square"/>
    </g>
    <g id="patch_20">
     <path d="M 330.646395 156.992942 
L 330.646395 93.900358 
" style="fill: none; stroke: #000000; stroke-width: 0.8; stroke-linejoin: miter; stroke-linecap: square"/>
    </g>
    <g id="patch_21">
     <path d="M 287.284208 156.992942 
L 330.646395 156.992942 
" style="fill: none; stroke: #000000; stroke-width: 0.8; stroke-linejoin: miter; stroke-linecap: square"/>
    </g>
    <g id="patch_22">
     <path d="M 287.284208 93.900358 
L 330.646395 93.900358 
" style="fill: none; stroke: #000000; stroke-width: 0.8; stroke-linejoin: miter; stroke-linecap: square"/>
    </g>
   </g>
  </g>
 </g>
 <defs>
  <clipPath id="pf5b5dfdb1c">
   <rect x="48.792183" y="11.88" width="289.081243" height="210.308611"/>
  </clipPath>
  <clipPath id="pfea2f457f8">
   <rect x="83.481932" y="85.488014" width="43.362186" height="63.092583"/>
  </clipPath>
  <clipPath id="p2f47f084ca">
   <rect x="287.284208" y="93.900358" width="43.362186" height="63.092583"/>
  </clipPath>
 </defs>
</svg>
