<?xml version="1.0" encoding="utf-8" standalone="no"?>
<!DOCTYPE svg PUBLIC "-//W3C//DTD SVG 1.1//EN"
  "http://www.w3.org/Graphics/SVG/1.1/DTD/svg11.dtd">
<svg xmlns:xlink="http://www.w3.org/1999/xlink" width="352.8pt" height="252pt" viewBox="0 0 352.8 252" xmlns="http://www.w3.org/2000/svg" version="1.1">
 <metadata>
  <rdf:RDF xmlns:dc="http://purl.org/dc/elements/1.1/" xmlns:cc="http://creativecommons.org/ns#" xmlns:rdf="http://www.w3.org/1999/02/22-rdf-syntax-ns#">
   <cc:Work>
    <dc:type rdf:resource="http://purl.org/dc/dcmitype/StillImage"/>
    <dc:date>2022-11-03T04:32:23.469014</dc:date>
    <dc:format>image/svg+xml</dc:format>
    <dc:creator>
     <cc:Agent>
      <dc:title>Matplotlib v3.5.2, https://matplotlib.org/</dc:title>
     </cc:Agent>
    </dc:creator>
   </cc:Work>
  </rdf:RDF>
 </metadata>
 <defs>
  <style type="text/css">*{stroke-linejoin: round; stroke-linecap: butt}</style>
 </defs>
 <g id="figure_1">
  <g id="patch_1">
   <path d="M 0 252 
L 352.8 252 
L 352.8 0 
L 0 0 
z
" style="fill: #ffffff"/>
  </g>
  <g id="axes_1">
   <g id="patch_2">
    <path d="M 33.37303 222.188611 
L 337.873426 222.188611 
L 337.873426 11.88 
L 33.37303 11.88 
z
" style="fill: #ffffff"/>
   </g>
   <g id="matplotlib.axis_1">
    <g id="xtick_1">
     <g id="line2d_1">
      <path d="M 33.37303 222.188611 
L 33.37303 11.88 
" clip-path="url(#p3faee51616)" style="fill: none; stroke: #b0b0b0; stroke-opacity: 0.4; stroke-width: 0.8; stroke-linecap: square"/>
     </g>
     <g id="line2d_2">
      <defs>
       <path id="m3d917f6857" d="M 0 0 
L 0 3.5 
" style="stroke: #000000; stroke-width: 0.8"/>
      </defs>
      <g>
       <use xlink:href="#m3d917f6857" x="33.37303" y="222.188611" style="stroke: #000000; stroke-width: 0.8"/>
      </g>
     </g>
     <g id="text_1">
      <!-- $\mathbf{\Gamma}$ -->
      <g transform="translate(30.326456 237.02966)scale(0.11 -0.11)">
       <defs>
        <path id="PazoMath-Bold-47" d="M 1626 3962 
C 1978 3981 2131 3981 2368 3981 
C 2803 3981 3072 3936 3078 3860 
L 3130 3383 
L 3360 3383 
L 3450 4287 
L 3411 4332 
C 3174 4345 3046 4352 2803 4352 
L 2477 4352 
C 1498 4352 1498 4332 1325 4332 
C 1088 4332 813 4339 179 4352 
L 179 4115 
L 416 4095 
C 704 4070 723 4032 723 3472 
L 723 879 
C 723 313 717 300 416 275 
L 179 256 
L 179 0 
C 717 -7 947 0 1171 0 
C 1389 19 1632 12 2234 0 
L 2234 256 
L 1933 275 
C 1638 294 1626 319 1626 879 
L 1626 3962 
z
" transform="scale(0.015625)"/>
       </defs>
       <use xlink:href="#PazoMath-Bold-47" transform="scale(0.996264)"/>
      </g>
     </g>
    </g>
    <g id="xtick_2">
     <g id="line2d_3">
      <path d="M 145.300973 222.188611 
L 145.300973 11.88 
" clip-path="url(#p3faee51616)" style="fill: none; stroke: #b0b0b0; stroke-opacity: 0.4; stroke-width: 0.8; stroke-linecap: square"/>
     </g>
     <g id="line2d_4">
      <g>
       <use xlink:href="#m3d917f6857" x="145.300973" y="222.188611" style="stroke: #000000; stroke-width: 0.8"/>
      </g>
     </g>
     <g id="text_2">
      <!-- $\mathbf{M}$ -->
      <g transform="translate(139.821521 237.02966)scale(0.11 -0.11)">
       <defs>
        <path id="URWPalladioL-Bold-4d" d="M 4749 3545 
L 4749 883 
C 4749 313 4742 300 4442 275 
L 4205 256 
L 4205 0 
C 4979 0 4979 0 5197 0 
C 5414 19 5421 19 6195 0 
L 6195 256 
L 5958 275 
C 5658 300 5651 313 5651 879 
L 5651 3472 
C 5651 4032 5670 4070 5958 4095 
L 6195 4115 
L 6195 4352 
C 5523 4332 5523 4332 5453 4332 
C 5382 4332 5382 4332 4717 4352 
C 4531 3911 4474 3778 4403 3631 
L 3232 1228 
L 2221 3326 
C 2144 3485 2016 3752 1741 4352 
L 973 4332 
C 870 4332 723 4339 531 4345 
C 435 4345 429 4345 205 4352 
L 205 4115 
L 442 4095 
C 730 4070 749 4032 749 3472 
L 749 879 
C 749 319 730 281 442 256 
L 205 236 
L 205 0 
C 819 0 819 0 941 0 
C 1069 19 1363 12 1670 0 
L 1670 236 
L 1434 256 
C 1146 281 1126 313 1126 883 
L 1126 3552 
L 2598 486 
C 2643 371 2714 217 2829 -64 
L 3046 -64 
C 3168 230 3194 294 3430 780 
L 4749 3545 
z
" transform="scale(0.015625)"/>
       </defs>
       <use xlink:href="#URWPalladioL-Bold-4d" transform="scale(0.996264)"/>
      </g>
     </g>
    </g>
    <g id="xtick_3">
     <g id="line2d_5">
      <path d="M 209.922602 222.188611 
L 209.922602 11.88 
" clip-path="url(#p3faee51616)" style="fill: none; stroke: #b0b0b0; stroke-opacity: 0.4; stroke-width: 0.8; stroke-linecap: square"/>
     </g>
     <g id="line2d_6">
      <g>
       <use xlink:href="#m3d917f6857" x="209.922602" y="222.188611" style="stroke: #000000; stroke-width: 0.8"/>
      </g>
     </g>
     <g id="text_3">
      <!-- $\mathbf{K}$ -->
      <g transform="translate(205.659642 237.02966)scale(0.11 -0.11)">
       <defs>
        <path id="URWPalladioL-Bold-4b" d="M 1696 2201 
L 1696 3472 
C 1696 4038 1702 4051 2003 4076 
L 2240 4095 
L 2240 4352 
C 1459 4332 1459 4332 1242 4332 
C 1024 4332 1018 4332 250 4352 
L 250 4095 
L 486 4076 
C 787 4051 794 4038 794 3472 
L 794 879 
C 794 313 787 300 486 275 
L 250 256 
L 250 0 
C 1024 0 1024 0 1242 0 
C 1459 19 1466 19 2240 0 
L 2240 256 
L 2003 275 
C 1702 300 1696 313 1696 883 
L 1696 2144 
C 1862 2048 1888 2022 2253 1593 
L 3584 0 
L 4237 0 
C 4282 0 4339 0 4666 -13 
C 4698 6 4774 6 4883 0 
L 4883 262 
C 4646 268 4499 351 4301 580 
L 2598 2570 
L 4019 3886 
C 4173 4025 4320 4070 4723 4102 
L 4723 4352 
C 4352 4339 4237 4332 4141 4332 
C 4045 4332 3930 4339 3558 4352 
L 3558 4191 
C 3558 4095 3526 4038 3392 3898 
C 3386 3886 3360 3854 3328 3822 
C 3168 3644 3014 3485 2957 3428 
L 1696 2201 
z
" transform="scale(0.015625)"/>
       </defs>
       <use xlink:href="#URWPalladioL-Bold-4b" transform="scale(0.996264)"/>
      </g>
     </g>
    </g>
    <g id="xtick_4">
     <g id="line2d_7">
      <path d="M 337.873426 222.188611 
L 337.873426 11.88 
" clip-path="url(#p3faee51616)" style="fill: none; stroke: #b0b0b0; stroke-opacity: 0.4; stroke-width: 0.8; stroke-linecap: square"/>
     </g>
     <g id="line2d_8">
      <g>
       <use xlink:href="#m3d917f6857" x="337.873426" y="222.188611" style="stroke: #000000; stroke-width: 0.8"/>
      </g>
     </g>
     <g id="text_4">
      <!-- $\mathbf{\Gamma}$ -->
      <g transform="translate(334.826852 237.02966)scale(0.11 -0.11)">
       <use xlink:href="#PazoMath-Bold-47" transform="scale(0.996264)"/>
      </g>
     </g>
    </g>
   </g>
   <g id="matplotlib.axis_2">
    <g id="ytick_1">
     <g id="line2d_9">
      <path d="M 33.37303 204.858194 
L 337.873426 204.858194 
" clip-path="url(#p3faee51616)" style="fill: none; stroke: #b0b0b0; stroke-opacity: 0.4; stroke-width: 0.8; stroke-linecap: square"/>
     </g>
     <g id="line2d_10">
      <defs>
       <path id="mf4bb6a4a71" d="M 0 0 
L -3.5 0 
" style="stroke: #000000; stroke-width: 0.8"/>
      </defs>
      <g>
       <use xlink:href="#mf4bb6a4a71" x="33.37303" y="204.858194" style="stroke: #000000; stroke-width: 0.8"/>
      </g>
     </g>
     <g id="text_5">
      <!-- $\mathdefault{−3}$ -->
      <g transform="translate(11.88 208.778718)scale(0.11 -0.11)">
       <defs>
        <path id="CMSY10-0" d="M 4218 1472 
C 4326 1472 4442 1472 4442 1600 
C 4442 1728 4326 1728 4218 1728 
L 755 1728 
C 646 1728 531 1728 531 1600 
C 531 1472 646 1472 755 1472 
L 4218 1472 
z
" transform="scale(0.015625)"/>
        <path id="URWPalladioL-Roma-33" d="M 275 3196 
L 474 3196 
L 589 3553 
C 659 3770 1062 3987 1395 3987 
C 1811 3987 2150 3649 2150 3247 
C 2150 2769 1773 2368 1318 2368 
C 1267 2368 1197 2374 1114 2380 
L 1018 2387 
L 941 2047 
L 986 2008 
C 1229 2118 1350 2150 1523 2150 
C 2054 2150 2362 1808 2362 1222 
C 2362 565 1971 134 1376 134 
C 1082 134 819 231 627 411 
C 474 553 390 701 269 1048 
L 96 984 
C 230 591 282 359 320 38 
C 659 -77 941 -128 1178 -128 
C 1690 -128 2278 160 2630 591 
C 2848 855 2957 1139 2957 1441 
C 2957 1750 2829 2021 2598 2182 
C 2438 2297 2291 2348 1971 2406 
C 2483 2801 2675 3094 2675 3470 
C 2675 4038 2202 4416 1491 4416 
C 1056 4416 768 4294 461 3987 
L 275 3196 
z
" transform="scale(0.015625)"/>
       </defs>
       <use xlink:href="#CMSY10-0" transform="scale(1.038107)"/>
       <use xlink:href="#URWPalladioL-Roma-33" transform="translate(81.941696 0)scale(0.996264)"/>
      </g>
     </g>
    </g>
    <g id="ytick_2">
     <g id="line2d_11">
      <path d="M 33.37303 175.583564 
L 337.873426 175.583564 
" clip-path="url(#p3faee51616)" style="fill: none; stroke: #b0b0b0; stroke-opacity: 0.4; stroke-width: 0.8; stroke-linecap: square"/>
     </g>
     <g id="line2d_12">
      <g>
       <use xlink:href="#mf4bb6a4a71" x="33.37303" y="175.583564" style="stroke: #000000; stroke-width: 0.8"/>
      </g>
     </g>
     <g id="text_6">
      <!-- $\mathdefault{−2}$ -->
      <g transform="translate(11.88 179.504089)scale(0.11 -0.11)">
       <defs>
        <path id="URWPalladioL-Roma-32" d="M 102 166 
L 102 0 
C 1299 0 1299 0 1530 0 
C 1760 19 1760 19 2995 0 
C 2982 134 2982 198 2982 287 
C 2982 370 2982 434 2995 574 
C 2259 542 1965 536 781 510 
L 1946 1741 
C 2566 2398 2758 2749 2758 3228 
C 2758 3961 2259 4416 1446 4416 
C 986 4416 672 4287 358 3967 
L 250 3100 
L 435 3100 
L 518 3394 
C 621 3763 851 3923 1280 3923 
C 1830 3923 2182 3578 2182 3036 
C 2182 2558 1914 2086 1190 1320 
L 102 166 
z
" transform="scale(0.015625)"/>
       </defs>
       <use xlink:href="#CMSY10-0" transform="scale(1.038107)"/>
       <use xlink:href="#URWPalladioL-Roma-32" transform="translate(81.941696 0)scale(0.996264)"/>
      </g>
     </g>
    </g>
    <g id="ytick_3">
     <g id="line2d_13">
      <path d="M 33.37303 146.308935 
L 337.873426 146.308935 
" clip-path="url(#p3faee51616)" style="fill: none; stroke: #b0b0b0; stroke-opacity: 0.4; stroke-width: 0.8; stroke-linecap: square"/>
     </g>
     <g id="line2d_14">
      <g>
       <use xlink:href="#mf4bb6a4a71" x="33.37303" y="146.308935" style="stroke: #000000; stroke-width: 0.8"/>
      </g>
     </g>
     <g id="text_7">
      <!-- $\mathdefault{−1}$ -->
      <g transform="translate(11.88 150.229459)scale(0.11 -0.11)">
       <defs>
        <path id="URWPalladioL-Roma-31" d="M 429 3571 
L 493 3571 
L 1318 3942 
C 1325 3949 1331 3949 1338 3949 
C 1376 3949 1389 3891 1389 3737 
L 1389 633 
C 1389 300 1318 230 973 211 
L 614 192 
L 614 0 
C 1600 0 1600 0 1670 0 
C 1754 0 1894 0 2112 -7 
C 2189 6 2413 6 2675 0 
L 2675 192 
L 2342 211 
C 1990 229 1926 299 1926 628 
L 1926 4383 
L 1837 4416 
C 1421 4199 966 4009 384 3807 
L 429 3571 
z
" transform="scale(0.015625)"/>
       </defs>
       <use xlink:href="#CMSY10-0" transform="scale(1.038107)"/>
       <use xlink:href="#URWPalladioL-Roma-31" transform="translate(81.941696 0)scale(0.996264)"/>
      </g>
     </g>
    </g>
    <g id="ytick_4">
     <g id="line2d_15">
      <path d="M 33.37303 117.034306 
L 337.873426 117.034306 
" clip-path="url(#p3faee51616)" style="fill: none; stroke: #b0b0b0; stroke-opacity: 0.4; stroke-width: 0.8; stroke-linecap: square"/>
     </g>
     <g id="line2d_16">
      <g>
       <use xlink:href="#mf4bb6a4a71" x="33.37303" y="117.034306" style="stroke: #000000; stroke-width: 0.8"/>
      </g>
     </g>
     <g id="text_8">
      <!-- $\mathdefault{0}$ -->
      <g transform="translate(20.893578 120.95483)scale(0.11 -0.11)">
       <defs>
        <path id="URWPalladioL-Roma-30" d="M 1683 4416 
C 691 4416 186 3628 186 2076 
C 186 1326 320 679 544 365 
C 768 51 1126 -128 1523 -128 
C 2490 -128 2976 704 2976 2345 
C 2976 3749 2560 4416 1683 4416 
z
M 1568 4191 
C 2189 4191 2438 3563 2438 2025 
C 2438 660 2195 96 1606 96 
C 986 96 723 743 723 2307 
C 723 3660 960 4191 1568 4191 
z
" transform="scale(0.015625)"/>
       </defs>
       <use xlink:href="#URWPalladioL-Roma-30" transform="scale(0.996264)"/>
      </g>
     </g>
    </g>
    <g id="ytick_5">
     <g id="line2d_17">
      <path d="M 33.37303 87.759676 
L 337.873426 87.759676 
" clip-path="url(#p3faee51616)" style="fill: none; stroke: #b0b0b0; stroke-opacity: 0.4; stroke-width: 0.8; stroke-linecap: square"/>
     </g>
     <g id="line2d_18">
      <g>
       <use xlink:href="#mf4bb6a4a71" x="33.37303" y="87.759676" style="stroke: #000000; stroke-width: 0.8"/>
      </g>
     </g>
     <g id="text_9">
      <!-- $\mathdefault{1}$ -->
      <g transform="translate(20.893578 91.680201)scale(0.11 -0.11)">
       <use xlink:href="#URWPalladioL-Roma-31" transform="scale(0.996264)"/>
      </g>
     </g>
    </g>
    <g id="ytick_6">
     <g id="line2d_19">
      <path d="M 33.37303 58.485047 
L 337.873426 58.485047 
" clip-path="url(#p3faee51616)" style="fill: none; stroke: #b0b0b0; stroke-opacity: 0.4; stroke-width: 0.8; stroke-linecap: square"/>
     </g>
     <g id="line2d_20">
      <g>
       <use xlink:href="#mf4bb6a4a71" x="33.37303" y="58.485047" style="stroke: #000000; stroke-width: 0.8"/>
      </g>
     </g>
     <g id="text_10">
      <!-- $\mathdefault{2}$ -->
      <g transform="translate(20.893578 62.405571)scale(0.11 -0.11)">
       <use xlink:href="#URWPalladioL-Roma-32" transform="scale(0.996264)"/>
      </g>
     </g>
    </g>
    <g id="ytick_7">
     <g id="line2d_21">
      <path d="M 33.37303 29.210417 
L 337.873426 29.210417 
" clip-path="url(#p3faee51616)" style="fill: none; stroke: #b0b0b0; stroke-opacity: 0.4; stroke-width: 0.8; stroke-linecap: square"/>
     </g>
     <g id="line2d_22">
      <g>
       <use xlink:href="#mf4bb6a4a71" x="33.37303" y="29.210417" style="stroke: #000000; stroke-width: 0.8"/>
      </g>
     </g>
     <g id="text_11">
      <!-- $\mathdefault{3}$ -->
      <g transform="translate(20.893578 33.130942)scale(0.11 -0.11)">
       <use xlink:href="#URWPalladioL-Roma-33" transform="scale(0.996264)"/>
      </g>
     </g>
    </g>
   </g>
   <g id="line2d_23">
    <path d="M 33.37303 206.469441 
L 36.730868 206.382798 
L 40.088706 206.123126 
L 43.446545 205.691197 
L 46.804383 205.088298 
L 51.281501 204.021684 
L 55.758618 202.660154 
L 60.235736 201.011165 
L 64.712854 199.083936 
L 69.189972 196.889533 
L 73.667089 194.440981 
L 78.144207 191.753432 
L 82.621325 188.844394 
L 88.217722 184.927689 
L 93.814119 180.743235 
L 100.529796 175.448766 
L 121.796105 158.366482 
L 126.273223 155.19512 
L 129.631061 153.0666 
L 132.9889 151.222681 
L 135.227458 150.185236 
L 137.466017 149.324869 
L 139.704576 148.660326 
L 141.943135 148.207502 
L 144.181694 147.978015 
L 151.11692 147.689727 
L 154.994218 147.22944 
L 158.871515 146.541324 
L 162.748813 145.628154 
L 166.626111 144.493619 
L 170.503408 143.142326 
L 174.380706 141.579798 
L 178.90422 139.498532 
L 183.427734 137.150501 
L 187.951248 134.549672 
L 192.474762 131.712749 
L 197.644492 128.209751 
L 204.752871 123.068498 
L 207.337737 121.267252 
L 208.630169 120.545085 
L 209.276385 120.313237 
L 209.922602 120.227773 
L 211.215034 120.552195 
L 212.507467 121.308298 
L 215.092332 123.260674 
L 220.262062 127.639669 
L 226.724225 133.431443 
L 235.771253 141.840594 
L 260.327472 164.855852 
L 268.082067 171.743804 
L 274.54423 177.202067 
L 281.006393 182.340072 
L 286.176123 186.181835 
L 291.345854 189.75544 
L 296.515584 193.035783 
L 301.685314 195.999824 
L 305.562612 198.002674 
L 309.439909 199.807936 
L 313.317207 201.408479 
L 317.194505 202.797981 
L 321.071803 203.970954 
L 324.9491 204.922766 
L 328.826398 205.649656 
L 332.703696 206.148755 
L 336.580993 206.418092 
L 337.873426 206.456602 
L 337.873426 206.456602 
" clip-path="url(#p3faee51616)" style="fill: none; stroke: #1f77b4; stroke-width: 1.5; stroke-linecap: square"/>
   </g>
   <g id="line2d_24">
    <path d="M 33.37303 203.275974 
L 36.730868 203.189331 
L 40.088706 202.929659 
L 43.446545 202.497729 
L 46.804383 201.894831 
L 51.281501 200.828217 
L 55.758618 199.466687 
L 60.235736 197.817697 
L 64.712854 195.890469 
L 69.189972 193.696066 
L 73.667089 191.247514 
L 78.144207 188.559965 
L 82.621325 185.650927 
L 88.217722 181.734222 
L 93.814119 177.549768 
L 100.529796 172.255299 
L 121.796105 155.173015 
L 126.273223 152.001653 
L 129.631061 149.873133 
L 132.9889 148.029214 
L 135.227458 146.991769 
L 137.466017 146.131402 
L 139.704576 145.466858 
L 141.943135 145.014035 
L 144.181694 144.784548 
L 151.11692 144.49626 
L 154.994218 144.035973 
L 158.871515 143.347857 
L 162.748813 142.434687 
L 166.626111 141.300152 
L 170.503408 139.948859 
L 174.380706 138.38633 
L 178.90422 136.305065 
L 183.427734 133.957034 
L 187.951248 131.356205 
L 192.474762 128.519282 
L 197.644492 125.016284 
L 204.752871 119.87503 
L 207.337737 118.073785 
L 208.630169 117.351618 
L 209.276385 117.11977 
L 209.922602 117.034306 
L 211.215034 117.358728 
L 212.507467 118.114831 
L 215.092332 120.067206 
L 220.262062 124.446202 
L 226.724225 130.237976 
L 235.771253 138.647127 
L 260.327472 161.662385 
L 268.082067 168.550337 
L 274.54423 174.008599 
L 281.006393 179.146605 
L 286.176123 182.988367 
L 291.345854 186.561973 
L 296.515584 189.842316 
L 301.685314 192.806357 
L 305.562612 194.809207 
L 309.439909 196.614469 
L 313.317207 198.215012 
L 317.194505 199.604514 
L 321.071803 200.777487 
L 324.9491 201.729299 
L 328.826398 202.456189 
L 332.703696 202.955288 
L 336.580993 203.224625 
L 337.873426 203.263135 
L 337.873426 203.263135 
" clip-path="url(#p3faee51616)" style="fill: none; stroke: #1f77b4; stroke-width: 1.5; stroke-linecap: square"/>
   </g>
   <g id="line2d_25">
    <path d="M 33.37303 30.792637 
L 36.730868 30.87928 
L 40.088706 31.138952 
L 43.446545 31.570882 
L 46.804383 32.173781 
L 51.281501 33.240394 
L 55.758618 34.601924 
L 60.235736 36.250914 
L 64.712854 38.178142 
L 69.189972 40.372545 
L 73.667089 42.821097 
L 78.144207 45.508647 
L 82.621325 48.417684 
L 88.217722 52.334389 
L 93.814119 56.518843 
L 100.529796 61.813312 
L 121.796105 78.895597 
L 126.273223 82.066958 
L 129.631061 84.195478 
L 132.9889 86.039397 
L 135.227458 87.076842 
L 137.466017 87.937209 
L 139.704576 88.601753 
L 141.943135 89.054577 
L 144.181694 89.284063 
L 151.11692 89.572351 
L 154.994218 90.032638 
L 158.871515 90.720754 
L 162.748813 91.633925 
L 166.626111 92.768459 
L 170.503408 94.119752 
L 174.380706 95.682281 
L 178.90422 97.763546 
L 183.427734 100.111577 
L 187.951248 102.712406 
L 192.474762 105.549329 
L 197.644492 109.052327 
L 204.752871 114.193581 
L 207.337737 115.994826 
L 208.630169 116.716993 
L 209.276385 116.948842 
L 209.922602 117.034306 
L 211.215034 116.709883 
L 212.507467 115.95378 
L 215.092332 114.001405 
L 220.262062 109.622409 
L 226.724225 103.830635 
L 235.771253 95.421484 
L 260.327472 72.406226 
L 268.082067 65.518274 
L 274.54423 60.060012 
L 281.006393 54.922006 
L 286.176123 51.080244 
L 291.345854 47.506638 
L 296.515584 44.226296 
L 301.685314 41.262254 
L 305.562612 39.259404 
L 309.439909 37.454142 
L 313.317207 35.853599 
L 317.194505 34.464097 
L 321.071803 33.291124 
L 324.9491 32.339313 
L 328.826398 31.612422 
L 332.703696 31.113323 
L 336.580993 30.843986 
L 337.873426 30.805476 
L 337.873426 30.805476 
" clip-path="url(#p3faee51616)" style="fill: none; stroke: #1f77b4; stroke-width: 1.5; stroke-linecap: square"/>
   </g>
   <g id="line2d_26">
    <path d="M 33.37303 27.59917 
L 36.730868 27.685813 
L 40.088706 27.945485 
L 43.446545 28.377415 
L 46.804383 28.980313 
L 51.281501 30.046927 
L 55.758618 31.408457 
L 60.235736 33.057447 
L 64.712854 34.984675 
L 69.189972 37.179078 
L 73.667089 39.62763 
L 78.144207 42.31518 
L 82.621325 45.224217 
L 88.217722 49.140922 
L 93.814119 53.325376 
L 100.529796 58.619845 
L 121.796105 75.702129 
L 126.273223 78.873491 
L 129.631061 81.002011 
L 132.9889 82.84593 
L 135.227458 83.883375 
L 137.466017 84.743742 
L 139.704576 85.408286 
L 141.943135 85.861109 
L 144.181694 86.090596 
L 151.11692 86.378884 
L 154.994218 86.839171 
L 158.871515 87.527287 
L 162.748813 88.440457 
L 166.626111 89.574992 
L 170.503408 90.926285 
L 174.380706 92.488814 
L 178.90422 94.570079 
L 183.427734 96.91811 
L 187.951248 99.518939 
L 192.474762 102.355862 
L 197.644492 105.85886 
L 204.752871 111.000114 
L 207.337737 112.801359 
L 208.630169 113.523526 
L 209.276385 113.755374 
L 209.922602 113.840838 
L 211.215034 113.516416 
L 212.507467 112.760313 
L 215.092332 110.807938 
L 220.262062 106.428942 
L 226.724225 100.637168 
L 235.771253 92.228017 
L 260.327472 69.212759 
L 268.082067 62.324807 
L 274.54423 56.866545 
L 281.006393 51.728539 
L 286.176123 47.886777 
L 291.345854 44.313171 
L 296.515584 41.032828 
L 301.685314 38.068787 
L 305.562612 36.065937 
L 309.439909 34.260675 
L 313.317207 32.660132 
L 317.194505 31.27063 
L 321.071803 30.097657 
L 324.9491 29.145845 
L 328.826398 28.418955 
L 332.703696 27.919856 
L 336.580993 27.650519 
L 337.873426 27.612009 
L 337.873426 27.612009 
" clip-path="url(#p3faee51616)" style="fill: none; stroke: #1f77b4; stroke-width: 1.5; stroke-linecap: square"/>
   </g>
   <g id="line2d_27">
    <path d="M 33.37303 212.629129 
L 36.730868 212.542484 
L 40.088706 212.282805 
L 43.446545 211.850865 
L 46.804383 211.247951 
L 51.281501 210.181309 
L 55.758618 208.819741 
L 60.235736 207.170705 
L 64.712854 205.243417 
L 69.189972 203.048941 
L 73.667089 200.600301 
L 78.144207 197.912646 
L 82.621325 195.00348 
L 88.217722 191.086575 
L 93.814119 186.901868 
L 100.529796 181.607 
L 121.796105 164.522277 
L 126.273223 161.350089 
L 129.631061 159.220894 
L 132.9889 157.376291 
L 135.227458 156.338412 
L 137.466017 155.477655 
L 139.704576 154.812789 
L 141.943135 154.359734 
L 144.181694 154.130126 
L 151.11692 153.841683 
L 154.994218 153.381139 
L 158.871515 152.692618 
L 162.748813 151.778866 
L 166.626111 150.643531 
L 170.503408 149.291154 
L 174.380706 147.727155 
L 178.90422 145.643467 
L 183.427734 143.291814 
L 187.951248 140.685287 
L 192.474762 137.838672 
L 197.644492 134.313058 
L 202.814223 130.526116 
L 209.922602 125.270096 
L 211.215034 126.046073 
L 216.384765 130.354204 
L 222.846927 136.042928 
L 231.893955 144.349794 
L 248.695579 160.216353 
L 259.035039 169.835865 
L 266.789635 176.776711 
L 273.251798 182.292454 
L 279.71396 187.499528 
L 284.883691 191.404414 
L 290.053421 195.047673 
L 295.223151 198.403721 
L 300.392882 201.448997 
L 304.270179 203.516061 
L 308.147477 205.388079 
L 312.024775 207.057655 
L 315.902072 208.518198 
L 319.77937 209.76394 
L 323.656668 210.78996 
L 327.533965 211.592208 
L 331.411263 212.167516 
L 335.288561 212.513611 
L 337.873426 212.61629 
L 337.873426 212.61629 
" clip-path="url(#p3faee51616)" style="fill: none; stroke: #ff7f0e; stroke-width: 1.5; stroke-linecap: square"/>
   </g>
   <g id="line2d_28">
    <path d="M 33.37303 197.116505 
L 36.730868 197.029865 
L 40.088706 196.770201 
L 43.446545 196.338286 
L 46.804383 195.735407 
L 51.281501 194.66883 
L 55.758618 193.307349 
L 60.235736 191.658423 
L 64.712854 189.731273 
L 69.189972 187.536967 
L 73.667089 185.088534 
L 78.144207 182.401131 
L 82.621325 179.492272 
L 88.217722 175.575847 
L 93.814119 171.391758 
L 100.529796 166.097881 
L 121.796105 149.019654 
L 126.273223 145.849831 
L 129.631061 143.722629 
L 132.9889 141.880103 
L 135.227458 140.84357 
L 137.466017 139.984043 
L 139.704576 139.320208 
L 141.943135 138.867899 
L 144.181694 138.638685 
L 151.11692 138.35075 
L 154.994218 137.891052 
L 158.871515 137.203885 
L 162.748813 136.29211 
L 166.626111 135.159568 
L 170.503408 133.811112 
L 174.380706 132.252687 
L 178.90422 130.178869 
L 183.427734 127.843714 
L 187.951248 125.268138 
L 193.767195 121.677944 
L 197.644492 119.338066 
L 198.936925 118.774168 
L 199.583141 118.624496 
L 200.229357 118.607047 
L 200.875574 118.729288 
L 202.168006 119.288338 
L 204.106655 120.509478 
L 207.337737 122.881286 
L 209.276385 124.337867 
L 209.922602 124.625749 
L 211.215034 123.855513 
L 216.384765 119.804265 
L 217.677197 118.982437 
L 218.96963 118.597125 
L 220.262062 118.95361 
L 221.554495 119.788107 
L 224.13936 121.891363 
L 229.30909 126.511172 
L 238.356118 134.945444 
L 259.035039 154.330388 
L 266.789635 161.268782 
L 273.251798 166.783191 
L 279.71396 171.989322 
L 284.883691 175.893643 
L 290.053421 179.536459 
L 295.223151 182.892158 
L 300.392882 185.937155 
L 304.270179 188.00405 
L 308.147477 189.875924 
L 312.024775 191.545381 
L 315.902072 193.005826 
L 319.77937 194.251487 
L 323.656668 195.277444 
L 327.533965 196.079644 
L 331.411263 196.654918 
L 335.288561 197.000994 
L 337.873426 197.103667 
L 337.873426 197.103667 
" clip-path="url(#p3faee51616)" style="fill: none; stroke: #ff7f0e; stroke-width: 1.5; stroke-linecap: square"/>
   </g>
   <g id="line2d_29">
    <path d="M 33.37303 36.952106 
L 36.730868 37.038746 
L 40.088706 37.29841 
L 43.446545 37.730325 
L 46.804383 38.333204 
L 51.281501 39.399781 
L 55.758618 40.761262 
L 60.235736 42.410189 
L 64.712854 44.337338 
L 69.189972 46.531644 
L 73.667089 48.980077 
L 78.144207 51.667481 
L 82.621325 54.57634 
L 88.217722 58.492765 
L 93.814119 62.676853 
L 100.529796 67.97073 
L 121.796105 85.048957 
L 126.273223 88.21878 
L 129.631061 90.345982 
L 132.9889 92.188508 
L 135.227458 93.225041 
L 137.466017 94.084568 
L 139.704576 94.748403 
L 141.943135 95.200712 
L 144.181694 95.429926 
L 151.11692 95.717862 
L 154.994218 96.177559 
L 158.871515 96.864726 
L 162.748813 97.776501 
L 166.626111 98.909043 
L 170.503408 100.257499 
L 174.380706 101.815924 
L 178.90422 103.889742 
L 183.427734 106.224897 
L 187.951248 108.800473 
L 193.767195 112.390667 
L 197.644492 114.730545 
L 198.936925 115.294443 
L 199.583141 115.444115 
L 200.229357 115.461564 
L 200.875574 115.339323 
L 202.168006 114.780273 
L 204.106655 113.559133 
L 207.337737 111.187326 
L 209.276385 109.730744 
L 209.922602 109.442862 
L 211.215034 110.213098 
L 216.384765 114.264346 
L 217.677197 115.086174 
L 218.96963 115.471486 
L 220.262062 115.115001 
L 221.554495 114.280505 
L 224.13936 112.177248 
L 229.30909 107.557439 
L 238.356118 99.123167 
L 259.035039 79.738223 
L 266.789635 72.799829 
L 273.251798 67.28542 
L 279.71396 62.079289 
L 284.883691 58.174968 
L 290.053421 54.532152 
L 295.223151 51.176453 
L 300.392882 48.131456 
L 304.270179 46.064562 
L 308.147477 44.192687 
L 312.024775 42.52323 
L 315.902072 41.062786 
L 319.77937 39.817124 
L 323.656668 38.791167 
L 327.533965 37.988967 
L 331.411263 37.413693 
L 335.288561 37.067617 
L 337.873426 36.964944 
L 337.873426 36.964944 
" clip-path="url(#p3faee51616)" style="fill: none; stroke: #ff7f0e; stroke-width: 1.5; stroke-linecap: square"/>
   </g>
   <g id="line2d_30">
    <path d="M 33.37303 21.439482 
L 36.730868 21.526127 
L 40.088706 21.785806 
L 43.446545 22.217746 
L 46.804383 22.820661 
L 51.281501 23.887302 
L 55.758618 25.24887 
L 60.235736 26.897906 
L 64.712854 28.825194 
L 69.189972 31.01967 
L 73.667089 33.46831 
L 78.144207 36.155965 
L 82.621325 39.065131 
L 88.217722 42.982036 
L 93.814119 47.166743 
L 100.529796 52.461611 
L 121.796105 69.546334 
L 126.273223 72.718523 
L 129.631061 74.847718 
L 132.9889 76.692321 
L 135.227458 77.730199 
L 137.466017 78.590957 
L 139.704576 79.255823 
L 141.943135 79.708877 
L 144.181694 79.938485 
L 151.11692 80.226928 
L 154.994218 80.687472 
L 158.871515 81.375993 
L 162.748813 82.289745 
L 166.626111 83.42508 
L 170.503408 84.777457 
L 174.380706 86.341456 
L 178.90422 88.425144 
L 183.427734 90.776797 
L 187.951248 93.383325 
L 192.474762 96.229939 
L 197.644492 99.755553 
L 202.814223 103.542496 
L 209.922602 108.798515 
L 211.215034 108.022539 
L 216.384765 103.714407 
L 222.846927 98.025683 
L 231.893955 89.718818 
L 248.695579 73.852258 
L 259.035039 64.232746 
L 266.789635 57.2919 
L 273.251798 51.776158 
L 279.71396 46.569083 
L 284.883691 42.664197 
L 290.053421 39.020938 
L 295.223151 35.66489 
L 300.392882 32.619614 
L 304.270179 30.55255 
L 308.147477 28.680532 
L 312.024775 27.010956 
L 315.902072 25.550413 
L 319.77937 24.304672 
L 323.656668 23.278651 
L 327.533965 22.476403 
L 331.411263 21.901095 
L 335.288561 21.555 
L 337.873426 21.452321 
L 337.873426 21.452321 
" clip-path="url(#p3faee51616)" style="fill: none; stroke: #ff7f0e; stroke-width: 1.5; stroke-linecap: square"/>
   </g>
   <g id="patch_3">
    <path d="M 33.37303 222.188611 
L 33.37303 11.88 
" style="fill: none; stroke: #000000; stroke-width: 0.8; stroke-linejoin: miter; stroke-linecap: square"/>
   </g>
   <g id="patch_4">
    <path d="M 337.873426 222.188611 
L 337.873426 11.88 
" style="fill: none; stroke: #000000; stroke-width: 0.8; stroke-linejoin: miter; stroke-linecap: square"/>
   </g>
   <g id="patch_5">
    <path d="M 33.37303 222.188611 
L 337.873426 222.188611 
" style="fill: none; stroke: #000000; stroke-width: 0.8; stroke-linejoin: miter; stroke-linecap: square"/>
   </g>
   <g id="patch_6">
    <path d="M 33.37303 11.88 
L 337.873426 11.88 
" style="fill: none; stroke: #000000; stroke-width: 0.8; stroke-linejoin: miter; stroke-linecap: square"/>
   </g>
  </g>
 </g>
 <defs>
  <clipPath id="p3faee51616">
   <rect x="33.37303" y="11.88" width="304.500396" height="210.308611"/>
  </clipPath>
 </defs>
</svg>
